<?xml version="1.0" encoding="UTF-8" ?>
<!DOCTYPE svg PUBLIC "-//W3C//DTD SVG 1.1//EN" "http://www.w3.org/Graphics/SVG/1.1/DTD/svg11.dtd">
<svg width="500pt" height="500pt" viewBox="0 0 500 500" version="1.1" xmlns="http://www.w3.org/2000/svg">
<g id="#ffffffff">
<path fill="#ffffff" opacity="1.00" d=" M 280.42 146.36 C 293.61 137.63 312.87 139.47 323.78 151.09 C 338.34 147.65 355.70 154.43 361.49 168.81 C 372.71 169.05 383.10 178.04 384.83 189.14 C 385.63 193.83 384.27 198.69 381.46 202.49 C 375.73 210.24 366.04 215.39 356.27 214.23 C 348.14 201.63 335.16 192.29 320.60 188.70 C 305.34 184.75 288.62 187.15 275.03 195.10 C 268.98 187.59 261.32 181.45 252.75 177.05 C 256.76 173.10 261.99 170.15 267.71 169.84 C 267.14 160.40 272.57 151.33 280.42 146.36 Z" />
<path fill="#ffffff" opacity="1.00" d=" M 185.79 181.86 C 202.58 176.54 220.99 176.50 237.84 181.59 C 251.44 185.74 264.16 193.52 273.06 204.73 C 288.11 196.06 306.88 194.29 323.33 199.83 C 342.84 206.21 358.55 223.39 362.32 243.69 C 374.43 249.12 384.63 259.06 389.80 271.34 C 394.35 282.13 394.45 295.15 388.40 305.40 C 381.23 317.85 368.92 326.89 355.49 331.61 C 349.25 333.88 342.57 334.22 335.99 334.00 C 314.74 334.10 293.50 333.56 272.25 333.75 C 273.94 319.80 261.08 306.79 247.36 306.94 C 240.89 291.64 222.36 284.55 206.75 288.29 C 193.72 274.53 169.70 273.90 155.95 286.90 C 150.09 292.15 146.69 299.90 146.85 307.78 C 138.75 308.43 131.49 313.48 127.02 320.11 C 118.86 313.78 111.38 305.66 108.78 295.41 C 106.31 284.99 109.31 273.94 115.12 265.15 C 121.40 255.81 130.56 248.39 141.09 244.36 C 139.18 233.00 141.20 221.02 147.14 211.11 C 155.50 196.72 170.13 186.81 185.79 181.86 Z" />
<path fill="#ffffff" opacity="1.00" d=" M 161.73 290.74 C 174.95 281.31 194.83 283.00 206.06 294.85 C 220.70 291.38 237.94 298.30 243.84 312.65 C 257.40 312.73 270.00 326.53 266.65 340.15 C 263.57 349.75 254.00 356.70 244.17 357.97 C 214.78 358.05 185.38 357.96 155.98 358.01 C 151.46 358.13 147.05 356.78 143.04 354.80 C 136.55 351.53 130.23 346.28 128.48 338.91 C 126.43 326.51 137.64 314.64 149.69 313.65 C 149.59 304.60 154.24 295.80 161.73 290.74 Z" />
</g>
</svg>
