<?xml version="1.0" encoding="UTF-8"?>
<!DOCTYPE svg PUBLIC "-//W3C//DTD SVG 1.1//EN" "http://www.w3.org/Graphics/SVG/1.1/DTD/svg11.dtd">
<!-- Creator: CorelDRAW 2018 (64 Bit Versión de evaluación) -->
<svg xmlns="http://www.w3.org/2000/svg" xml:space="preserve" width="215.9mm" height="279.4mm" version="1.1" style="shape-rendering:geometricPrecision; text-rendering:geometricPrecision; image-rendering:optimizeQuality; fill-rule:evenodd; clip-rule:evenodd"
viewBox="0 0 21590 27940"
 xmlns:xlink="http://www.w3.org/1999/xlink">
 <defs>
  <style type="text/css">
   <![CDATA[
    .str0 {stroke:#FEFEFE;stroke-width:75;stroke-miterlimit:22.9256}
    .str1 {stroke:#FEFEFE;stroke-width:1000;stroke-miterlimit:22.9256}
    .fil1 {fill:none}
    .fil0 {fill:#FEFEFE}
   ]]>
  </style>
 </defs>
 <g id="Capa_x0020_1">
  <metadata id="CorelCorpID_0Corel-Layer"/>
  <path class="fil0 str0" d="M4453.4 11873.2c-902.49,456.64 -2497.15,-600.96 -1786.42,-1924.98 1961.97,-2337.91 4582.16,-4502.6 6959.84,-6736.58 833.35,-469.85 1642.79,-486.12 2429.94,-78.38l7093.86 6741.12c730.42,952.36 -196.16,2448.26 -1763.67,2038.02l78.39 2586.71c-1366.52,953.82 -2684.32,932.95 -3958.45,39.19 173.79,-5952.9 -6011.32,-4580.23 -5212.62,-39.19 -1226.64,905.27 -2366.71,860.98 -3847.38,68.8l6.51 -2694.71z"/>
  <path class="fil1 str1" d="M1310.18 12687c1349.61,144.13 2593.18,1647.25 4683.92,1541.24 2589.64,-311.68 3429.95,-1534.93 4702.43,-1455.37 1633.55,248.85 3556.09,1388.71 4900.65,1396.74 2141.13,-421.96 3030.01,-1566.37 4617.25,-1410.36"/>
  <path class="fil1 str1" d="M1146.03 14910.27c1349.61,144.13 2593.18,1647.25 4683.92,1541.24 2589.64,-311.68 3429.95,-1534.93 4702.43,-1455.37 1633.55,248.85 3556.09,1388.71 4900.65,1396.74 2141.13,-421.96 3030.01,-1566.37 4617.25,-1410.36"/>
  <path class="fil1 str1" d="M1114.34 16859.95c1349.61,144.13 2593.18,1647.25 4683.92,1541.24 2589.64,-311.68 3429.95,-1534.93 4702.43,-1455.37 1633.55,248.85 3556.09,1388.71 4900.65,1396.74 2141.13,-421.96 3030.01,-1566.37 4617.25,-1410.36"/>
 </g>
</svg>
