<?xml version="1.0" encoding="UTF-8"?>
<!DOCTYPE svg PUBLIC "-//W3C//DTD SVG 1.1//EN" "http://www.w3.org/Graphics/SVG/1.1/DTD/svg11.dtd">
<!-- Creator: CorelDRAW 2018 (64 Bit Versión de evaluación) -->
<svg xmlns="http://www.w3.org/2000/svg" xml:space="preserve" width="215.9mm" height="279.4mm" version="1.1" style="shape-rendering:geometricPrecision; text-rendering:geometricPrecision; image-rendering:optimizeQuality; fill-rule:evenodd; clip-rule:evenodd"
viewBox="0 0 21590 27940"
 xmlns:xlink="http://www.w3.org/1999/xlink">
 <defs>
  <style type="text/css">
   <![CDATA[
    .str2 {stroke:#FEFEFE;stroke-width:700;stroke-miterlimit:22.9256}
    .str0 {stroke:#FEFEFE;stroke-width:1000;stroke-miterlimit:22.9256}
    .str1 {stroke:#FEFEFE;stroke-width:20;stroke-miterlimit:22.9256}
    .fil0 {fill:none}
    .fil1 {fill:#FEFEFE}
   ]]>
  </style>
 </defs>
 <g id="Capa_x0020_1">
  <metadata id="CorelCorpID_0Corel-Layer"/>
  <path class="fil0 str0" d="M3908.06 13384.41c-172.32,-1410.17 807.31,-2646.78 3175,-2857.5 1283.34,-4819.79 7589,-4943.33 8307.93,529.16 1543.89,85.91 2327.85,1007.73 2460.62,2645.84"/>
  <path class="fil0 str0" d="M3590.56 14627.95l6852.72 -52.92c3363.73,-2453.68 -1709.02,-5521.79 -2037.3,-1217.08"/>
  <path class="fil0 str0" d="M3629.05 15929.56l5814.31 30.53c2920.62,1556.43 -1280.48,4356.38 -1632.89,1266.63"/>
  <circle class="fil1 str1" cx="14907.74" cy="17679.13" r="276.59"/>
  <path class="fil1 str1" d="M14920.7 17172.4c-231.52,-786.78 -643.12,-1601.03 -404.49,-2325.85 274.48,-437.03 548.95,-471.79 823.43,14.45 207.43,626.71 -87.78,1532.96 -418.94,2311.4z"/>
  <path class="fil0 str2" d="M14583.76 13311.65c229.37,-360.37 475.26,-375.31 707.86,14.45l2874.81 4709.48c262.41,391.26 193.01,593.98 -231.14,592.3l-5995.2 14.45c-349.51,-18.75 -446.79,-236.3 -260.03,-534.51l2903.7 -4796.17z"/>
 </g>
</svg>
