<?xml version="1.0" encoding="UTF-8"?>
<!DOCTYPE svg PUBLIC "-//W3C//DTD SVG 1.1//EN" "http://www.w3.org/Graphics/SVG/1.1/DTD/svg11.dtd">
<!-- Creator: CorelDRAW 2018 (64 Bit Versión de evaluación) -->
<svg xmlns="http://www.w3.org/2000/svg" xml:space="preserve" width="215.9mm" height="279.4mm" version="1.1" style="shape-rendering:geometricPrecision; text-rendering:geometricPrecision; image-rendering:optimizeQuality; fill-rule:evenodd; clip-rule:evenodd"
viewBox="0 0 21590 27940"
 xmlns:xlink="http://www.w3.org/1999/xlink">
 <defs>
  <style type="text/css">
   <![CDATA[
    .str3 {stroke:#FEFEFE;stroke-width:400;stroke-miterlimit:22.9256}
    .str2 {stroke:#FEFEFE;stroke-width:600;stroke-miterlimit:22.9256}
    .str0 {stroke:#FEFEFE;stroke-width:1000;stroke-miterlimit:22.9256}
    .str1 {stroke:#FEFEFE;stroke-width:20;stroke-miterlimit:22.9256}
    .fil0 {fill:none}
    .fil1 {fill:#FEFEFE}
   ]]>
  </style>
 </defs>
 <g id="Capa_x0020_1">
  <metadata id="CorelCorpID_0Corel-Layer"/>
  <path class="fil0 str0" d="M11835.64 11092.01c-6055.97,-4111.4 -8180.64,8106.63 -203.75,5602.79"/>
  <path class="fil1 str1" d="M8693.22 4550.95l35.75 2521.57c-11.11,778.9 1388.9,945.2 1567.44,21.99l10.02 -2672.16c-271.52,-760.82 -1483.31,-859.41 -1613.21,128.6z"/>
  <path class="fil1 str1" d="M3443.84 7992.88l1534.57 1817.26c457.81,578.55 1581.67,-387.14 1160.05,-1201.33l-1591.16 -1962.99c-653.79,-345.8 -1599.43,523.24 -1103.46,1347.06z"/>
  <path class="fil1 str1" d="M1664.29 14404.31l2213.14 23.79c683.06,32.59 864.77,-1557.9 59.39,-1784.89l-2344.07 -79.78c-674.43,289.82 -791.93,1667.63 71.54,1840.88z"/>
  <path class="fil1 str1" d="M4941.08 17662.06l-1594.36 1749.16c-507.59,521.84 340.27,1802.13 1054.66,1321.45l1722.23 -1813.69c303.27,-745.08 -459.71,-1822.33 -1182.53,-1256.92z"/>
  <path class="fil0 str2" d="M15641.76 10948.47c188.98,-3411.47 -3553.96,-3461.31 -3810.38,-716.49l32.56 6578.61c-5334.77,6737.43 8118,8609.73 4201.18,195.4"/>
  <circle class="fil1 str3" cx="13720.28" cy="19513.69" r="1449.24"/>
  <line class="fil0 str3" x1="13743.75" y1="9938.87" x2="13743.75" y2= "18699.5" />
  <line class="fil0 str3" x1="15022.97" y1="11711.9" x2="17693.49" y2= "11711.9" />
  <line class="fil0 str3" x1="14981.31" y1="12837.37" x2="19377.91" y2= "12837.37" />
  <line class="fil0 str3" x1="15043.8" y1="14016.25" x2="17714.33" y2= "14016.25" />
  <line class="fil0 str3" x1="15022.97" y1="16289.52" x2="17693.49" y2= "16289.52" />
  <line class="fil0 str3" x1="14985.86" y1="15182.22" x2="19382.45" y2= "15182.22" />
  <path class="fil1 str1" d="M8400.56 20144.63l35.75 2521.57c-11.11,778.9 1388.9,945.2 1567.44,21.99l10.02 -2672.16c-271.52,-760.82 -1483.31,-859.41 -1613.21,128.6z"/>
 </g>
</svg>
