<?xml version="1.0" encoding="UTF-8" ?>
<!DOCTYPE svg PUBLIC "-//W3C//DTD SVG 1.1//EN" "http://www.w3.org/Graphics/SVG/1.1/DTD/svg11.dtd">
<svg width="500pt" height="500pt" viewBox="0 0 500 500" version="1.1" xmlns="http://www.w3.org/2000/svg">
<g id="#ffffffff">
<path fill="#ffffff" opacity="1.00" d=" M 206.00 187.89 C 210.20 184.61 214.03 179.71 219.92 179.97 C 226.65 179.16 233.61 185.22 232.53 192.19 C 234.40 190.87 236.63 190.92 238.82 191.12 C 237.94 188.49 235.93 186.65 233.53 185.39 C 234.66 183.14 237.81 182.87 239.64 184.44 C 241.31 186.31 241.94 188.82 242.80 191.12 C 244.59 187.71 246.18 183.34 250.26 182.14 C 251.62 182.53 252.76 183.43 253.94 184.19 C 253.35 184.92 252.16 186.38 251.56 187.11 C 253.88 186.56 256.51 185.25 258.87 186.36 C 261.03 187.43 260.69 191.21 258.38 191.92 C 258.45 192.81 258.55 193.70 258.69 194.59 C 259.88 191.99 262.07 189.81 265.04 189.55 C 266.91 188.91 268.08 190.94 269.40 191.88 C 268.91 189.91 267.50 187.12 270.26 186.22 C 273.98 183.79 278.06 188.29 277.54 192.01 C 277.27 193.94 277.17 196.02 276.02 197.68 C 278.09 196.65 279.95 194.18 282.49 195.60 C 286.59 197.41 286.23 202.55 285.70 206.23 C 283.93 205.80 283.29 203.94 281.98 202.89 C 279.43 202.46 276.35 204.37 276.00 207.04 C 277.40 209.56 278.53 212.16 277.70 215.11 C 277.40 213.77 277.12 212.43 276.87 211.10 C 273.80 208.88 270.01 210.04 266.58 210.36 C 268.42 208.08 271.56 207.98 274.09 206.89 C 274.22 203.56 272.92 199.78 269.62 198.41 C 267.54 197.14 265.38 198.67 263.60 199.70 C 264.37 200.43 265.14 201.15 265.91 201.88 C 265.95 202.77 266.04 204.56 266.09 205.45 C 264.69 203.52 262.61 201.78 260.06 202.61 C 257.81 204.11 258.35 207.10 258.09 209.41 C 257.34 206.67 256.33 203.86 256.87 200.99 C 257.75 200.18 258.74 199.50 259.71 198.78 C 258.17 198.20 256.66 197.48 255.03 197.19 C 252.12 197.26 249.71 199.14 247.54 200.89 C 249.26 202.83 250.09 205.17 249.58 207.77 C 248.44 206.40 247.33 204.95 245.77 204.05 C 243.76 203.98 242.01 205.20 240.19 205.87 C 240.63 206.17 241.51 206.79 241.95 207.09 C 241.93 209.15 241.80 211.21 241.68 213.26 C 241.10 211.32 241.50 208.14 238.83 207.82 C 236.09 207.48 233.37 208.11 230.67 208.40 C 232.51 205.95 235.49 205.18 238.41 205.46 C 238.73 201.64 236.80 197.71 233.02 196.48 C 231.12 195.27 229.21 196.44 227.67 197.59 C 229.34 199.13 230.30 201.08 230.19 203.39 C 227.61 198.51 221.76 200.66 217.42 200.50 C 219.54 197.91 222.91 197.61 225.99 197.14 C 223.32 192.82 219.66 187.38 213.90 187.76 C 209.76 187.96 207.17 192.19 206.98 195.98 C 207.82 198.44 209.12 200.78 209.21 203.45 C 206.99 199.34 202.68 196.66 198.05 196.28 C 194.31 196.23 191.98 200.59 192.99 203.91 C 195.77 205.16 199.03 206.07 200.38 209.13 C 194.25 206.54 187.68 211.61 187.59 218.00 C 184.24 214.46 184.42 208.51 188.40 205.53 C 186.44 204.39 184.20 204.40 182.01 204.63 C 180.83 202.66 179.90 200.50 178.38 198.77 C 175.91 196.56 172.45 197.82 169.64 198.45 C 171.09 199.94 172.65 201.31 174.20 202.70 C 169.22 200.50 162.96 204.48 163.36 210.09 C 162.53 208.17 161.10 206.29 161.51 204.09 C 161.70 201.87 163.72 200.55 165.02 198.95 C 163.03 198.76 160.74 198.49 159.16 200.01 C 155.76 202.65 155.28 207.23 155.08 211.22 C 152.85 207.44 151.41 202.86 152.66 198.50 C 153.92 193.65 157.02 188.28 162.55 187.75 C 162.14 188.47 161.32 189.92 160.91 190.64 C 164.82 187.69 168.90 190.98 171.27 194.11 C 170.84 191.65 169.68 189.36 169.45 186.87 C 172.39 184.63 176.11 186.74 178.45 188.84 C 179.48 185.37 182.12 182.19 186.12 182.88 C 185.17 185.25 184.10 187.58 183.51 190.07 C 183.23 192.06 185.43 192.85 186.66 193.92 C 186.95 190.73 186.24 187.03 188.30 184.30 C 189.34 182.87 191.31 183.22 192.83 182.84 C 193.07 185.02 193.23 187.21 193.44 189.40 C 194.55 186.61 196.05 183.92 198.80 182.47 C 197.76 186.99 197.91 192.35 201.85 195.52 C 201.69 191.86 199.94 187.68 202.26 184.36 C 204.04 181.80 207.56 182.25 210.25 182.40 C 208.56 184.00 206.80 185.63 206.00 187.89 Z" />
<path fill="#ffffff" opacity="1.00" d=" M 142.97 216.95 C 142.71 212.77 146.55 210.07 150.00 208.73 C 149.25 211.66 147.66 214.80 149.01 217.82 C 150.32 222.03 154.36 225.19 158.87 224.63 C 157.97 220.19 162.27 217.73 165.75 216.47 C 163.38 221.15 163.77 227.38 168.71 230.27 C 167.16 226.82 167.46 223.18 169.07 219.84 C 169.87 222.30 170.49 225.35 173.15 226.50 C 175.14 225.94 174.56 223.63 175.15 222.11 C 176.24 219.22 179.09 217.48 181.80 216.31 C 181.25 219.12 179.65 221.98 180.57 224.90 C 181.38 228.90 185.44 231.60 189.40 231.52 C 190.63 234.69 193.49 236.89 196.81 237.51 C 196.39 233.24 197.35 228.21 201.97 226.73 C 199.99 231.58 200.88 239.14 207.08 240.14 C 204.39 242.59 200.86 241.35 198.20 239.63 C 196.25 240.11 193.93 241.64 192.08 240.10 C 190.26 238.82 188.30 237.64 185.97 237.99 C 183.02 238.34 180.87 236.01 179.00 234.11 C 175.98 234.55 173.01 233.04 170.04 233.86 C 167.40 234.54 164.48 234.38 162.18 232.82 C 159.26 231.18 159.17 227.48 157.33 225.00 C 155.07 226.23 152.50 227.59 149.84 226.81 C 145.31 226.10 142.30 221.38 142.97 216.95 Z" />
<path fill="#ffffff" opacity="1.00" d=" M 284.62 209.58 C 292.76 211.75 293.48 223.83 286.81 228.07 C 283.91 230.04 280.37 228.54 277.61 227.09 C 282.32 225.39 286.01 221.09 286.29 215.99 C 285.99 213.79 285.23 211.70 284.62 209.58 Z" />
<path fill="#ffffff" opacity="1.00" d=" M 205.20 215.09 C 206.23 212.41 208.95 211.12 211.49 210.25 C 210.53 213.20 208.94 216.47 210.36 219.56 C 211.69 223.34 215.76 224.81 219.16 226.18 C 216.63 227.35 213.86 228.92 210.99 228.00 C 205.61 226.70 202.58 219.99 205.20 215.09 Z" />
<path fill="#ffffff" opacity="1.00" d=" M 224.76 225.35 C 228.37 226.06 231.75 229.02 231.23 233.01 C 230.97 237.26 226.56 239.27 222.86 239.72 C 222.95 242.85 222.27 246.67 219.02 248.04 C 213.91 250.61 207.11 247.06 206.83 241.21 C 207.68 239.18 208.91 237.34 210.42 235.74 C 209.79 239.21 210.39 243.69 214.10 245.18 C 217.59 245.93 219.84 242.43 220.99 239.68 C 220.07 238.95 219.14 238.26 218.28 237.48 C 221.65 237.22 224.52 234.82 226.04 231.92 C 227.34 229.69 225.31 227.48 224.76 225.35 Z" />
<path fill="#ffffff" opacity="1.00" d=" M 226.96 242.07 C 229.93 243.10 232.73 245.05 233.81 248.12 C 235.91 252.89 232.55 258.52 227.85 260.11 C 224.92 261.42 222.03 259.52 219.31 258.58 C 223.82 257.82 227.39 254.26 228.58 249.91 C 229.56 247.19 227.63 244.61 226.96 242.07 Z" />
<path fill="#ffffff" opacity="1.00" d=" M 243.76 246.70 C 244.86 243.87 248.30 243.45 250.94 243.27 C 278.28 243.23 305.63 243.24 332.97 243.26 C 335.99 243.16 339.47 244.24 340.46 247.43 C 347.09 261.90 353.36 276.65 357.91 291.91 C 358.15 312.92 357.89 333.95 358.03 354.97 C 356.17 357.57 353.58 360.17 350.11 359.99 C 345.88 359.79 340.60 361.03 337.38 357.54 C 334.99 354.00 336.19 349.40 336.63 345.46 C 307.12 345.54 277.61 345.52 248.11 345.47 C 248.06 349.62 249.31 354.67 246.15 358.02 C 242.71 360.80 237.92 359.89 233.82 359.96 C 230.87 359.77 226.45 358.75 226.57 354.98 C 226.39 335.66 226.57 316.33 226.48 297.00 C 226.48 295.05 226.37 293.03 227.12 291.19 C 232.45 276.28 236.69 260.91 243.76 246.70 M 252.55 254.51 C 248.99 265.19 245.18 275.80 241.65 286.49 C 275.48 286.50 309.30 286.50 343.13 286.49 C 339.49 275.83 335.79 265.18 332.20 254.50 C 305.65 254.50 279.10 254.50 252.55 254.51 M 248.51 302.82 C 246.03 303.66 243.91 305.47 242.63 307.75 C 239.67 313.30 243.20 320.80 249.01 322.75 C 255.38 324.33 262.39 318.65 262.41 312.14 C 261.99 305.70 254.70 300.50 248.51 302.82 M 329.51 302.74 C 325.20 304.01 321.97 308.34 322.33 312.88 C 322.85 317.27 325.79 321.73 330.23 322.87 C 336.52 324.04 343.06 318.52 343.23 312.17 C 342.78 305.80 335.69 300.64 329.51 302.74 Z" />
<path fill="#ffffff" opacity="1.00" d=" M 205.09 252.17 C 206.05 250.42 208.04 249.84 209.73 249.06 C 209.16 250.82 207.63 252.67 208.46 254.62 C 209.59 257.50 212.50 258.93 215.24 259.90 C 213.51 260.47 211.80 261.54 209.92 261.34 C 205.68 261.22 202.66 255.75 205.09 252.17 Z" />
</g>
</svg>
