<?xml version="1.0" encoding="UTF-8" ?>
<!DOCTYPE svg PUBLIC "-//W3C//DTD SVG 1.1//EN" "http://www.w3.org/Graphics/SVG/1.1/DTD/svg11.dtd">
<svg width="500pt" height="500pt" viewBox="0 0 500 500" version="1.1" xmlns="http://www.w3.org/2000/svg">
<g id="#ffffffff">
<path fill="#ffffff" opacity="1.00" d=" M 231.68 142.10 C 232.59 142.10 234.41 142.10 235.32 142.10 C 235.33 143.93 235.35 145.76 235.36 147.59 C 234.43 147.59 232.57 147.59 231.64 147.59 C 231.65 145.76 231.67 143.93 231.68 142.10 Z" />
<path fill="#ffffff" opacity="1.00" d=" M 219.79 147.82 C 221.85 146.29 223.14 148.79 224.47 149.99 C 223.63 150.74 222.79 151.49 221.96 152.25 C 220.62 151.06 218.24 149.87 219.79 147.82 Z" />
<path fill="#ffffff" opacity="1.00" d=" M 242.55 149.97 C 243.42 149.07 244.26 148.15 245.20 147.33 C 246.84 147.03 247.58 148.42 247.89 149.77 C 246.92 150.64 245.96 151.52 245.00 152.39 C 244.19 151.56 243.37 150.76 242.55 149.97 Z" />
<path fill="#ffffff" opacity="1.00" d=" M 231.30 151.35 C 237.24 149.85 243.80 154.83 243.82 160.96 C 244.40 166.79 238.84 172.41 232.99 171.82 C 227.53 171.81 222.63 166.43 223.18 160.98 C 223.14 156.43 226.98 152.28 231.30 151.35 Z" />
<path fill="#ffffff" opacity="1.00" d=" M 253.24 154.19 C 258.24 154.67 263.50 155.40 267.69 158.40 C 271.09 160.77 273.03 164.85 273.22 168.94 C 273.33 210.47 273.15 252.00 273.31 293.52 C 282.50 300.73 288.61 312.17 288.03 324.00 C 288.33 344.17 268.91 361.35 249.07 360.02 C 233.19 360.14 218.92 348.02 214.86 332.96 C 213.49 328.41 214.11 323.61 214.00 318.93 C 214.61 308.75 220.50 299.42 228.50 293.31 C 228.49 257.15 228.50 220.98 228.50 184.81 C 229.43 184.72 231.31 184.52 232.25 184.43 C 232.25 221.60 232.26 258.78 232.24 295.96 C 219.37 303.72 214.43 321.38 220.09 335.06 C 224.80 347.55 237.63 356.46 251.03 356.27 C 267.07 356.21 281.98 343.20 283.64 327.14 C 285.48 315.10 279.47 302.85 269.53 296.08 C 269.45 254.72 269.53 213.36 269.49 172.00 C 269.35 168.90 269.16 165.44 266.93 163.05 C 263.70 159.29 258.44 158.55 253.78 158.14 C 253.64 157.16 253.38 155.18 253.24 154.19 Z" />
<path fill="#ffffff" opacity="1.00" d=" M 214.00 159.67 C 215.86 159.66 217.73 159.65 219.60 159.65 C 219.60 160.57 219.60 162.43 219.60 163.35 C 217.73 163.34 215.86 163.33 214.00 163.33 C 214.00 162.41 214.00 160.59 214.00 159.67 Z" />
<path fill="#ffffff" opacity="1.00" d=" M 247.41 159.65 C 249.27 159.65 251.13 159.67 253.00 159.67 C 253.00 160.59 253.00 162.41 253.00 163.33 C 251.13 163.33 249.26 163.34 247.40 163.35 C 247.40 162.42 247.40 160.57 247.41 159.65 Z" />
<path fill="#ffffff" opacity="1.00" d=" M 219.11 173.23 C 220.07 172.34 221.04 171.47 222.01 170.60 C 222.85 171.37 223.66 172.19 224.43 173.05 C 223.55 173.91 222.74 174.86 221.79 175.66 C 220.15 175.97 219.41 174.57 219.11 173.23 Z" />
<path fill="#ffffff" opacity="1.00" d=" M 245.05 170.50 C 245.85 171.47 246.66 172.43 247.44 173.43 C 248.54 173.30 249.64 173.17 250.75 173.04 L 249.41 172.29 C 251.70 170.02 255.13 171.33 257.98 170.98 C 260.54 171.00 265.50 170.36 264.74 174.39 C 258.93 174.71 253.10 174.22 247.31 174.79 C 245.56 177.04 243.92 174.19 242.56 173.10 C 243.40 172.25 244.23 171.38 245.05 170.50 Z" />
<path fill="#ffffff" opacity="1.00" d=" M 231.63 175.42 C 232.87 175.41 234.11 175.41 235.36 175.41 C 235.35 177.22 235.33 179.04 235.33 180.85 C 234.11 180.87 232.90 180.89 231.69 180.91 C 231.67 179.08 231.64 177.25 231.63 175.42 Z" />
<path fill="#ffffff" opacity="1.00" d=" M 250.84 181.33 C 250.08 176.80 255.42 178.16 258.13 177.92 C 260.64 177.88 266.28 177.26 264.29 181.47 C 259.81 181.47 255.32 181.64 250.84 181.33 Z" />
<path fill="#ffffff" opacity="1.00" d=" M 241.08 185.30 C 247.54 184.06 254.38 185.06 260.99 184.76 C 263.12 184.35 266.24 186.09 263.97 188.37 C 256.32 188.56 248.63 188.66 241.00 188.32 L 240.26 187.14 C 240.46 186.68 240.87 185.76 241.08 185.30 Z" />
<path fill="#ffffff" opacity="1.00" d=" M 251.17 191.98 C 255.10 191.67 259.06 191.59 262.99 191.89 C 264.95 192.51 265.28 193.58 263.97 195.12 C 259.67 195.40 255.35 195.29 251.05 195.11 C 251.08 194.33 251.14 192.76 251.17 191.98 Z" />
<path fill="#ffffff" opacity="1.00" d=" M 240.06 200.77 C 240.26 200.26 240.66 199.25 240.85 198.75 C 248.34 198.80 255.84 198.66 263.33 198.80 C 265.62 198.34 264.78 202.58 262.83 202.16 C 255.88 202.30 248.90 202.35 241.95 202.13 C 241.48 201.79 240.54 201.11 240.06 200.77 Z" />
<path fill="#ffffff" opacity="1.00" d=" M 250.91 205.96 C 254.79 204.70 258.96 205.33 262.97 205.33 C 264.72 205.84 265.45 207.20 264.08 208.68 C 259.80 208.87 255.51 208.71 251.22 208.73 C 251.15 208.04 250.99 206.65 250.91 205.96 Z" />
<path fill="#ffffff" opacity="1.00" d=" M 238.71 215.63 C 240.33 214.57 241.96 213.17 244.02 213.21 C 247.99 212.79 250.43 216.79 254.09 217.52 C 257.17 218.28 260.16 216.73 263.01 215.74 C 262.98 243.57 263.02 271.41 262.98 299.25 C 268.83 302.53 273.65 307.72 275.85 314.12 C 281.08 327.36 272.91 343.96 259.41 348.26 C 250.26 351.24 239.54 349.16 232.51 342.47 C 226.56 337.10 223.40 328.91 224.25 320.93 C 224.68 311.72 230.82 303.65 238.70 299.29 C 238.79 271.40 238.77 243.51 238.71 215.63 M 258.56 314.69 C 255.11 316.70 254.36 321.92 257.45 324.61 C 261.04 328.43 268.41 325.26 268.03 320.01 C 268.29 315.34 262.41 311.93 258.56 314.69 Z" />
</g>
</svg>
