<?xml version="1.0" encoding="UTF-8"?>
<!DOCTYPE svg PUBLIC "-//W3C//DTD SVG 1.1//EN" "http://www.w3.org/Graphics/SVG/1.1/DTD/svg11.dtd">
<!-- Creator: CorelDRAW 2018 (64 Bit Versión de evaluación) -->
<svg xmlns="http://www.w3.org/2000/svg" xml:space="preserve" width="215.9mm" height="279.4mm" version="1.1" style="shape-rendering:geometricPrecision; text-rendering:geometricPrecision; image-rendering:optimizeQuality; fill-rule:evenodd; clip-rule:evenodd"
viewBox="0 0 21590 27940"
 xmlns:xlink="http://www.w3.org/1999/xlink">
 <defs>
  <style type="text/css">
   <![CDATA[
    .str1 {stroke:#FEFEFE;stroke-width:200;stroke-miterlimit:22.9256}
    .str0 {stroke:#FEFEFE;stroke-width:400;stroke-miterlimit:22.9256}
    .str2 {stroke:#FEFEFE;stroke-width:20;stroke-miterlimit:22.9256}
    .fil0 {fill:none}
    .fil1 {fill:#FEFEFE}
   ]]>
  </style>
 </defs>
 <g id="Capa_x0020_1">
  <metadata id="CorelCorpID_0Corel-Layer"/>
  <path class="fil0 str0" d="M7007.78 8246.42c63.06,-669.47 315.47,-1149.55 869.86,-1327.67l2884.26 -1739.71c501.41,-261.72 1030.77,-299.78 1602.36,0l2746.91 1648.14c675.03,331.61 942.47,785.49 915.64,1327.68l-45.78 3616.77c-14.39,498.18 -229.83,835.55 -595.17,1052.98l-2975.82 1785.49c-549.38,480.65 -1098.76,453.16 -1648.14,91.56l-3067.39 -1922.84c-467.73,-169.61 -710.31,-596.57 -686.73,-1327.67l0 -3204.73z"/>
  <path class="fil0 str1" d="M9195.93 8617l1684.49 1026.5c515.8,235.11 999.2,207.04 1447.61,-105.29l1263.38 -842.25"/>
  <line class="fil0 str1" x1="11538.34" y1="9799.19" x2="11564.75" y2= "12749.29" />
  <path class="fil1 str2" d="M11065.06 9716.85c226.25,176.5 465.03,470.57 478.34,647.08 85.7,-220.43 245.26,-436.88 512.35,-649.43 -344.42,114.28 -675.3,120.31 -990.69,2.35z"/>
  <line class="fil0 str1" x1="11426.83" y1="6670.43" x2="10204.45" y2= "8448.43" />
  <line class="fil0 str1" x1="7796.74" y1="10448.68" x2="8537.57" y2= "12485.97" />
  <line class="fil0 str1" x1="13871.58" y1="10041.22" x2="13093.7" y2= "11967.39" />
  <line class="fil0 str1" x1="12204.7" y1="7077.89" x2="11537.95" y2= "8003.93" />
  <line class="fil0 str1" x1="8389.41" y1="10485.72" x2="8796.86" y2= "11337.68" />
  <line class="fil0 str1" x1="14501.28" y1="9707.84" x2="13278.91" y2= "12856.39" />
  <path class="fil0 str0" d="M1125.62 16345.36c63.06,-669.47 315.47,-1149.55 869.86,-1327.67l2884.26 -1739.71c501.41,-261.72 1030.77,-299.78 1602.36,0l2746.91 1648.14c675.03,331.61 942.47,785.49 915.64,1327.68l-45.78 3616.77c-14.39,498.18 -229.83,835.55 -595.17,1052.98l-2975.82 1785.49c-549.38,480.65 -1098.76,453.16 -1648.14,91.56l-3067.39 -1922.84c-467.73,-169.61 -710.31,-596.57 -686.73,-1327.67l0 -3204.73z"/>
  <path class="fil0 str1" d="M3313.77 16715.94l1684.49 1026.5c515.8,235.11 999.2,207.04 1447.61,-105.29l1263.38 -842.25"/>
  <line class="fil0 str1" x1="5656.18" y1="17898.13" x2="5682.59" y2= "20848.23" />
  <path class="fil1 str2" d="M5182.9 17815.79c226.25,176.5 465.03,470.57 478.34,647.08 85.7,-220.43 245.26,-436.88 512.35,-649.43 -344.42,114.28 -675.3,120.31 -990.69,2.35z"/>
  <line class="fil0 str1" x1="5544.67" y1="14769.37" x2="4322.29" y2= "16547.37" />
  <line class="fil0 str1" x1="1914.58" y1="18547.62" x2="2655.41" y2= "20584.91" />
  <line class="fil0 str1" x1="7989.42" y1="18140.16" x2="7211.54" y2= "20066.33" />
  <line class="fil0 str1" x1="6322.54" y1="15176.83" x2="5655.79" y2= "16102.87" />
  <line class="fil0 str1" x1="2507.25" y1="18584.66" x2="2914.7" y2= "19436.62" />
  <line class="fil0 str1" x1="8619.12" y1="17806.78" x2="7396.75" y2= "20955.33" />
  <path class="fil0 str0" d="M11521.65 17256.16c63.06,-669.47 315.47,-1149.55 869.86,-1327.67l2884.26 -1739.71c501.41,-261.72 1030.77,-299.78 1602.36,0l2746.91 1648.14c675.03,331.61 942.47,785.49 915.64,1327.68l-45.78 3616.77c-14.39,498.18 -229.83,835.55 -595.17,1052.98l-2975.82 1785.49c-549.38,480.65 -1098.76,453.16 -1648.14,91.56l-3067.39 -1922.84c-467.73,-169.61 -710.31,-596.57 -686.73,-1327.67l0 -3204.73z"/>
  <path class="fil0 str1" d="M13709.8 17626.74l1684.49 1026.5c515.8,235.11 999.2,207.04 1447.61,-105.29l1263.38 -842.25"/>
  <line class="fil0 str1" x1="16052.21" y1="18808.93" x2="16078.62" y2= "21759.03" />
  <path class="fil1 str2" d="M15578.93 18726.59c226.25,176.5 465.03,470.57 478.34,647.08 85.7,-220.43 245.26,-436.88 512.35,-649.43 -344.42,114.28 -675.3,120.31 -990.69,2.35z"/>
  <line class="fil0 str1" x1="15940.7" y1="15680.17" x2="14718.32" y2= "17458.17" />
  <line class="fil0 str1" x1="12310.61" y1="19458.42" x2="13051.44" y2= "21495.71" />
  <line class="fil0 str1" x1="18385.45" y1="19050.96" x2="17607.57" y2= "20977.13" />
  <line class="fil0 str1" x1="16718.57" y1="16087.63" x2="16051.82" y2= "17013.67" />
  <line class="fil0 str1" x1="12903.28" y1="19495.46" x2="13310.73" y2= "20347.42" />
  <line class="fil0 str1" x1="19015.15" y1="18717.58" x2="17792.78" y2= "21866.13" />
 </g>
</svg>
