<?xml version="1.0" encoding="UTF-8" ?>
<!DOCTYPE svg PUBLIC "-//W3C//DTD SVG 1.1//EN" "http://www.w3.org/Graphics/SVG/1.1/DTD/svg11.dtd">
<svg width="500pt" height="500pt" viewBox="0 0 500 500" version="1.1" xmlns="http://www.w3.org/2000/svg">
<g id="#ffffffff">
<path fill="#ffffff" opacity="1.00" d=" M 231.90 147.04 C 232.70 147.04 234.30 147.04 235.10 147.04 C 235.06 149.21 234.98 151.37 234.89 153.54 C 236.60 151.98 238.27 150.38 239.91 148.76 C 240.63 149.46 241.35 150.15 242.07 150.85 C 239.62 154.00 234.46 155.93 234.84 160.50 C 235.64 160.51 237.23 160.54 238.03 160.56 C 240.37 158.29 242.73 156.04 245.05 153.74 C 245.77 154.43 246.50 155.12 247.23 155.81 C 245.51 157.47 243.77 159.10 241.96 160.66 C 244.30 160.52 246.65 160.51 249.00 160.55 C 249.00 161.28 249.00 162.73 249.00 163.46 C 246.76 163.45 244.52 163.44 242.28 163.46 C 243.91 165.06 245.56 166.63 247.24 168.19 C 246.69 168.71 245.59 169.74 245.04 170.25 C 242.73 167.96 240.37 165.70 238.03 163.44 C 237.23 163.46 235.64 163.49 234.84 163.50 C 234.44 168.07 239.64 169.98 242.07 173.14 C 241.53 173.66 240.46 174.71 239.92 175.24 C 238.27 173.61 236.60 172.02 234.89 170.46 C 234.97 172.63 235.06 174.79 235.10 176.96 C 234.30 176.96 232.70 176.96 231.90 176.96 C 231.94 174.79 232.02 172.62 232.11 170.46 C 230.40 172.02 228.73 173.61 227.09 175.24 C 226.36 174.53 225.64 173.83 224.92 173.14 C 227.39 170.00 232.53 168.06 232.16 163.50 C 231.36 163.49 229.77 163.46 228.97 163.44 C 226.62 165.70 224.27 167.96 221.95 170.26 C 221.22 169.56 220.49 168.87 219.76 168.18 C 221.44 166.64 223.08 165.06 224.71 163.46 C 222.47 163.44 220.23 163.45 218.00 163.45 C 218.00 162.73 218.00 161.28 218.00 160.55 C 220.24 160.56 222.49 160.55 224.74 160.47 C 223.07 158.92 221.41 157.37 219.76 155.82 C 220.49 155.12 221.22 154.43 221.95 153.74 C 224.27 156.04 226.62 158.29 228.97 160.56 C 229.77 160.54 231.36 160.51 232.16 160.50 C 232.53 155.94 227.39 154.00 224.93 150.86 C 225.64 150.16 226.36 149.46 227.08 148.76 C 228.73 150.38 230.40 151.98 232.11 153.54 C 232.02 151.37 231.94 149.21 231.90 147.04 Z" />
<path fill="#ffffff" opacity="1.00" d=" M 253.24 154.19 C 258.25 154.68 263.52 155.41 267.72 158.42 C 271.39 160.99 273.31 165.52 273.26 169.93 C 273.25 211.10 273.23 252.27 273.27 293.43 C 282.42 300.71 288.62 312.10 288.03 323.97 C 288.25 339.43 276.80 353.47 262.37 358.19 C 250.16 362.26 235.57 359.86 226.04 350.95 C 219.69 344.98 214.75 336.94 214.02 328.11 C 214.09 323.07 213.48 317.89 214.97 312.99 C 217.04 305.11 222.08 298.25 228.50 293.32 C 228.49 257.15 228.51 220.99 228.49 184.82 C 229.43 184.72 231.30 184.52 232.24 184.42 C 232.26 221.60 232.24 258.77 232.25 295.95 C 218.01 304.51 213.72 324.88 221.93 339.02 C 228.64 351.49 243.92 358.88 257.81 355.43 C 267.81 353.16 276.66 346.15 280.91 336.79 C 285.22 327.51 284.93 316.14 279.84 307.23 C 277.30 302.77 273.58 299.11 269.51 296.04 C 269.49 255.04 269.50 214.05 269.50 173.05 C 269.42 169.63 269.39 165.75 266.94 163.07 C 263.71 159.31 258.46 158.52 253.79 158.17 C 253.60 156.84 253.42 155.51 253.24 154.19 Z" />
<path fill="#ffffff" opacity="1.00" d=" M 248.61 174.50 C 249.34 173.34 250.08 172.17 250.82 171.00 C 255.34 171.49 260.36 169.88 264.53 172.06 C 264.58 172.63 264.69 173.78 264.74 174.36 C 259.37 174.67 253.98 174.42 248.61 174.50 Z" />
<path fill="#ffffff" opacity="1.00" d=" M 250.86 181.31 C 250.84 179.89 251.03 177.79 253.00 178.07 C 256.37 177.91 259.78 177.77 263.15 178.12 C 264.85 178.20 265.24 180.34 264.07 181.38 C 259.67 181.61 255.26 181.60 250.86 181.31 Z" />
<path fill="#ffffff" opacity="1.00" d=" M 241.13 185.26 C 247.61 184.10 254.41 185.04 261.02 184.76 C 263.20 184.33 266.29 186.22 263.88 188.40 C 256.82 188.64 249.74 188.44 242.67 188.50 C 240.81 189.23 239.10 186.18 241.13 185.26 Z" />
<path fill="#ffffff" opacity="1.00" d=" M 251.15 192.04 C 255.08 191.59 259.07 191.62 263.02 191.90 C 264.97 192.54 265.27 193.61 263.94 195.13 C 259.65 195.37 255.35 195.32 251.06 195.09 C 251.08 194.33 251.12 192.81 251.15 192.04 Z" />
<path fill="#ffffff" opacity="1.00" d=" M 240.03 200.69 C 240.27 200.19 240.74 199.20 240.98 198.71 C 248.63 198.86 256.28 198.61 263.93 198.82 L 264.71 199.68 C 264.52 200.22 264.13 201.29 263.93 201.83 C 259.07 202.81 253.99 201.98 249.04 202.25 C 246.02 201.92 242.30 203.33 240.03 200.69 Z" />
<path fill="#ffffff" opacity="1.00" d=" M 250.94 205.98 C 254.47 204.66 258.31 205.40 261.99 205.26 C 263.93 205.10 265.91 206.97 264.09 208.69 C 259.80 208.86 255.49 208.71 251.20 208.72 C 251.13 208.04 251.01 206.67 250.94 205.98 Z" />
<path fill="#ffffff" opacity="1.00" d=" M 238.75 280.68 C 240.17 279.16 241.41 277.35 243.28 276.35 C 247.29 275.31 249.92 279.21 253.37 280.33 C 256.66 281.50 259.96 279.83 263.01 278.73 C 262.99 285.58 263.00 292.44 263.00 299.29 C 268.90 302.52 273.68 307.80 275.88 314.20 C 281.13 327.60 272.65 344.40 258.89 348.43 C 251.44 350.60 242.99 349.73 236.42 345.46 C 228.17 340.42 223.16 330.57 224.25 320.91 C 224.68 311.68 230.86 303.65 238.74 299.24 C 238.76 293.05 238.74 286.86 238.75 280.68 M 258.57 314.69 C 255.13 316.69 254.35 321.88 257.42 324.58 C 260.99 328.44 268.39 325.29 268.03 320.03 C 268.32 315.35 262.42 311.93 258.57 314.69 Z" />
</g>
</svg>
