<?xml version="1.0" encoding="UTF-8" ?>
<!DOCTYPE svg PUBLIC "-//W3C//DTD SVG 1.1//EN" "http://www.w3.org/Graphics/SVG/1.1/DTD/svg11.dtd">
<svg width="500pt" height="500pt" viewBox="0 0 500 500" version="1.1" xmlns="http://www.w3.org/2000/svg">
<g id="#ffffffff">
<path fill="#ffffff" opacity="1.00" d=" M 269.98 145.82 C 279.33 138.52 293.98 139.44 302.25 148.01 C 312.62 145.70 324.73 150.47 328.96 160.62 C 338.79 160.72 347.91 171.09 344.74 180.89 C 341.72 188.49 333.26 193.47 325.15 192.79 C 319.56 184.17 310.82 177.63 300.88 174.92 C 289.88 171.80 277.69 173.42 267.82 179.18 C 263.40 173.88 257.96 169.53 251.88 166.29 C 254.93 163.80 258.38 161.64 262.37 161.21 C 262.57 155.28 265.18 149.43 269.98 145.82 Z" />
<path fill="#ffffff" opacity="1.00" d=" M 181.20 185.20 C 191.52 172.75 208.11 166.70 224.01 166.98 C 239.90 166.92 256.27 173.29 266.41 185.84 C 278.54 178.93 294.05 178.27 306.62 184.40 C 318.26 189.77 326.92 200.84 329.51 213.39 C 339.00 217.71 346.84 225.91 349.87 235.99 C 352.29 243.80 351.15 252.68 346.31 259.36 C 339.66 268.51 329.35 275.28 318.08 276.91 C 300.66 277.12 283.22 276.94 265.79 277.00 C 267.05 267.02 257.92 258.12 248.23 257.90 C 243.55 247.16 230.51 242.27 219.50 244.88 C 210.42 235.16 193.56 234.79 183.90 243.85 C 179.79 247.56 177.34 253.00 177.46 258.56 C 171.70 259.11 166.68 262.68 163.38 267.29 C 156.92 262.43 151.12 255.65 150.05 247.38 C 148.56 232.45 159.87 218.91 173.30 213.84 C 171.41 203.72 174.56 192.99 181.20 185.20 Z" />
<path fill="#ffffff" opacity="1.00" d=" M 187.72 246.65 C 197.04 239.82 211.20 241.03 219.18 249.42 C 229.52 247.11 241.50 251.79 245.80 261.85 C 255.29 262.21 264.02 271.40 262.03 281.08 C 260.00 288.01 253.20 293.11 246.16 293.97 C 225.79 294.05 205.42 293.95 185.05 294.02 C 176.89 294.43 168.32 289.68 164.91 282.17 C 161.77 272.90 170.45 263.47 179.47 262.53 C 179.29 256.27 182.55 250.14 187.72 246.65 Z" />
<path fill="#ffffff" opacity="1.00" d=" M 156.45 307.40 C 158.15 304.45 159.55 301.28 161.78 298.69 C 165.63 305.68 169.88 312.55 172.48 320.13 C 174.41 326.24 169.35 332.82 163.12 333.23 C 157.81 333.99 151.98 330.45 151.08 324.99 C 150.29 318.64 153.82 312.90 156.45 307.40 Z" />
<path fill="#ffffff" opacity="1.00" d=" M 330.05 317.91 C 332.64 311.13 336.15 304.73 340.02 298.61 C 343.94 304.45 347.39 310.65 349.94 317.22 C 351.52 321.20 351.73 326.29 348.58 329.58 C 344.37 334.54 335.72 334.55 331.64 329.43 C 328.92 326.29 328.52 321.68 330.05 317.91 Z" />
<path fill="#ffffff" opacity="1.00" d=" M 251.31 299.71 C 255.52 306.48 259.95 313.33 262.18 321.06 C 263.86 326.72 259.79 332.97 254.03 333.96 C 247.29 335.94 239.67 330.03 240.49 322.91 C 241.94 314.35 247.44 307.29 251.31 299.71 Z" />
<path fill="#ffffff" opacity="1.00" d=" M 194.20 344.12 C 196.62 337.42 200.65 331.49 204.05 325.28 C 207.82 331.80 211.79 338.29 214.42 345.39 C 215.92 349.08 215.23 353.62 212.41 356.49 C 208.24 361.29 199.63 361.41 195.67 356.28 C 192.75 352.96 192.66 348.08 194.20 344.12 Z" />
<path fill="#ffffff" opacity="1.00" d=" M 284.34 344.90 C 286.65 337.60 290.93 331.16 294.65 324.53 C 298.79 330.36 302.29 336.68 304.80 343.38 C 306.20 347.04 306.29 351.56 303.79 354.78 C 299.96 359.90 291.47 360.64 286.94 356.06 C 284.13 353.19 283.01 348.73 284.34 344.90 Z" />
</g>
</svg>
