<?xml version="1.0" encoding="UTF-8"?>
<!DOCTYPE svg PUBLIC "-//W3C//DTD SVG 1.1//EN" "http://www.w3.org/Graphics/SVG/1.1/DTD/svg11.dtd">
<!-- Creator: CorelDRAW 2018 (64 Bit Versión de evaluación) -->
<svg xmlns="http://www.w3.org/2000/svg" xml:space="preserve" width="215.9mm" height="279.4mm" version="1.1" style="shape-rendering:geometricPrecision; text-rendering:geometricPrecision; image-rendering:optimizeQuality; fill-rule:evenodd; clip-rule:evenodd"
viewBox="0 0 21590 27940"
 xmlns:xlink="http://www.w3.org/1999/xlink">
 <defs>
  <style type="text/css">
   <![CDATA[
    .str2 {stroke:#FEFEFE;stroke-width:200;stroke-miterlimit:22.9256}
    .str1 {stroke:#FEFEFE;stroke-width:400;stroke-miterlimit:22.9256}
    .str0 {stroke:#FEFEFE;stroke-width:1000;stroke-miterlimit:22.9256}
    .fil0 {fill:none}
    .fil1 {fill:#FEFEFE}
   ]]>
  </style>
 </defs>
 <g id="Capa_x0020_1">
  <metadata id="CorelCorpID_0Corel-Layer"/>
  <path class="fil0 str0" d="M2582.09 14288.03c-206.79,-1692.2 968.77,-3176.14 3810,-3429 1540.01,-5783.75 9106.8,-5932 9969.51,634.99 1852.67,103.09 2793.43,1209.28 2952.75,3175.01"/>
  <g id="_1129399078832">
   <path class="fil0 str1" d="M13388.43 10206.18c-867,894.71 -1675.88,1855.3 -1808.25,2684.13 -146.29,2483.37 3764.76,2680.99 3560,0 -27.47,-744.78 -859.17,-1636.34 -1751.75,-2684.13z"/>
   <path class="fil0 str1" d="M12403.96 13035.06c36.89,987.88 516.62,1039.6 988.09,1027.62"/>
  </g>
  <path class="fil0 str2" d="M9135.95 12019.09c92.74,-1674.14 -1744.06,-1698.6 -1869.9,-351.61l15.98 3228.37c-2617.97,3306.31 3983.81,4225.12 2061.68,95.9"/>
  <circle class="fil1 str2" cx="8193" cy="16222.36" r="711.2"/>
  <line class="fil0 str2" x1="8204.52" y1="11523.64" x2="8204.52" y2= "15822.81" />
  <line class="fil0 str2" x1="8832.28" y1="12393.73" x2="10142.81" y2= "12393.73" />
  <line class="fil0 str2" x1="8811.84" y1="12946.05" x2="10969.42" y2= "12946.05" />
  <line class="fil0 str2" x1="8842.51" y1="13524.56" x2="10153.03" y2= "13524.56" />
  <line class="fil0 str2" x1="8832.28" y1="14640.14" x2="10142.81" y2= "14640.14" />
  <line class="fil0 str2" x1="8814.07" y1="14096.75" x2="10971.65" y2= "14096.75" />
  <g id="_1129399070288">
   <path class="fil0 str1" d="M16300.65 13643.44c-578,596.47 -1117.26,1236.86 -1205.5,1789.41 -97.53,1655.58 2509.83,1787.32 2373.32,0 -18.31,-496.52 -572.77,-1090.89 -1167.82,-1789.41z"/>
   <path class="fil0 str1" d="M15644.33 15529.36c24.6,658.58 344.41,693.06 658.73,685.07"/>
  </g>
 </g>
</svg>
