<?xml version="1.0" encoding="UTF-8"?>
<!DOCTYPE svg PUBLIC "-//W3C//DTD SVG 1.1//EN" "http://www.w3.org/Graphics/SVG/1.1/DTD/svg11.dtd">
<!-- Creator: CorelDRAW 2018 (64 Bit Versión de evaluación) -->
<svg xmlns="http://www.w3.org/2000/svg" xml:space="preserve" width="215.9mm" height="279.4mm" version="1.1" style="shape-rendering:geometricPrecision; text-rendering:geometricPrecision; image-rendering:optimizeQuality; fill-rule:evenodd; clip-rule:evenodd"
viewBox="0 0 21590 27940"
 xmlns:xlink="http://www.w3.org/1999/xlink">
 <defs>
  <style type="text/css">
   <![CDATA[
    .str0 {stroke:#FEFEFE;stroke-width:1000;stroke-miterlimit:22.9256}
    .str1 {stroke:#FEFEFE;stroke-width:20;stroke-miterlimit:22.9256}
    .fil0 {fill:#FEFEFE}
   ]]>
  </style>
 </defs>
 <g id="Capa_x0020_1">
  <metadata id="CorelCorpID_0Corel-Layer"/>
  <g id="_1094785091360">
   <polygon class="fil0 str0" points="8558.8,14531.26 9265.34,14939.17 9971.86,15347.09 9971.86,16162.92 9971.86,16978.75 9265.34,17386.67 8558.8,17794.59 7852.27,17386.67 7145.74,16978.75 7145.74,16162.92 7145.74,15347.09 7852.27,14939.17 "/>
   <path class="fil0 str1" d="M8066.71 14509.58l18.67 -1207.42 -1749.3 -1748.34c-195.78,-481.19 262.31,-991.46 776.07,-710.28l989.99 1053.97 0.33 -1425.24c98.79,-555.23 942.14,-540.05 1040.91,-25.63l1.95 1413.39 971.91 -963.04c468.97,-375.97 1041.86,264.54 725.64,712.01l-1701.61 1731.71 -11.13 1190.51 -1063.43 -21.64z"/>
   <path class="fil0 str1" d="M9746.44 14816.63l1063.23 -572.49 673.35 -2379.78c324.63,-405.57 993.5,-254.46 998.55,331.18l-437.41 1378.27 1244.46 -694.72c532.91,-184.51 930.92,559.18 529.97,896.27l-1233 690.92 1314.71 378.91c556.94,226.09 277.11,1038.58 -267.75,980.72l-2341.64 -641.13 -1044.8 570.82 -499.67 -938.97z"/>
   <path class="fil0 str1" d="M10263.46 16539.5l1046.94 601.77 2377.26 -682.2c515.76,62.09 739.92,710.15 244.9,1023.13l-1401.8 354.8 1246.33 691.34c437.7,355.61 15.51,1085.84 -482.29,922.8l-1237.07 -683.61 371 1316.97c101.44,592.45 -736.52,782.93 -974.54,289.41l-689.47 -2327.87 -1035.82 -586.98 534.56 -919.56z"/>
   <path class="fil0 str1" d="M9133.67 17814.45l-9.45 1207.52 1762.59 1734.94c199.44,479.68 -254.74,993.44 -770.63,716.18l-998 -1046.38 10.55 1425.19c-94.55,555.97 -938,547.23 -1040.7,33.58l-12.72 -1413.33 -964.54 970.42c-466.09,379.54 -1043.85,-256.57 -731.05,-706.44l1688.34 -1744.65 2.05 -1190.56 1063.56 13.53z"/>
   <path class="fil0 str1" d="M6878.82 15836.39l-1031.57 -627.73 -2393.56 622.58c-514.06,-74.96 -721.96,-728.42 -219.27,-1028.94l1410.23 -319.65 -1228.67 -722.27c-428.67,-366.44 11.64,-1085.89 505.2,-910.46l1219.61 714.31 -337.98 -1325.83c-86.6,-594.8 755.85,-764.28 981.47,-264.97l631.09 2344.37 1020.82 612.68 -557.37 905.91z"/>
   <path class="fil0 str1" d="M7430.07 17374.48l-1035.85 620.66 -563.49 2408.16c-305.68,420.03 -980.79,299.76 -1012.69,-285.03l373.73 -1396.88 -1211.28 751.07c-523.89,208.75 -955.59,-515.9 -570.53,-871.02l1200.02 -746.75 -1330.71 -318.21c-566.72,-200.3 -324.45,-1024.78 222.49,-991.96l2368.58 533.05 1017.51 -618.15 542.22 915.06z"/>
  </g>
  <g id="_1094785088960">
   <polygon class="fil0 str0" points="14480.29,7471.56 14916.81,7723.58 15353.32,7975.61 15353.32,8479.65 15353.32,8983.69 14916.81,9235.72 14480.29,9487.74 14043.77,9235.72 13607.26,8983.69 13607.26,8479.65 13607.26,7975.61 14043.77,7723.58 "/>
   <path class="fil0 str1" d="M14176.26 7458.16l11.54 -745.97 -1080.77 -1080.18c-120.96,-297.29 162.06,-612.56 479.48,-438.83l611.64 651.17 0.2 -880.55c61.04,-343.04 582.09,-333.66 643.11,-15.84l1.2 873.24 600.48 -595c289.74,-232.28 643.69,163.44 448.32,439.9l-1051.31 1069.9 -6.87 735.54 -657.02 -13.38z"/>
   <path class="fil0 str1" d="M15214.05 7647.87l656.89 -353.7 416.02 -1470.3c200.56,-250.57 613.81,-157.21 616.93,204.61l-270.24 851.54 768.86 -429.22c329.25,-113.99 575.15,345.48 327.43,553.74l-761.78 426.87 812.27 234.1c344.09,139.69 171.2,641.67 -165.43,605.92l-1446.73 -396.11 -645.51 352.68 -308.71 -580.13z"/>
   <path class="fil0 str1" d="M15533.48 8712.31l646.83 371.79 1468.74 -421.48c318.65,38.36 457.15,438.75 151.31,632.12l-866.08 219.2 770.02 427.13c270.42,219.71 9.58,670.87 -297.97,570.14l-764.3 -422.36 229.22 813.66c62.67,366.04 -455.05,483.72 -602.11,178.81l-425.97 -1438.22 -639.96 -362.66 330.27 -568.13z"/>
   <path class="fil0 str1" d="M14835.46 9500.01l-5.84 746.04 1088.98 1071.9c123.22,296.36 -157.39,613.77 -476.11,442.48l-616.6 -646.49 6.52 880.53c-58.42,343.49 -579.52,338.09 -642.97,20.74l-7.87 -873.2 -595.91 599.56c-287.97,234.49 -644.93,-158.52 -451.67,-436.46l1043.11 -1077.9 1.26 -735.56 657.1 8.36z"/>
   <path class="fil0 str1" d="M13442.35 8277.91l-637.34 -387.84 -1478.81 384.65c-317.6,-46.31 -446.04,-450.03 -135.47,-635.7l871.29 -197.49 -759.11 -446.24c-264.85,-226.4 7.18,-670.9 312.12,-562.51l753.51 441.32 -208.81 -819.14c-53.51,-367.48 466.99,-472.19 606.38,-163.7l389.9 1448.42 630.7 378.53 -344.36 559.7z"/>
   <path class="fil0 str1" d="M13782.92 9228.19l-639.97 383.45 -348.14 1487.84c-188.86,259.51 -605.96,185.2 -625.67,-176.1l230.9 -863.04 -748.36 464.04c-323.68,128.97 -590.39,-318.74 -352.49,-538.14l741.4 -461.37 -822.15 -196.59c-350.13,-123.76 -200.46,-633.15 137.46,-612.87l1463.38 329.33 628.65 -381.91 334.99 565.36z"/>
  </g>
  <g id="_1094785083712">
   <polygon class="fil0 str0" points="17106.37,14992.36 17437.24,15183.38 17768.1,15374.41 17768.1,15756.45 17768.1,16138.5 17437.24,16329.53 17106.37,16520.55 16775.51,16329.53 16444.65,16138.5 16444.65,15756.45 16444.65,15374.41 16775.51,15183.38 "/>
   <path class="fil0 str1" d="M16875.93 14982.2l8.74 -565.42 -819.18 -818.74c-91.69,-225.34 122.84,-464.29 363.42,-332.62l463.61 493.57 0.15 -667.43c46.27,-260.01 441.2,-252.9 487.46,-12l0.91 661.88 455.14 -450.98c219.61,-176.07 487.89,123.87 339.81,333.42l-796.85 810.95 -5.22 557.51 -497.99 -10.14z"/>
   <path class="fil0 str1" d="M17662.54 15126l497.9 -268.1 315.32 -1114.43c152.02,-189.93 465.25,-119.17 467.62,155.09l-204.84 645.43 582.77 -325.33c249.56,-86.41 435.94,261.86 248.19,419.71l-577.41 323.56 615.67 177.44c260.81,105.87 129.77,486.36 -125.39,459.26l-1096.57 -300.23 -489.27 267.31 -233.99 -439.71z"/>
   <path class="fil0 str1" d="M17904.65 15932.81l490.27 281.8 1113.26 -319.47c241.53,29.07 346.5,332.56 114.69,479.12l-656.46 166.15 583.65 323.75c204.97,166.54 7.26,508.49 -225.85,432.15l-579.32 -320.14 173.74 616.73c47.5,277.44 -344.9,366.64 -456.37,135.53l-322.87 -1090.12 -485.07 -274.88 250.33 -430.62z"/>
   <path class="fil0 str1" d="M17375.58 16529.85l-4.43 565.48 825.41 812.46c93.4,224.63 -119.29,465.22 -360.88,335.38l-467.36 -490.01 4.94 667.41c-44.27,260.35 -439.25,256.26 -487.35,15.72l-5.96 -661.86 -451.68 454.45c-218.27,177.74 -488.83,-120.15 -342.35,-330.82l790.64 -817.01 0.96 -557.53 498.06 6.33z"/>
   <path class="fil0 str1" d="M16319.65 15603.54l-483.08 -293.96 -1120.89 291.55c-240.73,-35.1 -338.09,-341.11 -102.68,-481.84l660.4 -149.7 -575.38 -338.23c-200.74,-171.6 5.45,-508.51 236.59,-426.36l571.13 334.5 -158.28 -620.87c-40.55,-278.55 353.97,-357.91 459.62,-124.08l295.54 1097.84 478.04 286.92 -261.01 424.23z"/>
   <path class="fil0 str1" d="M16577.79 16323.82l-485.08 290.65 -263.88 1127.72c-143.15,196.7 -459.29,140.38 -474.23,-133.47l175.01 -654.15 -567.23 351.72c-245.34,97.75 -447.5,-241.59 -267.18,-407.89l561.96 -349.7 -623.16 -149.02c-265.39,-93.8 -151.94,-479.9 104.19,-464.53l1109.19 249.63 476.5 -289.48 253.91 428.52z"/>
  </g>
 </g>
</svg>
