<?xml version="1.0" encoding="UTF-8"?>
<!DOCTYPE svg PUBLIC "-//W3C//DTD SVG 1.1//EN" "http://www.w3.org/Graphics/SVG/1.1/DTD/svg11.dtd">
<!-- Creator: CorelDRAW 2018 (64 Bit Versión de evaluación) -->
<svg xmlns="http://www.w3.org/2000/svg" xml:space="preserve" width="215.9mm" height="279.4mm" version="1.1" style="shape-rendering:geometricPrecision; text-rendering:geometricPrecision; image-rendering:optimizeQuality; fill-rule:evenodd; clip-rule:evenodd"
viewBox="0 0 21590 27940"
 xmlns:xlink="http://www.w3.org/1999/xlink">
 <defs>
  <style type="text/css">
   <![CDATA[
    .str0 {stroke:#FEFEFE;stroke-width:1000;stroke-miterlimit:22.9256}
    .str1 {stroke:#FEFEFE;stroke-width:20;stroke-miterlimit:22.9256}
    .fil0 {fill:#FEFEFE}
   ]]>
  </style>
 </defs>
 <g id="Capa_x0020_1">
  <metadata id="CorelCorpID_0Corel-Layer"/>
  <polygon class="fil0 str0" points="10680.51,11674.98 11689.84,12257.72 12699.17,12840.46 12699.17,14005.93 12699.17,15171.4 11689.84,15754.15 10680.51,16336.88 9671.17,15754.15 8661.85,15171.4 8661.85,14005.93 8661.85,12840.46 9671.17,12257.72 "/>
  <path class="fil0 str1" d="M9977.52 11644.01l26.67 -1724.88 -2499 -2497.63c-279.69,-687.41 374.73,-1416.38 1108.67,-1014.69l1414.27 1505.68 0.47 -2036.06c141.13,-793.18 1345.92,-771.5 1487.02,-36.62l2.78 2019.13 1388.44 -1375.76c669.96,-537.11 1488.38,377.9 1036.64,1017.14l-2430.88 2473.88 -15.9 1700.73 -1519.18 -30.92z"/>
  <path class="fil0 str1" d="M12377.14 12082.66l1518.89 -817.84 961.93 -3399.69c463.75,-579.38 1419.29,-363.52 1426.5,473.11l-624.87 1968.96 1777.79 -992.46c761.31,-263.58 1329.89,798.83 757.11,1280.38l-1761.43 987.04 1878.16 541.29c795.62,322.99 395.87,1483.7 -382.5,1401.03l-3345.2 -915.9 -1492.57 815.47 -713.81 -1341.39z"/>
  <path class="fil0 str1" d="M13115.73 14543.91l1495.63 859.66 3396.08 -974.57c736.81,88.7 1057.04,1014.5 349.87,1461.62l-2002.58 506.85 1780.47 987.62c625.28,508.03 22.16,1551.21 -688.98,1318.3l-1767.25 -976.59 530.01 1881.38c144.9,846.37 -1052.18,1118.48 -1392.21,413.44l-984.96 -3325.51 -1479.73 -838.55 763.65 -1313.65z"/>
  <path class="fil0 str1" d="M11501.74 16365.25l-13.5 1725.03 2517.99 2478.49c284.92,685.26 -363.92,1419.19 -1100.89,1023.12l-1425.73 -1494.84 15.07 2036c-135.07,794.24 -1339.99,781.75 -1486.7,47.97l-18.18 -2019.06 -1377.91 1386.32c-665.84,542.21 -1491.21,-366.53 -1044.36,-1009.2l2411.92 -2492.35 2.92 -1700.81 1519.37 19.33z"/>
  <path class="fil0 str1" d="M8280.54 13539.46l-1473.68 -896.77 -3419.38 889.4c-734.36,-107.07 -1031.36,-1040.59 -313.23,-1469.9l2014.62 -456.65 -1755.25 -1031.81c-612.39,-523.49 16.62,-1551.27 721.71,-1300.66l1742.3 1020.45 -482.83 -1894.05c-123.71,-849.72 1079.79,-1091.83 1402.11,-378.52l901.55 3349.09 1458.31 875.26 -796.23 1294.16z"/>
  <path class="fil0 str1" d="M9068.03 15736.73l-1479.79 886.65 -804.98 3440.23c-436.69,600.05 -1401.12,428.24 -1446.7,-407.19l533.9 -1995.54 -1730.4 1072.96c-748.42,298.22 -1365.12,-736.99 -815.04,-1244.31l1714.31 -1066.79 -1901.02 -454.58c-809.59,-286.15 -463.5,-1463.97 317.85,-1417.09l3383.68 761.5 1453.6 -883.07 774.59 1307.23z"/>
 </g>
</svg>
