<?xml version="1.0" encoding="UTF-8" ?>
<!DOCTYPE svg PUBLIC "-//W3C//DTD SVG 1.1//EN" "http://www.w3.org/Graphics/SVG/1.1/DTD/svg11.dtd">
<svg width="500pt" height="500pt" viewBox="0 0 500 500" version="1.1" xmlns="http://www.w3.org/2000/svg">
<g id="#ffffffff">
<path fill="#ffffff" opacity="1.00" d=" M 268.47 150.35 C 277.28 141.45 293.39 141.84 301.94 150.96 C 312.24 148.58 324.12 153.39 328.33 163.43 C 338.41 163.31 347.72 174.75 343.41 184.46 C 339.93 191.27 332.12 195.84 324.43 195.00 C 318.75 186.01 309.43 179.45 299.07 177.07 C 288.62 174.53 277.33 176.33 268.00 181.62 C 263.71 176.43 258.40 172.21 252.50 168.99 C 255.35 166.25 258.96 164.42 262.87 163.82 C 262.82 158.81 264.79 153.80 268.47 150.35 Z" />
<path fill="#ffffff" opacity="1.00" d=" M 181.76 188.81 C 190.80 177.04 205.50 170.65 220.08 169.72 C 237.26 168.47 255.73 174.54 266.71 188.27 C 278.38 181.47 293.32 180.88 305.59 186.45 C 317.32 191.67 326.26 202.68 328.74 215.32 C 337.68 219.50 345.32 227.00 348.51 236.46 C 351.26 244.34 350.51 253.54 345.58 260.42 C 337.85 271.38 324.65 279.09 311.00 278.26 C 296.02 278.11 281.03 278.54 266.07 277.98 C 267.22 268.28 258.26 259.37 248.74 259.40 C 244.29 248.88 231.49 243.83 220.73 246.47 C 213.55 239.34 202.14 236.92 192.77 240.83 C 184.90 243.74 178.91 251.38 178.95 259.93 C 173.29 260.57 168.44 264.09 165.13 268.60 C 158.70 263.50 152.59 256.64 152.01 248.07 C 150.96 233.60 162.04 220.80 174.99 215.82 C 173.20 206.37 175.88 196.36 181.76 188.81 Z" />
<path fill="#ffffff" opacity="1.00" d=" M 187.99 249.07 C 197.16 241.47 211.94 242.34 220.20 250.93 C 230.44 248.63 242.37 253.39 246.49 263.43 C 256.06 263.32 264.87 273.42 262.13 282.92 C 259.42 290.57 251.02 295.63 243.01 295.02 C 223.64 294.96 204.28 295.04 184.92 294.98 C 176.84 294.54 168.02 289.35 166.08 281.08 C 165.10 272.50 172.73 264.91 180.91 263.86 C 181.00 258.19 183.50 252.60 187.99 249.07 Z" />
<path fill="#ffffff" opacity="1.00" d=" M 163.40 299.40 C 167.28 305.72 170.80 312.30 173.66 319.16 C 175.37 322.91 174.53 327.70 171.44 330.49 C 167.48 334.64 160.26 334.68 156.06 330.86 C 152.79 328.02 152.22 323.14 153.56 319.20 C 155.81 312.14 159.54 305.68 163.40 299.40 Z" />
<path fill="#ffffff" opacity="1.00" d=" M 251.52 324.43 C 252.50 316.10 252.96 307.70 254.25 299.41 C 256.75 312.16 259.31 324.91 261.81 337.66 C 258.39 336.32 254.98 334.98 251.61 333.53 C 250.50 342.07 250.13 350.73 248.40 359.18 C 246.51 346.60 244.22 334.09 242.11 321.55 C 245.25 322.47 248.37 323.48 251.52 324.43 Z" />
<path fill="#ffffff" opacity="1.00" d=" M 279.73 318.45 C 282.17 311.68 286.01 305.55 289.61 299.36 C 293.63 305.21 297.19 311.44 299.60 318.13 C 300.92 321.57 301.03 325.76 298.80 328.86 C 295.25 334.07 286.93 335.15 282.33 330.74 C 278.89 327.72 278.15 322.61 279.73 318.45 Z" />
<path fill="#ffffff" opacity="1.00" d=" M 333.37 324.93 C 337.49 331.94 342.03 338.94 344.03 346.92 C 345.71 353.79 338.88 360.44 332.06 359.21 C 325.33 358.87 320.68 351.06 323.19 344.91 C 325.71 337.86 329.41 331.27 333.37 324.93 Z" />
<path fill="#ffffff" opacity="1.00" d=" M 194.77 347.09 C 196.78 339.33 201.43 332.61 205.36 325.73 C 209.10 333.08 214.15 339.94 216.11 348.07 C 217.35 354.44 211.28 360.55 204.97 360.04 C 198.37 360.44 193.13 353.33 194.77 347.09 Z" />
</g>
</svg>
