<?xml version="1.0" encoding="UTF-8" ?>
<!DOCTYPE svg PUBLIC "-//W3C//DTD SVG 1.1//EN" "http://www.w3.org/Graphics/SVG/1.1/DTD/svg11.dtd">
<svg width="500pt" height="500pt" viewBox="0 0 500 500" version="1.1" xmlns="http://www.w3.org/2000/svg">
<g id="#ffffffff">
<path fill="#ffffff" opacity="1.00" d=" M 166.98 183.91 C 184.94 179.17 203.64 180.00 222.03 180.03 C 230.68 180.62 239.36 179.78 247.99 180.66 C 278.08 183.08 308.50 185.46 337.54 194.21 C 342.78 195.96 348.47 197.44 352.56 201.38 C 354.73 203.10 354.60 206.82 352.12 208.22 C 347.14 211.65 340.88 212.10 335.15 213.50 C 335.83 215.29 336.63 217.06 337.07 218.94 C 336.70 223.59 332.29 226.38 328.51 228.26 C 323.95 230.72 318.09 231.26 314.98 235.86 C 317.93 238.29 321.08 240.63 323.21 243.88 C 324.38 245.82 324.72 248.15 325.89 250.11 C 328.85 251.58 332.44 251.67 335.18 253.72 C 340.62 256.82 344.71 262.64 344.59 269.02 C 343.61 273.25 340.87 276.76 339.00 280.62 C 342.53 283.40 343.93 288.70 341.79 292.74 C 340.05 296.56 336.66 299.20 333.58 301.88 C 337.79 303.90 343.27 306.56 343.29 311.99 C 342.80 318.36 335.77 320.64 331.01 323.31 C 333.79 325.71 336.39 328.55 337.54 332.11 C 336.87 336.44 331.71 337.27 329.09 340.14 C 326.19 343.18 322.06 344.40 318.15 345.54 C 317.52 345.04 316.89 344.54 316.27 344.05 C 317.93 343.96 319.12 343.06 319.81 341.33 C 321.97 341.19 324.30 341.36 326.26 340.27 C 327.97 339.55 328.20 337.50 329.16 336.13 C 330.46 335.06 331.99 334.31 333.28 333.24 C 331.14 334.14 329.31 335.70 327.02 336.26 C 324.32 335.89 321.70 334.80 319.82 332.77 C 320.64 332.41 322.28 331.68 323.10 331.31 C 320.11 331.10 317.04 331.16 314.14 330.31 C 312.41 330.10 311.70 327.27 313.41 326.53 C 314.61 325.96 315.91 325.63 317.18 325.25 C 313.19 325.17 308.85 325.56 305.24 323.54 C 303.49 322.66 304.02 319.74 305.86 319.26 C 309.22 319.28 312.52 320.11 315.89 320.16 C 321.12 320.06 326.27 318.88 331.22 317.28 C 325.83 317.88 320.53 319.67 315.04 318.88 C 310.58 318.25 305.53 318.06 301.99 314.93 C 300.59 313.61 301.25 311.74 301.99 310.28 C 308.89 310.41 315.93 309.38 322.13 306.21 C 314.85 308.52 306.85 309.93 299.43 307.47 C 296.62 306.53 294.57 304.27 293.26 301.70 C 302.71 300.24 312.95 300.63 321.33 295.33 C 310.75 299.48 298.75 300.56 287.82 297.14 C 286.12 296.69 284.74 295.57 284.69 293.69 C 296.21 294.20 307.94 291.87 318.02 286.17 C 322.61 283.49 326.83 279.62 328.58 274.47 C 330.64 268.40 329.35 260.85 324.25 256.66 C 320.68 253.49 315.89 252.60 311.38 251.67 C 309.98 250.51 307.96 249.06 309.11 247.01 C 310.62 243.94 307.62 241.14 308.14 238.15 C 310.03 235.13 312.47 231.82 311.15 228.06 C 313.00 226.63 315.01 225.44 316.94 224.13 C 319.09 222.66 319.38 219.84 320.27 217.59 C 324.95 215.78 328.94 212.44 330.62 207.59 C 333.79 205.96 337.82 202.25 335.58 198.41 C 332.37 193.93 326.56 192.68 321.55 191.31 C 304.66 187.56 287.26 187.63 270.11 186.11 C 251.75 185.36 233.39 184.88 215.03 184.25 C 208.96 184.86 202.53 183.87 196.82 186.45 C 204.38 184.39 212.27 185.42 219.98 185.65 C 248.15 187.51 276.22 190.76 304.22 194.26 C 312.41 195.55 321.16 196.35 328.19 201.17 C 318.27 205.25 307.35 203.68 296.94 204.88 C 273.81 204.97 250.77 202.19 227.88 199.08 C 224.20 198.77 220.72 197.26 216.99 197.50 C 242.94 203.63 269.42 207.19 295.95 209.67 C 304.67 209.75 313.38 210.03 322.10 210.07 C 312.88 214.95 302.24 215.87 292.03 216.74 C 277.83 216.59 263.58 217.33 249.43 215.81 C 232.58 214.24 215.83 211.85 199.06 209.65 C 193.30 208.92 187.59 207.85 181.95 206.53 C 177.97 205.58 173.96 204.11 171.06 201.11 C 171.25 202.28 171.97 203.26 173.07 203.73 L 173.74 203.94 C 175.51 204.86 177.26 205.88 179.21 206.39 C 200.21 212.25 221.91 214.87 243.45 217.81 C 254.66 218.72 265.80 220.34 277.03 221.00 C 288.65 220.79 300.38 221.82 311.86 219.46 C 312.09 219.66 312.56 220.06 312.80 220.27 C 296.71 228.14 278.46 228.52 260.98 230.22 C 243.68 230.31 226.37 230.20 209.06 230.28 C 198.88 229.20 188.83 227.02 179.00 224.19 C 183.59 226.50 188.65 227.14 193.61 228.29 C 206.89 230.96 220.46 231.55 233.91 232.95 C 248.32 233.05 262.73 233.01 277.14 232.97 C 286.86 232.13 296.46 230.23 306.19 229.41 C 306.22 230.30 306.27 232.08 306.29 232.96 C 302.54 236.60 297.87 239.23 292.87 240.72 C 274.87 246.81 255.84 248.53 237.08 250.73 C 229.78 251.71 222.40 252.06 215.10 253.04 C 208.96 254.24 203.00 251.56 196.90 251.22 C 203.36 253.24 210.22 254.01 216.97 253.49 C 239.36 252.72 261.78 251.06 283.89 247.32 C 290.49 246.01 297.29 244.88 303.26 241.61 C 304.72 243.35 305.73 245.84 304.05 247.82 C 300.21 252.50 294.18 254.57 288.73 256.76 C 276.82 261.19 264.33 263.70 251.82 265.69 C 270.44 264.68 289.64 262.07 305.93 252.35 C 308.86 255.39 310.91 259.65 310.18 263.95 C 309.56 267.68 306.89 270.70 303.85 272.76 C 298.57 276.39 292.20 277.91 285.98 279.01 C 282.42 279.56 278.67 279.64 275.22 278.54 C 275.25 278.75 275.31 279.16 275.34 279.37 C 283.62 279.77 292.24 279.97 300.17 277.13 C 305.39 275.28 310.14 271.51 312.26 266.29 C 313.62 263.11 313.42 259.59 313.78 256.23 C 320.17 257.67 326.98 262.84 326.54 270.03 C 326.67 275.33 323.10 279.78 319.08 282.82 C 311.49 288.50 302.18 291.38 292.96 293.06 C 288.74 293.94 284.45 293.10 280.32 292.18 C 281.10 293.93 281.66 295.78 282.57 297.47 C 284.47 299.04 286.99 299.54 289.06 300.84 C 290.50 302.20 290.82 304.40 292.34 305.72 C 294.30 307.43 296.64 308.60 298.93 309.80 C 297.80 313.43 299.96 316.75 303.05 318.50 C 300.16 323.17 306.13 325.65 309.78 326.32 C 309.78 327.03 309.77 328.43 309.77 329.14 C 311.91 331.05 314.69 331.81 317.44 332.41 C 319.15 336.29 323.48 336.94 327.23 337.38 C 323.88 339.64 319.72 341.60 315.63 340.32 C 316.08 340.78 317.00 341.70 317.46 342.16 C 313.89 344.48 309.43 343.06 306.14 340.95 C 304.63 340.19 304.89 338.25 304.66 336.87 C 301.82 338.90 298.00 340.82 298.93 345.07 C 296.85 348.26 293.07 349.71 290.94 352.84 C 292.97 351.47 294.73 349.07 297.51 349.64 C 297.48 347.34 299.90 345.60 302.05 346.61 C 300.43 345.05 299.18 342.22 301.53 340.64 C 303.92 338.63 305.89 341.96 307.83 343.03 C 310.66 345.37 314.56 344.47 317.77 345.81 C 313.88 344.50 315.25 348.91 313.45 350.44 C 310.87 353.57 306.69 354.03 303.05 355.02 C 300.13 357.54 296.30 359.66 292.32 358.45 C 292.36 358.66 292.42 359.10 292.45 359.31 C 286.95 360.34 280.70 360.55 276.16 356.75 C 274.47 355.48 274.42 352.23 276.87 351.86 C 281.13 350.08 285.21 353.09 289.47 353.19 C 288.81 350.93 287.72 348.30 289.29 346.14 C 290.67 344.77 292.44 343.90 294.07 342.87 C 293.30 340.71 291.71 338.38 292.95 336.08 C 294.66 332.53 298.33 330.64 301.61 328.80 C 299.22 327.05 298.50 324.27 298.63 321.45 C 295.01 319.13 290.79 315.03 293.21 310.35 C 289.45 308.32 284.22 307.12 282.82 302.51 C 282.14 300.98 282.20 298.38 280.00 298.37 C 272.26 297.33 264.30 295.70 257.74 291.24 C 254.26 288.86 251.24 285.31 250.76 280.98 C 250.16 278.06 251.41 275.27 252.24 272.54 C 240.41 269.96 228.30 267.41 217.72 261.25 C 215.70 259.92 213.18 260.10 210.88 259.72 C 203.09 258.71 195.15 257.27 188.14 253.54 C 184.29 251.47 180.68 247.65 181.21 242.95 C 181.06 238.33 184.63 234.90 187.67 231.91 C 175.71 228.23 163.04 225.60 152.58 218.38 C 148.74 215.87 145.74 211.25 147.29 206.53 C 149.54 200.47 156.26 198.16 161.85 196.23 C 159.81 194.51 157.12 192.93 156.65 190.07 C 158.53 186.13 163.09 184.88 166.98 183.91 Z" />
</g>
</svg>
