<?xml version="1.0" encoding="UTF-8" ?>
<!DOCTYPE svg PUBLIC "-//W3C//DTD SVG 1.1//EN" "http://www.w3.org/Graphics/SVG/1.1/DTD/svg11.dtd">
<svg width="500pt" height="500pt" viewBox="0 0 500 500" version="1.1" xmlns="http://www.w3.org/2000/svg">
<g id="#ffffffff">
<path fill="#ffffff" opacity="1.00" d=" M 195.50 142.00 C 200.25 142.00 205.00 141.99 209.76 142.01 C 209.75 148.92 209.76 155.84 209.75 162.75 C 205.00 162.76 200.25 162.75 195.51 162.76 C 195.49 155.84 195.50 148.92 195.50 142.00 Z" />
<path fill="#ffffff" opacity="1.00" d=" M 142.81 169.94 C 145.64 166.34 148.90 163.13 152.03 159.80 C 156.72 163.79 161.21 168.04 165.44 172.50 C 162.02 175.77 158.73 179.18 155.36 182.51 C 151.19 178.31 146.99 174.14 142.81 169.94 Z" />
<path fill="#ffffff" opacity="1.00" d=" M 252.28 159.85 C 255.89 162.69 259.13 165.93 262.34 169.19 C 258.37 173.87 254.09 178.28 249.76 182.62 C 246.29 179.32 243.17 175.69 239.76 172.36 C 243.95 168.21 248.10 164.01 252.28 159.85 Z" />
<path fill="#ffffff" opacity="1.00" d=" M 177.00 185.15 C 188.89 176.45 205.32 174.97 218.87 180.44 C 230.38 185.11 239.38 195.20 243.16 206.98 C 223.76 204.37 202.85 207.92 186.90 219.75 C 178.04 226.19 171.34 235.86 169.69 246.82 C 163.74 238.85 159.98 229.05 160.22 219.02 C 160.01 205.92 166.29 192.79 177.00 185.15 Z" />
<path fill="#ffffff" opacity="1.00" d=" M 286.57 186.69 C 297.21 180.39 311.82 182.36 320.44 191.23 C 332.26 188.49 346.15 194.07 350.84 205.69 C 362.18 205.53 372.53 217.77 368.78 228.90 C 365.26 237.48 355.65 243.10 346.45 242.26 C 338.61 229.78 324.67 221.47 309.99 220.31 C 299.98 219.33 289.80 221.79 281.07 226.72 C 276.20 220.61 269.85 215.97 262.99 212.33 C 266.15 209.11 270.32 206.71 274.90 206.42 C 274.96 198.34 279.48 190.60 286.57 186.69 Z" />
<path fill="#ffffff" opacity="1.00" d=" M 125.00 212.50 C 131.91 212.49 138.83 212.50 145.74 212.49 C 145.76 217.24 145.75 222.00 145.75 226.75 C 138.84 226.76 131.92 226.75 125.01 226.76 C 124.99 222.00 125.00 217.25 125.00 212.50 Z" />
<path fill="#ffffff" opacity="1.00" d=" M 216.93 214.08 C 239.34 209.65 264.81 216.33 279.57 234.44 C 291.30 227.62 305.92 226.14 318.85 230.17 C 335.05 235.08 348.27 249.13 351.35 265.89 C 360.76 270.03 368.60 277.62 372.95 286.95 C 377.12 296.09 377.43 307.36 372.06 316.09 C 365.86 326.41 355.36 333.86 343.93 337.34 C 336.49 339.65 328.68 338.29 321.06 338.50 C 306.94 338.46 292.81 338.59 278.69 338.43 C 280.31 327.23 269.77 316.74 258.78 316.86 C 253.59 304.46 238.58 298.91 225.99 301.80 C 215.97 291.22 197.80 290.33 186.61 299.56 C 181.13 303.83 177.91 310.64 177.92 317.58 C 171.31 318.04 165.68 322.28 161.88 327.48 C 153.93 321.26 146.67 312.57 146.49 301.98 C 146.59 285.89 158.76 272.04 173.26 266.38 C 171.60 256.68 173.63 246.43 179.02 238.18 C 187.34 225.07 201.93 216.96 216.93 214.08 Z" />
<path fill="#ffffff" opacity="1.00" d=" M 142.89 270.31 C 146.64 265.49 151.09 261.29 155.40 256.99 C 158.41 260.05 161.46 263.06 164.48 266.10 C 159.02 268.76 153.94 272.45 150.53 277.55 C 147.80 275.33 145.40 272.76 142.89 270.31 Z" />
<path fill="#ffffff" opacity="1.00" d=" M 188.05 305.18 C 198.54 296.13 216.00 296.92 225.51 307.06 C 237.31 304.36 251.16 309.78 255.94 321.36 C 266.85 321.56 277.03 332.51 274.37 343.56 C 271.58 352.30 262.17 358.60 253.03 358.02 C 230.34 357.99 207.66 357.99 184.97 358.01 C 179.87 358.12 175.03 355.90 170.89 353.09 C 166.71 350.04 162.69 345.52 162.97 340.02 C 163.05 330.80 171.38 323.26 180.18 322.08 C 180.31 315.65 183.05 309.30 188.05 305.18 Z" />
</g>
</svg>
