<?xml version="1.0" encoding="UTF-8" ?>
<!DOCTYPE svg PUBLIC "-//W3C//DTD SVG 1.1//EN" "http://www.w3.org/Graphics/SVG/1.1/DTD/svg11.dtd">
<svg width="500pt" height="500pt" viewBox="0 0 500 500" version="1.1" xmlns="http://www.w3.org/2000/svg">
<g id="#ffffffff">
<path fill="#ffffff" opacity="1.00" d=" M 243.20 184.19 C 250.81 177.82 263.10 178.71 270.02 185.73 C 278.55 183.83 288.32 187.85 291.90 196.08 C 299.80 196.23 306.84 204.12 305.08 212.05 C 302.94 218.75 295.65 223.11 288.75 222.59 C 283.77 215.10 276.03 209.38 267.17 207.50 C 258.57 205.50 249.33 206.99 241.69 211.38 C 238.09 207.05 233.63 203.52 228.68 200.86 C 230.99 198.51 234.01 197.11 237.23 196.48 C 237.36 191.74 239.41 187.11 243.20 184.19 Z" />
<path fill="#ffffff" opacity="1.00" d=" M 172.32 214.30 C 190.36 196.09 224.11 196.93 240.61 216.82 C 254.66 208.55 274.29 211.60 284.78 224.22 C 279.55 223.66 274.29 223.72 269.04 223.76 C 254.35 223.44 239.43 222.72 224.98 225.98 C 221.80 226.75 218.21 227.46 216.08 230.20 C 215.79 232.54 218.57 233.67 219.92 235.11 C 213.98 237.15 208.44 244.59 212.27 250.67 C 218.18 257.95 227.89 260.18 236.37 263.09 C 235.23 264.58 233.06 265.81 233.64 267.99 C 233.41 271.75 236.03 274.87 239.13 276.62 C 245.62 280.67 253.30 281.86 260.59 283.65 C 265.48 286.19 270.61 288.37 276.11 289.17 C 278.76 289.92 281.92 289.63 284.14 291.47 C 269.49 292.15 254.78 291.52 240.11 291.79 C 240.87 283.67 233.68 276.33 225.70 276.10 C 221.64 267.40 211.26 263.33 202.12 265.36 C 195.30 258.43 183.74 257.22 175.58 262.44 C 170.70 265.38 167.54 270.81 167.49 276.53 C 162.83 277.32 158.65 279.96 155.95 283.84 C 150.08 279.33 144.58 272.77 144.96 264.94 C 144.99 253.54 153.86 243.91 164.02 239.82 C 162.52 230.58 165.76 220.93 172.32 214.30 Z" />
<path fill="#ffffff" opacity="1.00" d=" M 227.16 229.62 C 243.06 225.16 259.68 227.11 275.96 226.77 C 295.53 227.88 315.18 229.48 334.35 233.73 C 339.95 235.13 345.64 236.45 350.89 238.92 C 353.09 240.01 355.93 241.88 354.86 244.75 C 351.66 248.18 346.55 248.28 342.30 249.43 C 342.82 251.20 344.25 253.08 343.05 254.92 C 340.08 260.50 332.43 259.86 328.61 264.42 C 331.91 266.91 334.93 269.99 335.94 274.14 C 341.24 275.31 346.93 278.41 348.27 284.10 C 349.82 287.95 346.41 291.33 345.02 294.67 C 346.74 296.58 348.21 299.33 347.19 301.92 C 346.25 305.05 343.53 307.08 341.22 309.19 C 344.10 310.55 347.80 312.35 347.82 316.06 C 347.33 320.26 342.78 321.79 339.64 323.68 C 341.34 325.66 344.09 327.67 343.72 330.58 C 339.50 334.52 334.64 338.35 328.71 339.16 C 328.43 341.94 326.12 343.82 323.49 344.33 C 320.79 344.78 318.66 346.52 316.26 347.67 C 315.63 347.19 315.00 346.73 314.36 346.29 C 314.39 346.60 314.46 347.22 314.50 347.53 C 312.75 347.92 311.01 348.32 309.27 348.71 C 309.33 348.02 309.46 346.65 309.52 345.96 C 309.09 346.91 308.68 347.87 308.31 348.85 C 305.58 347.86 300.40 347.21 301.63 343.06 C 304.75 341.90 307.85 343.09 310.86 343.97 C 310.85 342.40 310.13 340.67 310.99 339.22 C 311.94 338.27 313.08 337.56 314.17 336.79 C 311.58 332.68 315.54 329.08 319.07 327.56 C 318.13 325.94 317.43 324.21 317.25 322.34 C 314.72 320.63 312.57 318.10 313.44 314.81 C 311.34 313.51 308.56 312.95 307.24 310.67 C 306.66 309.49 306.24 308.24 305.79 307.01 C 299.06 305.95 291.36 304.82 286.76 299.23 C 284.36 296.43 284.74 292.53 285.91 289.30 C 277.59 287.61 269.21 285.56 261.78 281.32 C 254.86 280.06 247.41 279.71 241.35 275.73 C 239.09 274.29 237.39 271.70 237.79 268.94 C 237.87 265.92 240.30 263.88 242.19 261.86 C 234.51 259.51 226.46 257.75 219.55 253.47 C 216.78 251.67 213.64 248.70 214.74 245.03 C 215.98 240.74 220.68 239.04 224.50 237.76 C 223.29 236.60 221.92 235.54 221.20 233.99 C 221.73 231.29 224.82 230.26 227.16 229.62 M 249.92 230.67 C 261.29 229.61 272.67 231.20 284.00 232.10 C 298.30 233.64 312.64 234.97 326.86 237.18 C 330.39 238.10 334.73 238.29 337.21 241.31 C 330.70 243.50 323.77 243.05 317.03 243.46 C 299.55 244.03 282.24 240.99 264.91 239.31 C 281.77 242.69 298.80 245.34 315.95 246.71 C 321.76 246.77 327.58 246.94 333.40 247.19 C 322.39 252.51 309.83 251.41 297.97 251.50 C 287.26 251.82 276.64 250.13 266.02 248.94 C 254.97 247.38 243.75 246.50 233.01 243.30 C 238.13 245.24 243.52 246.28 248.85 247.45 C 266.08 250.68 283.50 252.85 300.96 254.23 C 309.76 254.16 318.59 254.70 327.32 253.41 C 325.17 255.21 322.40 256.00 319.78 256.83 C 310.42 259.48 300.64 259.96 291.01 260.74 C 278.34 260.61 265.65 261.11 253.00 260.37 C 259.99 261.24 266.99 261.93 274.01 262.47 C 282.34 262.55 290.66 262.46 298.99 262.51 C 307.03 262.77 314.87 260.42 322.89 260.24 C 323.24 263.79 319.35 265.14 316.85 266.62 C 298.73 273.65 278.97 273.50 260.03 276.57 C 275.46 275.82 290.94 274.97 306.20 272.42 C 311.15 271.56 316.16 270.61 320.70 268.35 C 323.41 271.19 320.20 274.33 317.56 275.60 C 308.06 280.73 297.26 282.57 286.81 284.73 C 298.12 283.65 309.80 282.43 319.94 276.88 C 320.97 276.58 322.71 274.91 323.37 276.62 C 325.72 279.51 326.32 283.82 323.87 286.85 C 319.79 291.82 312.94 293.25 306.83 293.62 C 313.37 294.27 321.04 293.08 325.25 287.48 C 327.44 284.90 327.48 281.42 327.73 278.22 C 333.60 279.14 338.82 285.64 335.56 291.44 C 330.72 299.63 320.47 301.77 311.86 303.68 C 320.08 302.99 328.97 301.03 334.97 294.97 C 339.81 290.37 339.51 281.09 333.46 277.64 C 330.80 275.58 326.87 276.41 324.51 273.95 C 324.71 271.30 324.66 268.67 323.70 266.15 C 325.28 264.11 326.46 261.73 326.07 259.06 C 328.22 257.53 331.02 256.34 331.66 253.50 C 332.07 251.68 334.11 251.26 335.41 250.24 C 337.85 248.96 338.23 245.78 340.55 244.36 C 341.80 243.31 343.40 241.79 342.87 239.98 C 341.62 237.23 338.54 236.09 335.87 235.20 C 326.50 232.49 316.67 232.24 307.01 231.52 C 293.06 230.37 279.05 230.35 265.07 229.75 C 260.00 229.42 254.94 229.95 249.92 230.67 M 305.28 302.69 C 305.51 306.13 308.55 307.41 311.32 308.48 C 312.37 311.37 314.85 313.20 317.57 314.40 C 316.99 316.92 318.54 318.91 320.36 320.44 C 318.79 323.69 322.50 324.56 324.57 325.79 C 325.08 328.53 327.74 329.10 330.03 329.73 C 331.58 332.15 334.31 332.91 337.01 333.31 C 334.71 334.68 332.16 335.54 329.48 335.65 L 329.90 337.09 C 326.43 337.65 322.32 336.84 321.13 333.08 C 319.24 334.27 317.67 335.82 317.53 338.19 C 317.24 340.89 313.76 340.58 312.75 342.72 C 314.01 342.25 315.21 341.67 316.50 341.28 C 317.16 340.11 318.02 338.86 319.55 339.31 C 319.09 338.51 318.64 337.71 318.20 336.92 C 318.73 336.35 319.78 335.21 320.31 334.64 C 323.16 337.54 329.18 340.33 331.90 335.88 C 335.53 336.39 337.77 333.65 339.67 331.03 C 338.57 331.51 337.49 332.04 336.42 332.59 C 334.70 332.05 333.15 331.21 331.77 330.05 C 332.66 329.53 333.55 329.04 334.47 328.57 C 331.60 328.80 328.28 329.42 326.14 326.95 C 326.84 326.55 328.25 325.75 328.95 325.36 C 326.35 324.59 321.74 325.54 321.14 322.07 C 323.14 319.52 327.23 322.05 330.10 321.42 C 332.94 320.77 336.55 321.43 338.81 319.39 C 334.33 320.69 329.62 321.30 325.02 320.17 C 322.35 319.72 317.97 318.49 319.43 314.86 C 323.36 314.78 327.30 314.40 331.08 313.29 C 325.17 313.72 317.05 315.34 313.62 309.01 C 319.80 308.13 326.29 308.07 332.00 305.24 C 326.15 306.97 319.96 308.02 313.89 306.86 C 311.60 306.41 308.70 306.23 307.63 303.76 C 308.26 303.69 309.53 303.54 310.17 303.47 C 308.54 303.21 306.91 302.95 305.28 302.69 Z" />
<path fill="#ffffff" opacity="1.00" d=" M 176.50 266.40 C 184.20 261.24 195.28 262.45 201.81 269.00 C 210.40 267.27 220.05 271.07 223.73 279.33 C 231.74 279.59 239.18 287.87 236.73 295.92 C 234.25 302.49 226.82 306.73 219.89 305.83 C 204.25 305.66 188.61 305.79 172.98 305.77 C 167.35 305.97 161.96 302.86 158.55 298.51 C 155.69 294.91 156.30 289.51 158.99 285.99 C 161.30 282.57 165.15 280.52 169.15 279.78 C 169.05 274.41 171.99 269.25 176.50 266.40 Z" />
<path fill="#ffffff" opacity="1.00" d=" M 154.43 309.48 C 157.90 315.07 161.22 320.86 163.41 327.09 C 165.29 332.38 160.49 338.09 155.09 338.02 C 149.71 338.62 144.56 333.44 145.83 328.00 C 147.22 321.27 151.04 315.36 154.43 309.48 Z" />
<path fill="#ffffff" opacity="1.00" d=" M 227.90 330.33 C 228.69 323.49 228.98 316.57 230.21 309.80 C 232.39 320.31 234.41 330.87 236.49 341.41 C 233.64 340.33 230.83 339.19 228.04 338.00 C 227.17 345.14 226.37 352.30 225.68 359.46 C 223.31 349.06 221.99 338.44 220.06 327.94 C 222.68 328.70 225.29 329.54 227.90 330.33 Z" />
<path fill="#ffffff" opacity="1.00" d=" M 259.56 309.38 C 263.10 314.47 266.28 319.90 268.22 325.82 C 269.27 328.82 268.82 332.34 266.77 334.82 C 263.77 338.18 258.28 339.01 254.51 336.46 C 251.16 334.20 249.86 329.62 251.21 325.86 C 253.21 320.01 256.61 314.78 259.56 309.38 Z" />
<path fill="#ffffff" opacity="1.00" d=" M 189.37 331.35 C 192.61 337.47 196.76 343.29 198.44 350.10 C 199.38 355.45 194.32 360.55 189.00 360.04 C 183.86 360.28 179.63 355.04 180.52 350.06 C 181.70 343.13 186.24 337.48 189.37 331.35 Z" />
<path fill="#ffffff" opacity="1.00" d=" M 287.38 348.09 C 289.38 341.89 292.69 336.24 296.05 330.71 C 298.00 333.86 299.84 337.08 301.63 340.33 C 298.91 340.99 297.93 344.46 298.81 346.85 C 300.72 348.45 303.13 349.27 305.24 350.57 C 305.41 356.23 299.39 360.70 294.03 359.20 C 289.18 358.33 285.81 352.77 287.38 348.09 Z" />
</g>
</svg>
