<?xml version="1.0" encoding="UTF-8"?>
<!DOCTYPE svg PUBLIC "-//W3C//DTD SVG 1.1//EN" "http://www.w3.org/Graphics/SVG/1.1/DTD/svg11.dtd">
<!-- Creator: CorelDRAW 2018 (64 Bit Versión de evaluación) -->
<svg xmlns="http://www.w3.org/2000/svg" xml:space="preserve" width="215.9mm" height="279.4mm" version="1.1" style="shape-rendering:geometricPrecision; text-rendering:geometricPrecision; image-rendering:optimizeQuality; fill-rule:evenodd; clip-rule:evenodd"
viewBox="0 0 21590 27940"
 xmlns:xlink="http://www.w3.org/1999/xlink">
 <defs>
  <style type="text/css">
   <![CDATA[
    .str2 {stroke:#FEFEFE;stroke-width:100;stroke-miterlimit:22.9256}
    .str3 {stroke:#FEFEFE;stroke-width:200;stroke-miterlimit:22.9256}
    .str0 {stroke:#FEFEFE;stroke-width:75;stroke-miterlimit:22.9256}
    .str1 {stroke:#FEFEFE;stroke-width:150;stroke-miterlimit:22.9256}
    .str4 {stroke:#FEFEFE;stroke-width:20;stroke-miterlimit:22.9256}
    .fil1 {fill:none}
    .fil0 {fill:#FEFEFE}
   ]]>
  </style>
 </defs>
 <g id="Capa_x0020_1">
  <metadata id="CorelCorpID_0Corel-Layer"/>
  <path class="fil0 str0" d="M13815.57 16714.59c-361,182.66 -998.86,-240.38 -714.57,-769.99 784.79,-935.16 1832.86,-1801.04 2783.93,-2694.63 333.34,-187.94 657.12,-194.45 971.98,-31.35l2837.55 2696.45c292.16,380.94 -78.47,979.3 -705.47,815.2l31.35 1034.69c-546.6,381.53 -1073.72,373.18 -1583.38,15.67 69.52,-2381.16 -2404.53,-1832.09 -2085.05,-15.67 -490.65,362.11 -946.68,344.39 -1538.95,27.52l2.61 -1077.89z"/>
  <path class="fil0 str1" d="M13199.7 10978.17c-4251.18,3307.9 -1597.03,7797.45 6121.69,8214.57 683.36,823.05 772.38,1757.82 156.96,2825.39 -2765.94,300.58 -5126.85,304.12 -6854.19,-156.97 -5098.18,-2023.72 -4679.51,-9517.25 575.54,-10882.99z"/>
  <path class="fil0 str2" d="M9110.73 12555.2c-2813.75,2715.57 -3307.33,5847.56 -762,9525l2159 -42.32c-2906.77,-2902 -3024.99,-6099.73 -1397,-9482.68z"/>
  <path class="fil1 str3" d="M7112.74 22015.36c-4143.07,-6705.31 1514.28,-14540.91 10638.35,-11437.13 966.39,315.65 1162.16,-22.52 798.79,-835.1 -6905.21,-8971.4 -18208.56,-2128.87 -16240.14,12272.23l4696.2 0"/>
  <line class="fil1 str4" x1="2309.74" y1="22015.36" x2="7112.74" y2= "22015.36" />
  <path class="fil0 str4" d="M2309.74 22015.36l4803 0c-4143.07,-6705.31 1514.28,-14540.91 10638.35,-11437.13 966.39,315.65 1162.16,-22.52 798.79,-835.1 -6905.21,-8971.4 -18208.56,-2128.87 -16240.14,12272.23z"/>
 </g>
</svg>
