<?xml version="1.0" encoding="UTF-8"?>
<!DOCTYPE svg PUBLIC "-//W3C//DTD SVG 1.1//EN" "http://www.w3.org/Graphics/SVG/1.1/DTD/svg11.dtd">
<!-- Creator: CorelDRAW 2018 (64 Bit Versión de evaluación) -->
<svg xmlns="http://www.w3.org/2000/svg" xml:space="preserve" width="215.9mm" height="279.4mm" version="1.1" style="shape-rendering:geometricPrecision; text-rendering:geometricPrecision; image-rendering:optimizeQuality; fill-rule:evenodd; clip-rule:evenodd"
viewBox="0 0 21590 27940"
 xmlns:xlink="http://www.w3.org/1999/xlink">
 <defs>
  <style type="text/css">
   <![CDATA[
    .str1 {stroke:#FEFEFE;stroke-width:600;stroke-miterlimit:22.9256}
    .str0 {stroke:#FEFEFE;stroke-width:1000;stroke-miterlimit:22.9256}
    .fil0 {fill:none}
   ]]>
  </style>
 </defs>
 <g id="Capa_x0020_1">
  <metadata id="CorelCorpID_0Corel-Layer"/>
  <path class="fil0 str0" d="M4079.8 13069.75l6852.72 -52.92c3363.73,-2453.68 -1709.02,-5521.79 -2037.3,-1217.08"/>
  <path class="fil0 str0" d="M4070.45 18156.88l5814.31 30.53c2920.62,1556.43 -1280.48,4356.38 -1632.89,1266.63"/>
  <path class="fil0 str0" d="M4052 15611.45l12062.02 -74.3c5920.77,-3444.8 -1503.92,-8471.65 -2081.75,-2428.13"/>
  <path class="fil0 str1" d="M9248.98 5853.43c1349.5,41.64 1848.57,1024.49 2544.46,1819.15 813.6,583.02 2500.93,-435.05 1992.57,-1657.85 -631.38,-1557.29 -2854.32,-1420.62 -4537.03,-161.3z"/>
  <path class="fil0 str1" d="M12008.57 6067.45c1903.35,970.59 2217.97,2019.35 2312.24,2333.55"/>
  <path class="fil0 str1" d="M14791.83 17574.85c646.53,114.18 988.83,517.85 1005.42,1111.25 581.47,-145.16 974.51,-686.04 1246.81,-1480.47 543.63,568.04 543.87,1608.68 129.03,2485.89 139.22,248.46 503.94,316.53 952.5,317.5 -1252.61,1455.85 -2425.39,1820.25 -3492.51,740.83 -1178.48,-982 347.35,-2810.54 158.75,-3175z"/>
  <path class="fil0 str1" d="M12877.47 20868.62c1325.73,408.45 2318.66,51.46 3026.06,-962.31"/>
 </g>
</svg>
