<?xml version="1.0" encoding="UTF-8" ?>
<!DOCTYPE svg PUBLIC "-//W3C//DTD SVG 1.1//EN" "http://www.w3.org/Graphics/SVG/1.1/DTD/svg11.dtd">
<svg width="192pt" height="192pt" viewBox="0 0 192 192" version="1.1" xmlns="http://www.w3.org/2000/svg">
<g id="#000000">
<path fill="#ffffff" opacity="1.00" d=" M 88.76 14.08 C 93.58 13.80 98.42 13.80 103.24 14.09 C 103.21 19.18 103.28 24.26 103.27 29.34 C 133.75 31.82 160.19 58.19 162.61 88.70 C 167.70 88.72 172.79 88.77 177.89 88.73 C 177.86 93.57 177.92 98.42 177.83 103.27 C 172.75 103.20 167.68 103.33 162.61 103.25 C 160.16 133.74 133.74 160.09 103.28 162.57 C 103.30 167.64 103.20 172.71 103.27 177.78 C 98.42 177.78 93.58 177.77 88.73 177.78 C 88.80 172.71 88.70 167.64 88.72 162.57 C 58.26 160.09 31.84 133.74 29.40 103.25 C 24.32 103.33 19.24 103.20 14.17 103.27 C 14.08 98.42 14.14 93.57 14.11 88.73 C 19.20 88.77 24.30 88.72 29.39 88.70 C 31.81 58.23 58.23 31.78 88.71 29.38 C 88.73 24.28 88.78 19.18 88.76 14.08 M 86.22 44.65 C 65.40 48.40 47.84 66.16 44.57 87.09 C 44.15 93.01 44.12 98.98 44.59 104.90 C 47.94 126.02 65.85 143.97 86.96 147.38 C 92.81 147.88 98.72 147.84 104.58 147.44 C 125.89 144.24 144.02 126.17 147.41 104.91 C 147.88 99.04 147.84 93.11 147.45 87.23 C 144.20 65.96 126.17 47.88 104.92 44.53 C 98.70 44.20 92.42 44.07 86.22 44.65 Z" />
<path fill="#ffffff" opacity="1.00" d=" M 89.30 67.09 C 95.34 66.05 101.81 66.16 107.50 68.64 C 118.20 73.07 126.01 84.28 125.46 96.00 C 126.18 111.39 112.38 125.57 97.02 125.45 C 84.37 126.34 72.05 117.68 68.03 105.76 C 66.24 101.07 66.38 95.95 66.77 91.03 C 68.55 79.48 77.89 69.59 89.30 67.09 Z" />
</g>
</svg>
