<?xml version="1.0" encoding="UTF-8" ?>
<!DOCTYPE svg PUBLIC "-//W3C//DTD SVG 1.1//EN" "http://www.w3.org/Graphics/SVG/1.1/DTD/svg11.dtd">
<svg width="512pt" height="107pt" viewBox="0 0 512 107" version="1.1" xmlns="http://www.w3.org/2000/svg">
<g id="#59c1d3ff">
<path fill="#59c1d3" opacity="1.00" d=" M 449.54 7.60 C 452.81 5.02 457.18 6.26 461.01 5.98 C 463.57 5.64 465.89 6.72 468.03 8.00 C 468.02 9.28 468.12 10.56 468.31 11.83 C 472.48 14.84 477.69 14.99 482.59 15.61 C 485.61 15.91 487.33 18.47 488.34 21.06 C 484.91 23.14 480.97 24.26 476.99 24.57 C 473.82 24.56 470.91 23.08 468.01 21.97 C 467.60 22.53 466.77 23.64 466.36 24.20 C 468.68 29.59 475.56 30.16 480.61 29.35 C 484.15 28.90 486.25 25.85 487.66 22.87 C 490.23 23.97 492.76 25.17 495.11 26.69 C 492.25 29.44 488.76 31.36 485.41 33.42 C 477.47 38.21 469.58 43.16 461.25 47.25 C 459.11 48.66 456.72 47.13 454.72 46.26 C 446.02 41.82 437.79 36.54 429.41 31.54 C 427.11 30.19 424.85 28.77 422.85 27.01 C 425.16 25.42 427.59 24.02 430.10 22.77 C 431.18 25.40 432.21 28.82 435.42 29.47 C 440.78 30.26 446.99 30.28 450.93 25.93 C 450.73 24.63 450.52 23.34 450.29 22.05 C 446.37 23.48 442.29 26.05 437.97 24.83 C 435.21 24.30 432.83 22.74 430.61 21.11 C 430.69 19.79 430.85 18.47 431.09 17.17 C 435.38 14.21 441.19 16.50 445.52 13.56 C 447.90 12.42 448.29 9.65 449.54 7.60 M 458.93 15.58 C 455.58 15.38 452.43 14.01 449.12 13.58 C 449.80 15.24 449.53 17.96 451.78 18.39 C 457.06 19.68 462.91 19.36 467.82 16.88 C 467.91 15.62 467.99 14.37 468.07 13.12 C 465.04 14.00 462.07 15.17 458.93 15.58 M 449.26 33.73 C 449.21 39.56 456.42 40.25 460.74 39.46 C 463.66 38.55 468.31 38.31 468.42 34.31 C 462.08 35.92 455.37 36.49 449.26 33.73 Z" />
<path fill="#59c1d3" opacity="1.00" d=" M 283.43 14.24 C 284.48 11.55 285.62 7.96 289.05 7.68 C 292.95 7.43 296.99 7.14 300.84 7.96 C 304.30 9.15 304.58 13.67 307.73 15.23 C 311.96 16.98 316.86 16.09 320.98 18.12 C 323.93 19.52 323.74 24.63 320.29 25.22 C 314.61 26.39 308.51 25.99 303.09 23.85 C 302.92 27.60 305.95 31.60 309.95 31.26 C 312.95 31.08 316.40 32.02 319.00 30.06 C 321.18 28.76 322.84 26.81 324.38 24.83 C 326.72 25.97 329.06 27.14 331.32 28.44 C 326.96 32.80 320.83 34.44 315.78 37.77 C 309.44 41.50 303.75 46.41 296.88 49.17 C 292.75 50.55 289.49 46.67 286.23 44.79 C 277.19 39.40 267.67 34.77 259.05 28.67 C 260.90 27.43 262.63 25.83 264.87 25.36 C 267.16 27.04 268.91 29.31 270.97 31.24 C 275.41 30.77 280.75 32.68 284.39 29.32 C 286.05 28.35 286.44 26.44 286.88 24.73 C 280.60 24.61 273.77 27.44 267.90 24.09 C 265.76 23.09 265.39 19.70 267.89 18.93 C 272.85 16.70 278.58 16.84 283.43 14.24 M 284.27 14.60 C 285.37 20.83 292.84 21.68 297.97 21.15 C 301.51 21.14 303.48 17.95 305.11 15.30 C 301.68 15.65 298.31 16.39 294.88 16.67 C 291.23 16.75 287.76 15.47 284.27 14.60 M 286.19 35.32 C 286.11 36.21 285.94 38.00 285.86 38.90 C 290.99 41.87 297.56 42.07 302.98 39.79 C 304.92 39.17 304.75 36.97 305.16 35.36 C 301.71 35.94 298.49 37.59 294.98 37.77 C 291.94 37.41 289.10 36.18 286.19 35.32 Z" />
<path fill="#59c1d3" opacity="1.00" d=" M 421.87 34.18 C 433.16 40.70 444.41 47.34 455.25 54.59 C 455.25 66.05 455.24 77.51 455.27 88.97 C 455.31 90.92 454.97 92.84 454.51 94.73 C 443.62 88.15 432.27 82.36 421.52 75.56 C 421.70 61.77 421.05 47.94 421.87 34.18 Z" />
<path fill="#59c1d3" opacity="1.00" d=" M 485.03 40.08 C 488.60 37.84 491.86 34.97 495.90 33.57 C 496.13 48.13 495.93 62.69 496.00 77.26 C 494.73 77.50 493.40 77.51 492.23 78.08 C 482.11 83.37 472.95 90.44 462.45 94.99 C 461.99 81.70 462.38 68.38 462.25 55.07 C 469.89 50.16 477.39 45.01 485.03 40.08 M 487.20 47.95 C 483.03 52.41 480.98 58.49 476.39 62.61 C 474.83 59.13 475.31 55.27 475.18 51.57 C 473.09 52.32 470.55 53.45 470.60 56.08 C 470.39 65.00 470.47 73.92 470.59 82.84 C 472.33 82.52 474.94 82.38 474.91 79.99 C 475.35 75.96 473.70 69.39 479.07 68.12 C 482.47 69.96 484.90 73.12 487.90 75.50 C 489.07 74.26 491.65 73.41 490.88 71.30 C 488.26 67.51 484.46 64.66 482.13 60.64 C 484.24 55.90 488.44 52.34 489.87 47.26 C 489.21 47.44 487.87 47.78 487.20 47.95 Z" />
<path fill="#59c1d3" opacity="1.00" d=" M 320.80 41.71 C 324.64 39.42 328.23 36.63 332.48 35.10 C 332.89 37.03 333.04 39.00 333.02 40.97 C 332.98 52.82 333.00 64.66 333.01 76.51 C 331.44 77.82 329.78 79.00 328.02 80.03 C 317.99 86.00 307.87 91.85 297.52 97.25 C 297.72 83.60 297.02 69.90 297.89 56.28 C 305.54 51.44 313.15 46.54 320.80 41.71 M 307.63 58.42 C 306.62 61.00 305.95 64.62 308.39 66.63 C 311.71 68.90 316.02 67.29 319.66 68.55 C 321.64 69.33 322.03 72.06 320.78 73.66 C 318.82 76.40 315.98 78.57 312.81 79.71 C 311.20 79.34 309.73 78.56 308.21 77.98 C 307.48 79.29 306.32 80.49 306.19 82.04 C 306.35 83.22 307.30 85.12 308.77 84.64 C 315.20 82.19 322.48 78.76 324.75 71.68 C 325.60 68.56 326.00 64.03 322.70 62.19 C 319.32 60.89 315.66 62.33 312.20 61.59 C 310.18 59.90 311.51 56.57 313.37 55.27 C 316.59 52.97 320.57 52.23 324.25 50.97 C 324.25 50.20 324.24 48.64 324.24 47.86 C 317.25 47.55 310.41 52.05 307.63 58.42 Z" />
<path fill="#59c1d3" opacity="1.00" d=" M 257.87 36.33 C 269.43 42.28 280.25 49.61 291.51 56.12 C 291.33 69.54 291.84 82.98 291.23 96.38 C 280.84 91.14 270.72 85.34 260.74 79.34 C 259.28 78.18 256.62 77.39 257.09 75.05 C 257.49 62.14 257.32 49.23 257.87 36.33 Z" />
</g>
<g id="#20325fff">
<path fill="#20325f" opacity="1.00" d=" M 368.99 8.12 C 373.20 5.83 378.35 6.86 382.72 8.20 C 386.23 9.12 387.17 13.12 389.93 15.04 C 394.25 17.37 399.97 15.74 403.81 19.14 C 405.41 20.43 405.37 22.65 405.90 24.47 C 408.59 25.66 411.26 26.91 413.89 28.24 C 409.51 32.29 404.08 34.90 398.97 37.86 C 391.37 41.74 384.41 46.74 376.90 50.78 C 368.68 47.19 361.28 42.04 353.68 37.32 C 348.98 34.82 343.77 32.97 340.14 28.85 C 342.62 27.18 345.19 25.66 347.87 24.33 C 348.12 22.63 348.39 20.93 348.67 19.22 C 352.83 17.45 357.34 16.84 361.63 15.48 C 365.34 14.44 365.74 9.78 368.99 8.12 M 367.00 15.19 C 367.00 15.93 366.98 17.41 366.97 18.16 C 371.18 22.10 377.14 20.46 382.33 20.76 C 383.58 19.28 384.78 17.76 385.88 16.17 C 382.53 16.67 379.33 17.90 375.96 18.23 C 372.78 17.95 369.93 16.34 367.00 15.19 M 348.72 25.85 C 350.01 27.56 351.01 29.98 353.35 30.44 C 358.56 31.30 364.93 31.28 368.34 26.51 C 364.88 26.59 361.52 27.55 358.07 27.70 C 354.89 27.48 351.84 26.45 348.72 25.85 M 385.32 26.42 C 387.20 28.20 389.08 30.60 391.92 30.71 C 396.38 30.94 401.98 30.94 404.47 26.44 C 398.09 27.17 391.69 27.43 385.32 26.42 M 366.23 36.37 C 367.64 40.00 371.66 40.84 375.09 41.20 C 379.35 41.51 384.16 40.43 386.57 36.55 C 382.80 37.36 378.97 39.03 375.05 38.22 C 372.11 37.59 369.24 36.63 366.23 36.37 Z" />
<path fill="#20325f" opacity="1.00" d=" M 17.79 52.29 C 13.46 45.44 17.47 34.43 25.91 33.34 C 33.21 32.34 40.68 32.62 48.01 33.01 C 53.24 33.89 52.52 40.33 51.71 44.21 C 44.96 44.46 38.18 43.89 31.45 44.49 C 31.00 45.70 30.75 46.97 30.46 48.23 C 36.33 51.01 42.23 53.82 47.59 57.51 C 51.51 60.20 54.58 64.90 53.67 69.82 C 52.36 74.68 50.35 80.18 45.39 82.37 C 39.60 84.84 33.13 83.75 27.02 84.03 C 24.28 83.79 20.74 84.73 18.72 82.34 C 16.82 79.49 17.66 75.86 17.65 72.65 C 23.73 72.29 29.81 72.69 35.89 72.43 C 37.74 72.63 38.54 70.62 39.13 69.22 C 37.64 65.91 33.96 64.70 31.08 62.94 C 26.21 60.04 20.21 57.87 17.79 52.29 Z" />
<path fill="#20325f" opacity="1.00" d=" M 65.40 35.36 C 72.33 31.40 80.45 33.07 88.03 32.75 C 95.17 32.92 102.96 31.73 109.40 35.56 C 113.78 38.55 115.88 43.94 116.69 48.99 C 116.88 59.94 116.68 70.90 116.76 81.85 C 116.17 82.56 115.57 83.26 114.98 83.97 C 110.83 84.02 106.67 84.06 102.51 83.84 C 101.38 71.62 102.28 59.29 102.02 47.02 C 99.70 44.60 96.56 43.69 93.33 44.66 C 93.15 57.77 93.30 70.89 93.25 84.00 C 89.00 84.00 84.75 84.00 80.50 84.00 C 80.44 70.85 80.62 57.69 80.40 44.54 C 77.22 43.91 72.78 43.92 71.88 47.83 C 71.51 58.23 71.92 68.66 71.73 79.06 C 71.76 80.84 70.90 82.42 70.23 84.01 C 65.74 83.99 61.25 84.00 56.75 84.00 C 56.78 72.66 56.69 61.31 56.77 49.97 C 57.51 44.28 59.60 37.74 65.40 35.36 Z" />
<path fill="#20325f" opacity="1.00" d=" M 121.72 45.99 C 121.22 39.65 126.63 33.59 132.91 33.04 C 137.58 32.51 142.29 32.87 146.97 32.52 C 151.01 32.22 155.37 32.68 158.62 35.33 C 161.61 37.55 163.16 41.27 163.00 44.95 C 163.02 57.96 162.99 70.98 163.00 84.00 C 158.40 84.00 153.81 84.00 149.21 84.00 C 149.26 78.00 149.30 72.00 149.18 66.01 C 145.32 66.00 141.47 66.00 137.61 66.00 C 137.06 71.55 137.24 77.25 135.87 82.68 C 135.60 82.97 135.05 83.54 134.77 83.83 C 130.45 84.25 126.09 83.92 121.75 83.99 C 121.74 71.32 121.77 58.66 121.72 45.99 M 137.06 44.74 C 136.95 47.99 136.78 51.24 136.69 54.49 C 140.27 54.50 143.85 54.50 147.43 54.51 C 147.52 51.26 147.69 48.01 147.81 44.76 C 144.23 44.75 140.64 44.75 137.06 44.74 Z" />
<path fill="#20325f" opacity="1.00" d=" M 169.52 33.40 C 178.33 33.03 187.22 32.24 196.02 33.21 C 201.33 33.75 205.81 37.25 208.22 41.92 C 208.46 38.81 206.93 32.52 211.93 32.79 C 223.90 32.84 235.91 32.48 247.86 32.97 C 249.61 36.31 249.51 40.66 247.89 44.03 C 243.77 44.50 239.62 44.18 235.50 44.25 C 235.50 57.50 235.50 70.75 235.50 84.00 C 231.16 84.00 226.83 84.00 222.49 83.99 C 222.50 70.74 222.50 57.49 222.50 44.24 C 218.20 44.25 213.91 44.25 209.61 44.25 C 209.45 48.15 209.69 52.29 207.86 55.88 C 206.47 58.93 203.54 60.79 201.45 63.30 C 203.85 70.44 208.54 76.60 211.59 83.49 C 206.90 84.25 202.14 83.98 197.42 84.00 C 193.51 78.05 190.08 71.79 185.94 65.99 C 185.08 66.00 183.36 66.00 182.50 66.01 C 182.50 72.00 182.50 78.00 182.50 84.00 C 178.00 84.00 173.50 84.00 169.00 84.00 C 169.00 71.35 169.01 58.69 168.99 46.04 C 169.00 41.82 168.78 37.57 169.52 33.40 M 182.84 44.74 C 182.57 47.93 182.63 51.12 182.77 54.31 C 186.16 53.81 189.70 54.09 193.00 53.06 C 194.59 51.05 194.86 47.78 193.46 45.62 C 190.13 44.16 186.36 44.91 182.84 44.74 Z" />
<path fill="#20325f" opacity="1.00" d=" M 338.82 34.56 C 348.13 39.69 357.09 45.43 366.35 50.65 C 369.18 52.39 372.31 53.76 374.77 56.04 C 375.31 69.73 374.85 83.47 374.98 97.17 C 372.95 96.93 370.70 97.28 368.90 96.09 C 362.70 92.35 356.65 88.34 350.31 84.83 C 346.06 82.87 341.88 80.70 338.06 77.98 C 337.91 66.31 338.06 54.63 337.97 42.96 C 337.90 40.14 338.15 37.31 338.82 34.56 Z" />
<path fill="#20325f" opacity="1.00" d=" M 380.50 56.65 C 391.41 49.80 402.08 42.56 413.18 36.01 C 413.47 48.01 413.48 60.01 413.79 72.01 C 413.69 74.29 414.15 77.34 411.74 78.64 C 401.56 85.21 390.97 91.14 380.51 97.23 C 380.49 83.70 380.50 70.17 380.50 56.65 M 388.29 56.56 C 387.75 66.25 387.98 75.99 388.14 85.69 C 394.03 84.25 398.82 80.17 403.43 76.44 C 408.85 71.88 407.68 64.19 407.75 57.91 C 407.96 54.70 406.58 51.75 404.20 49.66 C 398.76 51.63 393.53 54.11 388.29 56.56 Z" />
<path fill="#20325f" opacity="1.00" d=" M 393.99 59.07 C 395.91 57.70 397.79 56.18 400.07 55.46 C 402.83 56.24 402.64 59.63 402.78 61.91 C 402.72 65.50 403.21 69.34 401.65 72.69 C 400.18 75.72 396.96 77.12 394.05 78.40 C 393.94 71.95 394.03 65.51 393.99 59.07 Z" />
</g>
</svg>
