<svg xmlns="http://www.w3.org/2000/svg" viewBox="0 0 113.39 106.5"><defs><style>.cls-1,.cls-2{fill:#fff;}.cls-1,.cls-2,.cls-3,.cls-4{stroke:#fff;stroke-miterlimit:10;}.cls-1{stroke-width:4px;}.cls-3,.cls-4{fill:none;}.cls-4{stroke-width:6px;}</style></defs><title>Recurso 12</title><g id="Capa_2" data-name="Capa 2"><g id="Capa_1-2" data-name="Capa 1"><rect class="cls-1" x="81.84" y="18.28" width="20.33" height="6.33" rx="3.17" ry="3.17"/><rect class="cls-1" x="56.94" y="36.17" width="54.45" height="68.33" rx="12" ry="12"/><rect class="cls-1" x="87.17" y="20.45" width="11.22" height="21.33" rx="5.61" ry="5.61"/><rect class="cls-2" x="64.5" y="24.61" width="3.67" height="13" rx="1.83" ry="1.83"/><path class="cls-3" d="M66.34,24.61C75.34,5.7,61.64-5,54.09,3.45"/><path class="cls-3" d="M54.09,3.45c-5.5,7.5-4.84,11.5-5.5,21.16"/><path class="cls-3" d="M48.59,24.61c1,23.09-14.75,11.56-16.5,1.84"/><path class="cls-3" d="M32.09,26.45C27.59,18.28,17.34,35,21.34,51.2"/><path class="cls-4" d="M21.34,51.2C14.09,31.11.1,44.7,3.53,51.2"/><path class="cls-4" d="M3.53,51.2c1.37,5.31,15.81,14,15.81,22.25"/><path class="cls-4" d="M21.34,51.2c7.5-20.09,21.25-8,17.5,0"/><path class="cls-4" d="M38.84,51.2c-1,8-17,14.5-19.5,22.25"/></g></g></svg>