<svg xmlns="http://www.w3.org/2000/svg" viewBox="0 0 184.06 217.28"><defs><style>.cls-1{fill:#fff;stroke:#fff;stroke-miterlimit:10;stroke-width:7px;}</style></defs><title>Recurso 13</title><g id="Capa_2" data-name="Capa 2"><g id="Capa_1-2" data-name="Capa 1"><line class="cls-1" x1="43.69" y1="201.94" x2="140.07" y2="201.94"/><line class="cls-1" x1="43.69" y1="201.94" x2="43.69" y2="110.55"/><line class="cls-1" x1="140.07" y1="201.94" x2="140.06" y2="113"/><line class="cls-1" x1="43.69" y1="110.55" x2="70.56" y2="130.13"/><line class="cls-1" x1="140.06" y1="113" x2="125.02" y2="122.79"/><line class="cls-1" x1="70.56" y1="130.13" x2="84.54" y2="110.55"/><line class="cls-1" x1="125.02" y1="122.79" x2="115.71" y2="110.55"/><line class="cls-1" x1="84.54" y1="110.55" x2="95.28" y2="126.46"/><line class="cls-1" x1="115.71" y1="110.55" x2="95.28" y2="126.46"/><rect class="cls-1" x="47.37" y="168.91" width="28.65" height="31.7" transform="translate(-123.06 246.46) rotate(-90)"/><polygon class="cls-1" points="61.76 133.51 47.81 121.34 47.81 145.68 61.76 133.51"/><polygon class="cls-1" points="85.89 119.48 74.48 130.81 95.8 132.5 85.89 119.48"/><polygon class="cls-1" points="113.3 118.98 101.89 130.31 123.21 132 113.3 118.98"/><polygon class="cls-1" points="133.21 118.32 123.81 128.31 137.82 131.98 133.21 118.32"/><line class="cls-1" x1="43.66" y1="109.88" x2="74.63" y2="122.54"/><line class="cls-1" x1="138.6" y1="86.44" x2="126.2" y2="100.43"/><line class="cls-1" x1="74.63" y1="122.54" x2="83.65" y2="98.89"/><line class="cls-1" x1="126.2" y1="100.43" x2="114.17" y2="90.51"/><line class="cls-1" x1="83.65" y1="98.89" x2="97.96" y2="112.16"/><line class="cls-1" x1="114.17" y1="90.51" x2="97.96" y2="112.16"/><polygon class="cls-1" points="68.32 117.94 76.79 103.36 55.51 107.38 68.32 117.94"/><polygon class="cls-1" points="99.21 107.16 108.36 95.96 86.87 100.06 99.21 107.16"/><line class="cls-1" x1="119.12" y1="3.37" x2="24.76" y2="29.3"/><line class="cls-1" x1="119.12" y1="3.37" x2="139.48" y2="90.17"/><line class="cls-1" x1="24.76" y1="29.3" x2="44.39" y2="112.98"/><polygon class="cls-1" points="115.88 7.9 133.91 84.75 118.65 88.94 100.63 12.09 115.88 7.9"/><polygon class="cls-1" points="126.13 92.34 132.16 80.09 120.24 79.39 126.13 92.34"/><polygon class="cls-1" points="42.98 26.71 61 103.57 46.48 107.56 28.46 30.7 42.98 26.71"/><polygon class="cls-1" points="78.72 18.11 96.75 94.96 84.41 98.35 66.38 21.5 78.72 18.11"/><polygon class="cls-1" points="113.53 32.48 41.26 52.34 40.29 48.21 112.56 28.36 113.53 32.48"/><polygon class="cls-1" points="120.02 60.15 50.48 79.25 48.96 72.78 118.5 53.67 120.02 60.15"/><polygon class="cls-1" points="126.28 86.85 56.74 105.95 54.34 95.73 123.88 76.63 126.28 86.85"/><rect class="cls-1" x="106.04" y="168.91" width="28.65" height="31.7" transform="translate(-64.4 305.12) rotate(-90)"/><rect class="cls-1" x="83.87" y="125.25" width="14.33" height="90.37" transform="translate(-79.4 261.47) rotate(-90)"/><rect class="cls-1" x="85.25" y="87.35" width="10.12" height="90.61" transform="translate(-42.35 222.97) rotate(-90)"/><rect class="cls-1" x="48.96" y="137.72" width="12.8" height="29.24"/><rect class="cls-1" x="85.39" y="140.29" width="15.23" height="26.66"/><rect class="cls-1" x="123.65" y="137.72" width="12.8" height="29.24"/><line class="cls-1" y1="213.78" x2="184.06" y2="213.78"/></g></g></svg>