<svg xmlns="http://www.w3.org/2000/svg" viewBox="0 0 173.27 114.98"><defs><style>.cls-1,.cls-2,.cls-3{fill:#fff;stroke:#fff;stroke-miterlimit:10;}.cls-1{stroke-width:7px;}.cls-2{stroke-width:2px;}.cls-3{stroke-width:0.75px;}</style></defs><title>Recurso 12</title><g id="Capa_2" data-name="Capa 2"><g id="Capa_1-2" data-name="Capa 1"><line class="cls-1" x1="3.5" y1="27.67" x2="3.5" y2="114.98"/><line class="cls-1" x1="85.34" y1="3.36" x2="3.5" y2="27.67"/><line class="cls-1" x1="169.77" y1="27.67" x2="169.77" y2="114.98"/><line class="cls-1" x1="169.77" y1="27.67" x2="85.34" y2="3.36"/><rect class="cls-1" x="13.17" y="95.01" width="15.3" height="15.3"/><rect class="cls-1" x="13.17" y="69.06" width="15.3" height="15.3"/><rect class="cls-1" x="38.15" y="95.01" width="15.3" height="15.3"/><rect class="cls-2" x="74.68" y="45.14" width="11.84" height="14.07" rx="5.4" ry="5.4"/><path class="cls-2" d="M73.23,88.89h0a3.86,3.86,0,0,1-2.14-4.58l4.49-18.53c.48-2,2.22-3.1,3.87-2.54h0a3.86,3.86,0,0,1,2.13,4.59L77.09,86.36C76.62,88.32,74.88,89.46,73.23,88.89Z"/><path class="cls-2" d="M72.27,84.71l1.45.49a1.65,1.65,0,0,1,.91,2l-5.48,22.61a1.31,1.31,0,0,1-1.64,1.07l-1.45-.49a1.65,1.65,0,0,1-.91-2l5.48-22.61A1.31,1.31,0,0,1,72.27,84.71Z"/><path class="cls-2" d="M74.6,84.9l1.4-.68a1.26,1.26,0,0,1,1.72.86l7.47,21.79a1.68,1.68,0,0,1-.73,2l-1.4.68a1.26,1.26,0,0,1-1.72-.86L73.87,87A1.67,1.67,0,0,1,74.6,84.9Z"/><path class="cls-2" d="M79.6,64.06l0,0a1.28,1.28,0,0,1,1.73.87l4.21,12.28a1.71,1.71,0,0,1-.73,2l0,0a1.27,1.27,0,0,1-1.73-.87L78.87,66.11A1.69,1.69,0,0,1,79.6,64.06Z"/><path class="cls-2" d="M83.1,78v0a1.44,1.44,0,0,1,1.39-1.49l11.15.69a1.51,1.51,0,0,1,1.26,1.65v.06a1.44,1.44,0,0,1-1.39,1.49l-11.15-.69A1.51,1.51,0,0,1,83.1,78Z"/><rect class="cls-2" x="123.89" y="47.29" width="11.84" height="14.07" rx="5.4" ry="5.4" transform="translate(259.62 108.65) rotate(-180)"/><path class="cls-2" d="M137.18,91.05h0a3.87,3.87,0,0,0,2.14-4.59l-4.49-18.53c-.48-2-2.21-3.1-3.86-2.53h0A3.86,3.86,0,0,0,128.83,70l4.49,18.52C133.8,90.47,135.53,91.61,137.18,91.05Z"/><path class="cls-2" d="M138.14,86.86l-1.45.5a1.63,1.63,0,0,0-.91,1.94l5.48,22.61A1.32,1.32,0,0,0,142.9,113l1.45-.5a1.64,1.64,0,0,0,.91-1.95l-5.48-22.6A1.32,1.32,0,0,0,138.14,86.86Z"/><path class="cls-2" d="M135.81,87.05l-1.4-.68a1.26,1.26,0,0,0-1.72.87L125.22,109a1.68,1.68,0,0,0,.73,2l1.4.67a1.26,1.26,0,0,0,1.72-.86l7.47-21.79A1.68,1.68,0,0,0,135.81,87.05Z"/><path class="cls-2" d="M130.81,66.21l0,0a1.27,1.27,0,0,0-1.73.86l-4.21,12.28a1.71,1.71,0,0,0,.73,2l0,0a1.26,1.26,0,0,0,1.72-.86l4.21-12.28A1.69,1.69,0,0,0,130.81,66.21Z"/><path class="cls-2" d="M127.31,80.13v-.06a1.45,1.45,0,0,0-1.39-1.49l-11.15.69a1.51,1.51,0,0,0-1.26,1.65V81a1.44,1.44,0,0,0,1.39,1.49l11.15-.69A1.5,1.5,0,0,0,127.31,80.13Z"/><rect class="cls-3" x="103.83" y="65.67" width="15.3" height="15.3"/></g></g></svg>