<svg xmlns="http://www.w3.org/2000/svg" viewBox="0 0 223.01 203.64"><defs><style>.cls-1{fill:#fff;stroke:#fff;stroke-miterlimit:10;stroke-width:7px;}</style></defs><title>Recurso 12</title><g id="Capa_2" data-name="Capa 2"><g id="Capa_1-2" data-name="Capa 1"><line class="cls-1" x1="98.05" y1="50.82" x2="99.17" y2="82.71"/><line class="cls-1" x1="155.65" y1="124.17" x2="138.61" y2="118.88"/><line class="cls-1" x1="99.17" y1="82.71" x2="123.28" y2="81.28"/><line class="cls-1" x1="138.61" y1="118.88" x2="142.54" y2="104.52"/><line class="cls-1" x1="123.28" y1="81.28" x2="117.34" y2="98.93"/><line class="cls-1" x1="142.54" y1="104.52" x2="117.34" y2="98.93"/><polygon class="cls-1" points="100.7 75.42 116.7 77.06 104.88 60.14 100.7 75.42"/><polygon class="cls-1" points="122.19 98.05 135.52 101.62 123.53 84.53 122.19 98.05"/><line class="cls-1" x1="220.31" y1="74.66" x2="160.78" y2="2.78"/><line class="cls-1" x1="220.31" y1="74.66" x2="152.74" y2="126.4"/><line class="cls-1" x1="160.78" y1="2.78" x2="95.64" y2="52.67"/><polygon class="cls-1" points="215.11 73.62 155.28 119.43 145.66 107.81 205.48 62 215.11 73.62"/><polygon class="cls-1" points="145.63 115.64 158.66 116.08 154.6 105.44 145.63 115.64"/><polygon class="cls-1" points="170.17 17.61 110.34 63.42 101.18 52.36 161.01 6.55 170.17 17.61"/><polygon class="cls-1" points="191.66 45.31 131.84 91.13 124.05 81.73 183.88 35.91 191.66 45.31"/><polygon class="cls-1" points="192.79 81.21 147.2 26.16 150.4 23.7 196 78.75 192.79 81.21"/><polygon class="cls-1" points="171.25 97.7 127.38 44.73 132.42 40.87 176.29 93.84 171.25 97.7"/><polygon class="cls-1" points="150.47 113.62 106.59 60.65 114.55 54.55 158.42 107.53 150.47 113.62"/><line class="cls-1" x1="13.12" y1="104.66" x2="55.69" y2="180.74"/><line class="cls-1" x1="13.12" y1="104.66" x2="81.92" y2="66.17"/><line class="cls-1" x1="55.69" y1="180.74" x2="122.64" y2="143.28"/><line class="cls-1" x1="81.92" y1="66.17" x2="79.05" y2="95.63"/><line class="cls-1" x1="122.64" y1="143.28" x2="108.63" y2="135.53"/><line class="cls-1" x1="79.05" y1="95.63" x2="99.96" y2="98.41"/><line class="cls-1" x1="108.63" y1="135.53" x2="113.73" y2="123.02"/><line class="cls-1" x1="99.96" y1="98.41" x2="92.73" y2="113.6"/><line class="cls-1" x1="113.73" y1="123.02" x2="92.73" y2="113.6"/><rect class="cls-1" x="21.65" y="97.3" width="24.72" height="28.68" transform="translate(-50.18 30.81) rotate(-29.22)"/><polygon class="cls-1" points="72.62 90.1 75.62 73.97 57.3 84.22 72.62 90.1"/><polygon class="cls-1" points="93.84 103.24 80.27 99.01 88.41 116.55 93.84 103.24"/><polygon class="cls-1" points="106.32 124.67 92.75 120.44 100.89 137.98 106.32 124.67"/><polygon class="cls-1" points="115.61 140.11 103.93 136.9 107.36 149.5 115.61 140.11"/><rect class="cls-1" x="47.56" y="143.61" width="24.72" height="28.68" transform="translate(-69.49 49.36) rotate(-29.22)"/><rect class="cls-1" x="51.57" y="87.89" width="12.36" height="81.75" transform="translate(-55.52 44.59) rotate(-29.22)"/><rect class="cls-1" x="81.51" y="71.3" width="8.73" height="81.97" transform="translate(-43.89 56.22) rotate(-29.22)"/><rect class="cls-1" x="49.83" y="80.37" width="11.58" height="25.22" transform="translate(109.61 -0.96) rotate(60.78)"/><rect class="cls-1" x="64.39" y="111.74" width="13.78" height="23" transform="translate(144.03 0.87) rotate(60.78)"/><rect class="cls-1" x="82.82" y="139.33" width="11.58" height="25.22" transform="translate(177.95 0.43) rotate(60.78)"/><line class="cls-1" y1="200.14" x2="223" y2="200.14"/></g></g></svg>