<svg xmlns="http://www.w3.org/2000/svg" viewBox="0 0 178.65 158.31"><defs><style>.cls-1{fill:#ffed00;}.cls-1,.cls-2,.cls-3{stroke:#fff;stroke-miterlimit:10;}.cls-2{fill:none;}.cls-3{fill:#fff;}</style></defs><title>Recurso 12</title><g id="Capa_2" data-name="Capa 2"><g id="Capa_1-2" data-name="Capa 1"><line class="cls-1" y1="97.65" x2="178.65" y2="97.65"/><path class="cls-2" d="M61,97.65c5,29,50,25.6,54.14,0"/><path class="cls-2" d="M45.1,95.81c5.9,50.22,81.33,45.73,81.33,0"/><path class="cls-2" d="M32.1,97.65c12,64.62,108.33,59.32,108.33,0"/><rect class="cls-2" x="126.11" y="1.76" width="42.57" height="94.06"/><rect class="cls-3" x="127.32" y="3.67" width="5.53" height="91.71"/><rect class="cls-3" x="160.74" y="3.67" width="5.37" height="90.25"/><rect class="cls-3" x="143.77" y="4.4" width="6.39" height="65.29"/><rect class="cls-3" x="128.34" y="13.79" width="37.77" height="8.48"/><rect class="cls-3" x="130.08" y="35.94" width="30.66" height="7.93"/><rect class="cls-3" x="130.21" y="61.38" width="33.22" height="10.67"/><rect class="cls-2" x="11" y="0.5" width="42.57" height="94.06"/><rect class="cls-3" x="12.21" y="2.41" width="5.53" height="91.71"/><rect class="cls-3" x="45.63" y="2.41" width="5.37" height="90.25"/><rect class="cls-3" x="28.67" y="3.14" width="6.39" height="65.29"/><rect class="cls-3" x="13.23" y="12.53" width="37.77" height="8.48"/><rect class="cls-3" x="14.98" y="34.69" width="30.66" height="7.93"/><rect class="cls-3" x="15.1" y="60.12" width="33.22" height="10.67"/><rect class="cls-2" x="67.53" y="1.15" width="42.57" height="94.06"/><rect class="cls-3" x="68.75" y="3.06" width="5.53" height="91.71"/><rect class="cls-3" x="102.17" y="3.06" width="5.37" height="90.25"/><rect class="cls-3" x="85.2" y="3.79" width="6.39" height="65.29"/><rect class="cls-3" x="69.76" y="13.18" width="37.77" height="8.48"/><rect class="cls-3" x="71.51" y="35.34" width="30.66" height="7.93"/><rect class="cls-3" x="71.64" y="60.77" width="33.22" height="10.67"/><path class="cls-2" d="M17.74,100.74c15.13,79.31,136.69,72.81,136.69,0"/><polygon class="cls-3" points="88.65 97.99 92.65 94.37 92.35 99.24 98.31 98.99 93.88 102.26 98.31 105.53 92.35 105.28 92.65 110.15 88.65 106.53 84.65 110.15 84.95 105.28 78.99 105.53 83.42 102.26 78.99 98.99 84.95 99.24 84.65 94.37 88.65 97.99"/></g></g></svg>