<svg xmlns="http://www.w3.org/2000/svg" viewBox="0 0 98.38 116.5"><defs><style>.cls-1{fill:#fff;}.cls-1,.cls-2{stroke:#fff;stroke-miterlimit:10;}.cls-2{fill:none;}</style></defs><title>Recurso 11</title><g id="Capa_2" data-name="Capa 2"><g id="Capa_1-2" data-name="Capa 1"><rect class="cls-1" x="25.18" y="18.57" width="9.1" height="100.41" transform="translate(38.37 -5.65) rotate(30)"/><rect class="cls-1" x="38.12" y="25.62" width="2.68" height="9.56" transform="translate(20.49 -15.66) rotate(30)"/><rect class="cls-1" x="36.85" y="35.37" width="21.15" height="4.78" transform="translate(25.24 -18.65) rotate(30)"/><rect class="cls-1" x="56.44" y="36.2" width="2.68" height="9.56" transform="translate(28.23 -23.4) rotate(30)"/><rect class="cls-1" x="28.56" y="42.18" width="2.68" height="9.56" transform="translate(27.49 -8.66) rotate(30)"/><rect class="cls-1" x="27.29" y="51.93" width="21.15" height="4.78" transform="translate(32.23 -11.66) rotate(30)"/><rect class="cls-1" x="46.88" y="52.75" width="2.68" height="9.56" transform="translate(35.23 -16.4) rotate(30)"/><rect class="cls-1" x="77.11" y="0.5" width="11.32" height="115.5"/><rect class="cls-1" x="68.21" y="12.93" width="3.33" height="11"/><rect class="cls-1" x="69.88" y="18.43" width="26.33" height="5.5"/><rect class="cls-1" x="94.54" y="12.93" width="3.33" height="11"/><rect class="cls-1" x="67.93" y="30.92" width="3.33" height="11"/><rect class="cls-1" x="69.6" y="36.42" width="26.33" height="5.5"/><rect class="cls-1" x="94.27" y="30.92" width="3.33" height="11"/><path class="cls-2" d="M47.42,37.76C67.11,37.76,83,30.35,83,21.18"/><path class="cls-2" d="M37.87,54.32c24.81,0,44.9-6.78,44.9-15.15"/></g></g></svg>