<svg xmlns="http://www.w3.org/2000/svg" viewBox="0 0 239.5 235.71"><defs><style>.cls-1{fill:#fff;}.cls-1,.cls-2{stroke:#fff;stroke-miterlimit:10;stroke-width:7px;}.cls-2{fill:none;}</style></defs><title>Recurso 11</title><g id="Capa_2" data-name="Capa 2"><g id="Capa_1-2" data-name="Capa 1"><path class="cls-1" d="M62.5,207.73c-37-5.52-59-33.78-59-75.52"/><path class="cls-1" d="M3.5,132.21c0-27,26-40,29.5-67"/><path class="cls-1" d="M33,65.21c6.91,0,12.5,12.08,12.5,27"/><path class="cls-2" d="M45.5,92.21c28.5-5,36.9-38,45-89"/><path class="cls-1" d="M90.5,3.21c32,13.83,50,37.75,64,75.5"/><path class="cls-1" d="M154.5,78.71c6.08,0,11-16.88,11-37.75"/><path class="cls-1" d="M165.5,41c39,37.75,89,121.51-17,166.77"/><path class="cls-2" d="M148.5,207.73c17-45.26,6-92-39-115.52"/><path class="cls-1" d="M109.5,92.21c4.29,6.72,10.46,35.74-19,50"/><path class="cls-1" d="M90.5,142.21c5,0,1.82-19.18-5-25"/><path class="cls-2" d="M85.5,117.21c-4,30-46.25,47.5-23,90.52"/><line class="cls-2" x1="2.5" y1="232.21" x2="239.5" y2="232.21"/><rect class="cls-1" x="156.08" y="74.46" width="40.28" height="100.25" rx="12" ry="12"/><ellipse class="cls-1" cx="108.06" cy="55.96" rx="25.06" ry="36.25"/><ellipse class="cls-1" cx="38.44" cy="132.21" rx="32.09" ry="35.63"/><ellipse class="cls-1" cx="198.61" cy="128.32" rx="9.75" ry="34.39"/><ellipse class="cls-1" cx="77.5" cy="97.84" rx="17.5" ry="23.38"/><ellipse class="cls-1" cx="134.75" cy="78.71" rx="16.25" ry="13.5"/><ellipse class="cls-1" cx="136" cy="84.28" rx="15" ry="24.44"/><circle class="cls-1" cx="147.38" cy="106.55" r="12.63"/><ellipse class="cls-1" cx="100" cy="109.27" rx="9.5" ry="19.05"/><ellipse class="cls-1" cx="39.25" cy="87.08" rx="6.25" ry="10.37"/><ellipse class="cls-1" cx="44.28" cy="178.71" rx="11.28" ry="18"/><polygon class="cls-1" points="30.88 77.84 17.48 100.09 44.28 100.09 30.88 77.84"/><polygon class="cls-1" points="94.28 6.97 89.22 32.45 114.43 23.36 94.28 6.97"/><polygon class="cls-1" points="170.44 47.96 161.66 76.56 188.09 72.12 170.44 47.96"/><polygon class="cls-1" points="84.54 56.46 71.14 78.71 97.94 78.71 84.54 56.46"/><polygon class="cls-1" points="60.6 117.6 69.97 141.82 86.4 120.65 60.6 117.6"/><polygon class="cls-1" points="48.46 174.71 39.25 196.96 57.68 196.96 48.46 174.71"/><polygon class="cls-1" points="54.84 92.93 41.44 110.21 68.24 110.21 54.84 92.93"/><polygon class="cls-1" points="146.18 113.8 155.55 138.02 171.97 116.84 146.18 113.8"/><polygon class="cls-1" points="32.81 85.12 40.29 91.89 36.2 75.62 32.81 85.12"/><polygon class="cls-1" points="162.19 181.84 155.9 197.74 179.1 184.34 162.19 181.84"/><polygon class="cls-1" points="173.25 156.85 160 179.1 186.5 179.1 173.25 156.85"/></g></g></svg>