<?xml version="1.0" encoding="UTF-8"?>
<!DOCTYPE svg PUBLIC "-//W3C//DTD SVG 1.1//EN" "http://www.w3.org/Graphics/SVG/1.1/DTD/svg11.dtd">
<!-- Creator: CorelDRAW 2018 (64 Bit Versión de evaluación) -->
<svg xmlns="http://www.w3.org/2000/svg" xml:space="preserve" width="215.9mm" height="279.4mm" version="1.1" style="shape-rendering:geometricPrecision; text-rendering:geometricPrecision; image-rendering:optimizeQuality; fill-rule:evenodd; clip-rule:evenodd"
viewBox="0 0 21590 27940"
 xmlns:xlink="http://www.w3.org/1999/xlink">
 <defs>
  <style type="text/css">
   <![CDATA[
    .str0 {stroke:#FEFEFE;stroke-width:20;stroke-miterlimit:22.9256}
    .fil0 {fill:#FEFEFE}
   ]]>
  </style>
 </defs>
 <g id="Capa_x0020_1">
  <metadata id="CorelCorpID_0Corel-Layer"/>
  <g id="_697694423632">
   <path class="fil0 str0" d="M4745.11 7628.95l3330.15 0 0 6274.16 -3330.15 0 0 -6274.16zm1609.73 3113.44c-50.15,24.64 -67.13,90.34 -44.51,156.92 173.28,1.5 247.1,1.21 409.34,-10.04 47.49,-45.96 22.6,-134.17 -74.7,-143.96 -0.87,-85.9 -2.74,-183.35 -0.26,-270.51 1.07,-37.47 244.98,-43.03 262.45,-48.32 201.51,-61.17 187.97,-236.16 186.93,-333.03 -1.61,-150.18 -3.61,-396.64 -288.48,-429.14 -71.95,-8.21 -227.32,-16.94 -502.66,6.68 -23.96,49.93 37.9,75.52 43.49,147.48 17.96,231.35 23.79,632.03 8.4,923.92zm-637.81 -916.46c0.22,245.86 -17.06,652.76 -11.48,924.6 1.25,61.25 -110.71,128.77 -49.48,129.5 73.43,0.88 559.35,31.69 581.32,-7.46 8.3,-14.77 27.75,-270.02 17.02,-267.58 -60.4,13.74 -121.07,-9.73 -123.41,25.89 -2.51,38.2 -27.75,77.31 -37.54,122.18l-86.99 4.06c-19.99,-231.15 32.68,-341.2 30.65,-372.38 -15.92,-244.66 -12.32,-316.45 -33.28,-554.99 62.65,-29.46 133.82,-139.34 70.91,-146.62 -177.6,-20.57 -224.37,-23.11 -423.17,-5.12 0,0 -32.35,63.05 65.45,147.92z"/>
   <path class="fil0 str0" d="M6642.08 9786.97c3.01,90.48 0,585.18 0,585.18 41.22,-28.15 79.37,-19.87 123.67,-84.45 13.84,-157.49 21.64,-291.05 -12.07,-455.5 -10.06,-69.38 -62.33,-75.4 -111.6,-45.23z"/>
   <rect class="fil0 str0" x="5372.2" y="5897.12" width="2061.06" height="1731.82"/>
  </g>
  <g id="_697694423056">
   <ellipse class="fil0 str0" cx="8629.15" cy="5341.01" rx="1140.07" ry="855.05"/>
   <ellipse class="fil0 str0" cx="8572.76" cy="3872.82" rx="1083.68" ry="1096.96"/>
   <ellipse class="fil0 str0" cx="9898.88" cy="3357" rx="1010.4" ry="1151.17"/>
   <ellipse class="fil0 str0" cx="10830.21" cy="4564.33" rx="1631.03" ry="1061.69"/>
   <ellipse class="fil0 str0" cx="11036.59" cy="3352.63" rx="1012.76" ry="1146.8"/>
  </g>
 </g>
</svg>
