<svg xmlns="http://www.w3.org/2000/svg" viewBox="0 0 141.94 117.88"><defs><style>.cls-1,.cls-4{fill:#fff;}.cls-1,.cls-2,.cls-3,.cls-4{stroke:#fff;stroke-miterlimit:10;}.cls-1,.cls-2{stroke-width:7px;}.cls-2{fill:none;}.cls-3{fill:#009640;stroke-width:8px;}.cls-4{stroke-width:3px;}</style></defs><title>Recurso 12</title><g id="Capa_2" data-name="Capa 2"><g id="Capa_1-2" data-name="Capa 1"><rect class="cls-1" x="10.5" y="29.05" width="34.23" height="81.16"/><rect class="cls-1" x="11.47" y="30.71" width="4.44" height="79.14"/><rect class="cls-1" x="38.35" y="30.71" width="4.32" height="77.88"/><rect class="cls-1" x="24.71" y="31.34" width="5.14" height="56.33"/><rect class="cls-1" x="12.29" y="39.44" width="30.38" height="7.32"/><rect class="cls-1" x="13.7" y="58.55" width="24.65" height="6.84"/><rect class="cls-1" x="13.8" y="80.5" width="26.71" height="9.2"/><rect class="cls-1" x="95.23" y="29.05" width="34.23" height="81.16"/><rect class="cls-1" x="96.21" y="30.71" width="4.44" height="79.14"/><rect class="cls-1" x="123.09" y="30.71" width="4.32" height="77.88"/><rect class="cls-1" x="109.44" y="31.34" width="5.14" height="56.33"/><rect class="cls-1" x="97.03" y="39.44" width="30.38" height="7.32"/><rect class="cls-1" x="98.43" y="58.55" width="24.65" height="6.84"/><rect class="cls-1" x="98.53" y="80.5" width="26.71" height="9.2"/><rect class="cls-2" x="46.14" y="3.5" width="47.64" height="108.64" rx="12" ry="12"/><line class="cls-3" y1="113.88" x2="141.94" y2="113.88"/><rect class="cls-4" x="49.82" y="33.41" width="10.5" height="75.17"/><rect class="cls-4" x="77.57" y="28.55" width="13.75" height="80.03"/><rect class="cls-4" x="56.44" y="37.57" width="29.02" height="42.93"/><rect class="cls-4" x="56.02" y="7.32" width="8.59" height="12.06"/><rect class="cls-4" x="72.97" y="7.32" width="8.59" height="12.06"/><rect class="cls-4" x="56.85" y="27.38" width="8.59" height="12.06"/><rect class="cls-4" x="73.48" y="27.68" width="8.59" height="12.06"/><rect class="cls-4" x="47.43" y="7.32" width="10.64" height="27.44"/><rect class="cls-4" x="81.16" y="5.66" width="8.59" height="27.44"/><rect class="cls-4" x="65.24" y="6.03" width="7.11" height="5.45"/></g></g></svg>