<?xml version="1.0" encoding="UTF-8"?>
<!DOCTYPE svg PUBLIC "-//W3C//DTD SVG 1.1//EN" "http://www.w3.org/Graphics/SVG/1.1/DTD/svg11.dtd">
<!-- Creator: CorelDRAW 2018 (64 Bit Versión de evaluación) -->
<svg xmlns="http://www.w3.org/2000/svg" xml:space="preserve" width="215.9mm" height="279.4mm" version="1.1" style="shape-rendering:geometricPrecision; text-rendering:geometricPrecision; image-rendering:optimizeQuality; fill-rule:evenodd; clip-rule:evenodd"
viewBox="0 0 21590 27940"
 xmlns:xlink="http://www.w3.org/1999/xlink">
 <defs>
  <style type="text/css">
   <![CDATA[
    .str1 {stroke:#FEFEFE;stroke-width:200;stroke-miterlimit:6.76547}
    .str2 {stroke:#FEFEFE;stroke-width:150;stroke-miterlimit:16.3804}
    .str0 {stroke:#FEFEFE;stroke-width:20;stroke-miterlimit:22.9256}
    .fil1 {fill:none}
    .fil0 {fill:#FEFEFE}
   ]]>
  </style>
 </defs>
 <g id="Capa_x0020_1">
  <metadata id="CorelCorpID_0Corel-Layer"/>
  <g id="_779601413408">
   <rect class="fil0 str0" transform="matrix(0.778584 0.390662 -0.448471 0.893797 7230.19 6327.05)" width="1093.61" height="7902.23"/>
   <g>
    <path class="fil0 str0" d="M7697.73 3616.8l2318.97 1163.56 -1496.85 2983.2 -2318.96 -1163.56 1496.84 -2983.2zm-258.43 2690.65l913.63 -342.5 -284.62 -145.04 338.66 -268.73 -254.91 -124.26 -416.92 330.31 163.31 87.72 -459.15 462.5z"/>
    <rect class="fil0 str0" transform="matrix(0.660648 0.331486 -0.331486 0.660648 7564.03 3330.9)" width="4180.42" height="529.17"/>
    <g>
     <path class="fil0 str0" d="M10147.62 3153.12c121.66,-128.6 263.34,-35.45 233.07,116.94l-763.68 1522 -233.06 -116.94 763.67 -1522z"/>
     <ellipse class="fil0 str0" transform="matrix(0.60356 0.302842 -0.302842 0.60356 9771.11 4252.35)" rx="714.37" ry="97.01"/>
     <ellipse class="fil0 str0" transform="matrix(0.60356 0.302842 -0.302842 0.60356 9864.75 4007.59)" rx="714.37" ry="97.01"/>
     <ellipse class="fil0 str0" transform="matrix(0.60356 0.302842 -0.302842 0.60356 9946.67 3800.72)" rx="714.37" ry="97.01"/>
     <ellipse class="fil0 str0" transform="matrix(0.60356 0.302842 -0.302842 0.60356 10060.6 3631.79)" rx="714.37" ry="97.01"/>
     <ellipse class="fil0 str0" transform="matrix(0.60356 0.302842 -0.302842 0.60356 10171.7 3410.38)" rx="714.37" ry="97.01"/>
    </g>
    <g>
     <path class="fil0 str0" d="M8783.63 2470.19c121.65,-128.6 263.34,-35.45 233.07,116.94l-763.68 1521.99 -233.06 -116.94 763.67 -1521.99z"/>
     <ellipse class="fil0 str0" transform="matrix(0.60356 0.302842 -0.302842 0.60356 8407.12 3569.41)" rx="714.37" ry="97.01"/>
     <ellipse class="fil0 str0" transform="matrix(0.60356 0.302842 -0.302842 0.60356 8500.76 3324.66)" rx="714.37" ry="97.01"/>
     <ellipse class="fil0 str0" transform="matrix(0.60356 0.302842 -0.302842 0.60356 8582.68 3117.79)" rx="714.37" ry="97.01"/>
     <ellipse class="fil0 str0" transform="matrix(0.60356 0.302842 -0.302842 0.60356 8696.62 2948.85)" rx="714.37" ry="97.01"/>
     <ellipse class="fil0 str0" transform="matrix(0.60356 0.302842 -0.302842 0.60356 8807.71 2727.44)" rx="714.37" ry="97.01"/>
    </g>
    <rect class="fil0 str0" transform="matrix(0.660648 0.331486 -0.331486 0.660648 7268.3 4345.84)" width="3686.54" height="335.14"/>
   </g>
  </g>
  <g id="_779601412224">
   <rect class="fil0 str0" x="12025.63" y="1950.17" width="952.64" height="11923.88"/>
   <rect class="fil0 str0" x="11098.9" y="2638.08" width="299.86" height="776.11"/>
   <rect class="fil0 str0" x="11098.9" y="3026.15" width="2910.42" height="388.05"/>
   <rect class="fil0 str0" x="13709.46" y="2635.87" width="299.86" height="778.33"/>
   <rect class="fil0 str0" x="11084.65" y="3953.27" width="299.86" height="776.11"/>
   <rect class="fil0 str0" x="11084.65" y="4341.33" width="2910.42" height="388.05"/>
   <rect class="fil0 str0" x="13695.21" y="3951.06" width="299.86" height="778.33"/>
  </g>
  <g id="_779601409664">
   <rect class="fil0 str0" x="16862.43" y="1985.89" width="952.64" height="11923.88"/>
   <rect class="fil0 str0" x="15935.7" y="2673.81" width="299.86" height="776.11"/>
   <rect class="fil0 str0" x="15935.7" y="3061.86" width="2910.42" height="388.05"/>
   <rect class="fil0 str0" x="18546.26" y="2671.59" width="299.86" height="778.33"/>
   <rect class="fil0 str0" x="15921.45" y="3988.99" width="299.86" height="776.11"/>
   <rect class="fil0 str0" x="15921.45" y="4377.06" width="2910.42" height="388.05"/>
   <rect class="fil0 str0" x="18532.01" y="3986.78" width="299.86" height="778.33"/>
  </g>
  <line class="fil1 str1" x1="2864.52" y1="13970" x2="21411.81" y2= "13970" />
  <path class="fil1 str2" d="M8538.12 6702.43c1668.01,251.37 2524.62,220.5 4086.8,-1768.27"/>
  <path class="fil1 str2" d="M8774.4 5378.7c929.41,189.18 2460.18,-1037.36 3779.71,-2158.52"/>
  <path class="fil1 str2" d="M12542.16 3774.37c1897.31,198.45 3141.98,255.78 4686.52,-1080.36"/>
  <path class="fil1 str2" d="M12525.46 5059.32c1526.9,815.81 3687.87,540.69 4773.79,-1007.11"/>
 </g>
</svg>
