<svg xmlns="http://www.w3.org/2000/svg" viewBox="0 0 207.61 145.82"><defs><style>.cls-1{fill:#fff;stroke:#fff;stroke-miterlimit:10;stroke-width:7px;}</style></defs><title>Recurso 13</title><g id="Capa_2" data-name="Capa 2"><g id="Capa_1-2" data-name="Capa 1"><line class="cls-1" x1="24.24" y1="37.55" x2="24.24" y2="85.9"/><line class="cls-1" x1="24.24" y1="37.55" x2="61.47" y2="37.55"/><line class="cls-1" x1="24.24" y1="85.9" x2="60.47" y2="85.89"/><line class="cls-1" x1="61.47" y1="37.55" x2="53.49" y2="51.03"/><line class="cls-1" x1="60.47" y1="85.89" x2="56.48" y2="78.35"/><line class="cls-1" x1="53.49" y1="51.03" x2="61.47" y2="58.04"/><line class="cls-1" x1="56.48" y1="78.35" x2="61.47" y2="73.67"/><line class="cls-1" x1="61.47" y1="58.04" x2="54.99" y2="63.43"/><line class="cls-1" x1="61.47" y1="73.67" x2="54.99" y2="63.43"/><rect class="cls-1" x="25.4" y="38.63" width="27.1" height="44.21"/><polygon class="cls-1" points="52.12 46.61 57.07 39.62 47.16 39.62 52.12 46.61"/><polygon class="cls-1" points="57.83 58.72 53.22 53 52.53 63.69 57.83 58.72"/><polygon class="cls-1" points="58.04 72.47 53.42 66.75 52.73 77.44 58.04 72.47"/><polygon class="cls-1" points="58.3 82.45 54.23 77.74 52.74 84.77 58.3 82.45"/><line class="cls-1" x1="24.19" y1="85.72" x2="24.19" y2="134.06"/><line class="cls-1" x1="24.19" y1="85.72" x2="61.42" y2="85.72"/><line class="cls-1" x1="24.19" y1="134.06" x2="60.42" y2="134.06"/><line class="cls-1" x1="61.42" y1="85.72" x2="53.44" y2="99.2"/><line class="cls-1" x1="60.42" y1="134.06" x2="56.44" y2="126.51"/><line class="cls-1" x1="53.44" y1="99.2" x2="61.42" y2="106.2"/><line class="cls-1" x1="56.44" y1="126.51" x2="61.42" y2="121.84"/><line class="cls-1" x1="61.42" y1="106.2" x2="54.94" y2="111.6"/><line class="cls-1" x1="61.42" y1="121.84" x2="54.94" y2="111.6"/><rect class="cls-1" x="25.35" y="86.8" width="27.1" height="44.21"/><polygon class="cls-1" points="52.07 94.78 57.03 87.78 47.11 87.78 52.07 94.78"/><polygon class="cls-1" points="57.78 106.88 53.17 101.16 52.48 111.86 57.78 106.88"/><polygon class="cls-1" points="57.99 120.63 53.37 114.91 52.68 125.6 57.99 120.63"/><polygon class="cls-1" points="58.26 130.62 54.19 125.9 52.69 132.93 58.26 130.62"/><line class="cls-1" x1="183.33" y1="95.19" x2="192.95" y2="47.81"/><line class="cls-1" x1="183.33" y1="95.19" x2="149.21" y2="88.27"/><line class="cls-1" x1="192.95" y1="47.81" x2="160.04" y2="41.14"/><line class="cls-1" x1="161.26" y1="41.39" x2="150.76" y2="53.01"/><line class="cls-1" x1="150.67" y1="88.56" x2="148.26" y2="80.38"/><line class="cls-1" x1="150.76" y1="53.01" x2="157.19" y2="61.47"/><line class="cls-1" x1="148.26" y1="80.38" x2="154.08" y2="76.79"/><line class="cls-1" x1="157.19" y1="61.47" x2="149.76" y2="65.46"/><line class="cls-1" x1="154.08" y1="76.79" x2="149.76" y2="65.46"/><rect class="cls-1" x="156.72" y="46.15" width="30.83" height="44.21" transform="translate(17.01 -32.86) rotate(11.47)"/><polygon class="cls-1" points="153.6 51.02 156.99 57.54 159.79 47.2 153.6 51.02"/><polygon class="cls-1" points="151.27 66.9 154.65 73.42 157.46 63.08 151.27 66.9"/><polygon class="cls-1" points="151.54 80.86 154.18 86.86 157.72 79.58 151.54 80.86"/><line class="cls-1" x1="173.71" y1="142.39" x2="183.32" y2="95.01"/><line class="cls-1" x1="173.71" y1="142.39" x2="139.58" y2="135.46"/><line class="cls-1" x1="183.32" y1="95.01" x2="150.42" y2="88.33"/><line class="cls-1" x1="151.64" y1="88.58" x2="141.14" y2="100.2"/><line class="cls-1" x1="141.05" y1="135.76" x2="138.64" y2="127.57"/><line class="cls-1" x1="141.14" y1="100.2" x2="147.56" y2="108.66"/><line class="cls-1" x1="138.64" y1="127.57" x2="144.45" y2="123.98"/><line class="cls-1" x1="147.56" y1="108.66" x2="140.14" y2="112.65"/><line class="cls-1" x1="144.45" y1="123.98" x2="140.14" y2="112.65"/><rect class="cls-1" x="147.1" y="93.34" width="30.83" height="44.21" transform="translate(26.2 -30.01) rotate(11.47)"/><polygon class="cls-1" points="143.98 98.21 147.37 104.73 150.17 94.39 143.98 98.21"/><polygon class="cls-1" points="141.64 114.09 145.03 120.62 147.83 110.27 141.64 114.09"/><polygon class="cls-1" points="141.92 128.05 144.56 134.06 148.09 126.77 141.92 128.05"/><line class="cls-1" x1="110.12" y1="85.99" x2="110.12" y2="37.64"/><line class="cls-1" x1="110.12" y1="85.99" x2="75.3" y2="85.99"/><line class="cls-1" x1="110.12" y1="37.64" x2="76.55" y2="37.64"/><line class="cls-1" x1="77.79" y1="37.64" x2="69.82" y2="51.12"/><line class="cls-1" x1="76.8" y1="85.98" x2="72.81" y2="78.44"/><line class="cls-1" x1="69.82" y1="51.12" x2="77.79" y2="58.13"/><line class="cls-1" x1="72.81" y1="78.44" x2="77.79" y2="73.77"/><line class="cls-1" x1="77.79" y1="58.13" x2="71.31" y2="63.52"/><line class="cls-1" x1="77.79" y1="73.77" x2="71.31" y2="63.52"/><rect class="cls-1" x="78.38" y="39.71" width="30.83" height="44.21"/><polygon class="cls-1" points="72.2 48.6 76.82 54.32 77.51 43.63 72.2 48.6"/><polygon class="cls-1" points="73.07 64.63 77.69 70.35 78.38 59.66 73.07 64.63"/><polygon class="cls-1" points="76.12 78.26 79.9 83.62 81.92 75.78 76.12 78.26"/><line class="cls-1" x1="102.94" y1="37.67" x2="102.94" y2="86.01"/><line class="cls-1" x1="102.94" y1="37.67" x2="140.17" y2="37.67"/><line class="cls-1" x1="102.94" y1="86.01" x2="139.17" y2="86.01"/><line class="cls-1" x1="140.17" y1="37.67" x2="132.19" y2="51.14"/><line class="cls-1" x1="139.17" y1="86.01" x2="135.19" y2="78.46"/><line class="cls-1" x1="132.19" y1="51.14" x2="140.17" y2="58.15"/><line class="cls-1" x1="135.19" y1="78.46" x2="140.17" y2="73.79"/><line class="cls-1" x1="140.17" y1="58.15" x2="133.69" y2="63.55"/><line class="cls-1" x1="140.17" y1="73.79" x2="133.69" y2="63.55"/><rect class="cls-1" x="104.1" y="38.75" width="27.1" height="44.21"/><polygon class="cls-1" points="130.82 46.73 135.78 39.73 125.86 39.73 130.82 46.73"/><polygon class="cls-1" points="136.53 58.83 131.92 53.11 131.23 63.8 136.53 58.83"/><polygon class="cls-1" points="136.74 72.58 132.12 66.86 131.43 77.55 136.74 72.58"/><polygon class="cls-1" points="137.01 82.57 132.94 77.85 131.44 84.88 137.01 82.57"/><line class="cls-1" x1="110.08" y1="134.15" x2="110.08" y2="85.81"/><line class="cls-1" x1="110.08" y1="134.15" x2="75.25" y2="134.15"/><line class="cls-1" x1="110.08" y1="85.81" x2="76.5" y2="85.81"/><line class="cls-1" x1="77.75" y1="85.81" x2="69.77" y2="99.29"/><line class="cls-1" x1="76.75" y1="134.15" x2="72.76" y2="126.6"/><line class="cls-1" x1="69.77" y1="99.29" x2="77.75" y2="106.3"/><line class="cls-1" x1="72.76" y1="126.6" x2="77.75" y2="121.93"/><line class="cls-1" x1="77.75" y1="106.3" x2="71.26" y2="111.69"/><line class="cls-1" x1="77.75" y1="121.93" x2="71.26" y2="111.69"/><rect class="cls-1" x="78.33" y="87.87" width="30.83" height="44.21"/><polygon class="cls-1" points="72.16 96.77 76.77 102.49 77.46 91.8 72.16 96.77"/><polygon class="cls-1" points="73.03 112.8 77.64 118.52 78.33 107.82 73.03 112.8"/><polygon class="cls-1" points="76.07 126.42 79.85 131.78 81.87 123.94 76.07 126.42"/><line class="cls-1" x1="102.89" y1="85.83" x2="102.89" y2="134.18"/><line class="cls-1" x1="102.89" y1="85.83" x2="140.12" y2="85.83"/><line class="cls-1" x1="102.89" y1="134.18" x2="139.13" y2="134.17"/><line class="cls-1" x1="140.12" y1="85.83" x2="132.15" y2="99.31"/><line class="cls-1" x1="139.13" y1="134.17" x2="135.14" y2="126.63"/><line class="cls-1" x1="132.15" y1="99.31" x2="140.12" y2="106.32"/><line class="cls-1" x1="135.14" y1="126.63" x2="140.12" y2="121.96"/><line class="cls-1" x1="140.12" y1="106.32" x2="133.64" y2="111.71"/><line class="cls-1" x1="140.12" y1="121.96" x2="133.64" y2="111.71"/><rect class="cls-1" x="104.05" y="86.91" width="27.1" height="44.21"/><polygon class="cls-1" points="130.77 94.89 135.73 87.9 125.81 87.9 130.77 94.89"/><polygon class="cls-1" points="136.49 107 131.87 101.28 131.18 111.97 136.49 107"/><polygon class="cls-1" points="136.69 120.75 132.07 115.03 131.38 125.72 136.69 120.75"/><polygon class="cls-1" points="136.96 130.74 132.89 126.02 131.39 133.05 136.96 130.74"/><line class="cls-1" x1="104.91" y1="3.56" x2="1.36" y2="47.3"/><line class="cls-1" x1="102.7" y1="3.22" x2="206.25" y2="46.97"/></g></g></svg>