<svg xmlns="http://www.w3.org/2000/svg" viewBox="0 0 206.28 137.16"><defs><style>.cls-1{fill:#fff;stroke:#fff;stroke-miterlimit:10;stroke-width:7px;}</style></defs><title>Recurso 12</title><g id="Capa_2" data-name="Capa 2"><g id="Capa_1-2" data-name="Capa 1"><line class="cls-1" x1="31.1" y1="37.64" x2="31.1" y2="133.21"/><line class="cls-1" x1="31.1" y1="37.64" x2="100.14" y2="37.64"/><line class="cls-1" x1="31.1" y1="133.21" x2="98.29" y2="133.2"/><line class="cls-1" x1="100.14" y1="37.64" x2="85.35" y2="64.29"/><line class="cls-1" x1="98.29" y1="133.2" x2="90.9" y2="118.29"/><line class="cls-1" x1="85.35" y1="64.29" x2="100.14" y2="78.14"/><line class="cls-1" x1="90.9" y1="118.29" x2="100.14" y2="109.05"/><line class="cls-1" x1="100.14" y1="78.14" x2="88.12" y2="88.8"/><line class="cls-1" x1="100.14" y1="109.05" x2="88.12" y2="88.8"/><line class="cls-1" x1="172.25" y1="133.21" x2="172.25" y2="37.64"/><line class="cls-1" x1="172.25" y1="133.21" x2="107.69" y2="133.21"/><line class="cls-1" x1="172.25" y1="37.64" x2="110" y2="37.65"/><line class="cls-1" x1="112.31" y1="37.65" x2="97.52" y2="64.29"/><line class="cls-1" x1="110.46" y1="133.21" x2="103.07" y2="118.29"/><line class="cls-1" x1="97.52" y1="64.29" x2="112.31" y2="78.15"/><line class="cls-1" x1="103.07" y1="118.29" x2="112.31" y2="109.06"/><line class="cls-1" x1="112.31" y1="78.15" x2="100.29" y2="88.81"/><line class="cls-1" x1="112.31" y1="109.06" x2="100.29" y2="88.81"/><rect class="cls-1" x="33.26" y="39.78" width="50.24" height="87.39"/><rect class="cls-1" x="113.39" y="41.73" width="57.17" height="87.39"/><polygon class="cls-1" points="101.95 59.31 110.51 70.62 111.79 49.48 101.95 59.31"/><polygon class="cls-1" points="103.56 91 112.11 102.31 113.39 81.17 103.56 91"/><polygon class="cls-1" points="109.2 117.93 116.21 128.53 119.95 113.02 109.2 117.93"/><polygon class="cls-1" points="82.8 55.56 91.99 41.73 73.61 41.73 82.8 55.56"/><polygon class="cls-1" points="93.4 79.48 84.84 68.18 83.56 89.31 93.4 79.48"/><polygon class="cls-1" points="93.78 106.66 85.22 95.35 83.94 116.49 93.78 106.66"/><polygon class="cls-1" points="94.27 126.41 86.72 117.08 83.95 130.98 94.27 126.41"/><line class="cls-1" x1="104.91" y1="3.22" x2="1.36" y2="46.97"/><line class="cls-1" x1="101.36" y1="3.22" x2="204.91" y2="46.97"/></g></g></svg>