<svg xmlns="http://www.w3.org/2000/svg" viewBox="0 0 214.13 172.18"><defs><style>.cls-1,.cls-2{fill:#fff;stroke:#fff;stroke-miterlimit:10;}.cls-1{stroke-width:5px;}.cls-2{stroke-width:2px;}</style></defs><title>Recurso 12</title><g id="Capa_2" data-name="Capa 2"><g id="Capa_1-2" data-name="Capa 1"><line class="cls-1" x1="106.05" y1="2.26" x2="2.13" y2="51.58"/><line class="cls-1" x1="12.11" y1="67.8" x2="2.13" y2="51.58"/><line class="cls-1" x1="26.52" y1="64.55" x2="12.11" y2="67.8"/><line class="cls-1" x1="26.52" y1="169.68" x2="26.52" y2="64.55"/><line class="cls-1" x1="185.58" y1="169.68" x2="26.52" y2="169.68"/><rect class="cls-2" x="35.52" y="86.78" width="9.28" height="77.22" rx="2.15" ry="2.15"/><rect class="cls-2" x="172.07" y="103.98" width="9.28" height="60.03" rx="2.15" ry="2.15"/><rect class="cls-2" x="40.16" y="125.39" width="139.04" height="27.74" rx="5.81" ry="5.81"/><rect class="cls-2" x="54.09" y="111.76" width="28.27" height="8.27" rx="1.73" ry="1.73"/><rect class="cls-2" x="77.37" y="94.73" width="8.31" height="25.31" rx="1.93" ry="1.93"/><ellipse class="cls-2" cx="63.23" cy="97.16" rx="8.8" ry="10.3"/><rect class="cls-2" x="90.67" y="94.73" width="75.24" height="25.31" rx="2.5" ry="2.5"/><line class="cls-1" x1="108.08" y1="4.01" x2="212" y2="53.33"/><line class="cls-1" x1="202.02" y1="69.55" x2="212" y2="53.33"/><line class="cls-1" x1="187.61" y1="66.31" x2="202.02" y2="69.55"/><line class="cls-1" x1="187.61" y1="171.43" x2="187.61" y2="66.31"/></g></g></svg>