<svg xmlns="http://www.w3.org/2000/svg" viewBox="0 0 193.04 224.45"><defs><style>.cls-1{fill:#fff;}.cls-1,.cls-2{stroke:#fff;stroke-miterlimit:10;stroke-width:7px;}.cls-2{fill:none;}</style></defs><title>Recurso 12</title><g id="Capa_2" data-name="Capa 2"><g id="Capa_1-2" data-name="Capa 1"><line class="cls-1" x1="190.48" y1="176.25" x2="155.78" y2="148.76"/><line class="cls-1" x1="190.48" y1="176.25" x2="146.67" y2="221.9"/><line class="cls-1" x1="155.78" y1="148.76" x2="113.54" y2="192.77"/><line class="cls-1" x1="115.11" y1="191.14" x2="114.74" y2="209.26"/><line class="cls-1" x1="148.55" y1="219.94" x2="138.12" y2="220.88"/><line class="cls-1" x1="114.74" y1="209.26" x2="129.81" y2="202.79"/><line class="cls-1" x1="138.12" y1="220.88" x2="141.04" y2="211.68"/><line class="cls-1" x1="129.81" y1="202.79" x2="125.53" y2="214.35"/><line class="cls-1" x1="141.04" y1="211.68" x2="125.53" y2="214.35"/><polygon class="cls-1" points="187.85 176.27 149.06 216.69 117.32 191.55 156.11 151.13 187.85 176.27"/><polygon class="cls-1" points="115.94 204.7 125.86 201.9 119.05 194.92 115.94 204.7"/><polygon class="cls-1" points="128.54 212.68 138.45 209.88 131.65 202.89 128.54 212.68"/><polygon class="cls-1" points="142.15 216.44 150.75 214.52 147.66 207.42 142.15 216.44"/><line class="cls-1" x1="50.75" y1="140.52" x2="2.98" y2="161.66"/><line class="cls-1" x1="50.75" y1="140.52" x2="88.66" y2="201.9"/><line class="cls-1" x1="2.98" y1="161.66" x2="39.88" y2="221.4"/><line class="cls-1" x1="88.66" y1="201.9" x2="67.22" y2="194.64"/><line class="cls-1" x1="39.88" y1="221.4" x2="43.27" y2="211.52"/><line class="cls-1" x1="67.22" y1="194.64" x2="68.42" y2="210.86"/><line class="cls-1" x1="43.27" y1="211.52" x2="52.97" y2="217.7"/><line class="cls-1" x1="68.42" y1="210.86" x2="56.49" y2="202.53"/><line class="cls-1" x1="52.97" y1="217.7" x2="56.49" y2="202.53"/><polygon class="cls-1" points="34.77 206.91 7.18 162.25 50.87 142.91 78.46 187.58 34.77 206.91"/><polygon class="cls-1" points="70.19 190.45 82.14 195.56 72.05 179.22 70.19 190.45"/><polygon class="cls-1" points="64.04 205.16 65 195.05 53.73 198.59 64.04 205.16"/><polygon class="cls-1" points="50.66 211.51 51.62 201.4 40.35 204.94 50.66 211.51"/><polygon class="cls-1" points="41.07 216.32 41.58 207.55 33.12 208.16 41.07 216.32"/><rect class="cls-2" x="56.63" y="3.5" width="91.56" height="171.95"/><rect class="cls-1" x="59.24" y="7" width="11.89" height="167.67"/><rect class="cls-1" x="131.13" y="7" width="11.55" height="165"/><rect class="cls-1" x="94.63" y="8.33" width="13.75" height="119.36"/><rect class="cls-1" x="61.43" y="25.5" width="81.25" height="15.5"/><rect class="cls-1" x="65.19" y="66" width="65.95" height="14.5"/><rect class="cls-1" x="65.46" y="112.5" width="71.45" height="19.5"/></g></g></svg>