<?xml version="1.0" encoding="UTF-8"?>
<!DOCTYPE svg PUBLIC "-//W3C//DTD SVG 1.1//EN" "http://www.w3.org/Graphics/SVG/1.1/DTD/svg11.dtd">
<!-- Creator: CorelDRAW 2018 (64 Bit Versión de evaluación) -->
<svg xmlns="http://www.w3.org/2000/svg" xml:space="preserve" width="2550px" height="3300px" version="1.1" style="shape-rendering:geometricPrecision; text-rendering:geometricPrecision; image-rendering:optimizeQuality; fill-rule:evenodd; clip-rule:evenodd"
viewBox="0 0 2550 3300"
 xmlns:xlink="http://www.w3.org/1999/xlink">
 <defs>
  <style type="text/css">
   <![CDATA[
    .str0 {stroke:#FEFEFE;stroke-width:2.36;stroke-miterlimit:22.9256}
    .fil0 {fill:#FEFEFE}
   ]]>
  </style>
 </defs>
 <g id="Capa_x0020_1">
  <metadata id="CorelCorpID_0Corel-Layer"/>
  <path class="fil0 str0" d="M1419.23 1943.1l-501.51 -11.95c-161.11,-338.34 -372.81,-561.75 -332.34,-991.89 69.98,-506.22 307.14,-648.24 606.98,-620.11 419.92,-35.82 617.26,379.11 619.26,686.59 -37.82,445.79 -241.14,808 -392.39,937.36zm-134.81 -343.95c31.22,-10.05 97.23,-66.77 91.14,-116.53 -6.64,-54.15 -77,-71.89 -93.72,-80.78 -24.77,-13.18 -69.53,-14.08 -91.44,-10.94l-88.07 20.9c-50.97,23.67 -60.65,81.62 -43.15,127.79 4.7,12.41 16.51,42.29 69.32,63.3l155.92 -3.74zm46.3 -501.14c58.41,-185.77 70.28,-224.78 50.75,-289.28 -20.9,-89.59 -354.54,-91.39 -341.27,26.37 16.97,150.62 70.54,179.12 111.84,508.03 3.67,29.24 125.08,21.62 125.47,-9.25l53.21 -235.87z"/>
  <path class="fil0 str0" d="M850.18 2035.7l722.42 0c46.27,15.66 32.09,108.21 0,107.46l-722.42 0c-45.52,-29.1 -27.61,-98.51 0,-107.46z"/>
  <ellipse class="fil0 str0" cx="1211.39" cy="2321.69" rx="123.89" ry="114.22"/>
  <path class="fil0 str0" d="M850.18 2103.39l722.42 0c46.27,15.67 32.09,108.21 0,107.47l-722.42 0c-45.52,-29.11 -27.61,-98.52 0,-107.47z"/>
  <path class="fil0 str0" d="M850.18 2177.86l722.42 0c46.27,15.67 32.09,108.21 0,107.46l-722.42 0c-45.52,-29.1 -27.61,-98.51 0,-107.46z"/>
 </g>
</svg>
