<?xml version="1.0" encoding="UTF-8"?>
<!DOCTYPE svg PUBLIC "-//W3C//DTD SVG 1.1//EN" "http://www.w3.org/Graphics/SVG/1.1/DTD/svg11.dtd">
<!-- Creator: CorelDRAW 2018 (64 Bit Versión de evaluación) -->
<svg xmlns="http://www.w3.org/2000/svg" xml:space="preserve" width="215.9mm" height="279.4mm" version="1.1" style="shape-rendering:geometricPrecision; text-rendering:geometricPrecision; image-rendering:optimizeQuality; fill-rule:evenodd; clip-rule:evenodd"
viewBox="0 0 21590 27940"
 xmlns:xlink="http://www.w3.org/1999/xlink">
 <defs>
  <style type="text/css">
   <![CDATA[
    .str0 {stroke:#FEFEFE;stroke-width:20;stroke-miterlimit:22.9256}
    .fil0 {fill:#FEFEFE}
   ]]>
  </style>
 </defs>
 <g id="Capa_x0020_1">
  <metadata id="CorelCorpID_0Corel-Layer"/>
  <path class="fil0 str0" d="M5772.46 7270.02l-1481.67 -35.28c-475.97,-999.59 -1101.42,-1659.65 -981.85,-2930.45 206.75,-1495.58 907.39,-1915.17 1793.24,-1832.05 1240.61,-105.82 1823.66,1120.05 1829.55,2028.46 -111.72,1317.04 -712.41,2387.14 -1159.27,2769.32zm-398.28 -1016.15c92.24,-29.71 287.26,-197.27 269.25,-344.28 -19.6,-159.97 -227.47,-212.39 -276.89,-238.67 -73.18,-38.92 -205.42,-41.58 -270.15,-32.3l-260.17 61.73c-150.6,69.94 -179.21,241.15 -127.5,377.55 13.9,36.67 48.79,124.96 204.81,187.03l460.65 -11.06zm136.78 -1480.57c172.57,-548.83 207.65,-664.1 149.93,-854.65 -61.74,-264.68 -1047.44,-270.01 -1008.24,77.9 50.14,445 208.39,529.2 330.41,1500.94 10.85,86.38 369.54,63.86 370.69,-27.33l157.21 -696.86z"/>
  <path class="fil0 str0" d="M4091.26 7543.6l2134.31 0c136.69,46.29 94.81,319.7 0,317.5l-2134.31 0c-134.49,-85.99 -81.58,-291.05 0,-317.5z"/>
  <ellipse class="fil0 str0" cx="5158.42" cy="8388.55" rx="366.01" ry="337.45"/>
  <path class="fil0 str0" d="M4091.26 7743.6l2134.31 0c136.69,46.29 94.81,319.7 0,317.5l-2134.31 0c-134.49,-85.99 -81.58,-291.05 0,-317.5z"/>
  <path class="fil0 str0" d="M4091.26 7963.6l2134.31 0c136.69,46.29 94.81,319.7 0,317.5l-2134.31 0c-134.49,-85.99 -81.58,-291.05 0,-317.5z"/>
 </g>
</svg>
