<?xml version="1.0" encoding="UTF-8" ?>
<!DOCTYPE svg PUBLIC "-//W3C//DTD SVG 1.1//EN" "http://www.w3.org/Graphics/SVG/1.1/DTD/svg11.dtd">
<svg width="500pt" height="500pt" viewBox="0 0 500 500" version="1.1" xmlns="http://www.w3.org/2000/svg">
<g id="#ffffffff">
<path fill="#ffffff" opacity="1.00" d=" M 195.52 191.47 C 201.34 184.17 210.74 180.07 220.00 179.97 C 223.60 179.69 227.75 181.06 229.34 184.55 C 230.09 185.63 230.33 187.48 231.89 187.68 C 235.90 187.06 239.81 185.93 243.80 185.20 C 241.04 191.61 235.45 196.79 228.54 198.29 C 221.03 199.62 213.27 200.16 206.14 203.08 C 203.52 204.08 200.09 205.56 197.77 203.17 C 194.96 200.16 192.48 195.16 195.52 191.47 Z" />
<path fill="#ffffff" opacity="1.00" d=" M 221.23 201.43 C 225.13 201.42 228.79 199.92 232.58 199.28 C 235.00 201.65 233.96 205.82 233.56 208.87 C 231.40 218.38 219.95 223.52 211.18 219.77 C 205.64 217.80 201.83 212.61 200.78 206.94 C 207.45 204.66 214.00 201.18 221.23 201.43 Z" />
<path fill="#ffffff" opacity="1.00" d=" M 195.67 230.64 C 202.00 222.13 216.58 222.88 222.68 231.30 C 228.31 241.60 238.85 248.01 249.17 252.90 C 252.91 254.89 257.49 255.29 260.65 258.29 C 262.74 260.28 262.98 263.26 263.78 265.87 C 268.71 266.99 273.79 267.22 278.81 267.81 C 283.81 268.37 288.75 269.49 293.79 269.69 C 309.94 270.02 326.20 270.71 342.05 274.06 C 344.40 274.63 347.66 275.03 348.13 277.97 C 344.20 278.13 340.67 276.19 336.86 275.63 C 321.38 273.12 305.66 272.79 290.05 271.77 C 284.68 271.20 279.71 274.72 274.36 273.33 C 268.99 272.20 263.54 272.56 258.15 273.35 C 253.45 273.85 247.19 272.47 244.15 277.12 C 239.49 284.83 238.10 294.00 233.99 301.98 C 230.54 308.21 224.08 312.67 216.95 313.38 C 200.54 314.99 182.71 303.77 179.64 287.05 C 179.51 285.89 178.48 284.62 177.22 285.36 C 173.92 286.37 170.60 288.02 167.05 287.40 C 159.76 286.62 152.93 280.83 152.04 273.37 C 151.72 266.60 152.78 259.88 153.43 253.16 C 154.08 248.13 154.04 242.61 157.30 238.41 C 161.49 232.59 169.70 230.36 176.35 232.90 C 180.97 235.01 186.09 233.24 190.96 233.85 C 193.17 234.14 194.41 232.04 195.67 230.64 M 187.22 243.90 C 187.51 251.69 186.51 259.46 186.02 267.22 C 187.81 268.76 190.14 266.37 190.40 264.54 C 191.48 258.16 191.96 251.65 191.68 245.18 C 190.86 243.50 188.73 243.94 187.22 243.90 M 220.15 289.93 C 222.92 294.25 225.48 298.69 228.08 303.10 C 228.50 304.50 230.11 303.43 230.45 302.57 C 236.42 293.11 237.13 281.09 244.26 272.25 C 237.44 269.45 231.12 265.67 224.89 261.78 C 223.15 271.13 222.24 280.63 220.15 289.93 M 181.75 282.86 C 181.86 287.29 183.18 291.64 185.59 295.37 C 187.47 290.21 186.46 284.62 187.58 279.31 C 185.37 279.38 181.69 279.98 181.75 282.86 Z" />
<path fill="#ffffff" opacity="1.00" d=" M 173.76 344.42 C 177.56 330.12 181.20 315.79 184.82 301.45 C 189.47 306.84 195.47 310.68 201.84 313.73 C 198.74 327.07 195.60 340.44 191.41 353.48 C 188.52 361.10 176.03 360.02 173.30 352.80 C 172.12 350.08 173.10 347.13 173.76 344.42 Z" />
<path fill="#ffffff" opacity="1.00" d=" M 223.55 313.69 C 226.11 312.60 228.01 310.24 230.84 309.76 C 236.19 321.99 237.28 335.79 236.10 348.97 C 235.69 352.69 235.17 357.29 231.52 359.31 C 225.40 361.99 217.14 357.90 216.62 350.94 C 216.76 344.30 218.00 337.59 216.74 330.98 C 216.14 325.80 214.14 320.96 212.80 315.97 C 216.33 314.98 220.18 315.29 223.55 313.69 Z" />
</g>
</svg>
