<?xml version="1.0" standalone="no"?>
<!DOCTYPE svg PUBLIC "-//W3C//DTD SVG 20010904//EN"
 "http://www.w3.org/TR/2001/REC-SVG-20010904/DTD/svg10.dtd">
<svg version="1.0" xmlns="http://www.w3.org/2000/svg"
 width="521.000000pt" height="455.000000pt" viewBox="0 0 521.000000 455.000000"
 preserveAspectRatio="xMidYMid meet">
<metadata>
Created by potrace 1.15, written by Peter Selinger 2001-2017
</metadata>
<g transform="translate(0.000000,455.000000) scale(0.100000,-0.100000)"
fill="#000000" stroke="none">
<path d="M2568 4290 c-14 -16 -23 -30 -20 -30 4 0 2 -4 -4 -8 -18 -11 -74
-129 -66 -137 4 -5 2 -5 -4 -2 -7 4 -32 -33 -63 -93 -29 -55 -56 -100 -60
-100 -10 0 -37 -61 -33 -73 1 -5 -2 -6 -7 -3 -5 3 -14 -8 -21 -25 -14 -33
-134 -248 -148 -265 -19 -22 -31 -52 -24 -59 4 -5 2 -5 -4 -2 -6 4 -30 -30
-56 -81 -46 -87 -74 -135 -156 -271 -24 -39 -61 -106 -84 -149 -22 -42 -49
-86 -59 -97 -27 -30 -79 -137 -72 -149 3 -6 3 -8 -2 -4 -8 7 -74 -99 -112
-179 -8 -18 -19 -33 -23 -33 -9 0 -25 -40 -22 -53 1 -5 -1 -6 -6 -3 -4 2 -21
-21 -37 -52 -30 -58 -98 -180 -120 -217 -7 -11 -12 -23 -11 -26 1 -3 -7 -13
-17 -23 -9 -10 -14 -22 -11 -28 4 -6 3 -8 -3 -5 -5 3 -29 -31 -53 -76 -55
-105 -121 -221 -130 -227 -13 -10 -90 -157 -85 -163 3 -4 2 -5 -2 -2 -3 3 -29
-37 -56 -88 -27 -50 -53 -94 -58 -95 -15 -6 -89 -159 -81 -167 4 -5 2 -5 -4
-2 -6 4 -31 -31 -59 -86 -27 -51 -52 -93 -56 -95 -5 -2 -27 -38 -50 -80 -81
-149 -153 -277 -159 -282 -18 -16 -40 -62 -34 -72 4 -6 3 -8 -3 -5 -5 3 -42
-56 -83 -131 -40 -75 -76 -138 -81 -140 -14 -6 -60 -103 -53 -114 4 -7 3 -8
-4 -4 -20 12 -13 -23 8 -44 20 -20 33 -20 2326 -20 1559 0 2312 3 2325 10 12
7 18 20 18 38 -2 42 -10 63 -20 56 -5 -3 -8 -2 -7 3 4 16 -23 80 -43 101 -11
12 -17 22 -14 22 3 0 -2 9 -12 19 -10 11 -29 41 -43 68 -65 126 -123 223 -133
223 -6 0 -8 3 -5 6 7 6 -4 28 -43 89 -14 22 -49 85 -78 140 -29 55 -58 105
-64 110 -7 6 -13 17 -15 25 -2 8 -9 22 -16 30 -13 15 -71 118 -155 272 -23 43
-47 78 -52 78 -5 0 -9 6 -9 13 -1 19 -95 178 -103 172 -4 -3 -5 -2 -2 1 6 9
-61 140 -83 162 -9 10 -37 57 -62 104 -24 48 -48 84 -52 82 -5 -3 -7 -2 -6 3
6 17 -25 73 -36 66 -6 -3 -8 -3 -4 2 7 8 -11 45 -64 130 -17 28 -60 104 -96
170 -35 66 -70 127 -77 135 -16 18 -71 114 -132 230 -24 47 -52 91 -61 98 -9
6 -12 12 -7 12 4 0 1 8 -7 18 -8 9 -41 65 -73 124 -32 59 -63 104 -69 101 -5
-3 -6 -1 -3 5 7 10 -41 112 -52 112 -4 0 -36 54 -71 120 -35 65 -68 116 -73
113 -6 -3 -7 -2 -4 3 3 6 -4 26 -16 47 -82 137 -144 247 -156 274 -7 18 -16
31 -20 28 -4 -2 -8 2 -8 9 0 7 -15 38 -34 70 -19 31 -52 88 -75 127 -22 38
-44 67 -47 64 -4 -3 -5 -2 -2 1 6 10 -74 164 -86 164 -5 0 -8 4 -4 9 6 11 -25
31 -47 31 -8 0 -25 -13 -40 -30z m163 -919 c52 -55 69 -105 69 -198 0 -102
-41 -567 -52 -590 -6 -12 -8 -40 -5 -62 3 -22 1 -41 -4 -43 -5 -2 -11 -53 -12
-114 -1 -62 -6 -107 -10 -100 -5 6 -7 -21 -5 -61 2 -41 0 -67 -5 -60 -5 7 -7
-17 -5 -55 2 -39 0 -62 -5 -55 -4 7 -7 -21 -5 -65 2 -43 0 -71 -5 -65 -5 7 -7
-28 -4 -78 2 -53 1 -80 -4 -65 -5 16 -7 -12 -6 -72 1 -53 -2 -91 -6 -85 -4 7
-7 -39 -5 -101 2 -62 0 -104 -4 -95 -3 10 -7 -43 -7 -118 -1 -154 -5 -162 -68
-157 l-38 3 -6 55 -5 55 -5 -50 c-2 -27 -3 33 -2 135 2 102 0 177 -5 167 -4
-9 -6 33 -5 95 2 64 -1 105 -5 94 -5 -11 -7 22 -5 75 3 71 2 90 -7 79 -9 -12
-10 -10 -5 9 9 29 -5 258 -14 244 -3 -6 -7 39 -8 99 -1 60 -5 117 -9 126 -3
10 -6 33 -5 54 1 20 -2 44 -8 55 -13 23 -64 595 -65 734 -1 92 2 112 23 158
26 54 94 111 133 111 11 0 17 4 14 9 -3 5 25 2 62 -5 60 -12 72 -19 113 -63z
m-56 -2425 c42 -18 96 -70 119 -113 20 -41 21 -132 1 -181 -34 -81 -99 -123
-201 -131 -40 -4 -70 -3 -68 1 3 5 -1 8 -9 8 -27 0 -102 71 -123 116 -12 24
-23 42 -25 39 -13 -12 10 137 24 157 30 45 77 89 109 103 43 19 130 19 173 1z
m1093 -703 c-637 -2 -1679 -2 -2315 0 -637 1 -116 2 1157 2 1273 0 1794 -1
1158 -2z"/>
</g>
</svg>
