<?xml version="1.0" encoding="UTF-8" ?>
<!DOCTYPE svg PUBLIC "-//W3C//DTD SVG 1.1//EN" "http://www.w3.org/Graphics/SVG/1.1/DTD/svg11.dtd">
<svg width="500pt" height="500pt" viewBox="0 0 500 500" version="1.1" xmlns="http://www.w3.org/2000/svg">
<g id="#ffffffff">
<path fill="#ffffff" opacity="1.00" d=" M 242.80 114.63 C 253.71 122.16 261.49 135.42 260.15 148.93 C 259.05 158.50 253.00 166.45 250.39 175.56 C 247.31 185.67 248.32 197.10 254.19 206.03 C 244.98 200.58 241.25 189.24 241.70 179.02 C 241.69 165.84 251.76 155.14 251.78 141.99 C 251.97 132.13 247.08 123.20 242.80 114.63 Z" />
<path fill="#ffffff" opacity="1.00" d=" M 275.73 192.96 C 275.45 186.09 280.20 179.63 286.43 177.02 C 283.90 181.30 280.84 185.68 280.77 190.84 C 281.53 197.00 286.92 201.63 287.02 207.96 C 287.54 213.35 284.62 218.64 279.92 221.27 C 281.42 217.64 283.77 213.87 282.78 209.77 C 281.99 203.52 276.02 199.33 275.73 192.96 Z" />
<path fill="#ffffff" opacity="1.00" d=" M 195.59 178.91 C 203.54 180.17 212.76 185.20 213.63 194.03 C 212.83 200.14 210.15 205.88 209.24 211.99 C 209.43 216.98 212.49 221.22 216.29 224.22 C 210.91 223.60 205.85 220.10 204.11 214.86 C 200.74 206.35 208.95 197.87 205.62 189.40 C 203.74 184.70 199.09 182.22 195.59 178.91 Z" />
<path fill="#ffffff" opacity="1.00" d=" M 206.48 232.59 C 212.68 230.10 219.77 234.08 221.33 240.45 C 230.47 238.72 240.27 237.60 249.14 241.12 C 253.07 242.61 256.29 245.57 258.32 249.24 C 254.27 250.80 248.74 250.24 246.05 246.43 C 246.28 248.94 246.44 251.46 246.61 253.98 C 220.40 258.37 194.18 262.71 167.96 267.06 C 166.77 258.85 173.55 252.49 180.28 249.21 C 186.28 245.81 193.26 245.26 199.88 243.85 C 199.56 239.19 201.72 234.05 206.48 232.59 M 206.11 242.64 C 209.13 242.32 212.12 241.77 215.09 241.14 C 213.69 239.38 211.54 237.38 209.10 238.35 C 207.13 238.83 206.57 240.94 206.11 242.64 Z" />
<path fill="#ffffff" opacity="1.00" d=" M 258.43 251.58 C 260.55 250.47 262.45 248.42 265.06 248.72 C 268.19 248.78 270.08 252.11 273.22 252.26 C 275.34 252.07 277.25 251.08 279.17 250.26 C 280.77 253.52 281.90 258.08 278.93 260.92 C 275.16 264.24 269.96 265.32 265.12 265.95 C 259.57 266.60 254.24 264.31 249.71 261.31 C 248.82 257.02 248.04 252.70 246.93 248.45 C 249.76 251.93 254.34 252.26 258.43 251.58 Z" />
<path fill="#ffffff" opacity="1.00" d=" M 254.19 270.19 C 258.72 269.34 263.37 269.90 267.95 269.75 C 272.27 269.95 276.95 268.94 280.91 271.21 C 287.85 274.93 292.90 281.26 297.54 287.45 C 307.95 301.97 315.77 318.17 322.65 334.60 C 326.61 344.51 330.31 354.60 332.47 365.08 C 333.19 369.48 333.94 374.91 330.34 378.31 C 326.43 381.79 320.76 382.20 315.77 381.94 C 309.13 381.28 302.57 379.98 295.95 379.19 C 290.41 378.31 285.16 380.81 279.83 381.86 C 274.24 383.01 268.70 385.42 262.91 384.89 C 255.92 383.18 249.27 380.20 242.19 378.82 C 233.19 376.78 223.82 380.09 214.90 377.45 C 209.04 375.74 203.70 371.13 202.69 364.88 C 200.44 353.86 205.41 343.36 209.44 333.41 C 215.15 320.46 221.38 307.69 228.75 295.59 C 235.52 285.80 242.36 274.34 254.19 270.19 M 268.66 372.27 C 275.43 374.23 282.73 375.61 289.62 373.43 C 293.61 371.87 297.05 369.23 300.48 366.73 C 290.82 372.10 279.55 373.75 268.66 372.27 Z" />
<path fill="#ffffff" opacity="1.00" d=" M 167.99 274.00 C 192.26 274.00 216.52 273.99 240.79 274.00 C 235.99 278.55 231.78 283.70 228.41 289.40 C 223.67 295.62 220.38 302.75 216.51 309.51 C 216.41 302.00 216.65 294.47 216.40 286.96 C 215.73 283.98 211.12 285.30 211.29 288.04 C 211.13 298.78 211.40 309.54 211.17 320.28 C 206.16 332.02 200.37 343.59 197.64 356.15 C 196.47 363.92 197.25 373.72 204.61 378.31 C 214.47 385.45 227.09 380.41 238.15 382.50 C 219.75 386.48 200.34 385.96 182.20 380.87 C 179.35 380.02 176.05 378.27 175.92 374.90 C 172.05 346.73 170.37 318.31 168.61 289.94 C 168.34 284.63 167.89 279.32 167.99 274.00 M 184.89 285.95 C 184.24 287.55 184.57 289.33 184.48 291.01 C 184.21 316.41 186.56 341.74 187.51 367.10 C 187.66 369.13 187.40 372.28 190.09 372.74 C 192.34 372.71 193.18 369.96 193.02 368.10 C 191.89 341.68 190.77 315.26 189.59 288.85 C 189.89 286.29 187.11 283.87 184.89 285.95 Z" />
</g>
</svg>
