<?xml version="1.0" encoding="UTF-8"?>
<!DOCTYPE svg PUBLIC "-//W3C//DTD SVG 1.1//EN" "http://www.w3.org/Graphics/SVG/1.1/DTD/svg11.dtd">
<!-- Creator: CorelDRAW 2018 (64 Bit Versión de evaluación) -->
<svg xmlns="http://www.w3.org/2000/svg" xml:space="preserve" width="2550px" height="3300px" version="1.1" style="shape-rendering:geometricPrecision; text-rendering:geometricPrecision; image-rendering:optimizeQuality; fill-rule:evenodd; clip-rule:evenodd"
viewBox="0 0 2550 3300"
 xmlns:xlink="http://www.w3.org/1999/xlink">
 <defs>
  <style type="text/css">
   <![CDATA[
    .str1 {stroke:#FEFEFE;stroke-width:59.06;stroke-miterlimit:22.9256}
    .str0 {stroke:#FEFEFE;stroke-width:2.36;stroke-miterlimit:22.9256}
    .fil1 {fill:none}
    .fil0 {fill:#FEFEFE}
   ]]>
  </style>
 </defs>
 <g id="Capa_x0020_1">
  <metadata id="CorelCorpID_0Corel-Layer"/>
  <path class="fil0 str0" d="M637.06 1660.66l1058.31 6.85 0 1030.91 -1058.31 -6.85 0 -1030.91zm750.78 161.74l0.24 635.34 101.24 2.64 9.01 -637.61 -110.49 -0.37zm-284.43 -7.63l-1.28 656.06 120.06 -6.32 10.01 -655.63 -128.79 5.89zm-271.14 660.24l101.97 -2.45 8.21 -668.73 -96.16 8.52 -14.02 662.66z"/>
  <g id="_112439261872">
   <rect class="fil0 str0" x="538.98" y="1432.92" width="1264.86" height="171.13"/>
   <path class="fil1 str1" d="M719.16 1451.52c13.82,-49.43 32.49,-123.56 90.79,-152.43 162.59,-80.51 510.46,-85.2 707.55,8.81 38.53,18.38 57.52,95.9 72.18,138.04"/>
  </g>
  <g id="_112439260816">
   <path class="fil0 str0" d="M291.22 618.13c23.31,-11.14 -33.28,105.47 21.74,186.05 18.61,27.27 93.67,16.12 141.91,27.17 56.73,12.99 -24.94,115.37 -2.19,162.96 12.95,27.09 105.06,14.1 119.51,38.1 20.4,33.9 -44.09,91.43 -29.04,121.81 55.94,112.93 137.42,96.12 109.69,109.38 -27.91,13.34 -80.41,15.2 -128.45,-107.89 -9.96,-25.54 46.86,-80.14 32.35,-106.72 -17.01,-31.15 -121.54,-16.48 -138.17,-51.26 -16.74,-35.02 56.74,-107.95 34.52,-129.62 -34.32,-33.46 -164.17,-11.03 -176.73,-53.07 -27.53,-92.11 -8.25,-185.86 14.86,-196.91z"/>
   <path class="fil0 str0" d="M647.77 500.73c23.31,-11.14 -33.28,105.46 21.74,186.04 18.62,27.27 93.67,16.13 141.91,27.18 56.73,12.99 -24.93,115.37 -2.19,162.95 12.95,27.09 105.07,14.11 119.51,38.11 20.4,33.9 -44.08,91.43 -29.04,121.81 55.95,112.92 137.43,96.12 109.69,109.38 -27.91,13.34 -80.41,15.2 -128.44,-107.9 -9.96,-25.53 46.86,-80.13 32.34,-106.71 -17.01,-31.15 -121.54,-16.48 -138.16,-51.27 -16.74,-35.01 56.74,-107.94 34.51,-129.61 -34.32,-33.46 -164.17,-11.04 -176.73,-53.07 -27.53,-92.11 -8.25,-185.86 14.86,-196.91z"/>
  </g>
  <g id="_112439259856">
   <path class="fil0 str0" d="M1755.35 1340.54c-23.24,-11.29 103.22,-39.7 131.95,-132.95 9.72,-31.55 -45.77,-83.3 -67.2,-127.91 -25.19,-52.47 105.77,-52.41 128.81,-99.85 13.11,-27.01 -54.45,-90.96 -44.68,-117.21 13.79,-37.08 98.98,-22.51 113.36,-53.21 53.44,-114.12 -10.48,-167.37 17.17,-153.94 27.83,13.51 62,53.41 -4.32,167.69 -13.76,23.7 -91.88,13.29 -103.62,41.21 -13.76,32.72 62.86,105.32 46.02,140 -16.95,34.91 -119.78,22.9 -122.88,53.79 -4.78,47.69 93.69,135.26 68.65,171.28 -54.89,78.94 -140.22,122.29 -163.26,111.1z"/>
   <path class="fil0 str0" d="M1441.32 1134.87c-23.24,-11.29 103.22,-39.71 131.95,-132.95 9.72,-31.56 -45.77,-83.31 -67.19,-127.92 -25.2,-52.46 105.76,-52.4 128.8,-99.84 13.11,-27.01 -54.45,-90.96 -44.68,-117.21 13.79,-37.08 98.98,-22.51 113.36,-53.21 53.44,-114.13 -10.48,-167.37 17.18,-153.95 27.82,13.52 62,53.41 -4.33,167.69 -13.76,23.71 -91.87,13.3 -103.62,41.22 -13.76,32.71 62.86,105.31 46.02,140 -16.95,34.91 -119.78,22.9 -122.87,53.78 -4.79,47.7 93.68,135.27 68.64,171.29 -54.88,78.93 -140.22,122.28 -163.26,111.1z"/>
  </g>
 </g>
</svg>
