<?xml version="1.0" encoding="UTF-8" ?>
<!DOCTYPE svg PUBLIC "-//W3C//DTD SVG 1.1//EN" "http://www.w3.org/Graphics/SVG/1.1/DTD/svg11.dtd">
<svg width="500pt" height="500pt" viewBox="0 0 500 500" version="1.1" xmlns="http://www.w3.org/2000/svg">
<g id="#ffffffff">
<path fill="#ffffff" opacity="1.00" d=" M 280.42 146.37 C 293.63 137.61 312.92 139.49 323.82 151.14 C 338.57 147.63 355.91 154.69 361.74 169.20 C 375.28 168.97 387.73 183.11 384.47 196.57 C 380.74 208.03 368.24 215.67 356.36 214.78 C 347.31 200.29 331.67 190.20 314.79 187.75 C 301.17 185.55 286.91 188.44 275.01 195.34 C 269.01 187.83 261.39 181.65 252.83 177.29 C 256.67 173.04 262.14 170.50 267.79 169.80 C 267.10 160.39 272.67 151.36 280.42 146.37 Z" />
<path fill="#ffffff" opacity="1.00" d=" M 148.80 208.75 C 160.87 190.58 182.33 180.39 203.64 178.41 C 229.10 175.85 256.76 184.61 273.08 205.02 C 289.20 195.69 309.66 194.29 326.87 201.44 C 344.80 208.61 358.58 225.09 362.39 244.03 C 371.48 248.52 379.75 255.02 385.32 263.60 C 392.34 273.97 395.28 287.52 391.34 299.60 C 387.13 311.73 377.36 321.09 366.49 327.48 C 359.89 331.22 352.59 334.10 344.97 334.73 C 320.73 334.79 296.49 334.74 272.25 334.75 C 274.02 320.77 261.14 307.50 247.33 307.72 C 240.94 292.34 222.24 285.17 206.61 288.98 C 194.06 275.33 170.61 274.63 156.81 286.78 C 150.51 292.11 146.63 300.24 146.89 308.54 C 138.75 309.19 131.52 314.30 126.98 320.90 C 118.65 314.48 111.13 306.06 108.64 295.58 C 106.95 287.32 108.35 278.57 112.10 271.06 C 118.01 259.11 128.63 249.65 141.05 244.88 C 139.02 232.41 141.63 219.22 148.80 208.75 M 222.45 254.75 C 234.59 254.89 246.74 255.30 258.88 254.73 C 259.39 249.38 262.05 244.16 266.72 241.31 C 260.70 230.85 254.64 220.42 248.46 210.06 C 232.75 219.09 222.41 236.58 222.45 254.75 M 282.99 241.41 C 287.81 244.05 290.23 249.46 290.86 254.71 C 303.00 255.32 315.16 254.88 327.30 254.74 C 327.29 236.58 317.00 219.08 301.28 210.06 C 295.09 220.46 288.97 230.90 282.99 241.41 M 270.38 245.75 C 262.68 248.90 262.34 260.83 269.84 264.44 C 276.85 268.73 286.72 262.03 285.39 253.96 C 284.67 247.16 276.53 242.45 270.38 245.75 M 267.08 268.61 C 260.75 278.99 254.85 289.62 248.76 300.14 C 264.69 309.16 285.22 309.13 300.97 299.71 C 294.84 289.41 288.78 279.07 282.59 268.80 C 277.72 271.28 271.94 270.86 267.08 268.61 Z" />
<path fill="#ffffff" opacity="1.00" d=" M 159.35 293.31 C 172.34 281.80 194.13 282.89 206.00 295.54 C 220.66 292.13 237.98 299.01 243.82 313.44 C 256.38 313.60 267.87 325.19 267.21 337.87 C 266.50 346.03 260.14 352.48 253.20 356.13 C 250.05 357.73 246.62 359.05 243.04 359.01 C 214.70 359.00 186.35 358.99 158.01 359.01 C 147.87 359.59 137.67 354.47 131.57 346.45 C 127.90 341.91 127.30 335.50 129.40 330.14 C 132.65 321.79 140.69 315.27 149.68 314.38 C 149.70 306.37 153.20 298.49 159.35 293.31 Z" />
</g>
</svg>
