<?xml version="1.0" encoding="UTF-8"?>
<!DOCTYPE svg PUBLIC "-//W3C//DTD SVG 1.1//EN" "http://www.w3.org/Graphics/SVG/1.1/DTD/svg11.dtd">
<!-- Creator: CorelDRAW 2018 (64 Bit Versión de evaluación) -->
<svg xmlns="http://www.w3.org/2000/svg" xml:space="preserve" width="2550px" height="3300px" version="1.1" style="shape-rendering:geometricPrecision; text-rendering:geometricPrecision; image-rendering:optimizeQuality; fill-rule:evenodd; clip-rule:evenodd"
viewBox="0 0 2550 3300"
 xmlns:xlink="http://www.w3.org/1999/xlink">
 <defs>
  <style type="text/css">
   <![CDATA[
    .str0 {stroke:#FEFEFE;stroke-width:2.36;stroke-miterlimit:22.9256}
    .fil0 {fill:#FEFEFE}
   ]]>
  </style>
 </defs>
 <g id="Capa_x0020_1">
  <metadata id="CorelCorpID_0Corel-Layer"/>
  <rect class="fil0 str0" x="225.06" y="1477.31" width="920.83" height="341.67"/>
  <rect class="fil0 str0" x="220.89" y="1206.48" width="91.67" height="612.5"/>
  <rect class="fil0 str0" x="1054.22" y="859.53" width="91.67" height="959.17"/>
  <rect class="fil0 str0" x="364.64" y="1210.64" width="27.08" height="608.33"/>
  <rect class="fil0 str0" x="445.89" y="1210.64" width="27.08" height="608.33"/>
  <rect class="fil0 str0" x="533.39" y="1210.64" width="27.08" height="608.33"/>
  <rect class="fil0 str0" x="631.31" y="1210.64" width="27.08" height="608.33"/>
  <rect class="fil0 str0" x="735.47" y="859.53" width="27.08" height="959.45"/>
  <rect class="fil0 str0" x="839.64" y="859.53" width="27.08" height="959.45"/>
  <rect class="fil0 str0" x="941.72" y="859.53" width="27.08" height="959.45"/>
  <rect class="fil0 str0" x="220.89" y="1203.35" width="541.67" height="94.79"/>
  <rect class="fil0 str0" x="220.89" y="1344.81" width="887.5" height="27.08"/>
  <rect class="fil0 str0" x="248.32" y="1402.52" width="870.84" height="31.25"/>
  <rect class="fil0 str0" x="735.47" y="859.53" width="410.42" height="53.2"/>
  <rect class="fil0 str0" x="762.56" y="975.23" width="316.67" height="43.75"/>
  <rect class="fil0 str0" x="750.06" y="1088.77" width="316.67" height="43.75"/>
  <rect class="fil0 str0" x="741.73" y="1223.14" width="316.67" height="43.75"/>
  <polygon class="fil0 str0" points="1594.49,1055.91 1446.85,1055.91 1299.21,1823.62 1742.13,1823.62 "/>
  <path class="fil0 str0" d="M1447.6 1014.41l140.26 0c22.62,0.88 19.92,31.3 0,31.48l-140.26 0c-21.87,-4.76 -14.58,-31.4 0,-31.48z"/>
  <circle class="fil0 str0" cx="1535.43" cy="878.74" r="59.06"/>
  <ellipse class="fil0 str0" cx="1624.02" cy="790.16" rx="88.58" ry="147.64"/>
  <ellipse class="fil0 str0" cx="1830.71" cy="819.69" rx="236.22" ry="118.11"/>
  <ellipse class="fil0 str0" cx="1885.67" cy="657.99" rx="173.07" ry="192.63"/>
  <ellipse class="fil0 str0" cx="1683.07" cy="642.52" rx="88.58" ry="118.11"/>
  <ellipse class="fil0 str0" cx="2064.32" cy="741.04" rx="120.72" ry="98.52"/>
 </g>
</svg>
