<?xml version="1.0" encoding="UTF-8" ?>
<!DOCTYPE svg PUBLIC "-//W3C//DTD SVG 1.1//EN" "http://www.w3.org/Graphics/SVG/1.1/DTD/svg11.dtd">
<svg width="500pt" height="500pt" viewBox="0 0 500 500" version="1.1" xmlns="http://www.w3.org/2000/svg">
<g id="#ffffffff">
<path fill="#ffffff" opacity="1.00" d=" M 240.80 180.93 C 250.18 178.80 260.57 179.90 268.73 185.23 C 273.49 188.18 277.32 192.44 280.17 197.23 C 287.62 192.03 297.57 191.61 305.78 195.15 C 312.26 198.91 318.04 204.96 319.55 212.52 C 323.10 211.89 326.96 211.91 330.19 213.71 C 337.01 217.10 341.19 225.92 338.14 233.16 C 335.62 231.88 332.86 231.27 330.07 231.00 C 325.95 223.70 320.30 216.84 312.52 213.32 C 303.70 209.28 293.18 209.07 284.26 212.92 C 281.04 209.69 278.00 206.24 274.40 203.43 C 265.54 197.45 254.44 194.85 243.85 196.42 C 232.70 197.92 222.43 204.08 215.39 212.79 C 207.70 209.37 198.85 209.67 190.82 211.58 C 181.85 215.20 173.44 221.81 169.66 230.92 C 166.87 231.50 164.13 232.28 161.37 232.97 C 159.77 227.30 161.13 220.64 165.54 216.56 C 169.25 212.79 174.91 211.66 180.00 212.47 C 181.52 205.09 186.58 198.63 193.44 195.49 C 201.64 191.22 211.87 192.20 219.51 197.21 C 224.04 189.21 231.78 183.01 240.80 180.93 Z" />
<path fill="#ffffff" opacity="1.00" d=" M 238.46 204.64 C 248.35 201.69 259.49 202.64 268.51 207.76 C 274.30 211.01 278.95 215.98 282.40 221.61 C 290.81 216.37 302.12 215.07 310.95 219.99 C 317.59 224.04 323.21 230.34 325.30 237.95 C 330.93 237.20 337.07 238.75 341.09 242.91 C 345.95 247.47 347.30 254.99 345.02 261.15 C 342.15 269.00 332.98 273.98 324.85 271.76 C 321.33 270.92 318.51 268.51 315.87 266.16 C 310.95 268.97 305.81 271.94 300.00 272.21 C 292.02 272.94 284.27 269.47 278.45 264.19 C 271.34 271.70 261.30 276.52 250.92 276.89 C 239.81 277.18 228.87 272.17 221.51 263.91 C 212.07 274.08 194.75 274.93 184.10 266.13 C 179.96 270.34 173.78 273.33 167.81 271.81 C 161.56 271.03 156.26 265.95 154.18 260.17 C 154.08 255.72 153.03 250.65 155.74 246.71 C 157.69 243.76 160.34 241.20 163.47 239.51 C 166.83 237.64 170.78 238.52 174.43 237.94 C 177.45 223.94 192.69 214.64 206.56 217.30 C 210.39 217.98 213.93 219.68 217.25 221.64 C 221.94 213.65 229.55 207.34 238.46 204.64 M 223.21 237.50 C 229.57 237.50 235.93 237.49 242.29 237.50 C 242.72 234.64 244.16 232.07 246.49 230.34 C 243.27 224.97 240.11 219.56 236.89 214.19 C 228.78 218.95 222.96 227.94 223.21 237.50 M 255.50 230.34 C 257.85 232.06 259.27 234.65 259.71 237.51 C 266.06 237.49 272.42 237.49 278.78 237.51 C 279.06 227.94 273.21 218.94 265.10 214.19 C 261.89 219.57 258.73 224.97 255.50 230.34 M 248.25 233.11 C 244.50 234.93 244.60 240.87 248.39 242.59 C 252.01 244.89 257.35 241.26 256.48 237.05 C 256.11 233.31 251.39 231.19 248.25 233.11 M 246.82 244.99 C 243.51 250.40 240.34 255.91 237.17 261.41 C 245.68 265.96 256.43 265.99 264.83 261.16 C 261.62 255.81 258.41 250.46 255.15 245.15 C 252.42 246.20 249.52 246.02 246.82 244.99 Z" />
<path fill="#ffffff" opacity="1.00" d=" M 209.86 278.09 C 213.92 277.02 217.55 274.89 221.35 273.17 C 223.39 274.85 226.14 276.03 227.51 278.37 C 230.49 288.60 231.37 299.72 228.55 310.10 C 225.69 321.12 220.62 331.43 214.99 341.27 C 215.76 337.84 217.62 334.81 218.81 331.53 C 223.69 319.44 226.76 306.26 225.18 293.18 C 223.91 290.24 221.55 287.93 219.73 285.32 C 207.79 293.82 188.68 289.61 182.51 276.01 C 183.08 275.64 184.21 274.92 184.77 274.55 C 192.39 278.42 201.47 280.75 209.86 278.09 Z" />
<path fill="#ffffff" opacity="1.00" d=" M 278.60 273.16 C 285.45 276.98 293.20 280.01 301.19 279.12 C 305.78 278.72 310.01 276.82 314.13 274.91 C 315.56 273.80 318.12 275.96 316.56 277.42 C 309.58 289.74 291.70 293.36 280.16 285.45 C 277.80 287.91 274.79 290.30 274.26 293.89 C 273.24 310.70 278.18 327.22 285.48 342.21 C 278.66 332.58 274.02 321.47 271.07 310.08 C 268.06 299.41 270.02 288.21 272.10 277.57 C 274.32 276.18 276.44 274.63 278.60 273.16 Z" />
<path fill="#ffffff" opacity="1.00" d=" M 259.89 284.79 C 260.25 282.27 262.70 281.17 264.98 281.03 C 262.73 302.12 267.16 324.08 278.74 341.99 C 259.59 342.01 240.44 341.99 221.29 342.00 C 229.69 327.81 234.72 311.53 235.01 295.00 C 235.01 290.40 234.97 285.80 235.02 281.20 C 236.21 281.56 237.40 281.93 238.59 282.30 C 241.29 291.26 242.58 300.65 242.48 310.00 C 241.89 319.70 239.47 329.19 236.42 338.39 C 241.34 329.63 244.15 319.81 245.93 309.97 C 247.58 301.11 246.57 292.07 245.51 283.22 C 248.36 283.26 251.21 283.25 254.06 283.25 C 253.47 290.75 252.80 298.29 253.43 305.83 C 254.27 317.14 257.57 328.28 263.11 338.19 C 259.15 326.64 256.16 314.39 257.45 302.10 C 257.81 296.28 258.95 290.53 259.89 284.79 Z" />
<path fill="#ffffff" opacity="1.00" d=" M 162.75 349.25 C 220.92 349.25 279.09 349.24 337.25 349.26 C 337.25 352.83 337.25 356.42 337.25 360.00 C 279.08 360.00 220.92 360.00 162.75 360.00 C 162.75 356.41 162.75 352.83 162.75 349.25 Z" />
</g>
</svg>
