<?xml version="1.0" encoding="UTF-8"?>
<!DOCTYPE svg PUBLIC "-//W3C//DTD SVG 1.1//EN" "http://www.w3.org/Graphics/SVG/1.1/DTD/svg11.dtd">
<!-- Creator: CorelDRAW 2018 (64 Bit Versión de evaluación) -->
<svg xmlns="http://www.w3.org/2000/svg" xml:space="preserve" width="215.9mm" height="279.4mm" version="1.1" style="shape-rendering:geometricPrecision; text-rendering:geometricPrecision; image-rendering:optimizeQuality; fill-rule:evenodd; clip-rule:evenodd"
viewBox="0 0 21590 27940"
 xmlns:xlink="http://www.w3.org/1999/xlink">
 <defs>
  <style type="text/css">
   <![CDATA[
    .str1 {stroke:#FEFEFE;stroke-width:75;stroke-miterlimit:22.9256}
    .str0 {stroke:#FEFEFE;stroke-width:50;stroke-miterlimit:22.9256}
    .str3 {stroke:#FEFEFE;stroke-width:900;stroke-miterlimit:22.9256}
    .str2 {stroke:#FEFEFE;stroke-width:20;stroke-miterlimit:22.9256}
    .fil1 {fill:none}
    .fil0 {fill:#FEFEFE}
    .fil2 {fill:#FEFEFE;fill-rule:nonzero}
   ]]>
  </style>
 </defs>
 <g id="Capa_x0020_1">
  <metadata id="CorelCorpID_0Corel-Layer"/>
  <path class="fil0 str0" d="M7923.31 7942.44c-962.45,287.15 -1479.9,899.49 -1597.07,1804.32l-12.19 1182.56c-109.76,332.9 -130,743.22 -499.85,914.35 -392.18,231.01 -534.41,367.82 -406.43,631.33l418.63 258.64c-129.08,-282.8 -102.58,-444.61 60.95,-499.85 451.11,-264.64 479.48,-641.58 572.99,-743.67 270.16,643.54 855.51,1071.4 1743.37,1292.29l5400.77 -24.39c898.63,-125.73 1539.62,-695.15 1853.08,-1828.7l-60.96 -1280.09c-144.66,-886.79 -680.29,-1433.61 -1572.68,-1670.22l-5900.61 -36.57z"/>
  <path class="fil0 str1" d="M9102.53 13088.95l-2775.67 0 -31.36 580.22 1066.36 345 1458.4 -47.04c-0.32,-292.73 73.47,-585.46 282.27,-878.18z"/>
  <path class="fil0 str1" d="M15908.39 7945.35l2540.44 -15.68 15.68 689.99 -423.41 517.5 -1427.03 15.68 -15.68 1724.99 2022.94 0 595.9 47.05 1379.99 595.9 0 2477.71 -1191.81 -31.36c-230.31,-1756.85 -2738.74,-2085.17 -2963.84,0l-4641.79 15.68c60.47,-354.05 -65.67,-654.81 -297.95,-925.22l4406.56 -15.68 0 -5096.56z"/>
  <polygon class="fil0 str2" points="18041.1,9137.16 18621.33,10877.83 19217.23,10924.88 18464.51,8619.66 "/>
  <circle class="fil1 str3" cx="10294.34" cy="14157.13" r="839.76"/>
  <circle class="fil1 str3" cx="17915.65" cy="14014.17" r="839.76"/>
  <path class="fil2 str2" d="M2811.8 12506.31c582.4,474.99 792.87,-158.18 467.67,-562.17 267.84,-114.58 -36.09,-889.75 -461.21,-1069.96 357.11,-152.78 -114.74,-1037.15 -471.85,-884.36 31.91,-556.78 -718.41,-1140.97 -828.97,-731.59 -325.2,-403.99 -692.96,-65.61 -535.68,229.18 -325.2,-403.99 -692.96,-65.62 -535.67,229.17 -425.12,-180.2 -389.03,709.56 204.01,998.96 -278.47,300.18 193.37,1184.55 550.49,1031.77 -110.56,409.38 293.28,960.76 482.48,698.78 146.65,480.38 661.05,622.38 682.33,251.2 157.28,294.79 682.32,251.2 446.4,-190.98zm976.89 -703.62c204.48,-87.49 449.59,-9.93 547.29,173.19 97.7,183.11 11.08,402.6 -193.41,490.08 -204.49,87.49 -449.6,9.92 -547.29,-173.19 -97.7,-183.11 -11.08,-402.6 193.41,-490.08zm864.93 537.01c136.32,-58.32 299.73,-6.61 364.86,115.46 65.13,122.08 7.39,268.4 -128.94,326.73 -136.32,58.32 -299.73,6.61 -364.86,-115.47 -65.14,-122.07 -7.39,-268.4 128.94,-326.72zm686.62 442.67c68.17,-29.16 149.87,-3.31 182.44,57.73 32.56,61.04 3.69,134.2 -64.47,163.36 -68.17,29.16 -149.87,3.31 -182.44,-57.73 -32.56,-61.04 -3.69,-134.2 64.47,-163.36z"/>
 </g>
</svg>
