<?xml version="1.0" encoding="UTF-8" ?>
<!DOCTYPE svg PUBLIC "-//W3C//DTD SVG 1.1//EN" "http://www.w3.org/Graphics/SVG/1.1/DTD/svg11.dtd">
<svg width="500pt" height="500pt" viewBox="0 0 500 500" version="1.1" xmlns="http://www.w3.org/2000/svg">
<g id="#ffffffff">
<path fill="#ffffff" opacity="1.00" d=" M 281.00 145.99 C 294.17 137.68 313.01 139.64 323.77 151.08 C 338.40 147.64 355.68 154.47 361.56 168.85 C 375.18 168.96 387.92 182.86 384.41 196.56 C 380.52 207.83 368.10 215.50 356.29 214.24 C 348.26 201.82 335.54 192.55 321.21 188.85 C 305.79 184.70 288.81 187.03 275.04 195.10 C 268.96 187.60 261.32 181.43 252.73 177.03 C 256.78 173.12 261.98 170.17 267.71 169.81 C 267.14 160.15 272.85 150.89 281.00 145.99 Z" />
<path fill="#ffffff" opacity="1.00" d=" M 182.76 182.88 C 199.78 176.75 218.71 176.25 236.11 181.07 C 250.37 185.10 263.77 193.04 273.06 204.72 C 287.65 196.34 305.71 194.40 321.78 199.33 C 341.99 205.33 358.45 222.84 362.32 243.68 C 377.20 250.37 389.39 263.98 392.46 280.23 C 393.59 287.32 393.30 294.84 390.34 301.47 C 385.36 312.96 375.55 321.68 364.74 327.61 C 358.02 331.12 350.66 333.72 343.02 333.98 C 319.43 334.18 295.85 333.56 272.26 333.75 C 273.93 319.79 261.09 306.81 247.35 306.92 C 240.87 291.63 222.37 284.57 206.75 288.28 C 194.49 275.41 172.68 273.99 158.59 284.66 C 151.36 289.97 146.57 298.64 146.88 307.73 C 138.77 308.47 131.51 313.46 127.00 320.11 C 118.88 313.77 111.39 305.69 108.79 295.45 C 106.29 285.03 109.30 273.96 115.11 265.17 C 121.39 255.82 130.55 248.40 141.08 244.36 C 139.44 234.01 140.76 223.07 145.73 213.76 C 153.18 198.93 167.38 188.42 182.76 182.88 M 208.89 218.94 C 202.60 225.12 201.25 234.57 201.24 243.01 C 200.97 251.99 201.84 261.50 206.74 269.27 C 209.36 273.46 214.68 275.91 219.52 274.39 C 224.88 272.65 227.58 266.41 226.64 261.10 C 225.43 259.55 221.70 259.76 221.38 262.06 C 220.66 265.02 221.46 268.78 218.94 270.99 C 216.93 271.79 215.89 269.84 216.01 268.11 C 215.99 253.39 215.99 238.66 216.01 223.93 C 216.05 222.14 216.41 219.20 218.93 219.99 C 222.41 223.18 221.35 228.52 223.47 232.42 C 224.47 232.67 225.49 232.83 226.53 232.89 C 227.18 227.31 226.20 221.66 225.64 216.10 C 223.78 215.83 222.12 216.45 220.68 217.61 C 216.92 215.56 211.97 215.73 208.89 218.94 M 243.54 216.77 C 235.92 219.27 232.58 227.67 231.10 234.89 C 229.52 245.15 229.54 256.26 234.24 265.76 C 236.57 270.58 241.20 274.89 246.84 274.78 C 251.84 275.16 256.64 272.29 259.24 268.11 C 263.63 261.29 265.03 252.96 264.77 244.96 C 264.88 236.19 263.02 226.70 256.81 220.14 C 253.53 216.51 248.14 215.33 243.54 216.77 M 277.49 237.31 C 271.44 239.60 267.31 247.06 270.01 253.24 C 271.12 256.08 275.43 256.76 277.20 254.19 C 280.23 250.39 277.52 245.38 278.83 241.16 C 280.79 238.83 285.33 239.88 285.61 243.11 C 286.31 248.72 286.33 254.57 284.95 260.09 C 282.90 266.63 278.32 271.94 274.33 277.38 C 272.72 279.70 270.28 281.51 269.24 284.19 C 268.74 287.09 269.08 290.06 269.01 293.00 C 278.68 292.83 288.38 293.37 298.03 292.69 C 299.29 287.65 300.25 282.54 300.83 277.39 C 299.49 277.30 298.16 277.23 296.83 277.17 C 295.91 278.72 295.86 281.17 294.01 281.92 C 287.72 282.13 281.42 281.93 275.13 281.99 C 281.19 275.34 289.16 270.80 295.18 264.12 C 300.58 258.07 301.69 248.01 296.34 241.60 C 291.90 236.14 283.86 234.93 277.49 237.31 Z" />
<path fill="#ffffff" opacity="1.00" d=" M 245.02 222.97 C 244.86 220.66 247.06 219.64 249.07 219.86 C 249.51 221.16 250.09 222.47 250.01 223.89 C 249.96 238.63 250.07 253.38 249.95 268.12 C 250.07 270.21 248.14 271.29 246.27 271.15 C 245.59 269.87 244.84 268.55 245.00 267.04 C 245.01 252.35 244.98 237.66 245.02 222.97 Z" />
<path fill="#ffffff" opacity="1.00" d=" M 161.77 290.71 C 175.01 281.31 194.84 283.03 206.07 294.84 C 220.70 291.39 237.92 298.30 243.84 312.63 C 257.37 312.76 269.95 326.45 266.67 340.08 C 263.63 349.69 254.09 356.64 244.28 357.96 C 214.87 358.06 185.45 357.96 156.03 358.01 C 148.58 358.13 141.48 354.72 135.81 350.08 C 131.09 346.15 127.35 340.20 128.30 333.82 C 129.73 323.34 139.22 314.58 149.69 313.62 C 149.61 304.56 154.27 295.76 161.77 290.71 Z" />
</g>
</svg>
