<?xml version="1.0" encoding="UTF-8" ?>
<!DOCTYPE svg PUBLIC "-//W3C//DTD SVG 1.1//EN" "http://www.w3.org/Graphics/SVG/1.1/DTD/svg11.dtd">
<svg width="500pt" height="500pt" viewBox="0 0 500 500" version="1.1" xmlns="http://www.w3.org/2000/svg">
<g id="#ffffffff">
<path fill="#ffffff" opacity="1.00" d=" M 240.53 186.93 C 244.37 184.16 247.73 179.71 252.97 179.96 C 258.70 179.30 265.19 184.32 264.05 190.47 C 265.92 189.98 267.84 189.70 269.76 189.44 C 268.55 187.36 266.73 185.83 264.83 184.42 C 266.06 183.65 267.42 182.52 268.99 183.13 C 271.71 184.16 272.21 187.38 273.21 189.76 C 274.79 186.78 276.25 182.66 280.01 181.96 C 281.08 182.46 282.12 183.02 283.14 183.62 C 282.56 184.25 281.39 185.51 280.81 186.14 C 283.20 185.69 285.91 184.42 288.18 186.00 C 289.40 188.08 287.93 190.05 287.05 191.92 C 289.49 189.22 294.19 186.59 296.76 190.53 C 296.53 189.09 295.66 187.60 296.25 186.15 C 298.07 184.83 301.07 184.27 302.53 186.42 C 304.94 189.04 303.58 192.69 302.96 195.71 C 304.40 194.53 305.81 192.71 307.90 193.63 C 312.04 195.15 311.85 200.37 310.86 203.88 C 309.64 202.60 308.85 200.75 307.13 200.07 C 305.30 200.41 303.48 201.37 302.60 203.08 C 303.33 205.65 304.74 208.08 304.07 210.85 C 303.77 209.92 303.17 208.06 302.87 207.13 C 300.03 205.38 296.70 206.86 293.63 206.78 C 295.79 205.21 298.39 204.56 300.86 203.65 C 300.88 200.91 299.97 197.94 297.42 196.55 C 295.62 195.27 293.49 196.38 291.70 197.03 C 293.05 198.51 293.92 200.29 294.25 202.28 C 292.43 201.18 290.38 198.60 288.12 200.28 C 286.54 201.70 286.87 204.14 286.36 206.04 C 286.02 203.70 285.40 201.37 285.48 198.99 C 286.23 197.99 287.12 197.10 287.97 196.19 C 285.94 195.90 283.74 194.63 281.76 195.72 C 280.23 196.35 278.89 197.32 277.49 198.17 C 278.65 200.00 279.49 202.02 279.20 204.23 C 278.16 203.23 277.08 202.28 275.96 201.39 C 274.39 201.09 272.92 202.04 271.43 202.34 C 272.90 204.52 272.49 207.08 272.04 209.49 C 271.78 207.70 272.10 205.26 269.94 204.55 C 267.37 204.29 264.81 204.84 262.27 205.10 C 264.03 203.10 266.49 202.28 269.12 202.39 C 270.20 197.43 264.51 192.15 259.89 195.05 C 261.06 196.76 262.06 198.57 262.23 200.68 C 259.61 196.41 254.53 198.22 250.46 197.97 C 252.70 196.16 255.43 195.41 258.24 195.10 C 255.93 191.06 252.21 186.07 246.91 187.01 C 243.74 187.59 241.80 190.92 241.53 193.94 C 242.19 195.99 243.07 197.97 243.66 200.05 C 240.63 197.06 236.79 193.73 232.19 194.63 C 229.44 195.47 229.10 198.59 228.82 201.00 C 231.48 201.96 234.23 203.06 235.88 205.53 C 233.18 205.35 230.06 204.73 227.87 206.78 C 225.55 208.32 224.89 211.06 224.33 213.60 C 221.43 210.25 221.84 205.22 224.98 202.15 C 223.13 201.72 221.26 201.51 219.37 201.74 C 217.98 199.41 217.05 196.00 213.92 195.56 C 212.01 195.32 210.14 195.96 208.27 196.19 C 209.63 197.38 211.03 198.55 212.45 199.69 C 207.88 198.51 203.09 201.65 202.84 206.44 C 202.19 204.73 201.04 203.04 201.25 201.13 C 201.82 199.43 203.51 198.25 203.68 196.42 C 197.40 195.98 195.72 203.08 195.45 207.99 C 194.20 204.46 192.32 200.73 193.40 196.91 C 194.39 192.25 197.37 187.38 202.49 186.63 C 202.04 187.39 201.15 188.91 200.70 189.67 C 204.03 186.70 207.82 189.69 210.13 192.33 C 209.54 190.25 208.49 188.23 208.47 186.03 C 210.95 183.94 214.13 186.15 216.32 187.60 C 217.41 184.68 219.53 181.93 223.07 182.58 C 222.31 184.68 221.33 186.71 220.84 188.90 C 220.69 190.65 222.65 191.36 223.61 192.50 C 223.87 189.83 223.37 186.98 224.49 184.47 C 225.33 182.68 227.52 182.86 229.15 182.54 C 229.22 184.48 229.26 186.42 229.29 188.36 C 230.55 185.95 231.89 183.51 234.26 182.01 C 233.41 186.12 233.63 190.87 237.04 193.81 C 236.76 190.41 235.28 186.50 237.61 183.46 C 239.40 181.50 242.28 182.11 244.63 181.93 C 243.09 183.45 241.59 185.03 240.53 186.93 Z" />
<path fill="#ffffff" opacity="1.00" d=" M 184.96 212.89 C 184.50 208.89 188.23 206.67 191.33 205.23 C 190.61 207.91 188.94 210.74 190.36 213.49 C 191.49 216.78 195.23 220.79 198.86 218.45 C 199.09 215.04 202.19 213.31 205.00 212.17 C 204.45 214.71 203.02 217.38 204.16 219.97 C 204.84 221.83 206.38 223.16 207.70 224.58 C 206.96 221.88 205.50 216.37 209.29 215.32 L 208.17 216.60 C 209.03 218.62 210.33 220.44 212.34 221.43 C 212.74 217.17 215.17 213.39 219.33 211.95 C 218.68 214.74 217.23 217.75 218.51 220.60 C 219.64 223.63 222.80 225.32 225.89 225.65 C 227.31 228.19 229.63 229.97 232.33 231.00 C 232.39 227.22 232.86 222.58 237.11 221.26 C 236.55 223.84 235.66 226.63 236.85 229.18 C 237.58 231.42 239.82 232.44 241.52 233.83 C 238.82 235.04 236.15 234.12 233.75 232.74 C 230.80 234.53 228.10 233.12 225.53 231.47 C 222.12 231.58 218.94 230.63 216.81 227.83 C 213.54 227.70 210.28 227.06 207.06 227.90 C 202.85 228.57 198.87 225.08 198.81 220.84 C 198.24 220.42 197.68 220.00 197.13 219.58 C 192.51 224.59 183.71 219.26 184.96 212.89 Z" />
<path fill="#ffffff" opacity="1.00" d=" M 241.17 219.99 C 237.06 215.67 239.60 207.71 245.54 206.70 C 244.82 209.25 243.29 211.97 244.49 214.64 C 245.60 218.18 249.31 219.64 252.48 220.81 C 249.01 222.85 243.93 223.57 241.17 219.99 Z" />
<path fill="#ffffff" opacity="1.00" d=" M 310.27 205.90 C 317.14 208.22 318.03 218.21 312.43 222.26 C 309.75 224.27 306.48 222.83 303.75 221.78 C 306.82 220.36 309.78 218.22 310.91 214.88 C 312.36 211.97 310.77 208.83 310.27 205.90 Z" />
<path fill="#ffffff" opacity="1.00" d=" M 257.33 219.80 C 259.59 220.85 262.49 221.97 262.81 224.84 C 264.06 229.27 259.61 232.55 255.63 232.76 C 255.72 235.82 254.76 239.34 251.53 240.40 C 246.65 242.37 240.73 238.31 241.60 232.90 C 242.60 231.61 243.60 230.33 244.62 229.07 C 244.32 232.05 244.26 235.92 247.47 237.38 C 250.62 238.75 252.74 235.02 254.11 232.77 C 253.55 232.41 252.42 231.69 251.86 231.33 C 254.62 229.77 257.75 228.20 258.78 224.94 C 258.43 223.19 257.94 221.48 257.33 219.80 Z" />
<path fill="#ffffff" opacity="1.00" d=" M 259.13 234.64 C 261.99 235.86 264.92 237.84 265.56 241.11 C 266.96 246.10 262.35 251.29 257.34 251.18 C 255.74 250.77 254.17 250.21 252.59 249.73 C 256.00 248.43 259.23 246.12 260.38 242.50 C 261.63 239.84 259.85 237.14 259.13 234.64 Z" />
<path fill="#ffffff" opacity="1.00" d=" M 239.85 249.17 C 237.82 245.74 240.32 241.86 243.79 240.74 C 240.74 245.30 244.64 249.40 248.86 250.82 C 245.87 252.08 241.56 252.66 239.85 249.17 Z" />
<path fill="#ffffff" opacity="1.00" d=" M 217.14 255.41 C 218.80 255.17 220.46 254.89 222.15 255.00 C 224.59 256.25 226.47 258.37 228.82 259.78 C 228.26 259.81 227.12 259.86 226.56 259.88 C 228.73 264.21 232.44 267.42 235.58 271.01 C 236.47 270.39 237.35 269.77 238.24 269.16 C 236.75 268.08 235.28 266.98 233.84 265.86 C 234.53 265.49 235.91 264.76 236.60 264.39 C 234.77 262.19 232.33 260.71 229.86 259.34 C 230.69 259.55 231.53 259.77 232.37 259.99 C 234.92 257.60 238.37 256.75 241.79 256.92 C 242.40 257.56 243.62 258.84 244.23 259.48 L 244.24 257.53 C 249.51 257.06 254.78 256.45 260.07 256.23 C 263.08 256.02 265.37 258.50 268.26 258.95 C 273.83 258.18 279.31 256.79 284.90 256.13 C 285.35 275.88 291.21 295.76 303.32 311.55 C 311.75 323.01 322.72 332.28 334.29 340.42 C 328.30 347.13 319.47 350.17 311.08 352.62 C 288.27 358.72 264.47 360.58 240.92 359.91 C 223.35 358.97 205.68 357.14 188.75 352.18 C 181.07 349.78 172.97 346.84 167.70 340.42 C 178.81 332.11 189.33 322.89 198.31 312.29 C 202.53 307.09 207.05 301.49 207.71 294.57 C 210.75 291.17 212.49 286.46 212.01 281.90 C 211.67 279.22 213.70 277.20 214.63 274.90 C 215.45 273.09 214.46 271.11 214.37 269.26 L 215.36 269.70 C 216.22 264.98 216.99 260.22 217.14 255.41 M 253.52 262.79 C 256.97 264.94 260.53 266.92 263.90 269.21 C 262.69 270.27 260.21 270.43 259.91 272.29 C 260.36 272.77 261.27 273.73 261.73 274.22 C 260.96 278.49 258.37 282.20 256.67 286.16 C 259.36 283.14 262.20 280.25 265.41 277.79 C 268.01 279.72 270.93 281.37 272.95 283.96 C 273.68 286.03 271.87 287.64 271.37 289.52 C 273.45 292.44 276.60 294.34 279.44 296.44 C 277.07 292.47 273.46 288.84 273.66 283.87 C 270.56 280.30 267.37 276.80 264.26 273.25 C 266.00 272.27 267.75 271.30 269.44 270.23 C 264.19 267.63 258.93 265.02 253.52 262.79 M 238.76 271.84 C 238.88 274.46 236.20 275.24 234.57 276.69 C 232.15 278.43 231.27 281.42 230.20 284.04 C 231.07 283.72 232.81 283.06 233.68 282.73 C 235.90 283.29 235.91 285.80 236.74 287.52 C 237.33 289.36 238.74 291.06 238.48 293.07 C 237.15 294.66 235.48 295.92 233.88 297.23 C 234.49 305.20 229.67 311.84 227.37 319.11 C 230.26 315.76 233.30 312.53 235.98 309.01 C 239.05 305.70 234.63 301.12 236.66 297.36 C 237.71 295.68 239.23 294.34 240.25 292.64 C 239.16 287.77 235.84 283.63 235.23 278.61 C 237.71 278.48 240.20 278.48 242.69 278.52 C 241.42 276.27 240.17 274.01 238.76 271.84 M 227.18 286.08 C 226.72 287.49 227.20 287.96 228.60 287.48 C 229.05 286.06 228.58 285.60 227.18 286.08 M 224.05 291.13 C 223.50 292.75 224.04 293.33 225.67 292.86 C 226.22 291.24 225.67 290.66 224.05 291.13 M 253.25 291.47 C 252.02 292.68 254.29 294.28 255.29 293.12 C 256.41 291.87 254.27 290.24 253.25 291.47 M 282.15 299.08 C 282.29 302.42 285.13 297.54 282.15 299.08 M 224.72 322.45 C 225.88 322.78 227.06 323.08 228.24 323.34 C 227.97 322.45 227.51 321.61 227.13 320.77 C 226.32 321.32 225.52 321.88 224.72 322.45 Z" />
</g>
<g id="#e0e0e0e0">
<path fill="#e0e0e0" opacity="0.88" d=" M 227.18 286.08 C 228.58 285.60 229.05 286.06 228.60 287.48 C 227.20 287.96 226.72 287.49 227.18 286.08 Z" />
</g>
<g id="#cccccccc">
<path fill="#cccccc" opacity="0.80" d=" M 224.05 291.13 C 225.67 290.66 226.22 291.24 225.67 292.86 C 224.04 293.33 223.50 292.75 224.05 291.13 Z" />
</g>
<g id="#d8d8d8d8">
<path fill="#d8d8d8" opacity="0.85" d=" M 282.15 299.08 C 285.13 297.54 282.29 302.42 282.15 299.08 Z" />
</g>
</svg>
