<?xml version="1.0" encoding="UTF-8" ?>
<!DOCTYPE svg PUBLIC "-//W3C//DTD SVG 1.1//EN" "http://www.w3.org/Graphics/SVG/1.1/DTD/svg11.dtd">
<svg width="500pt" height="500pt" viewBox="0 0 500 500" version="1.1" xmlns="http://www.w3.org/2000/svg">
<g id="#ffffffff">
<path fill="#ffffff" opacity="1.00" d=" M 229.57 141.71 C 235.64 140.28 242.55 140.57 247.84 144.20 C 255.57 149.25 259.01 160.03 255.39 168.56 C 251.05 179.01 237.28 184.35 227.19 178.92 C 216.68 173.43 213.54 158.54 219.66 148.71 C 221.86 145.16 225.60 142.81 229.57 141.71 M 228.63 172.26 C 229.05 175.71 233.05 176.26 235.84 176.75 C 239.13 177.26 241.91 175.27 244.46 173.52 C 240.50 168.62 233.74 170.60 228.63 172.26 Z" />
<path fill="#ffffff" opacity="1.00" d=" M 289.63 171.73 C 293.07 169.30 298.25 169.83 301.19 172.80 C 303.14 175.41 303.33 178.82 303.60 181.95 C 306.12 185.11 310.26 188.38 308.81 192.95 C 306.96 197.60 301.04 201.48 296.18 198.85 C 292.67 196.73 289.73 201.51 286.11 200.51 C 281.16 199.93 277.48 194.91 277.86 190.04 C 278.21 187.81 279.79 186.07 280.95 184.22 C 278.05 181.47 274.95 178.89 272.49 175.71 C 278.03 178.80 283.03 182.74 288.04 186.60 C 287.59 187.06 286.68 187.98 286.22 188.44 C 285.16 187.55 284.11 186.66 283.04 185.79 C 281.43 188.38 280.61 191.80 282.41 194.51 C 284.06 197.31 287.52 198.00 290.51 198.10 C 290.91 197.01 291.31 195.91 291.70 194.82 C 293.66 195.99 295.72 197.44 298.16 197.02 C 304.13 196.91 307.07 188.14 302.72 184.25 C 301.07 182.77 298.80 182.42 296.77 181.72 C 298.64 181.73 300.50 181.71 302.37 181.60 C 302.93 176.78 298.25 173.28 293.89 172.94 C 291.72 173.59 290.03 175.19 288.19 176.43 C 289.18 178.24 290.08 180.10 290.67 182.10 C 285.00 179.39 279.19 176.88 274.00 173.30 C 277.83 174.22 281.48 175.71 285.07 177.32 C 286.40 175.32 287.55 173.05 289.63 171.73 Z" />
<path fill="#ffffff" opacity="1.00" d=" M 198.62 192.51 C 201.66 185.94 206.52 179.32 213.83 177.34 C 220.53 175.01 225.98 180.97 232.17 182.44 C 240.09 185.52 246.54 178.04 253.94 176.73 C 263.30 176.25 270.51 183.89 273.90 191.88 C 280.84 208.26 281.51 226.44 281.23 243.98 C 280.90 249.36 280.53 255.04 277.78 259.81 C 275.66 263.72 269.35 263.38 267.41 259.48 C 264.89 254.56 266.65 248.95 266.63 243.72 C 267.02 229.75 266.80 215.30 261.82 202.06 C 261.41 245.44 261.21 288.83 260.96 332.22 C 259.93 337.39 256.23 342.20 251.17 343.97 C 287.78 344.04 324.39 343.98 361.00 344.00 C 361.00 348.00 361.00 352.00 361.00 356.00 C 287.33 356.00 213.67 356.00 140.00 356.00 C 140.00 352.00 140.00 348.00 140.00 344.00 C 167.07 344.03 194.14 343.94 221.22 344.04 C 217.31 342.39 213.06 339.49 212.54 334.93 C 212.43 320.63 212.10 306.33 212.25 292.03 C 211.64 278.70 212.36 265.34 211.75 252.01 C 211.74 245.68 211.76 239.34 211.73 233.01 C 211.59 230.46 212.32 227.93 213.47 225.68 C 224.41 220.49 236.48 216.18 244.77 206.95 C 249.74 201.76 244.71 192.59 237.71 193.24 C 238.14 193.72 239.01 194.69 239.44 195.17 C 243.54 196.02 247.19 201.33 244.39 205.15 C 242.10 208.31 238.69 210.38 235.48 212.49 C 225.24 218.57 214.18 223.17 202.95 227.06 C 199.01 228.64 193.85 226.22 193.19 221.86 C 192.15 211.82 194.62 201.68 198.62 192.51 M 211.62 206.52 C 212.25 203.43 213.49 200.48 213.76 197.32 C 211.15 200.04 210.26 203.78 208.73 207.11 C 208.91 207.85 209.28 209.32 209.46 210.06 C 219.21 205.33 228.12 198.87 238.14 194.75 C 237.30 194.35 236.47 193.96 235.64 193.59 C 227.15 196.96 219.52 202.02 211.62 206.52 M 234.08 254.02 C 233.82 281.33 234.19 308.67 233.90 335.98 C 232.40 339.95 228.53 342.33 224.84 344.03 C 232.53 343.93 240.21 344.10 247.90 343.90 C 244.30 342.72 240.19 340.80 238.84 336.99 C 238.48 308.60 239.11 280.18 238.53 251.80 C 236.93 252.09 234.16 251.71 234.08 254.02 Z" />
</g>
</svg>
