<?xml version="1.0" encoding="UTF-8"?>
<!DOCTYPE svg PUBLIC "-//W3C//DTD SVG 1.1//EN" "http://www.w3.org/Graphics/SVG/1.1/DTD/svg11.dtd">
<!-- Creator: CorelDRAW 2018 (64 Bit Versión de evaluación) -->
<svg xmlns="http://www.w3.org/2000/svg" xml:space="preserve" width="215.9mm" height="279.4mm" version="1.1" style="shape-rendering:geometricPrecision; text-rendering:geometricPrecision; image-rendering:optimizeQuality; fill-rule:evenodd; clip-rule:evenodd"
viewBox="0 0 21590 27940"
 xmlns:xlink="http://www.w3.org/1999/xlink">
 <defs>
  <style type="text/css">
   <![CDATA[
    .str0 {stroke:#FEFEFE;stroke-width:100;stroke-miterlimit:22.9256}
    .str1 {stroke:#FEFEFE;stroke-width:200;stroke-miterlimit:22.9256}
    .str2 {stroke:#FEFEFE;stroke-width:300;stroke-miterlimit:22.9256}
    .str3 {stroke:#FEFEFE;stroke-width:150;stroke-miterlimit:22.9256}
    .fil1 {fill:none}
    .fil0 {fill:#FEFEFE}
   ]]>
  </style>
 </defs>
 <g id="Capa_x0020_1">
  <metadata id="CorelCorpID_0Corel-Layer"/>
  <path class="fil0 str0" d="M7099.75 11190.39c-758.09,-83.48 -1289.87,222.98 -1635.06,850.23l-3531.74 4905.2c-597.08,566.73 -875.75,1189.96 -850.24,1896.68l130.81 5951.63c295.67,1842.88 2741.28,1535.9 2812.31,-65.4l0 -5363.01 2485.3 -3270.13 -65.4 9875.79 8698.54 0 -130.8 -10006.6 2550.7 3466.34 65.4 5624.62c462.75,1462.86 2372.17,1434.7 2877.72,-65.4l0 -5820.83c53.6,-826.74 -174.04,-1613.32 -719.43,-2354.5l-3597.14 -4578.18c-329.94,-572.46 -727.63,-1016.45 -1700.47,-915.64l-7390.5 -130.8z"/>
  <circle class="fil1 str1" cx="10797.22" cy="6207.48" r="4436.29"/>
  <polyline class="fil1 str2" points="9129.54,2095.32 10957.77,3359.59 7722.27,3009.76 14590.88,3906.47 "/>
  <path class="fil0 str3" d="M6676.59 4560.8l5307.91 730.85 3173.1 1737.38c-694.74,3277.7 -4306.41,4619.58 -6892.07,2821.9 -1922.96,-1485.96 -2221.86,-3295.26 -1588.94,-5290.13z"/>
  <line class="fil1 str2" x1="11675.87" y1="5330.23" x2="15172.63" y2= "5470.77" />
 </g>
</svg>
