<?xml version="1.0" standalone="no"?>
<!DOCTYPE svg PUBLIC "-//W3C//DTD SVG 20010904//EN"
 "http://www.w3.org/TR/2001/REC-SVG-20010904/DTD/svg10.dtd">
<svg version="1.0" xmlns="http://www.w3.org/2000/svg"
 width="1280.000000pt" height="720.000000pt" viewBox="0 0 1280.000000 720.000000"
 preserveAspectRatio="xMidYMid meet">

<g transform="translate(0.000000,720.000000) scale(0.100000,-0.100000)"
fill="#000000" stroke="none">
<path d="M0 3600 l0 -3600 6400 0 6400 0 0 3600 0 3600 -6400 0 -6400 0 0
-3600z m8635 2340 c8 0 15 -7 15 -15 0 -8 7 -15 15 -15 8 0 15 -7 15 -15 0 -8
7 -15 15 -15 15 0 17 -8 17 -75 0 -60 -2 -65 -17 -65 -8 0 -15 -9 -15 -20 0
-13 -5 -18 -15 -14 -9 4 -15 0 -15 -10 0 -9 -7 -16 -15 -16 -13 0 -15 -68 -15
-553 l0 -554 -22 3 c-13 1 -47 3 -75 3 -42 1 -53 4 -53 17 0 10 -6 14 -14 11
-10 -4 -16 2 -18 16 -2 12 -2 493 0 1070 2 920 4 1047 17 1047 10 0 15 10 15
30 0 20 5 30 15 30 8 0 15 7 15 15 0 10 15 15 58 17 l57 3 3 -447 c2 -389 4
-448 17 -448z m-765 875 c0 -8 7 -15 15 -15 13 0 15 -87 15 -725 0 -621 -2
-725 -14 -725 -8 0 -16 -7 -18 -16 -2 -13 -15 -17 -58 -17 -43 0 -56 4 -58 17
-2 9 -10 16 -18 16 -12 0 -14 33 -14 196 0 136 -3 193 -11 189 -6 -4 -13 2
-16 14 -3 12 -12 21 -19 21 -10 0 -14 13 -14 40 0 29 4 40 15 40 8 0 15 7 15
15 0 8 7 15 15 15 13 0 15 59 15 475 l0 475 75 0 c60 0 75 -3 75 -15z m1520 0
c0 -8 7 -15 15 -15 8 0 15 -8 15 -17 0 -22 0 -3003 0 -3020 0 -10 -25 -13 -90
-13 l-90 0 0 1540 0 1540 75 0 c60 0 75 -3 75 -15z m-1755 -411 l0 -49 -45 1
c-45 1 -45 1 -48 38 -5 55 0 61 49 60 l44 -1 0 -49z m-2852 -903 c106 -1 127
-3 127 -16 0 -8 5 -15 10 -15 6 0 10 -7 10 -15 0 -8 3 -14 8 -14 4 1 37 1 75
0 52 -1 67 -4 67 -16 0 -8 7 -15 15 -15 8 0 15 -7 15 -15 0 -8 7 -15 15 -15
11 0 15 -12 15 -46 0 -29 4 -43 11 -39 6 4 13 -2 16 -14 4 -17 13 -21 49 -21
32 0 44 -4 44 -15 0 -8 7 -15 15 -15 8 0 15 -7 15 -15 0 -8 7 -15 15 -15 11 0
15 -12 15 -45 0 -33 4 -45 15 -45 8 0 15 -7 15 -15 0 -8 7 -15 15 -15 10 0 15
-10 15 -30 0 -20 5 -30 15 -30 13 0 15 -21 15 -130 0 -109 2 -130 15 -130 8 0
15 -7 15 -15 0 -12 32 -14 208 -14 179 0 207 -2 210 -15 2 -11 15 -16 43 -16
29 0 39 -4 39 -16 0 -8 5 -12 11 -9 6 4 13 -2 16 -14 5 -19 12 -21 94 -21 74
0 89 -3 89 -15 0 -13 9 -15 41 -12 34 4 42 1 46 -14 4 -13 14 -19 34 -19 19 0
29 -5 29 -15 0 -12 18 -15 105 -15 87 0 105 -3 105 -15 0 -13 24 -15 160 -15
136 0 160 2 160 15 0 12 20 15 118 16 64 1 123 1 130 0 6 -1 12 5 12 14 0 10
10 15 30 15 20 0 30 5 30 15 0 11 12 15 45 15 33 0 45 4 45 15 0 13 22 15 135
15 113 0 135 2 135 15 0 13 21 15 125 15 104 0 125 -2 125 -15 0 -12 13 -15
55 -15 42 0 55 -3 55 -15 0 -8 7 -15 15 -15 8 0 15 -7 15 -15 0 -8 7 -15 15
-15 10 0 15 -10 15 -31 0 -18 4 -28 10 -24 6 3 14 -3 18 -15 4 -12 12 -21 17
-21 6 1 10 -78 10 -196 0 -153 -3 -197 -12 -196 -7 2 -13 -4 -13 -12 0 -8 -7
-15 -15 -15 -8 0 -15 -4 -15 -10 0 -5 -6 -10 -14 -10 -7 0 -16 -9 -19 -19 -3
-14 -11 -18 -26 -14 -15 4 -21 1 -21 -11 0 -9 -7 -16 -15 -16 -8 0 -15 -7 -15
-15 0 -10 -10 -15 -30 -15 -20 0 -30 -5 -30 -15 0 -13 -22 -15 -135 -15 -113
0 -135 -2 -135 -15 0 -13 -25 -21 -52 -16 -5 0 -8 -6 -8 -14 0 -12 -13 -15
-60 -15 -47 0 -60 -3 -60 -15 0 -17 -9 -18 -127 -15 -70 1 -83 -1 -83 -14 0
-11 -9 -16 -29 -16 -20 0 -31 -6 -33 -17 -3 -15 -14 -17 -81 -15 -63 3 -78 0
-83 -12 -5 -13 -25 -16 -110 -16 l-104 0 0 -31 c0 -19 4 -28 11 -24 6 4 13 -2
16 -14 3 -11 10 -18 15 -15 5 3 12 -3 15 -15 3 -12 12 -21 19 -21 8 0 14 -7
14 -15 0 -8 7 -15 15 -15 8 0 15 -7 15 -15 0 -8 7 -15 15 -15 8 0 15 -7 15
-16 0 -8 5 -12 11 -9 6 4 13 -2 16 -14 3 -12 12 -21 19 -21 8 0 14 -7 14 -15
0 -8 5 -15 10 -15 6 0 10 -7 10 -15 0 -8 7 -15 15 -15 8 0 15 -7 15 -16 0 -8
5 -12 11 -9 6 4 13 -2 16 -14 5 -18 13 -21 58 -21 43 0 54 3 57 17 3 14 12 17
46 15 32 -3 42 0 42 11 0 18 29 24 114 23 47 -1 66 2 66 11 0 15 -12 14 288
14 190 -1 222 1 222 14 0 11 13 15 55 15 42 0 55 3 55 15 0 16 22 18 127 15
41 -1 52 2 55 15 3 15 19 17 111 19 76 1 107 -2 107 -11 0 -6 14 -14 30 -18
17 -4 30 -13 30 -21 0 -8 6 -14 14 -14 8 0 17 -7 20 -16 3 -8 16 -15 28 -14
51 5 58 1 58 -31 0 -23 4 -30 14 -26 9 4 16 -2 19 -15 5 -16 12 -19 31 -16 26
5 32 -7 27 -49 -1 -7 5 -13 14 -13 8 0 15 -7 15 -15 0 -8 7 -15 15 -15 8 0 15
-7 15 -15 0 -8 7 -15 15 -15 8 0 15 -7 15 -15 0 -8 9 -15 20 -15 13 0 18 -5
14 -15 -4 -10 0 -15 15 -15 14 0 19 -5 15 -15 -4 -10 0 -15 16 -15 11 0 18 -4
15 -10 -3 -5 1 -10 9 -10 9 0 16 -7 16 -15 0 -8 5 -15 10 -15 6 0 10 -7 10
-15 0 -8 8 -15 19 -15 14 0 17 -6 14 -24 -4 -18 0 -26 16 -31 13 -4 18 -12 14
-21 -4 -11 0 -15 13 -12 11 2 19 -3 19 -12 1 -8 6 -14 13 -13 7 2 12 -6 12
-17 0 -11 7 -20 15 -20 8 0 15 -7 15 -15 0 -8 3 -14 8 -14 20 3 32 -2 29 -13
-1 -7 4 -12 11 -11 6 2 12 -6 12 -17 0 -14 6 -20 18 -18 11 2 16 -3 14 -14 -2
-11 3 -18 13 -18 8 0 15 -7 15 -15 0 -8 8 -15 18 -15 13 0 18 -7 17 -22 -1
-13 7 -29 17 -36 10 -7 16 -18 13 -23 -4 -5 1 -9 9 -9 9 0 16 -7 16 -16 0 -10
6 -14 15 -10 10 4 15 -1 15 -14 0 -11 7 -20 15 -20 8 0 15 -7 15 -15 0 -8 7
-15 15 -15 7 0 18 -8 24 -17 5 -10 13 -18 18 -18 4 0 7 -5 5 -12 -2 -7 4 -13
13 -13 8 0 15 -7 15 -15 0 -8 9 -15 21 -15 12 0 17 -4 14 -11 -4 -6 2 -13 13
-16 14 -3 19 -10 15 -21 -5 -11 -2 -14 10 -9 16 6 22 -4 18 -27 -1 -5 5 -6 14
-3 10 5 15 0 15 -14 0 -13 6 -19 18 -17 11 2 16 -3 14 -15 -2 -9 3 -17 10 -17
9 0 9 -3 -2 -10 -13 -8 -12 -10 3 -10 13 0 17 -8 17 -35 0 -28 4 -35 20 -35
14 0 18 -5 13 -17 -5 -12 -2 -15 10 -10 15 5 17 -2 18 -51 1 -31 2 -72 3 -89
1 -21 -3 -33 -11 -33 -15 0 -14 3 -16 -67 0 -45 -3 -53 -20 -53 -13 0 -17 -5
-13 -15 3 -9 0 -15 -8 -15 -15 0 -26 -21 -26 -50 0 -14 -7 -17 -31 -14 -23 3
-30 0 -26 -10 3 -8 -2 -16 -15 -19 -11 -3 -17 -10 -13 -16 3 -7 -2 -11 -14
-11 -31 0 -51 -11 -51 -27 0 -11 -7 -14 -25 -11 -14 3 -25 0 -26 -6 0 -6 -2
-7 -5 -1 -2 6 -53 10 -124 9 -110 -1 -120 1 -120 18 0 11 -7 18 -20 18 -11 0
-19 6 -17 13 1 6 -4 11 -11 9 -8 -1 -16 7 -19 18 -4 17 -11 20 -29 16 -19 -5
-24 -2 -24 14 0 11 -7 20 -15 20 -8 0 -15 7 -15 15 0 9 -9 15 -21 15 -15 0
-19 5 -15 15 4 10 -1 15 -14 15 -13 0 -18 5 -14 15 4 8 1 15 -5 15 -6 0 -11 7
-11 15 0 18 -16 20 -23 3 -5 -12 -11 16 -8 34 0 5 -8 8 -19 8 -13 0 -18 5 -14
15 4 10 0 15 -15 15 -15 0 -19 4 -14 17 5 12 2 15 -10 10 -12 -5 -17 -1 -17
13 0 11 -7 20 -15 20 -8 0 -15 7 -15 15 0 8 -7 15 -15 15 -8 0 -15 7 -15 15 0
9 -7 15 -17 13 -12 -2 -17 4 -18 22 0 15 -6 25 -15 25 -8 0 -15 7 -15 15 -1 8
-6 14 -13 13 -7 -2 -12 6 -12 17 0 13 -7 20 -20 20 -14 0 -18 5 -13 17 5 12 2
15 -10 10 -11 -4 -17 -1 -17 8 0 7 -9 16 -19 20 -12 4 -18 12 -14 21 4 10 0
12 -11 8 -9 -4 -16 -1 -16 6 0 13 -68 84 -82 86 -4 1 -14 2 -20 3 -9 1 -8 4 2
11 13 8 12 10 -2 10 -16 0 -23 11 -19 33 1 4 -7 7 -16 5 -10 -2 -18 3 -18 12
0 8 -7 15 -15 15 -9 0 -15 11 -16 30 -2 41 -3 42 -14 25 -8 -12 -10 -11 -10 8
0 21 -4 23 -50 26 -9 1 -17 14 -20 34 -3 18 -9 32 -15 32 -5 -1 -12 4 -15 12
-8 20 -520 22 -520 2 0 -15 -3 -16 -69 -19 -23 -1 -46 -7 -50 -13 -4 -7 -42
-12 -93 -14 -72 -1 -87 -4 -91 -19 -3 -12 -13 -16 -36 -13 -22 3 -36 -2 -48
-16 -9 -10 -20 -17 -25 -14 -4 3 -8 -2 -8 -11 0 -9 5 -13 11 -10 6 4 13 -2 15
-12 4 -15 14 -19 46 -18 31 1 42 -3 46 -17 2 -10 9 -15 14 -12 5 3 12 -3 15
-15 3 -12 12 -21 19 -21 8 0 14 -7 14 -15 0 -12 13 -15 60 -15 47 0 60 -3 60
-15 0 -8 7 -15 15 -15 8 0 15 -7 15 -16 0 -8 5 -12 11 -9 6 4 13 -2 16 -13 4
-17 13 -20 61 -19 45 0 58 -4 60 -17 2 -9 10 -16 18 -16 8 0 14 -7 14 -16 0
-8 5 -12 11 -9 6 4 13 -2 16 -14 4 -17 13 -21 49 -21 32 0 44 -4 44 -15 0 -8
7 -15 15 -15 8 0 15 -7 15 -16 0 -8 5 -12 10 -9 6 3 10 -1 10 -10 0 -9 5 -13
11 -10 6 4 13 -2 16 -14 3 -12 12 -21 19 -21 8 0 14 -7 14 -16 0 -8 5 -12 11
-9 6 4 13 -2 16 -14 3 -12 12 -21 19 -21 11 0 14 -24 14 -120 0 -100 3 -120
15 -120 10 0 15 -10 15 -31 0 -18 4 -28 10 -24 6 3 14 -4 19 -17 4 -13 12 -22
17 -20 5 1 10 -45 12 -103 l3 -105 27 -1 c15 0 21 -3 15 -6 -17 -6 -17 -24 0
-20 8 1 13 -17 15 -60 2 -47 7 -63 17 -63 12 0 15 -19 15 -101 0 -64 4 -98 10
-94 5 3 18 1 27 -4 10 -6 13 -11 6 -11 -16 0 -12 -40 4 -40 7 0 14 -8 14 -17
4 -54 9 -77 21 -84 9 -6 12 -32 10 -92 -2 -76 -1 -85 15 -83 12 1 17 -5 15
-17 -2 -13 2 -17 15 -15 16 3 18 -9 21 -131 3 -96 8 -138 17 -148 12 -11 119
-14 592 -16 455 -2 578 -5 578 -14 0 -7 4 -13 10 -12 5 0 12 -8 16 -19 7 -17
18 -19 96 -20 l88 0 0 -73 c0 -65 -2 -74 -17 -71 -11 2 -18 -3 -18 -13 0 -8
-8 -15 -17 -15 -10 0 -1475 0 -3255 0 -2594 0 -3238 -2 -3238 -12 0 -9 -3 -8
-10 2 -9 13 -11 13 -20 0 -6 -10 -10 -11 -10 -2 0 6 -5 12 -11 12 -5 0 -7 -6
-4 -12 4 -7 0 -4 -9 6 -8 10 -13 23 -10 27 3 5 0 9 -5 9 -6 0 -11 -6 -11 -12
0 -9 -3 -8 -9 2 -6 8 -7 18 -5 22 3 4 -3 8 -13 8 -17 1 -16 2 2 12 19 11 19
11 0 19 -15 5 -16 8 -4 8 16 1 21 46 6 69 -9 13 -4 14 56 14 25 0 37 4 37 14
0 8 9 14 21 14 14 0 19 5 16 14 -4 9 4 16 21 19 15 3 992 6 2172 7 1901 0
2145 2 2153 15 4 9 12 13 18 10 5 -4 9 7 9 24 0 23 -4 29 -15 25 -13 -5 -15
12 -15 120 0 107 -2 125 -15 120 -10 -4 -15 0 -15 15 0 14 -5 19 -15 15 -12
-5 -15 4 -15 45 0 39 -4 51 -15 51 -12 0 -15 18 -15 105 0 77 -3 104 -12 102
-7 -1 -15 12 -18 31 -3 18 -9 33 -15 32 -5 0 -11 17 -13 39 -2 30 -7 39 -18
34 -12 -4 -14 11 -14 91 0 71 -3 95 -12 93 -9 -1 -14 14 -16 46 -2 29 -7 45
-13 41 -6 -3 -13 3 -16 15 -3 12 -12 21 -19 21 -8 0 -14 7 -14 16 0 8 -5 12
-11 9 -6 -4 -13 2 -16 14 -3 12 -12 21 -19 21 -8 0 -14 7 -14 15 0 11 -10 13
-40 10 -30 -3 -42 1 -50 13 -5 10 -10 12 -10 5 0 -18 -20 -16 -20 2 0 9 -6 12
-15 9 -10 -4 -15 0 -15 16 0 12 -4 18 -11 15 -6 -4 -13 2 -15 12 -5 17 -14 20
-61 19 -46 -1 -57 2 -61 17 -2 9 -11 17 -18 17 -8 0 -14 7 -14 15 0 8 -3 14
-7 14 -24 -4 -43 3 -43 15 0 10 -12 14 -42 12 -31 -1 -42 3 -46 16 -2 10 -9
15 -14 12 -5 -3 -12 3 -15 15 -3 12 -12 21 -19 21 -8 0 -14 7 -14 15 0 12 -15
15 -75 15 -61 0 -75 3 -75 16 0 8 -5 12 -11 9 -6 -4 -13 2 -16 14 -3 11 -10
18 -15 15 -5 -3 -12 4 -15 16 -5 17 -12 21 -42 20 -65 -3 -81 0 -81 15 0 8 -7
15 -15 15 -8 0 -15 7 -15 16 0 8 -5 12 -11 9 -6 -4 -13 2 -16 14 -5 18 -13 21
-64 21 -33 0 -59 4 -59 10 0 6 -7 10 -15 10 -8 0 -15 7 -15 15 0 8 -6 15 -14
15 -8 0 -16 7 -20 15 -3 10 -19 15 -46 15 -30 0 -40 4 -40 16 0 8 -5 12 -11 9
-6 -4 -13 2 -16 14 -3 12 -9 21 -14 21 -15 0 -49 34 -49 48 0 7 -5 10 -10 7
-6 -3 -13 2 -17 12 -4 10 -13 24 -21 32 -18 19 -82 21 -82 4 0 -7 -7 -13 -15
-13 -8 0 -15 -7 -15 -16 0 -8 5 -12 11 -9 6 4 13 -2 16 -14 3 -11 9 -18 14
-15 5 3 13 -5 18 -18 4 -13 12 -21 17 -18 5 3 10 -10 12 -28 2 -18 8 -30 13
-26 6 3 13 -3 16 -15 3 -12 9 -21 14 -21 5 0 9 -7 9 -15 0 -8 7 -15 15 -15 9
0 15 -10 15 -26 0 -15 4 -23 11 -19 6 4 13 -2 16 -14 3 -11 10 -18 15 -15 5 3
12 -3 15 -15 3 -12 12 -21 19 -21 10 0 14 -16 14 -60 0 -43 4 -59 13 -57 9 1
12 -31 12 -138 0 -107 -3 -139 -12 -138 -9 2 -13 -11 -13 -42 0 -32 -4 -45
-14 -45 -7 0 -16 -9 -19 -21 -3 -12 -10 -18 -16 -14 -6 3 -11 -1 -11 -9 0 -15
-14 -20 -47 -19 -7 1 -13 -5 -13 -13 0 -8 -4 -14 -10 -14 -5 0 -10 -6 -10 -14
0 -18 -17 -24 -57 -21 -22 1 -33 -3 -33 -12 0 -7 -8 -13 -17 -14 -145 -8 -173
-6 -173 13 0 21 -36 25 -43 6 -2 -7 -8 -1 -12 15 -4 15 -13 27 -21 27 -8 0
-14 6 -14 14 0 7 -10 13 -22 13 -56 1 -68 4 -68 18 0 8 -6 14 -12 12 -8 -1
-14 11 -16 31 -2 18 -8 30 -13 26 -6 -3 -13 3 -16 15 -3 11 -10 18 -15 15 -5
-3 -12 3 -15 15 -3 12 -12 21 -19 21 -9 0 -14 11 -14 30 0 20 -5 30 -15 30 -8
0 -15 7 -15 15 0 8 -7 15 -15 15 -8 0 -15 7 -15 15 0 8 -5 14 -12 12 -7 -1
-15 12 -18 31 -3 18 -9 32 -15 32 -5 0 -12 13 -15 30 -3 17 -9 30 -15 30 -5
-1 -12 6 -15 15 -3 9 -10 15 -15 13 -6 -2 -11 12 -13 30 -2 18 -8 30 -13 26
-6 -3 -13 3 -16 15 -3 11 -10 18 -15 15 -5 -3 -12 3 -15 15 -3 12 -12 21 -19
21 -9 0 -14 11 -14 30 0 20 -5 30 -15 30 -8 0 -15 7 -15 15 0 8 -7 15 -15 15
-8 0 -15 5 -15 10 0 6 -7 10 -15 10 -10 0 -15 10 -15 31 0 19 -4 28 -11 24 -6
-4 -13 2 -16 14 -3 12 -9 21 -14 21 -5 0 -9 7 -9 16 0 10 -6 14 -15 10 -13 -5
-15 13 -15 119 0 104 -2 125 -15 125 -8 0 -15 7 -15 15 0 8 -7 15 -15 15 -12
0 -15 13 -15 60 0 47 -3 60 -15 60 -13 0 -15 25 -15 165 0 127 -3 164 -12 163
-9 -2 -14 12 -16 40 -2 28 -8 42 -18 42 -10 0 -14 12 -14 45 0 33 -4 45 -15
45 -13 0 -15 22 -15 135 0 113 -2 135 -15 135 -11 0 -15 12 -15 45 0 31 -4 44
-12 43 -9 -2 -14 13 -16 45 -2 33 -7 47 -18 47 -11 0 -14 24 -14 135 0 113 2
135 15 135 10 0 15 10 15 30 0 20 5 30 15 30 9 0 15 9 15 25 0 23 -4 25 -45
25 -34 0 -45 4 -45 16 0 11 -8 15 -27 13 -47 -4 -63 0 -63 16 0 8 -9 15 -20
15 -11 0 -19 6 -17 13 1 8 -15 12 -55 12 -49 0 -58 3 -58 17 0 12 -8 18 -21
18 -12 0 -17 4 -14 11 4 6 -2 13 -14 16 -11 3 -18 9 -15 14 3 5 -2 12 -10 15
-9 3 -16 12 -16 20 0 8 -7 14 -15 14 -8 0 -15 7 -15 15 0 8 -6 12 -14 9 -8 -3
-16 3 -19 16 -3 12 -10 19 -16 16 -5 -4 -11 8 -13 26 -2 21 -8 33 -18 33 -9 0
-14 8 -12 18 2 10 -3 17 -13 17 -8 0 -15 7 -15 15 0 8 -8 15 -17 15 -16 0 -18
10 -18 72 0 53 -3 72 -12 71 -10 -2 -13 32 -14 145 0 81 -2 154 -4 164 -2 9 5
18 16 21 17 5 19 15 19 96 0 76 2 89 15 85 9 -4 15 0 15 10 0 9 7 16 15 16 8
0 15 6 15 14 0 8 7 16 15 20 9 3 15 18 15 35 0 24 3 29 17 24 12 -5 15 -2 10
10 -5 12 -1 17 13 17 11 0 20 7 20 15 0 8 7 15 15 15 8 0 15 7 15 15 0 10 10
15 30 15 23 0 30 4 30 20 0 13 5 18 15 14 9 -4 15 0 15 10 0 9 7 16 15 16 8 0
15 8 15 18 0 16 8 17 60 14 50 -3 60 -1 60 12 0 14 24 22 53 17 4 0 7 5 7 13
0 16 25 22 80 19 19 0 92 -2 163 -2z m4281 -403 c1 -48 1 -48 -54 -48 l-40 0
0 44 0 45 43 3 c23 2 44 2 46 1 2 -1 4 -22 5 -45z m-4870 -1883 l0 -100 -35 0
-34 0 0 95 c-1 52 0 98 2 101 1 4 17 6 35 5 l33 -2 -1 -99z m661 -615 c3 -5 1
-10 -4 -10 -6 0 -11 5 -11 10 0 6 2 10 4 10 3 0 8 -4 11 -10z m2522 -1252 c-3
-7 -5 -2 -5 12 0 14 2 19 5 13 2 -7 2 -19 0 -25z m90 -450 c-3 -8 -6 -5 -6 6
-1 11 2 17 5 13 3 -3 4 -12 1 -19z m-4410 -540 c-3 -7 -5 -2 -5 12 0 14 2 19
5 13 2 -7 2 -19 0 -25z"/>
<path d="M4548 5274 c-2 -13 -14 -18 -48 -18 -31 -1 -45 -5 -45 -15 0 -8 -8
-17 -18 -20 -10 -4 -18 -10 -18 -14 4 -35 0 -49 -14 -43 -21 8 -45 -3 -45 -20
0 -8 -6 -13 -12 -11 -8 1 -14 -11 -16 -29 -2 -24 -7 -31 -20 -27 -10 2 -30 -6
-45 -19 -24 -21 -27 -31 -27 -85 0 -45 -4 -62 -15 -67 -21 -8 -22 -161 0 -173
10 -6 15 -29 16 -81 1 -57 5 -72 15 -68 9 3 14 -2 14 -13 0 -13 7 -18 25 -18
31 0 33 -3 39 -34 2 -13 9 -23 15 -21 6 1 11 -7 11 -19 0 -15 5 -19 15 -15 10
4 15 -1 15 -14 0 -13 7 -20 20 -20 14 0 18 -5 13 -17 -5 -12 -2 -15 9 -10 11
4 18 -1 21 -14 3 -11 9 -19 14 -18 4 1 25 1 46 0 26 -1 37 -5 37 -17 0 -23
312 -19 321 5 4 11 17 15 52 12 35 -2 49 1 53 13 3 9 12 16 19 16 7 0 15 9 18
21 3 12 10 18 16 14 6 -3 11 1 11 9 0 9 6 16 14 16 7 0 16 9 19 21 3 12 10 18
16 14 6 -3 11 1 11 9 0 9 7 16 15 16 12 0 15 13 15 60 0 44 4 60 14 60 7 0 16
9 19 21 3 12 10 18 16 14 6 -3 11 1 11 9 0 9 7 16 15 16 13 0 15 20 15 121 0
78 -4 118 -10 114 -6 -3 -13 1 -16 9 -3 9 -12 16 -20 16 -8 0 -14 7 -14 15 0
8 -7 15 -15 15 -11 0 -15 12 -15 46 0 29 -4 43 -11 39 -6 -4 -13 2 -16 14 -3
12 -12 21 -19 21 -8 0 -14 7 -14 15 0 8 -7 15 -15 15 -8 0 -15 7 -15 15 0 8
-7 15 -15 15 -8 0 -15 7 -15 15 0 8 -7 15 -15 15 -8 0 -15 7 -15 15 0 8 -7 15
-15 15 -8 0 -15 7 -15 15 0 12 -13 15 -55 15 -41 0 -55 4 -55 14 0 11 -28 14
-144 15 -129 2 -145 0 -148 -15z"/>
<path d="M5467 4529 c-3 -11 -10 -18 -16 -14 -6 3 -11 -1 -11 -9 0 -9 -7 -16
-15 -16 -8 0 -15 -7 -15 -15 0 -10 -10 -15 -30 -15 -20 0 -30 -5 -30 -15 0 -8
-7 -15 -15 -15 -10 0 -15 -10 -15 -30 0 -26 -3 -30 -29 -30 -21 0 -30 -6 -34
-21 -3 -12 -10 -18 -16 -15 -5 4 -11 -8 -13 -26 -2 -27 -7 -33 -28 -32 -15 0
-28 -7 -32 -19 -4 -10 -12 -15 -18 -12 -6 4 -10 -6 -10 -24 0 -30 -7 -35 -47
-34 -7 1 -13 -5 -13 -13 0 -8 -7 -14 -15 -14 -8 0 -15 -7 -15 -15 0 -8 -7 -15
-15 -15 -8 0 -15 -7 -15 -15 0 -8 -7 -15 -15 -15 -8 0 -15 -7 -15 -15 0 -8 -7
-15 -15 -15 -8 0 -15 -4 -15 -10 0 -5 -7 -10 -15 -10 -8 0 -15 -7 -15 -15 0
-8 -4 -15 -10 -15 -5 0 -10 -7 -10 -15 0 -8 -7 -15 -15 -15 -8 0 -15 -7 -15
-15 0 -8 -7 -15 -15 -15 -13 0 -15 -25 -15 -165 0 -140 2 -165 15 -165 13 0
15 -22 15 -136 0 -93 3 -133 11 -129 6 4 13 -2 16 -14 3 -12 9 -21 14 -21 5 0
9 -38 9 -85 0 -63 3 -84 13 -82 9 1 13 -36 17 -153 3 -98 9 -153 15 -150 6 3
11 -9 13 -27 2 -23 7 -30 18 -26 11 4 14 -8 14 -61 0 -52 3 -66 15 -66 12 0
15 -17 15 -91 0 -61 3 -88 11 -84 6 4 13 -2 16 -14 3 -12 12 -21 19 -21 8 0
14 -7 14 -15 0 -8 7 -15 15 -15 11 0 15 -12 15 -46 0 -29 4 -43 11 -39 6 4 13
-3 16 -15 4 -16 12 -20 32 -18 23 3 26 -1 29 -30 2 -18 8 -30 13 -27 5 4 12
-1 15 -9 3 -9 12 -16 20 -16 9 0 14 -11 14 -30 0 -19 5 -29 13 -28 7 2 13 -10
15 -30 2 -18 8 -30 13 -26 6 3 13 -3 16 -15 3 -11 10 -18 15 -15 5 3 12 -3 15
-14 3 -13 11 -18 19 -15 10 4 14 -4 14 -32 0 -23 4 -34 11 -30 6 4 13 -2 16
-14 3 -12 12 -21 19 -21 8 0 14 -7 14 -15 0 -8 6 -14 13 -13 7 2 13 -10 15
-30 2 -20 9 -32 18 -32 8 0 14 -7 14 -15 0 -8 7 -15 15 -15 8 0 15 -7 15 -16
0 -14 3 -14 16 -4 8 8 14 9 13 4 -1 -5 -1 -18 0 -29 1 -16 3 -17 10 -6 8 12
11 9 16 -11 5 -21 12 -25 32 -23 18 2 27 -3 30 -16 3 -11 12 -19 19 -19 8 0
14 -7 14 -15 0 -8 5 -15 10 -15 6 0 10 7 10 15 0 8 6 15 14 15 7 0 16 9 19 21
3 12 10 18 15 15 5 -3 12 4 15 15 3 12 10 18 15 15 5 -3 12 4 15 15 3 12 10
18 15 15 5 -3 13 18 17 47 7 44 9 48 15 27 8 -23 8 -23 9 8 1 21 -3 31 -11 30
-9 -2 -14 13 -16 45 -2 33 -7 47 -18 47 -7 0 -14 7 -14 15 0 8 -7 15 -15 15
-8 0 -15 7 -15 15 0 8 -7 15 -15 15 -10 0 -15 10 -15 30 0 20 -5 30 -15 30 -8
0 -15 7 -15 16 0 8 -5 12 -10 9 -6 -3 -14 3 -18 14 -4 11 -11 19 -17 18 -5 -1
-11 10 -13 26 -2 15 -8 25 -13 21 -6 -3 -13 3 -16 15 -3 11 -10 18 -15 15 -5
-3 -12 3 -15 15 -3 12 -12 21 -19 21 -9 0 -14 11 -14 31 0 19 -4 28 -11 24 -6
-4 -13 2 -16 14 -3 12 -12 21 -19 21 -8 0 -14 7 -14 15 0 8 -6 14 -12 13 -9
-2 -14 13 -16 45 -2 29 -7 45 -13 41 -6 -3 -13 3 -16 15 -3 12 -12 21 -19 21
-8 0 -14 7 -14 15 0 9 -6 12 -15 9 -13 -5 -15 7 -15 75 0 59 -3 80 -12 79 -9
-2 -15 14 -18 45 -3 26 -9 47 -15 47 -5 0 -12 20 -15 45 -3 25 -9 45 -15 45
-6 0 -11 52 -13 130 -2 111 0 130 13 130 8 0 15 7 15 15 0 12 14 15 65 15 52
0 65 -3 65 -16 0 -8 5 -12 10 -9 6 3 13 -1 16 -9 3 -9 12 -16 20 -16 8 0 14
-6 14 -14 0 -8 10 -13 28 -12 23 1 27 -3 30 -31 2 -21 9 -33 18 -33 8 0 14 -7
14 -15 0 -8 3 -14 8 -14 38 6 52 -2 52 -32 0 -19 4 -28 11 -24 6 4 13 -2 16
-14 4 -15 13 -21 32 -21 26 0 69 -20 44 -20 -7 0 -13 -9 -13 -21 0 -11 5 -17
10 -14 6 3 14 -3 18 -15 4 -12 11 -21 15 -21 40 4 47 0 47 -29 0 -20 5 -30 15
-30 8 0 15 -7 15 -15 0 -8 5 -15 10 -15 6 0 10 -7 10 -16 0 -8 5 -12 11 -9 6
4 13 -2 16 -14 3 -12 12 -21 19 -21 8 0 14 -7 14 -15 0 -8 3 -14 8 -14 38 6
52 -2 52 -31 0 -20 5 -30 15 -30 8 0 15 -7 15 -16 0 -11 8 -15 28 -12 24 3 27
-1 30 -30 2 -18 8 -30 13 -26 6 3 13 -3 16 -15 4 -17 13 -21 49 -21 32 0 44
-4 44 -15 0 -8 7 -15 15 -15 8 0 15 -7 15 -15 0 -8 7 -15 15 -15 8 0 15 -7 15
-16 0 -13 10 -15 56 -12 49 4 58 2 62 -14 2 -10 9 -18 16 -17 29 4 46 -2 46
-17 0 -8 5 -12 11 -9 6 4 13 -2 16 -14 4 -17 13 -21 49 -21 32 0 44 -4 44 -15
0 -10 11 -15 35 -15 23 0 33 -4 30 -12 -6 -17 40 -38 82 -38 24 0 33 -5 33
-16 0 -12 7 -15 26 -11 20 3 28 0 31 -14 3 -10 9 -16 14 -13 5 3 13 -4 17 -15
4 -11 10 -20 15 -20 4 -1 21 -1 37 -1 20 0 30 -5 30 -15 0 -8 3 -14 8 -14 27
5 52 -3 52 -16 0 -8 7 -15 15 -15 8 0 15 -7 15 -15 0 -11 7 -14 24 -11 34 6
66 -4 66 -19 0 -8 10 -12 26 -10 19 2 28 -3 31 -16 3 -10 10 -16 15 -13 5 3
12 -3 14 -14 5 -16 13 -19 46 -18 28 2 42 -3 47 -13 3 -9 12 -16 19 -17 6 -1
19 -2 27 -2 8 -1 15 -9 15 -17 0 -8 6 -15 14 -15 8 0 16 -5 18 -11 2 -6 16
-11 31 -11 24 0 27 -4 27 -34 0 -22 4 -33 13 -31 8 1 13 -14 15 -46 3 -42 5
-47 18 -36 8 7 14 8 13 3 -6 -33 3 -74 16 -74 12 0 15 -18 15 -105 0 -58 3
-104 8 -104 18 3 46 -3 35 -8 -18 -7 -16 -23 2 -23 11 0 15 -11 15 -40 0 -27
4 -39 13 -37 9 1 13 -27 17 -108 3 -60 8 -109 13 -107 18 6 26 1 21 -13 -4 -9
0 -15 10 -15 12 0 16 -10 16 -45 0 -31 4 -44 13 -42 9 1 13 -26 15 -105 2 -89
5 -106 17 -101 12 4 15 -5 15 -46 0 -35 4 -50 13 -48 7 1 13 -11 15 -30 2 -23
7 -30 18 -26 9 3 14 -2 14 -17 0 -12 4 -18 11 -15 6 4 13 -1 15 -11 5 -17 16
-19 96 -19 62 1 93 5 96 13 2 7 10 12 17 12 7 0 15 9 18 21 3 12 10 18 16 14
8 -4 11 23 11 84 0 68 -3 90 -12 88 -10 -1 -14 26 -16 105 -2 89 -5 106 -17
101 -11 -3 -15 2 -15 17 0 19 -2 21 -16 10 -8 -8 -14 -9 -13 -4 1 5 1 30 0 56
-1 33 -5 47 -13 45 -10 -1 -14 25 -16 101 -2 67 -6 101 -13 96 -6 -3 -13 3
-16 15 -3 12 -12 21 -19 21 -10 0 -14 13 -14 45 0 33 -4 45 -15 45 -13 0 -15
20 -15 121 0 83 -3 118 -11 114 -6 -4 -13 2 -16 14 -3 12 -9 21 -14 21 -5 0
-9 20 -9 45 0 33 -4 45 -15 45 -12 0 -15 17 -15 91 0 61 -3 88 -11 84 -6 -4
-13 2 -16 13 -3 13 -11 18 -19 15 -9 -3 -14 2 -14 17 0 12 -4 18 -11 15 -6 -4
-13 2 -16 14 -3 11 -10 18 -15 15 -5 -3 -12 3 -15 15 -4 17 -13 21 -49 21 -32
0 -44 4 -44 15 0 10 -10 15 -30 15 -21 0 -30 5 -30 16 0 8 -5 12 -11 9 -6 -4
-13 2 -16 13 -4 17 -12 21 -46 19 -24 -1 -42 3 -45 11 -2 7 -17 12 -33 12 -19
0 -29 5 -29 15 0 8 -7 15 -15 15 -8 0 -15 6 -15 14 0 10 -11 14 -40 12 -27 -2
-43 2 -49 11 -4 8 -18 15 -31 16 -13 1 -25 9 -28 19 -2 10 -9 15 -14 12 -5 -3
-12 3 -15 14 -4 17 -12 20 -45 19 -33 -2 -42 1 -48 18 -4 11 -10 19 -14 18
-19 -8 -46 -1 -46 12 0 8 -7 15 -15 15 -8 0 -15 6 -15 13 0 9 -13 13 -41 12
-33 -1 -43 2 -47 17 -2 11 -13 18 -28 18 -15 0 -24 6 -24 15 0 8 -7 15 -15 15
-8 0 -15 7 -15 16 0 11 -8 15 -27 12 l-28 -3 -3 99 c-2 82 0 98 12 93 9 -4 16
2 19 15 3 11 10 17 15 14 5 -3 12 4 15 15 3 12 10 18 16 14 6 -3 11 1 11 9 0
19 -12 18 208 16 150 -1 172 1 172 14 0 16 3 17 78 19 27 1 42 5 42 14 0 10
23 13 90 13 73 0 90 3 90 15 0 13 32 15 225 15 124 0 228 0 232 -1 4 0 10 8
14 18 6 16 18 18 115 17 94 -1 109 -4 106 -18 -2 -12 5 -16 28 -16 30 0 36
-10 30 -49 -1 -8 4 -12 13 -8 9 3 17 -2 20 -13 3 -13 12 -18 31 -16 26 3 32
-9 27 -51 -1 -7 5 -10 13 -7 9 3 17 -2 21 -15 7 -23 40 -29 48 -8 3 6 6 -7 6
-30 1 -31 5 -43 16 -43 8 0 15 -4 15 -9 0 -5 14 -12 30 -16 17 -4 31 -13 31
-21 3 -31 4 -34 14 -35 6 0 13 -9 18 -21 5 -15 13 -19 31 -14 21 5 25 2 30
-29 4 -19 11 -35 16 -35 6 0 10 -7 10 -16 0 -10 6 -14 15 -10 10 4 15 -1 15
-14 0 -11 7 -20 15 -20 8 0 15 -7 15 -15 0 -8 9 -15 20 -15 13 0 18 -5 13 -16
-4 -11 -1 -15 13 -12 13 2 18 -2 16 -14 -2 -12 4 -18 17 -18 14 0 19 -5 15
-15 -5 -11 1 -15 22 -16 16 0 23 -3 17 -6 -18 -7 -16 -23 2 -23 9 0 12 -6 9
-15 -4 -9 0 -15 10 -15 9 0 16 -7 16 -15 0 -9 6 -12 15 -9 9 4 15 0 15 -10 0
-19 16 -22 22 -4 3 7 8 -6 11 -30 4 -23 12 -42 17 -42 6 0 10 -7 10 -15 0 -8
7 -15 15 -15 8 0 15 -7 15 -15 0 -8 9 -15 20 -15 11 0 19 -6 17 -12 -1 -7 4
-12 11 -11 6 2 12 -6 12 -17 0 -13 7 -20 20 -20 11 0 19 -5 17 -12 -2 -12 4
-14 43 -17 11 0 19 -7 17 -13 -1 -7 4 -12 11 -10 8 1 16 -5 18 -15 4 -14 14
-18 42 -17 21 1 36 7 35 13 -3 10 10 15 30 12 4 -1 7 7 5 16 -2 10 3 18 12 18
15 0 16 4 19 45 0 11 8 20 16 20 12 0 15 14 15 70 0 56 -3 70 -15 70 -9 0 -15
9 -15 21 0 12 -8 23 -20 26 -11 3 -18 9 -15 13 6 10 -27 22 -45 18 -7 -2 -14
10 -16 27 -2 16 -8 31 -14 33 -5 2 -10 10 -10 18 0 8 -9 14 -20 14 -14 0 -18
5 -13 17 5 12 2 15 -10 10 -12 -5 -17 -1 -17 13 0 11 -7 20 -15 20 -8 0 -15 7
-15 16 0 9 -6 14 -14 11 -15 -6 -46 26 -46 49 0 9 -7 14 -17 12 -13 -2 -17 3
-15 16 3 14 -1 17 -12 13 -11 -5 -16 0 -16 13 0 11 -7 20 -15 20 -10 0 -15 10
-15 30 0 24 -4 30 -17 28 -12 -2 -17 3 -15 15 2 10 -3 17 -13 17 -8 0 -15 7
-15 15 0 8 -9 15 -20 15 -13 0 -18 5 -14 15 4 10 0 15 -15 15 -12 0 -21 3 -20
8 3 21 -15 53 -27 48 -9 -3 -14 2 -14 14 0 14 -7 20 -21 20 -12 0 -17 4 -14
11 4 6 -2 13 -13 16 -14 3 -19 10 -15 21 5 11 2 14 -10 9 -12 -5 -17 -1 -17
13 0 11 -7 20 -15 20 -8 0 -15 7 -15 15 0 8 -7 15 -15 15 -8 0 -15 7 -15 15 0
8 -9 15 -20 15 -16 0 -19 5 -16 26 4 20 0 27 -14 31 -11 3 -16 11 -13 19 3 9
-2 14 -16 14 -14 0 -19 5 -15 15 4 10 0 15 -15 15 -15 0 -19 4 -14 17 5 12 2
15 -10 10 -11 -4 -17 -1 -17 8 0 8 -3 14 -7 14 -22 -4 -32 3 -27 16 4 8 1 15
-5 15 -14 0 -51 36 -51 50 0 6 -6 10 -14 10 -8 0 -16 4 -18 10 -1 5 -14 11
-28 12 -14 2 -28 9 -31 17 -8 20 -419 23 -419 4 0 -15 9 -15 -203 -13 -143 1
-168 -1 -173 -14 -3 -9 -12 -16 -20 -16 -8 0 -14 -7 -14 -15 0 -13 -27 -15
-180 -15 -153 0 -180 -2 -180 -15 0 -8 -8 -15 -17 -15 -10 0 -78 -2 -151 -3
-120 -2 -132 0 -132 16 0 9 -7 17 -15 17 -8 0 -15 7 -15 15 0 8 -7 15 -15 15
-8 0 -15 7 -15 15 0 8 -7 15 -15 15 -8 0 -15 7 -15 16 0 8 -5 12 -11 9 -6 -4
-13 2 -16 14 -3 12 -12 21 -19 21 -8 0 -14 7 -14 16 0 8 -5 12 -11 9 -6 -4
-13 2 -16 14 -3 11 -10 18 -15 15 -5 -3 -12 3 -15 15 -3 12 -12 21 -19 21 -8
0 -14 7 -14 15 0 8 -7 15 -15 15 -8 0 -15 7 -15 15 0 8 -7 15 -15 15 -8 0 -15
7 -15 16 0 8 -5 12 -11 9 -6 -4 -13 2 -16 14 -3 11 -10 18 -15 15 -5 -3 -12 3
-15 15 -3 11 -10 18 -15 15 -5 -3 -12 3 -15 15 -3 11 -10 18 -15 15 -5 -3 -12
3 -15 15 -3 12 -12 21 -19 21 -8 0 -14 7 -14 16 0 8 -5 12 -11 9 -6 -4 -13 2
-16 14 -3 12 -12 21 -19 21 -8 0 -14 7 -14 15 0 8 -7 15 -15 15 -8 0 -15 7
-15 16 0 8 -5 12 -11 9 -6 -4 -13 2 -16 14 -3 11 -9 18 -14 15 -5 -3 -13 4
-17 16 -4 12 -12 21 -17 21 -6 -1 -11 39 -13 89 l-3 90 81 0 c64 0 80 -3 80
-15 0 -8 8 -14 18 -13 58 5 102 -3 102 -18 0 -8 5 -12 10 -9 6 3 14 -2 18 -12
6 -16 21 -18 150 -18 109 -1 142 2 142 12 0 7 7 13 15 13 8 0 15 7 15 15 0 12
14 15 70 15 56 0 70 3 70 15 0 12 21 15 128 16 70 1 130 1 135 0 4 0 7 6 7 14
0 8 7 15 15 15 8 0 15 5 15 10 0 6 27 10 60 10 47 0 60 3 60 15 0 13 22 15
135 15 113 0 135 2 135 15 0 8 7 15 15 15 8 0 15 7 15 15 0 8 7 15 15 15 8 0
15 7 15 15 0 13 16 18 47 14 4 0 11 9 15 21 4 12 12 18 18 15 6 -4 10 26 10
84 0 74 -3 91 -15 91 -8 0 -15 7 -15 16 0 8 -5 12 -11 9 -6 -4 -13 2 -16 14
-4 15 -13 21 -34 21 -19 0 -29 5 -29 15 0 11 -11 15 -40 15 -29 0 -40 -4 -40
-15 0 -12 -20 -15 -120 -15 -100 0 -120 -2 -120 -15 0 -13 -25 -21 -52 -16 -5
0 -8 -6 -8 -14 0 -15 -6 -16 -77 -18 -23 -1 -40 -7 -44 -15 -4 -12 -31 -15
-137 -14 -110 1 -132 -1 -132 -13 0 -9 -10 -15 -25 -15 -16 0 -25 -6 -25 -15
0 -11 -12 -15 -45 -15 -33 0 -45 -4 -45 -15 0 -13 -21 -15 -125 -15 -104 0
-125 2 -125 15 0 11 -12 15 -45 15 -34 0 -45 4 -45 16 0 8 -5 12 -11 9 -6 -4
-13 2 -16 14 -5 20 -12 21 -109 21 -86 0 -104 3 -104 15 0 11 -12 15 -45 15
-33 0 -45 4 -45 15 0 8 -7 15 -15 15 -8 0 -15 7 -15 15 0 12 -18 15 -100 15
-82 0 -100 3 -100 15 0 12 -13 15 -60 15 -47 0 -60 3 -60 15 0 8 -7 15 -15 15
-8 0 -15 6 -15 14 0 11 -26 14 -129 15 -123 2 -129 1 -134 -20z m1580 -2115
c-3 -3 -12 -4 -19 -1 -8 3 -5 6 6 6 11 1 17 -2 13 -5z m1010 -1576 c-3 -8 -6
-5 -6 6 -1 11 2 17 5 13 3 -3 4 -12 1 -19z"/>
</g>
</svg>
