<?xml version="1.0" encoding="UTF-8"?>
<!DOCTYPE svg PUBLIC "-//W3C//DTD SVG 1.1//EN" "http://www.w3.org/Graphics/SVG/1.1/DTD/svg11.dtd">
<!-- Creator: CorelDRAW 2018 (64 Bit Versión de evaluación) -->
<svg xmlns="http://www.w3.org/2000/svg" xml:space="preserve" width="215.9mm" height="279.4mm" version="1.1" style="shape-rendering:geometricPrecision; text-rendering:geometricPrecision; image-rendering:optimizeQuality; fill-rule:evenodd; clip-rule:evenodd"
viewBox="0 0 21590 27940"
 xmlns:xlink="http://www.w3.org/1999/xlink">
 <defs>
  <style type="text/css">
   <![CDATA[
    .str1 {stroke:#FEFEFE;stroke-width:1000;stroke-miterlimit:22.9256}
    .str0 {stroke:#FEFEFE;stroke-width:20;stroke-miterlimit:22.9256}
    .fil1 {fill:none}
    .fil0 {fill:#FEFEFE}
   ]]>
  </style>
 </defs>
 <g id="Capa_x0020_1">
  <metadata id="CorelCorpID_0Corel-Layer"/>
  <circle class="fil0 str0" cx="10851.21" cy="13032.33" r="506.57"/>
  <path class="fil0 str0" d="M10874.95 12104.27c-424.03,-1441 -1177.88,-2932.3 -740.83,-4259.8 502.71,-800.42 1005.41,-864.09 1508.12,26.46 379.9,1147.83 -160.77,2807.62 -767.29,4233.34z"/>
  <path class="fil1 str1" d="M9862.55 5825.47c689.61,-1083.48 1428.91,-1128.4 2128.26,43.44l8643.37 14159.48c788.94,1176.36 580.29,1785.85 -694.95,1780.8l-18025.11 43.44c-1050.83,-56.38 -1343.33,-710.46 -781.82,-1607.07l8730.25 -14420.09z"/>
  <polygon class="fil0 str0" points="7325.39,15348.46 6064.66,15287.46 3746.56,19293.31 5657.98,19313.65 "/>
  <polygon class="fil0 str0" points="14137.36,15328.13 15804.77,19293.31 17736.53,19333.98 15418.42,15348.46 "/>
  <polygon class="fil0 str0" points="10184.62,17319.94 10120.57,17998.9 11363.2,18011.71 11286.33,17332.74 "/>
  <polygon class="fil0 str0" points="10287.11,16335.97 10266.17,16829.82 11260.71,16809.96 11260.78,16346.48 "/>
  <polygon class="fil0 str0" points="10351.16,15557.4 10312.73,15916.09 11171.04,15916.09 11158.23,15570.21 "/>
  <polygon class="fil0 str0" points="10031.67,18481.58 9953.01,19315.48 11479.2,19331.21 11384.8,18497.31 "/>
  <polygon class="fil0 str0" points="13578.34,16892.76 13195.28,16783.94 12787.71,17679.67 13615.9,17929.65 13664.12,18375.41 14302.44,18741.42 14431.57,19457.64 14541.65,18422.46 14044.09,18176.07 14092.46,17578.79 13359.16,17596.64 "/>
  <polygon class="fil0 str0" points="8849.24,15423.68 8854.64,15440.33 8857.32,15440.34 9177.82,16101.02 8613.2,16491.25 8743.22,17141.37 8195.05,16434.17 8753.03,16092.24 8364.91,15371.73 8410.02,15348.77 8837.99,15348.77 8837.99,15423.68 "/>
 </g>
</svg>
