<?xml version="1.0" encoding="UTF-8" ?>
<!DOCTYPE svg PUBLIC "-//W3C//DTD SVG 1.1//EN" "http://www.w3.org/Graphics/SVG/1.1/DTD/svg11.dtd">
<svg width="500pt" height="500pt" viewBox="0 0 500 500" version="1.1" xmlns="http://www.w3.org/2000/svg">
<g id="#ffffffff">
<path fill="#ffffff" opacity="1.00" d=" M 212.45 142.01 C 213.10 142.01 214.39 142.00 215.04 141.99 C 203.80 213.91 192.60 285.84 181.40 357.76 C 179.23 357.75 177.06 357.75 174.89 357.75 C 187.32 285.82 199.94 213.93 212.45 142.01 Z" />
<path fill="#ffffff" opacity="1.00" d=" M 229.28 142.88 C 231.77 142.02 234.44 142.25 237.03 142.24 C 248.05 142.27 259.06 142.22 270.08 142.26 C 271.26 142.23 272.76 142.45 273.22 143.75 C 275.68 148.52 277.54 153.58 279.51 158.57 C 280.32 160.99 281.52 163.38 281.51 165.98 C 281.51 174.07 281.50 182.16 281.50 190.25 C 278.15 190.25 274.80 190.24 271.45 190.28 C 271.44 189.89 271.42 189.13 271.41 188.74 C 258.18 188.76 244.94 188.75 231.70 188.75 C 231.41 189.10 230.84 189.79 230.56 190.14 C 227.38 190.42 224.18 190.19 221.00 190.25 C 221.08 181.78 220.83 173.31 221.11 164.86 C 223.48 157.41 225.98 149.98 229.28 142.88 M 233.10 147.49 C 231.46 152.24 229.79 156.98 228.21 161.75 C 243.62 161.75 259.04 161.75 274.45 161.75 C 272.79 157.01 271.14 152.26 269.53 147.50 C 257.39 147.49 245.24 147.52 233.10 147.49 M 230.59 169.67 C 227.58 170.91 227.37 175.26 229.78 177.22 C 232.65 180.35 237.96 176.81 237.51 173.02 C 236.75 170.17 233.32 168.19 230.59 169.67 M 267.56 169.69 C 264.29 171.13 264.56 176.07 267.47 177.76 C 270.50 179.93 274.87 176.45 274.50 173.04 C 273.86 170.13 270.25 168.19 267.56 169.69 Z" />
<path fill="#ffffff" opacity="1.00" d=" M 287.96 141.99 C 288.61 142.00 289.90 142.01 290.55 142.01 C 303.06 213.93 315.68 285.82 328.11 357.75 C 325.93 357.75 323.76 357.75 321.60 357.76 C 310.40 285.84 299.20 213.91 287.96 141.99 Z" />
<path fill="#ffffff" opacity="1.00" d=" M 220.15 195.02 C 221.15 192.88 223.91 192.87 225.94 192.76 C 242.32 192.74 258.71 192.75 275.09 192.75 C 277.39 192.84 280.56 192.70 281.53 195.33 C 285.14 202.67 288.14 210.30 291.00 217.96 C 291.78 220.24 292.82 222.53 292.76 225.00 C 292.76 236.72 292.73 248.45 292.77 260.18 C 288.10 259.44 283.36 259.85 278.66 259.75 C 278.76 258.94 278.97 257.31 279.07 256.50 C 260.37 256.50 241.68 256.51 222.99 256.50 C 223.06 257.23 223.22 258.71 223.30 259.45 C 218.68 260.17 213.92 259.55 209.25 259.75 C 209.24 248.47 209.25 237.18 209.24 225.90 C 209.07 223.50 210.18 221.32 210.90 219.11 C 213.76 211.00 216.27 202.72 220.15 195.02 M 225.85 200.00 C 223.53 206.58 221.28 213.18 218.94 219.75 C 240.33 219.76 261.72 219.72 283.11 219.77 C 280.91 213.15 278.53 206.59 276.27 200.00 C 259.46 200.00 242.66 200.00 225.85 200.00 M 222.39 230.42 C 218.27 232.21 217.86 238.15 221.20 240.91 C 224.23 244.25 229.98 242.02 231.45 238.19 C 233.91 233.20 226.96 227.68 222.39 230.42 M 274.28 230.11 C 269.48 231.64 268.90 238.40 272.75 241.27 C 276.77 244.67 283.18 240.71 283.31 235.82 C 282.78 231.77 278.23 228.56 274.28 230.11 Z" />
<path fill="#ffffff" opacity="1.00" d=" M 210.29 264.03 C 211.14 261.78 213.75 261.01 215.95 261.01 C 239.31 260.98 262.68 261.02 286.05 260.99 C 288.31 260.88 290.96 261.64 291.85 263.95 C 296.74 273.86 300.76 284.17 304.65 294.50 C 305.65 297.57 307.15 300.61 307.01 303.92 C 307.01 320.50 306.96 337.08 307.04 353.66 C 304.14 359.16 297.28 358.38 292.13 357.60 C 287.02 356.31 288.20 349.90 288.77 346.00 C 263.90 346.00 239.03 346.00 214.16 346.00 C 214.11 349.47 215.10 353.61 212.48 356.43 C 209.30 358.66 205.17 357.93 201.53 357.94 C 199.37 357.63 195.86 356.98 196.02 354.13 C 196.05 336.77 195.86 319.39 196.11 302.04 C 200.38 289.22 204.39 276.22 210.29 264.03 M 217.95 270.25 C 214.83 279.07 211.81 287.92 208.69 296.74 C 237.20 296.75 265.71 296.75 294.22 296.75 C 291.19 287.90 288.11 279.07 285.01 270.25 C 262.66 270.25 240.30 270.25 217.95 270.25 M 214.35 310.55 C 212.32 311.22 210.54 312.67 209.56 314.58 C 206.49 320.11 211.67 328.26 218.11 327.21 C 222.27 326.35 225.89 322.72 226.24 318.41 C 225.89 312.92 219.57 308.50 214.35 310.55 M 282.42 310.58 C 280.62 311.23 279.06 312.49 278.00 314.09 C 274.43 319.49 279.51 328.09 286.05 327.24 C 289.94 326.56 293.58 323.41 294.25 319.42 C 295.00 313.44 287.92 308.29 282.42 310.58 Z" />
</g>
</svg>
