<?xml version="1.0" encoding="UTF-8" ?>
<!DOCTYPE svg PUBLIC "-//W3C//DTD SVG 1.1//EN" "http://www.w3.org/Graphics/SVG/1.1/DTD/svg11.dtd">
<svg width="500pt" height="500pt" viewBox="0 0 500 500" version="1.1" xmlns="http://www.w3.org/2000/svg">
<g id="#31313136">
<path fill="#313131" opacity="0.21" d=" M 176.07 142.17 C 225.69 141.91 275.35 141.86 324.96 142.17 L 325.18 143.23 C 275.40 142.85 225.60 142.85 175.83 143.22 L 176.07 142.17 Z" />
</g>
<g id="#60606064">
<path fill="#606060" opacity="0.39" d=" M 172.27 143.97 C 172.14 142.38 174.97 142.26 175.83 143.22 L 175.82 143.92 C 174.63 143.99 173.45 144.01 172.27 143.97 Z" />
</g>
<g id="#b6b6b6b9">
<path fill="#b6b6b6" opacity="0.73" d=" M 175.83 143.22 C 225.60 142.85 275.40 142.85 325.18 143.23 L 325.20 143.92 C 275.40 144.05 225.61 144.06 175.82 143.92 L 175.83 143.22 Z" />
</g>
<g id="#61616165">
<path fill="#616161" opacity="0.40" d=" M 325.18 143.23 C 326.02 142.26 328.87 142.37 328.74 143.97 C 327.55 144.01 326.37 144.00 325.20 143.92 L 325.18 143.23 Z" />
</g>
<g id="#fefefefe">
<path fill="#fefefe" opacity="1.00" d=" M 161.81 154.88 C 163.48 149.99 167.35 145.70 172.27 143.97 C 173.45 144.01 174.63 143.99 175.82 143.92 C 225.61 144.06 275.40 144.05 325.20 143.92 C 326.37 144.00 327.55 144.01 328.74 143.97 C 341.40 148.40 340.83 164.00 345.95 174.20 C 345.83 175.48 345.77 176.90 346.68 177.93 C 347.79 179.51 348.47 181.36 348.92 183.24 C 348.82 184.50 348.78 185.91 349.68 186.93 C 350.64 188.27 351.24 189.82 351.77 191.37 C 351.77 192.61 351.83 193.95 352.69 194.93 C 353.80 196.51 354.47 198.37 354.92 200.24 C 354.81 201.50 354.79 202.90 355.68 203.93 C 357.27 206.46 358.09 209.40 358.88 212.27 C 358.83 213.48 358.69 214.99 359.85 215.78 C 361.85 219.72 362.79 224.38 364.84 228.43 C 364.89 229.56 364.97 230.68 365.10 231.81 C 365.00 267.61 364.79 303.41 365.21 339.21 C 364.50 342.59 362.44 345.81 359.17 347.19 C 351.42 347.02 343.68 346.97 335.94 347.14 C 333.84 345.85 331.80 344.48 329.74 343.15 C 329.49 342.69 328.99 341.77 328.75 341.31 C 328.30 335.24 330.36 328.62 328.30 322.77 C 328.02 322.50 327.48 321.96 327.20 321.68 C 276.18 320.61 224.68 320.42 173.80 321.74 C 173.54 322.01 173.01 322.55 172.75 322.82 C 171.48 329.57 172.56 336.53 171.27 343.28 C 169.74 344.77 168.27 346.42 166.30 347.33 C 158.14 346.97 149.97 346.95 141.82 347.15 C 139.80 345.53 138.03 343.64 136.16 341.88 C 136.12 341.16 136.02 339.74 135.98 339.02 C 136.03 303.00 135.99 266.99 135.99 230.97 C 137.21 225.85 138.90 220.63 141.32 215.93 C 142.18 214.89 142.19 213.51 142.11 212.25 C 142.92 209.39 143.72 206.46 145.32 203.93 C 146.16 202.92 146.22 201.58 146.20 200.34 C 146.47 199.99 147.01 199.28 147.28 198.93 C 148.28 197.98 148.15 196.51 148.11 195.26 C 148.92 192.40 149.72 189.47 151.31 186.93 C 152.12 185.94 152.24 184.63 152.30 183.40 C 154.95 173.74 158.42 164.31 161.81 154.88 M 180.06 161.05 L 179.89 162.04 L 180.20 163.00 C 179.88 163.57 179.24 164.71 178.92 165.28 C 177.32 165.15 177.39 168.01 178.28 168.85 C 176.06 174.81 173.39 180.98 172.03 187.19 C 170.36 187.02 170.23 189.88 171.17 190.79 C 168.49 194.70 167.73 199.80 166.05 204.20 C 164.19 204.05 164.32 207.17 165.32 208.14 C 163.58 207.93 163.19 210.75 164.15 211.78 C 162.99 212.97 162.51 214.63 161.90 216.14 C 161.92 217.34 161.98 219.76 162.00 220.97 C 221.33 221.00 280.66 221.07 339.99 220.94 C 339.78 219.73 339.37 217.31 339.16 216.10 C 338.79 215.54 338.04 214.42 337.66 213.86 C 338.51 212.07 337.61 208.75 335.71 208.17 C 336.66 207.18 336.80 204.06 334.95 204.20 C 333.27 199.79 332.49 194.73 329.84 190.78 C 330.74 189.81 330.58 187.00 328.90 187.10 L 328.62 186.09 C 329.75 185.20 329.69 181.94 327.78 182.36 C 327.24 180.81 326.64 179.27 325.68 177.93 C 326.72 177.04 326.69 174.00 324.91 174.24 C 324.42 172.36 323.94 170.40 322.71 168.86 C 323.60 168.02 323.67 165.15 322.08 165.28 C 321.76 164.71 321.11 163.57 320.79 163.00 L 321.11 162.04 L 320.96 161.05 C 273.99 160.96 227.02 160.97 180.06 161.05 M 174.31 246.13 C 168.71 248.54 162.98 252.49 161.99 258.96 C 159.42 260.26 160.69 270.15 162.02 270.92 C 164.10 277.38 169.93 281.80 176.12 284.06 C 177.21 285.60 184.65 286.48 186.14 283.13 C 192.13 281.23 196.52 275.53 198.99 269.93 C 201.60 270.24 200.24 258.34 198.92 259.20 C 198.60 258.91 197.96 258.32 197.64 258.02 C 198.62 256.84 197.54 253.96 195.91 254.28 C 194.38 250.25 189.83 247.70 185.93 246.00 C 185.31 243.39 174.03 244.82 174.31 246.13 M 315.08 245.99 C 309.75 248.35 304.82 252.45 303.05 258.15 C 302.73 258.33 302.09 258.69 301.77 258.87 C 300.10 262.53 300.17 265.91 301.99 269.01 C 303.16 274.40 307.76 279.24 312.21 281.93 C 312.56 283.35 313.60 283.78 315.32 283.22 C 314.92 286.16 325.62 285.56 324.88 284.04 C 331.26 282.14 336.68 277.19 338.98 270.93 C 341.45 269.43 340.34 259.23 338.98 258.08 C 337.27 252.22 332.15 248.40 326.71 246.13 C 326.91 243.48 315.35 244.64 315.08 245.99 Z" />
</g>
<g id="#c2c2c2f0">
<path fill="#c2c2c2" opacity="0.94" d=" M 180.06 161.05 C 227.02 160.97 273.99 160.96 320.96 161.05 L 321.11 162.04 C 274.03 161.98 226.96 161.97 179.89 162.04 L 180.06 161.05 Z" />
</g>
<g id="#5050508c">
<path fill="#505050" opacity="0.55" d=" M 179.89 162.04 C 226.96 161.97 274.03 161.98 321.11 162.04 L 320.79 163.00 C 273.93 163.00 227.06 163.00 180.20 163.00 L 179.89 162.04 Z" />
</g>
<g id="#00000030">
<path fill="#000000" opacity="0.19" d=" M 180.20 163.00 C 227.06 163.00 273.93 163.00 320.79 163.00 C 321.11 163.57 321.76 164.71 322.08 165.28 C 322.01 165.97 321.86 167.33 321.79 168.02 C 274.36 166.32 226.64 166.32 179.21 168.02 C 179.14 167.33 179.00 165.97 178.92 165.28 C 179.24 164.71 179.88 163.57 180.20 163.00 Z" />
</g>
<g id="#808080a5">
<path fill="#808080" opacity="0.65" d=" M 178.28 168.85 C 177.39 168.01 177.32 165.15 178.92 165.28 C 179.00 165.97 179.14 167.33 179.21 168.02 C 178.98 168.22 178.52 168.64 178.28 168.85 Z" />
</g>
<g id="#7878789e">
<path fill="#787878" opacity="0.62" d=" M 322.08 165.28 C 323.67 165.15 323.60 168.02 322.71 168.86 C 322.48 168.65 322.02 168.23 321.79 168.02 C 321.86 167.33 322.01 165.97 322.08 165.28 Z" />
</g>
<g id="#0505051e">
<path fill="#050505" opacity="0.12" d=" M 179.21 168.02 C 226.64 166.32 274.36 166.32 321.79 168.02 C 322.02 168.23 322.48 168.65 322.71 168.86 C 323.94 170.40 324.42 172.36 324.91 174.24 C 324.81 175.51 324.78 176.91 325.68 177.93 C 326.64 179.27 327.24 180.81 327.78 182.36 C 327.79 183.65 328.00 184.95 328.62 186.09 L 328.90 187.10 C 328.84 188.36 328.69 189.91 329.84 190.78 C 332.49 194.73 333.27 199.79 334.95 204.20 C 334.85 205.57 335.04 206.95 335.71 208.17 C 335.76 210.24 336.22 212.30 337.66 213.86 C 338.04 214.42 338.79 215.54 339.16 216.10 C 339.62 219.17 338.30 220.73 335.17 220.00 C 332.13 205.86 326.22 192.58 322.34 178.68 C 320.75 174.24 318.25 168.05 312.00 170.03 C 270.00 169.96 228.00 170.00 186.00 170.01 C 179.69 170.50 179.59 178.89 177.36 183.27 C 173.88 195.62 168.31 207.41 165.82 220.01 C 162.70 220.72 161.37 219.21 161.90 216.14 C 162.51 214.63 162.99 212.97 164.15 211.78 C 165.23 210.89 165.22 209.41 165.32 208.14 C 165.97 206.93 166.15 205.55 166.05 204.20 C 167.73 199.80 168.49 194.70 171.17 190.79 C 172.33 189.96 172.15 188.42 172.03 187.19 C 173.39 180.98 176.06 174.81 178.28 168.85 C 178.52 168.64 178.98 168.22 179.21 168.02 Z" />
</g>
<g id="#71717195">
<path fill="#717171" opacity="0.58" d=" M 324.91 174.24 C 326.69 174.00 326.72 177.04 325.68 177.93 C 324.78 176.91 324.81 175.51 324.91 174.24 Z" />
</g>
<g id="#7c7c7c8a">
<path fill="#7c7c7c" opacity="0.54" d=" M 345.95 174.20 C 347.72 174.02 347.70 177.04 346.68 177.93 C 345.77 176.90 345.83 175.48 345.95 174.20 Z" />
<path fill="#7c7c7c" opacity="0.54" d=" M 358.88 212.27 C 360.57 211.97 360.82 214.88 359.85 215.78 C 358.69 214.99 358.83 213.48 358.88 212.27 Z" />
</g>
<g id="#a4a4a4bf">
<path fill="#a4a4a4" opacity="0.75" d=" M 327.78 182.36 C 329.69 181.94 329.75 185.20 328.62 186.09 C 328.00 184.95 327.79 183.65 327.78 182.36 Z" />
</g>
<g id="#86868694">
<path fill="#868686" opacity="0.58" d=" M 151.31 186.93 C 150.17 186.04 150.45 182.87 152.30 183.40 C 152.24 184.63 152.12 185.94 151.31 186.93 Z" />
</g>
<g id="#8c8c8c99">
<path fill="#8c8c8c" opacity="0.60" d=" M 348.92 183.24 C 350.70 183.01 350.71 186.04 349.68 186.93 C 348.78 185.91 348.82 184.50 348.92 183.24 Z" />
</g>
<g id="#5656567c">
<path fill="#565656" opacity="0.49" d=" M 171.17 190.79 C 170.23 189.88 170.36 187.02 172.03 187.19 C 172.15 188.42 172.33 189.96 171.17 190.79 Z" />
</g>
<g id="#4b4b4b73">
<path fill="#4b4b4b" opacity="0.45" d=" M 328.90 187.10 C 330.58 187.00 330.74 189.81 329.84 190.78 C 328.69 189.91 328.84 188.36 328.90 187.10 Z" />
</g>
<g id="#62626272">
<path fill="#626262" opacity="0.45" d=" M 351.77 191.37 C 353.60 190.92 353.79 194.05 352.69 194.93 C 351.83 193.95 351.77 192.61 351.77 191.37 Z" />
</g>
<g id="#9090909c">
<path fill="#909090" opacity="0.61" d=" M 147.28 198.93 C 146.28 198.02 146.35 195.03 148.11 195.26 C 148.15 196.51 148.28 197.98 147.28 198.93 Z" />
</g>
<g id="#6a6a6a7a">
<path fill="#6a6a6a" opacity="0.48" d=" M 145.32 203.93 C 144.22 203.05 144.37 199.92 146.20 200.34 C 146.22 201.58 146.16 202.92 145.32 203.93 Z" />
</g>
<g id="#72727282">
<path fill="#727272" opacity="0.51" d=" M 354.92 200.24 C 356.70 200.00 356.72 203.05 355.68 203.93 C 354.79 202.90 354.81 201.50 354.92 200.24 Z" />
</g>
<g id="#8f8f8faf">
<path fill="#8f8f8f" opacity="0.69" d=" M 165.32 208.14 C 164.32 207.17 164.19 204.05 166.05 204.20 C 166.15 205.55 165.97 206.93 165.32 208.14 Z" />
</g>
<g id="#7f7f7fa1">
<path fill="#7f7f7f" opacity="0.63" d=" M 334.95 204.20 C 336.80 204.06 336.66 207.18 335.71 208.17 C 335.04 206.95 334.85 205.57 334.95 204.20 Z" />
</g>
<g id="#50505078">
<path fill="#505050" opacity="0.47" d=" M 164.15 211.78 C 163.19 210.75 163.58 207.93 165.32 208.14 C 165.22 209.41 165.23 210.89 164.15 211.78 Z" />
</g>
<g id="#5353537e">
<path fill="#535353" opacity="0.49" d=" M 335.71 208.17 C 337.61 208.75 338.51 212.07 337.66 213.86 C 336.22 212.30 335.76 210.24 335.71 208.17 Z" />
</g>
<g id="#74747482">
<path fill="#747474" opacity="0.51" d=" M 141.32 215.93 C 140.26 215.04 140.31 211.98 142.11 212.25 C 142.19 213.51 142.18 214.89 141.32 215.93 Z" />
</g>
<g id="#b2b2b2b6">
<path fill="#b2b2b2" opacity="0.71" d=" M 162.00 220.97 C 161.98 219.76 161.92 217.34 161.90 216.14 C 161.37 219.21 162.70 220.72 165.82 220.01 C 222.27 219.99 278.72 220.00 335.17 220.00 C 338.30 220.73 339.62 219.17 339.16 216.10 C 339.37 217.31 339.78 219.73 339.99 220.94 C 280.66 221.07 221.33 221.00 162.00 220.97 Z" />
</g>
<g id="#3c3c3c4f">
<path fill="#3c3c3c" opacity="0.31" d=" M 364.84 228.43 C 366.48 228.03 366.79 230.95 365.79 231.81 L 365.10 231.81 C 364.97 230.68 364.89 229.56 364.84 228.43 Z" />
</g>
<g id="#bfbfbfd4">
<path fill="#bfbfbf" opacity="0.83" d=" M 134.99 232.00 C 135.24 231.74 135.74 231.22 135.99 230.97 C 135.99 266.99 136.03 303.00 135.98 339.02 C 135.73 338.77 135.24 338.25 134.99 338.00 C 135.01 302.66 135.00 267.33 134.99 232.00 Z" />
</g>
<g id="#3f3f3f5f">
<path fill="#3f3f3f" opacity="0.37" d=" M 134.03 232.02 L 134.99 232.00 C 135.00 267.33 135.01 302.66 134.99 338.00 L 134.02 337.99 C 133.99 302.67 133.97 267.34 134.03 232.02 Z" />
</g>
<g id="#d2d2d2e3">
<path fill="#d2d2d2" opacity="0.89" d=" M 365.10 231.81 L 365.79 231.81 C 366.30 267.20 365.81 302.59 366.04 337.98 L 366.02 338.85 L 365.21 339.21 C 364.79 303.41 365.00 267.61 365.10 231.81 Z" />
</g>
<g id="#4c4c4c6b">
<path fill="#4c4c4c" opacity="0.42" d=" M 365.79 231.81 L 366.82 232.07 C 367.22 267.36 366.92 302.67 366.98 337.97 L 366.04 337.98 C 365.81 302.59 366.30 267.20 365.79 231.81 Z" />
</g>
<g id="#828282c0">
<path fill="#828282" opacity="0.75" d=" M 174.31 246.13 C 174.03 244.82 185.31 243.39 185.93 246.00 C 182.05 246.01 178.18 246.05 174.31 246.13 Z" />
<path fill="#828282" opacity="0.75" d=" M 315.08 245.99 C 315.35 244.64 326.91 243.48 326.71 246.13 C 322.82 246.05 318.95 246.00 315.08 245.99 Z" />
</g>
<g id="#04040410">
<path fill="#040404" opacity="0.06" d=" M 174.31 246.13 C 178.18 246.05 182.05 246.01 185.93 246.00 C 189.83 247.70 194.38 250.25 195.91 254.28 C 195.78 255.77 196.31 257.22 197.64 258.02 C 197.96 258.32 198.60 258.91 198.92 259.20 C 198.96 262.76 199.04 266.36 198.99 269.93 C 196.52 275.53 192.13 281.23 186.14 283.13 C 182.81 283.57 179.47 283.86 176.12 284.06 C 169.93 281.80 164.10 277.38 162.02 270.92 C 161.99 266.93 161.98 262.94 161.99 258.96 C 162.98 252.49 168.71 248.54 174.31 246.13 Z" />
<path fill="#040404" opacity="0.06" d=" M 303.05 258.15 C 304.82 252.45 309.75 248.35 315.08 245.99 C 318.95 246.00 322.82 246.05 326.71 246.13 C 332.15 248.40 337.27 252.22 338.98 258.08 C 338.99 262.36 339.02 266.64 338.98 270.93 C 336.68 277.19 331.26 282.14 324.88 284.04 C 321.81 283.96 318.60 284.46 315.91 282.76 C 314.85 281.94 313.50 281.80 312.21 281.93 C 307.76 279.24 303.16 274.40 301.99 269.01 C 302.04 267.27 302.16 263.77 302.21 262.03 C 303.18 260.97 303.39 259.51 303.05 258.15 Z" />
</g>
<g id="#42424276">
<path fill="#424242" opacity="0.46" d=" M 195.91 254.28 C 197.54 253.96 198.62 256.84 197.64 258.02 C 196.31 257.22 195.78 255.77 195.91 254.28 Z" />
</g>
<g id="#5151517f">
<path fill="#515151" opacity="0.50" d=" M 301.77 258.87 C 302.09 258.69 302.73 258.33 303.05 258.15 C 303.39 259.51 303.18 260.97 302.21 262.03 C 302.10 261.24 301.88 259.66 301.77 258.87 Z" />
</g>
<g id="#5c5c5c7b">
<path fill="#5c5c5c" opacity="0.48" d=" M 338.98 258.08 C 340.34 259.23 341.45 269.43 338.98 270.93 C 339.02 266.64 338.99 262.36 338.98 258.08 Z" />
</g>
<g id="#5d5d5d7a">
<path fill="#5d5d5d" opacity="0.48" d=" M 162.02 270.92 C 160.69 270.15 159.42 260.26 161.99 258.96 C 161.98 262.94 161.99 266.93 162.02 270.92 Z" />
</g>
<g id="#9f9f9fb6">
<path fill="#9f9f9f" opacity="0.71" d=" M 198.92 259.20 C 200.24 258.34 201.60 270.24 198.99 269.93 C 199.04 266.36 198.96 262.76 198.92 259.20 Z" />
</g>
<g id="#a4a4a4ba">
<path fill="#a4a4a4" opacity="0.73" d=" M 301.99 269.01 C 300.17 265.91 300.10 262.53 301.77 258.87 C 301.88 259.66 302.10 261.24 302.21 262.03 C 302.16 263.77 302.04 267.27 301.99 269.01 Z" />
</g>
<g id="#6969696e">
<path fill="#696969" opacity="0.43" d=" M 312.21 281.93 C 313.50 281.80 314.85 281.94 315.91 282.76 L 315.32 283.22 C 313.60 283.78 312.56 283.35 312.21 281.93 Z" />
</g>
<g id="#bfbfbfc2">
<path fill="#bfbfbf" opacity="0.76" d=" M 176.12 284.06 C 179.47 283.86 182.81 283.57 186.14 283.13 C 184.65 286.48 177.21 285.60 176.12 284.06 Z" />
</g>
<g id="#c2c2c2c4">
<path fill="#c2c2c2" opacity="0.77" d=" M 315.32 283.22 L 315.91 282.76 C 318.60 284.46 321.81 283.96 324.88 284.04 C 325.62 285.56 314.92 286.16 315.32 283.22 Z" />
</g>
<g id="#dededeff">
<path fill="#dedede" opacity="1.00" d=" M 173.80 321.74 C 224.68 320.42 276.18 320.61 327.20 321.68 C 276.08 322.24 224.93 322.15 173.80 321.74 Z" />
</g>
<g id="#6e6e6ea5">
<path fill="#6e6e6e" opacity="0.65" d=" M 172.75 322.82 C 173.01 322.55 173.54 322.01 173.80 321.74 C 224.93 322.15 276.08 322.24 327.20 321.68 C 327.48 321.96 328.02 322.50 328.30 322.77 C 328.15 327.84 328.04 332.93 327.95 338.02 L 327.01 338.00 C 326.93 333.01 327.28 328.03 326.87 323.07 C 275.94 322.98 224.99 322.89 174.07 323.11 C 173.95 328.39 173.93 333.68 173.99 338.97 L 173.05 339.02 C 173.00 333.61 173.06 328.22 172.75 322.82 Z" />
</g>
<g id="#cdcdcdde">
<path fill="#cdcdcd" opacity="0.87" d=" M 171.27 343.28 C 172.56 336.53 171.48 329.57 172.75 322.82 C 173.06 328.22 173.00 333.61 173.05 339.02 C 173.01 340.35 173.14 341.92 171.85 342.72 L 171.27 343.28 Z" />
</g>
<g id="#01010132">
<path fill="#010101" opacity="0.20" d=" M 174.07 323.11 C 224.99 322.89 275.94 322.98 326.87 323.07 C 327.28 328.03 326.93 333.01 327.01 338.00 C 324.92 338.03 326.46 334.49 325.98 333.04 C 325.96 331.56 325.93 328.58 325.91 327.09 C 275.66 327.14 225.37 326.53 175.13 327.38 C 175.10 328.79 175.04 331.62 175.01 333.03 C 174.76 334.52 174.25 337.49 173.99 338.97 C 173.93 333.68 173.95 328.39 174.07 323.11 Z" />
</g>
<g id="#cdcdcddd">
<path fill="#cdcdcd" opacity="0.87" d=" M 328.30 322.77 C 330.36 328.62 328.30 335.24 328.75 341.31 L 328.11 340.71 C 328.07 340.03 327.99 338.69 327.95 338.02 C 328.04 332.93 328.15 327.84 328.30 322.77 Z" />
</g>
<g id="#00000017">
<path fill="#000000" opacity="0.09" d=" M 175.13 327.38 C 225.37 326.53 275.66 327.14 325.91 327.09 C 325.93 328.58 325.96 331.56 325.98 333.04 C 322.68 333.44 320.68 329.31 317.00 331.05 C 271.99 330.91 226.97 331.08 181.96 330.97 C 179.31 330.53 177.67 333.48 175.01 333.03 C 175.04 331.62 175.10 328.79 175.13 327.38 Z" />
</g>
<g id="#0606062c">
<path fill="#060606" opacity="0.17" d=" M 365.21 339.21 L 366.02 338.85 C 369.34 350.40 356.16 355.86 347.00 354.95 C 338.70 355.39 325.00 351.78 328.11 340.71 L 328.75 341.31 C 328.99 341.77 329.49 342.69 329.74 343.15 C 330.68 345.87 333.09 347.72 335.95 348.06 L 336.80 348.22 C 343.18 348.89 349.98 350.09 356.30 348.33 C 357.29 348.03 358.24 347.65 359.17 347.19 C 362.44 345.81 364.50 342.59 365.21 339.21 Z" />
</g>
<g id="#09090932">
<path fill="#090909" opacity="0.20" d=" M 136.16 341.88 C 138.03 343.64 139.80 345.53 141.82 347.15 C 142.71 347.72 143.69 348.08 144.76 348.23 C 151.12 348.80 158.00 350.29 164.24 348.25 C 164.75 348.02 165.78 347.56 166.30 347.33 C 168.27 346.42 169.74 344.77 171.27 343.28 L 171.85 342.72 C 173.80 352.66 160.05 355.25 153.00 354.08 C 145.95 355.32 133.64 350.05 136.16 341.88 Z" />
</g>
<g id="#797979ad">
<path fill="#797979" opacity="0.68" d=" M 329.74 343.15 C 331.80 344.48 333.84 345.85 335.94 347.14 L 335.95 348.06 C 333.09 347.72 330.68 345.87 329.74 343.15 Z" />
</g>
<g id="#bababae4">
<path fill="#bababa" opacity="0.89" d=" M 141.82 347.15 C 149.97 346.95 158.14 346.97 166.30 347.33 C 165.78 347.56 164.75 348.02 164.24 348.25 C 157.74 348.05 151.25 348.02 144.76 348.23 C 143.69 348.08 142.71 347.72 141.82 347.15 Z" />
</g>
<g id="#bdbdbde6">
<path fill="#bdbdbd" opacity="0.90" d=" M 335.94 347.14 C 343.68 346.97 351.42 347.02 359.17 347.19 C 358.24 347.65 357.29 348.03 356.30 348.33 C 349.79 348.06 343.30 348.01 336.80 348.22 L 335.95 348.06 L 335.94 347.14 Z" />
</g>
<g id="#6f6f6fa8">
<path fill="#6f6f6f" opacity="0.66" d=" M 144.76 348.23 C 151.25 348.02 157.74 348.05 164.24 348.25 C 158.00 350.29 151.12 348.80 144.76 348.23 Z" />
<path fill="#6f6f6f" opacity="0.66" d=" M 336.80 348.22 C 343.30 348.01 349.79 348.06 356.30 348.33 C 349.98 350.09 343.18 348.89 336.80 348.22 Z" />
</g>
</svg>
