<?xml version="1.0" encoding="UTF-8"?>
<!DOCTYPE svg PUBLIC "-//W3C//DTD SVG 1.1//EN" "http://www.w3.org/Graphics/SVG/1.1/DTD/svg11.dtd">
<!-- Creator: CorelDRAW 2018 (64 Bit Versión de evaluación) -->
<svg xmlns="http://www.w3.org/2000/svg" xml:space="preserve" width="215.9mm" height="279.4mm" version="1.1" style="shape-rendering:geometricPrecision; text-rendering:geometricPrecision; image-rendering:optimizeQuality; fill-rule:evenodd; clip-rule:evenodd"
viewBox="0 0 21590 27940"
 xmlns:xlink="http://www.w3.org/1999/xlink">
 <defs>
  <style type="text/css">
   <![CDATA[
    .str0 {stroke:#FEFEFE;stroke-width:800;stroke-miterlimit:22.9256}
    .str1 {stroke:#FEFEFE;stroke-width:20;stroke-miterlimit:22.9256}
    .fil0 {fill:none}
    .fil2 {fill:#FEFEFE}
    .fil1 {fill:#373435}
   ]]>
  </style>
 </defs>
 <g id="Capa_x0020_1">
  <metadata id="CorelCorpID_0Corel-Layer"/>
  <path class="fil0 str0" d="M8909.28 6944.73c-564.18,78.99 -900.95,356.65 -1099.62,695.31l-623.79 2014.36c-321.98,122.85 -503.58,374.03 -558.83,740.77l-12.99 2521.2c95.04,555.2 858.22,590.38 986.33,-13.7l5.51 -265.47c1951.88,276.47 3922.23,285.02 5911.88,13.88l23.07 369.25c212.94,458.15 856.39,458.6 977.29,-127.58l-15.59 -2510.58c-66.19,-354.75 -257.22,-612.41 -597.81,-753.76l-532.83 -1897.4c-244.92,-400.47 -587.27,-722.9 -1026.67,-792.74l-3435.95 6.46z"/>
  <path class="fil1 str1" d="M9094.23 8139.49l2993.01 -15.89c308.46,-10.61 512.13,111.12 604.75,373.15l164.27 567.16c105.96,304.69 0.58,471.42 -296.73,476.54 -1260.14,-132.65 -2514.38,-141.51 -3760.93,11.06 -266.97,17.01 -429.99,-169.41 -351.67,-425.81l220.32 -725.25c57.48,-143 232.73,-254.12 426.98,-260.96z"/>
  <circle class="fil1 str1" cx="8653.68" cy="11212.35" r="686.14"/>
  <circle class="fil1 str1" cx="12544.23" cy="11251.86" r="686.14"/>
  <path class="fil0 str0" d="M8909.28 6944.73c-564.18,78.99 -900.95,356.65 -1099.62,695.31l-623.79 2014.36c-321.98,122.85 -503.58,374.03 -558.83,740.77l-12.99 2521.2c95.04,555.2 858.22,590.38 986.33,-13.7l5.51 -265.47c1951.88,276.47 3922.23,285.02 5911.88,13.88l23.07 369.25c212.94,458.15 856.39,458.6 977.29,-127.58l-15.59 -2510.58c-66.19,-354.75 -257.22,-612.41 -597.81,-753.76l-532.83 -1897.4c-244.92,-400.47 -587.27,-722.9 -1026.67,-792.74l-3435.95 6.46z"/>
  <path class="fil2 str1" d="M9094.23 8139.49l2993.01 -15.89c308.46,-10.61 512.13,111.12 604.75,373.15l164.27 567.16c105.96,304.69 0.58,471.42 -296.73,476.54 -1260.14,-132.65 -2514.38,-141.51 -3760.93,11.06 -266.97,17.01 -429.99,-169.41 -351.67,-425.81l220.32 -725.25c57.48,-143 232.73,-254.12 426.98,-260.96z"/>
  <circle class="fil2 str1" cx="8653.68" cy="11212.35" r="686.14"/>
  <circle class="fil2 str1" cx="12544.23" cy="11251.86" r="686.14"/>
  <polygon class="fil2 str1" points="10426.54,13970 11447.39,14426.42 10804.94,14431.26 11151.05,17043.92 9624.86,17031.09 10077.09,14439.5 9423.18,14442.93 "/>
  <polygon class="fil2 str1" points="7389.65,12989.09 6128.92,12928.09 3810.82,16933.94 5722.24,16954.28 "/>
  <polygon class="fil2 str1" points="14201.62,12968.76 15869.03,16933.94 17800.79,16974.61 15482.68,12989.09 "/>
 </g>
</svg>
