<?xml version="1.0" encoding="UTF-8" ?>
<!DOCTYPE svg PUBLIC "-//W3C//DTD SVG 1.1//EN" "http://www.w3.org/Graphics/SVG/1.1/DTD/svg11.dtd">
<svg width="500pt" height="500pt" viewBox="0 0 500 500" version="1.1" xmlns="http://www.w3.org/2000/svg">
<g id="#ffffffff">
<path fill="#ffffff" opacity="1.00" d=" M 154.06 169.81 C 155.49 166.43 159.54 165.28 162.88 165.02 C 203.92 164.97 244.97 165.02 286.01 164.99 C 290.92 164.92 295.36 167.98 298.12 171.86 C 303.73 179.53 305.67 189.03 307.88 198.08 C 305.31 197.05 302.91 195.65 300.36 194.59 C 297.12 196.44 293.81 198.14 290.53 199.89 C 288.34 193.68 286.07 187.49 283.94 181.25 C 244.92 181.25 205.90 181.25 166.88 181.25 C 161.55 196.93 156.07 212.55 150.80 228.25 C 189.96 228.24 229.12 228.27 268.27 228.23 C 251.85 257.03 235.42 285.82 218.85 314.54 C 199.29 314.47 179.73 314.49 160.17 314.53 C 160.71 320.36 161.78 327.02 158.25 332.17 C 154.28 336.89 147.46 335.89 141.96 336.01 C 137.43 335.88 131.42 335.52 129.08 330.93 C 128.88 300.95 129.08 270.97 128.98 240.99 C 128.98 239.13 128.88 237.21 129.61 235.45 C 137.36 213.43 143.71 190.81 154.06 169.81 M 162.49 251.66 C 157.70 252.66 153.46 256.14 151.70 260.72 C 147.91 270.12 155.70 282.62 166.19 282.00 C 174.11 281.00 181.24 274.16 181.51 265.99 C 180.97 256.95 171.35 249.59 162.49 251.66 Z" />
<path fill="#ffffff" opacity="1.00" d=" M 298.02 200.85 C 299.66 200.20 301.52 200.65 303.24 200.58 C 304.83 201.98 306.54 203.33 307.63 205.19 C 330.61 246.02 353.30 287.02 376.47 327.75 C 376.45 329.15 376.43 330.56 376.41 331.98 C 375.18 332.99 374.06 334.12 373.04 335.33 C 368.39 336.14 363.66 335.71 358.98 335.77 C 323.01 335.69 287.03 335.52 251.06 335.33 C 243.20 335.13 235.29 335.61 227.48 334.70 C 226.44 333.57 225.37 332.47 224.27 331.41 C 224.23 329.27 223.96 326.98 225.35 325.17 C 248.16 285.34 270.84 245.45 293.61 205.61 C 294.71 203.72 296.26 202.13 298.02 200.85 M 239.15 323.99 C 279.83 324.08 320.52 324.01 361.21 324.12 C 341.02 288.16 320.84 252.20 300.73 216.19 C 280.25 252.15 259.69 288.07 239.15 323.99 Z" />
<path fill="#ffffff" opacity="1.00" d=" M 293.50 251.97 C 292.73 247.64 296.68 243.55 301.01 243.97 C 305.31 243.63 308.62 247.92 308.02 252.02 C 306.93 264.48 304.03 276.73 303.05 289.21 C 301.47 289.23 299.90 289.23 298.33 289.22 C 297.42 276.72 294.79 264.42 293.50 251.97 Z" />
<path fill="#ffffff" opacity="1.00" d=" M 298.18 294.13 C 302.59 292.29 307.16 296.57 307.24 300.95 C 307.80 305.47 304.14 311.28 299.04 310.15 C 292.07 308.33 292.04 296.96 298.18 294.13 Z" />
</g>
</svg>
