<?xml version="1.0" encoding="UTF-8"?>
<!DOCTYPE svg PUBLIC "-//W3C//DTD SVG 1.1//EN" "http://www.w3.org/Graphics/SVG/1.1/DTD/svg11.dtd">
<!-- Creator: CorelDRAW 2018 (64 Bit Versión de evaluación) -->
<svg xmlns="http://www.w3.org/2000/svg" xml:space="preserve" width="215.9mm" height="279.4mm" version="1.1" style="shape-rendering:geometricPrecision; text-rendering:geometricPrecision; image-rendering:optimizeQuality; fill-rule:evenodd; clip-rule:evenodd"
viewBox="0 0 21590 27940"
 xmlns:xlink="http://www.w3.org/1999/xlink">
 <defs>
  <style type="text/css">
   <![CDATA[
    .str2 {stroke:#FEFEFE;stroke-width:200;stroke-miterlimit:22.9256}
    .str1 {stroke:#FEFEFE;stroke-width:1000;stroke-miterlimit:22.9256}
    .str0 {stroke:#FEFEFE;stroke-width:20;stroke-miterlimit:22.9256}
    .fil1 {fill:none}
    .fil0 {fill:#FEFEFE}
   ]]>
  </style>
 </defs>
 <g id="Capa_x0020_1">
  <metadata id="CorelCorpID_0Corel-Layer"/>
  <circle class="fil0 str0" cx="11165.09" cy="15294.71" r="520.08"/>
  <path class="fil0 str0" d="M11185.05 14323.05c-407.07,-1383.36 -1130.77,-2815 -711.2,-4089.4 482.6,-768.41 965.19,-829.53 1447.79,25.39 364.71,1101.92 -154.34,2695.32 -736.59,4064.01z"/>
  <path class="fil1 str1" d="M10264.3 7090.4c604.92,-950.42 1253.43,-989.83 1866.89,38.1l7581.91 12420.59c692.05,1031.9 509.02,1566.54 -609.61,1562.11l-15811.5 38.1c-921.78,-49.45 -1178.35,-623.21 -685.8,-1409.7l7658.11 -12649.2z"/>
  <path class="fil0 str0" d="M14799.58 18835.78l508.84 -11.55c9.05,-129.26 54.34,-162.29 -95.14,-155.18 177.61,-209.58 487.83,-741.47 867.91,-697.8l-12.45 908.61 249.36 -2.69 -15.68 -916.18c490.14,4.3 944.25,87.96 1192.59,843.74l308.29 219.05c-133.03,-718.28 -464.15,-1223.93 -1476.54,-1233.16 -644.35,-33.25 -1003.71,261.16 -1379.19,884.3 -116.6,8.08 -158.53,54.96 -147.99,160.86z"/>
  <path class="fil0 str0" d="M14799.58 18835.78c-266.46,86.46 -470.4,219.81 -592.85,414.31 330.18,121.09 334.15,446.64 -30.53,496.62 -27.19,0.9 -54.38,1.8 -81.56,2.7l-7.75 192.44 436.66 13.5c-77.9,-826.42 1041.43,-826.9 982.46,-17.41l1385.33 5.09c-84.24,-804.46 1050.46,-804.79 978.3,-10.55l336.83 -4.73 5.09 -315.91c-15.76,-38.23 -41.16,-42.78 -71.33,-30.57 -15.52,-228.84 -126.98,-415.06 -336.92,-557.5l-308.29 -219.04 -2695.44 31.05z"/>
  <path class="fil0 str0" d="M14206.72 19250.09c-112.01,140.7 -145.34,308.53 -112.09,499.32l336.92 -21.7c-255.35,19 -343.34,-403.04 -38.16,-411.92l-186.67 -65.7z"/>
  <circle class="fil1 str2" cx="15010.09" cy="19825.81" r="361.35"/>
  <circle class="fil1 str2" cx="17374.55" cy="19826.26" r="361.35"/>
  <polygon class="fil0 str0" points="14522.89,16921.46 14347.28,16995.76 14475.61,17488.82 14779.56,17374 14853.85,17684.7 15103.76,17650.93 15225.34,17894.08 15205.08,17515.84 14968.68,17563.12 14901.13,17225.4 14603.94,17313.22 "/>
  <polygon class="fil0 str0" points="15468.5,16570.24 15319.9,16495.94 15124.03,16968.75 15434.73,17103.83 15292.88,17374 15515.78,17509.09 15448.23,17786.02 15671.12,17461.81 15461.74,17346.98 15603.58,17056.55 15313.15,16934.97 "/>
  <path class="fil0 str0" d="M5946.34 18835.78l508.84 -11.55c9.05,-129.26 54.34,-162.29 -95.14,-155.18 177.61,-209.58 487.83,-741.47 867.91,-697.8l-12.45 908.61 249.36 -2.69 -15.68 -916.18c490.14,4.3 944.25,87.96 1192.59,843.74l308.29 219.05c-133.03,-718.28 -464.15,-1223.93 -1476.54,-1233.16 -644.35,-33.25 -1003.71,261.16 -1379.19,884.3 -116.6,8.08 -158.53,54.96 -147.99,160.86z"/>
  <path class="fil0 str0" d="M5946.34 18835.78c-266.46,86.46 -470.4,219.81 -592.85,414.31 330.18,121.09 334.15,446.64 -30.53,496.62 -27.19,0.9 -54.38,1.8 -81.56,2.7l-7.75 192.44 436.66 13.5c-77.9,-826.42 1041.43,-826.9 982.46,-17.41l1385.33 5.09c-84.24,-804.46 1050.46,-804.79 978.3,-10.55l336.83 -4.73 5.09 -315.91c-15.76,-38.23 -41.16,-42.78 -71.33,-30.57 -15.52,-228.84 -126.98,-415.06 -336.92,-557.5l-308.29 -219.04 -2695.44 31.05z"/>
  <path class="fil0 str0" d="M5353.48 19250.09c-112.01,140.7 -145.34,308.53 -112.09,499.32l336.92 -21.7c-255.35,19 -343.34,-403.04 -38.16,-411.92l-186.67 -65.7z"/>
  <circle class="fil1 str2" cx="6156.85" cy="19825.81" r="361.35"/>
  <circle class="fil1 str2" cx="8521.31" cy="19826.26" r="361.35"/>
  <polygon class="fil0 str0" points="5669.65,16921.46 5494.04,16995.76 5622.37,17488.82 5926.32,17374 6000.61,17684.7 6250.52,17650.93 6372.1,17894.08 6351.84,17515.84 6115.44,17563.12 6047.89,17225.4 5750.7,17313.22 "/>
  <polygon class="fil0 str0" points="6615.26,16570.24 6466.66,16495.94 6270.79,16968.75 6581.49,17103.83 6439.64,17374 6662.54,17509.09 6594.99,17786.02 6817.88,17461.81 6608.5,17346.98 6750.34,17056.55 6459.91,16934.97 "/>
  <path class="fil0 str0" d="M10419.38 18859.98l508.84 -11.55c9.05,-129.26 54.34,-162.29 -95.14,-155.18 177.61,-209.58 487.83,-741.47 867.91,-697.8l-12.45 908.61 249.36 -2.69 -15.68 -916.18c490.14,4.3 944.25,87.96 1192.59,843.74l308.29 219.05c-133.03,-718.28 -464.15,-1223.93 -1476.54,-1233.16 -644.35,-33.25 -1003.71,261.16 -1379.19,884.3 -116.6,8.08 -158.53,54.96 -147.99,160.86z"/>
  <path class="fil0 str0" d="M10419.38 18859.98c-266.46,86.46 -470.4,219.81 -592.85,414.31 330.18,121.09 334.15,446.64 -30.53,496.62 -27.19,0.9 -54.38,1.8 -81.56,2.7l-7.75 192.44 436.66 13.5c-77.9,-826.42 1041.43,-826.9 982.46,-17.41l1385.33 5.09c-84.24,-804.46 1050.46,-804.79 978.3,-10.55l336.83 -4.73 5.09 -315.91c-15.76,-38.23 -41.16,-42.78 -71.33,-30.57 -15.52,-228.84 -126.98,-415.06 -336.92,-557.5l-308.29 -219.04 -2695.44 31.05z"/>
  <path class="fil0 str0" d="M9826.52 19274.29c-112.01,140.7 -145.34,308.53 -112.09,499.32l336.92 -21.7c-255.35,19 -343.34,-403.04 -38.16,-411.92l-186.67 -65.7z"/>
  <circle class="fil1 str2" cx="10629.89" cy="19850.01" r="361.35"/>
  <circle class="fil1 str2" cx="12994.35" cy="19850.46" r="361.35"/>
  <polygon class="fil0 str0" points="10142.69,16945.66 9967.08,17019.96 10095.41,17513.02 10399.36,17398.2 10473.65,17708.9 10723.56,17675.13 10845.14,17918.28 10824.88,17540.04 10588.48,17587.32 10520.93,17249.6 10223.74,17337.42 "/>
  <polygon class="fil0 str0" points="11088.3,16594.44 10939.7,16520.14 10743.83,16992.95 11054.53,17128.03 10912.68,17398.2 11135.58,17533.29 11068.03,17810.22 11290.92,17486.01 11081.54,17371.18 11223.38,17080.75 10932.95,16959.17 "/>
 </g>
</svg>
