<?xml version="1.0" encoding="UTF-8" ?>
<!DOCTYPE svg PUBLIC "-//W3C//DTD SVG 1.1//EN" "http://www.w3.org/Graphics/SVG/1.1/DTD/svg11.dtd">
<svg width="500pt" height="500pt" viewBox="0 0 500 500" version="1.1" xmlns="http://www.w3.org/2000/svg">
<g id="#ffffffff">
<path fill="#ffffff" opacity="1.00" d=" M 256.12 162.68 C 292.22 157.60 328.63 155.48 364.91 152.15 C 368.33 151.85 371.77 152.14 375.19 152.42 C 367.45 152.98 359.78 154.14 352.09 155.10 C 325.82 158.54 299.57 162.11 273.40 166.25 C 260.89 168.27 248.41 170.50 236.12 173.60 C 228.85 175.50 221.59 177.69 214.95 181.27 C 211.77 178.28 208.56 175.31 205.55 172.14 C 222.33 168.61 239.05 164.56 256.12 162.68 Z" />
<path fill="#ffffff" opacity="1.00" d=" M 175.71 157.71 C 178.13 155.00 182.60 155.31 184.99 157.92 C 200.76 173.53 216.39 189.31 232.12 204.97 C 234.76 207.13 235.49 211.42 233.06 214.01 C 217.10 230.11 201.01 246.08 185.00 262.14 C 185.00 278.76 185.00 295.38 185.00 312.00 C 182.33 312.00 179.67 312.00 177.00 312.00 C 177.00 295.82 177.00 279.64 177.00 263.46 C 160.57 247.43 144.52 231.01 128.21 214.86 C 125.41 212.72 125.04 208.03 127.73 205.66 C 143.72 189.67 159.67 173.65 175.71 157.71 M 178.17 162.24 C 177.33 162.69 176.58 163.26 175.92 163.94 C 161.73 178.13 147.56 192.34 133.34 206.50 C 130.85 208.75 131.85 212.79 134.30 214.67 C 148.42 228.51 162.40 242.50 176.36 256.49 C 178.37 259.01 182.27 258.63 184.28 256.31 C 198.48 242.17 212.64 227.97 226.82 213.80 C 229.11 211.89 229.10 208.08 226.80 206.19 C 212.80 192.17 198.78 178.17 184.78 164.16 C 183.14 162.42 180.52 160.88 178.17 162.24 Z" />
<path fill="#ffffff" opacity="1.00" d=" M 178.53 164.60 C 180.70 163.85 183.02 164.75 184.52 166.39 C 197.72 179.57 210.89 192.78 224.10 205.95 C 226.35 207.77 226.74 211.47 224.58 213.52 C 211.27 226.91 197.89 240.23 184.55 253.58 C 182.49 256.12 178.29 256.45 176.18 253.81 C 163.12 240.53 149.67 227.65 136.56 214.42 C 134.29 212.59 133.60 208.92 135.64 206.67 C 139.19 202.53 143.41 199.04 147.22 195.16 C 156.70 185.66 166.21 176.19 175.68 166.67 C 176.53 165.87 177.39 164.99 178.53 164.60 M 185.47 201.36 C 181.44 203.57 177.04 204.94 172.81 206.67 C 173.19 205.50 173.58 204.33 173.98 203.16 C 169.64 205.86 165.17 208.33 160.82 211.00 C 168.34 209.01 175.73 206.53 183.25 204.54 C 183.52 205.32 184.06 206.88 184.33 207.66 C 186.89 206.85 189.42 205.97 191.93 205.02 C 192.03 205.75 192.25 207.21 192.36 207.94 C 196.56 206.82 200.83 205.99 205.12 205.28 C 201.79 205.34 198.49 205.72 195.18 206.05 C 194.20 205.30 193.25 204.52 192.19 203.89 C 189.92 203.90 187.76 204.94 185.51 205.23 C 185.47 203.94 185.58 202.65 185.47 201.36 M 160.60 224.49 C 160.07 227.41 159.49 231.68 162.24 233.63 C 164.52 235.05 164.91 232.54 165.14 230.99 C 164.41 231.84 163.71 232.72 162.98 233.57 C 163.17 230.09 162.68 226.57 163.20 223.13 C 164.50 223.48 164.18 225.31 164.80 226.28 C 164.79 224.81 164.78 223.35 164.75 221.90 C 163.02 222.14 160.95 222.40 160.60 224.49 M 192.99 221.98 C 193.31 222.40 193.96 223.25 194.28 223.67 C 193.97 227.12 195.00 230.86 193.33 234.05 C 194.21 234.03 195.97 233.97 196.85 233.95 C 196.86 232.66 196.99 231.38 197.23 230.13 C 198.86 230.41 198.56 232.67 199.27 233.83 C 200.10 233.90 201.76 234.04 202.59 234.12 C 200.94 231.54 200.07 228.58 199.48 225.61 C 200.24 225.27 201.77 224.58 202.53 224.24 C 201.05 224.08 199.56 223.94 198.08 223.82 C 199.58 225.00 199.44 228.07 197.27 228.33 C 196.56 226.43 197.18 224.12 196.95 222.07 C 195.63 222.03 194.31 222.00 192.99 221.98 M 167.14 223.84 C 168.38 226.99 168.67 230.98 167.00 234.02 C 168.49 234.01 169.98 234.00 171.47 234.01 C 170.30 231.20 170.92 228.11 170.56 225.17 C 171.13 225.78 171.70 226.39 172.28 227.00 C 172.37 226.41 172.55 225.23 172.63 224.65 C 170.80 224.40 168.97 224.06 167.14 223.84 M 175.90 226.89 C 177.56 227.01 178.51 225.57 179.69 224.68 C 179.56 227.64 179.81 230.60 179.62 233.57 C 180.38 233.68 181.92 233.90 182.69 234.01 C 181.88 230.91 183.82 226.62 180.92 224.38 C 179.11 223.86 174.91 224.06 175.90 226.89 M 187.40 224.49 C 184.61 226.72 184.55 232.29 188.08 233.87 C 190.10 234.35 190.84 232.61 191.13 231.01 C 190.37 232.04 189.44 232.86 188.33 233.46 C 188.21 230.63 188.25 227.80 188.25 224.97 L 189.47 224.93 C 189.52 225.53 189.61 226.72 189.66 227.32 C 190.09 226.93 190.93 226.15 191.35 225.76 C 190.44 224.53 188.89 223.60 187.40 224.49 M 178.53 234.27 C 178.50 231.86 178.54 229.44 178.63 227.03 C 175.18 228.08 174.29 233.77 178.53 234.27 Z" />
<path fill="#ffffff" opacity="1.00" d=" M 231.11 197.19 C 253.07 201.05 275.21 204.18 296.85 209.66 C 312.95 213.92 329.20 219.15 342.96 228.79 C 352.78 235.54 360.88 245.79 362.33 257.91 C 364.08 272.90 359.03 287.65 353.18 301.24 C 346.06 317.32 337.03 332.44 328.88 348.00 C 324.62 347.99 320.36 348.01 316.11 347.99 C 327.30 326.05 342.31 306.02 350.75 282.72 C 354.63 272.04 356.39 259.80 351.63 249.09 C 346.26 236.47 334.35 228.25 322.41 222.46 C 303.01 213.01 281.51 209.73 260.88 204.11 C 259.25 204.23 257.66 204.65 256.07 204.98 C 279.90 210.83 304.68 215.28 326.16 227.81 C 335.76 233.45 344.94 241.26 348.62 252.12 C 352.20 262.82 349.46 274.41 345.47 284.59 C 336.45 307.27 320.43 326.16 309.77 347.99 C 259.89 348.01 210.01 348.01 160.13 347.99 C 164.35 343.54 169.24 339.83 174.04 336.04 C 191.93 322.32 210.23 309.05 226.81 293.72 C 234.79 286.05 242.74 278.12 248.51 268.60 C 252.61 261.78 256.47 252.71 252.00 245.16 C 246.46 236.30 236.49 231.72 227.23 227.76 C 231.64 223.63 235.81 219.25 240.14 215.03 C 242.34 213.09 242.88 209.56 241.05 207.19 C 238.15 203.46 234.28 200.66 231.11 197.19 M 252.09 221.55 C 256.96 223.22 262.67 226.90 267.65 223.66 C 264.08 221.33 260.05 219.58 255.89 218.64 C 253.94 218.20 253.18 220.43 252.09 221.55 M 280.67 234.16 C 284.65 236.80 287.95 240.41 292.15 242.71 C 294.88 243.98 297.22 241.46 299.15 239.91 C 295.13 236.95 291.59 233.16 286.93 231.20 C 284.38 230.23 282.60 233.01 280.67 234.16 M 269.21 253.64 C 269.62 255.40 270.14 257.16 270.03 259.01 C 268.34 258.37 266.68 257.76 264.99 257.17 C 265.97 259.49 267.64 261.37 269.25 263.28 C 265.97 265.66 271.01 269.52 267.46 271.65 C 267.52 272.22 267.63 273.37 267.68 273.94 C 267.69 276.91 264.07 275.33 262.28 275.34 C 262.68 275.69 263.47 276.39 263.86 276.73 C 262.63 279.07 263.62 281.57 263.70 284.02 C 260.30 286.48 256.97 289.17 252.96 290.58 C 251.58 290.03 250.19 289.50 248.80 288.99 C 249.95 290.62 251.54 292.02 252.18 293.97 C 248.95 296.50 245.39 298.56 242.02 300.88 C 246.46 304.29 251.63 306.69 257.12 307.84 C 257.31 305.99 257.54 304.16 257.80 302.33 C 259.33 301.90 260.84 301.37 262.29 300.71 C 261.39 300.59 259.59 300.34 258.69 300.21 C 259.27 298.45 259.82 296.69 260.39 294.94 C 262.68 295.18 263.30 292.68 265.23 292.11 C 267.18 291.30 268.50 289.62 269.93 288.14 C 269.26 285.22 268.72 282.27 267.55 279.50 C 268.55 279.68 270.55 280.03 271.55 280.20 C 271.25 279.24 270.63 277.33 270.32 276.37 C 270.95 276.14 272.20 275.68 272.82 275.45 C 271.81 275.29 270.80 275.11 269.79 274.94 C 269.06 273.24 269.48 272.07 271.05 271.43 C 271.06 268.58 268.48 265.77 270.34 263.12 C 270.05 262.83 269.47 262.25 269.18 261.96 C 268.90 261.26 268.33 259.87 268.04 259.17 C 272.58 261.30 270.37 255.42 269.21 253.64 M 300.77 261.72 C 297.06 267.92 296.75 275.73 292.00 281.42 C 294.78 281.67 297.54 282.16 300.29 282.61 C 302.32 277.62 304.28 272.60 306.35 267.62 C 307.50 264.94 306.87 261.94 306.94 259.12 C 304.56 259.01 302.03 259.44 300.77 261.72 M 269.29 298.96 C 267.92 298.62 266.56 298.28 265.20 297.94 C 264.69 298.29 263.65 298.98 263.13 299.33 C 264.76 299.50 266.37 299.82 267.94 300.31 C 269.69 299.12 271.46 297.94 273.16 296.69 C 275.60 296.54 278.04 296.51 280.48 296.37 C 278.45 295.65 276.26 295.00 274.09 295.36 C 272.28 296.24 270.86 297.73 269.29 298.96 M 247.81 331.00 C 252.51 331.00 257.21 330.99 261.92 331.00 C 270.16 321.72 278.33 312.37 286.58 303.10 C 283.29 303.08 279.99 302.88 276.79 302.08 C 267.11 311.71 257.53 321.42 247.81 331.00 Z" />
<path fill="#ffffff" opacity="1.00" d=" M 221.29 233.63 C 222.49 232.38 223.71 231.14 224.94 229.91 C 233.30 233.26 242.38 236.69 247.96 244.17 C 251.82 249.25 251.61 256.38 248.66 261.84 C 243.73 271.36 236.18 279.19 228.67 286.70 C 204.68 309.51 177.61 328.74 150.62 347.80 C 145.95 348.28 141.18 347.89 136.48 347.96 C 162.32 330.57 188.35 313.30 212.21 293.21 C 222.35 284.41 232.62 275.37 240.03 264.06 C 243.01 259.39 245.55 253.01 242.21 247.86 C 237.29 240.66 228.86 237.26 221.29 233.63 Z" />
</g>
</svg>
