<?xml version="1.0" encoding="UTF-8" ?>
<!DOCTYPE svg PUBLIC "-//W3C//DTD SVG 1.1//EN" "http://www.w3.org/Graphics/SVG/1.1/DTD/svg11.dtd">
<svg width="500pt" height="500pt" viewBox="0 0 500 500" version="1.1" xmlns="http://www.w3.org/2000/svg">
<g id="#ffffffff">
<path fill="#ffffff" opacity="1.00" d=" M 240.86 164.84 C 282.64 158.31 324.90 155.70 367.00 152.01 C 369.79 151.97 372.58 152.19 375.36 152.45 C 372.70 152.70 370.03 152.79 367.38 153.13 C 340.90 156.52 314.43 160.05 288.03 163.99 C 270.61 166.64 253.16 169.30 236.06 173.62 C 228.81 175.52 221.56 177.70 214.93 181.28 C 211.78 178.25 208.55 175.32 205.54 172.16 C 217.26 169.48 229.06 167.18 240.86 164.84 Z" />
<path fill="#ffffff" opacity="1.00" d=" M 175.74 157.68 C 178.17 154.98 182.67 155.33 185.03 157.95 C 200.94 173.74 216.75 189.63 232.59 205.47 C 235.16 207.78 235.21 212.21 232.61 214.52 C 216.74 230.40 200.86 246.26 185.00 262.15 C 185.00 278.76 185.00 295.38 185.00 312.00 C 182.33 312.00 179.67 312.00 177.00 312.00 C 176.99 295.80 177.02 279.61 176.98 263.42 C 160.52 247.42 144.49 230.96 128.17 214.82 C 125.40 212.71 125.06 208.04 127.68 205.69 C 143.71 189.70 159.68 173.64 175.74 157.68 M 178.18 162.24 C 176.49 163.08 175.30 164.61 173.96 165.89 C 160.29 179.60 146.59 193.27 132.90 206.96 C 130.95 209.32 132.02 212.87 134.27 214.64 C 148.40 228.51 162.42 242.51 176.41 256.54 C 178.41 259.01 182.29 258.61 184.27 256.33 C 198.48 242.17 212.64 227.96 226.84 213.79 C 229.11 211.90 229.10 208.08 226.83 206.21 C 212.83 192.21 198.82 178.21 184.83 164.20 C 183.20 162.42 180.55 160.88 178.18 162.24 Z" />
<path fill="#ffffff" opacity="1.00" d=" M 178.58 164.59 C 180.76 163.87 183.08 164.76 184.56 166.42 C 197.91 179.78 211.29 193.13 224.62 206.51 C 226.49 208.34 226.49 211.68 224.61 213.51 C 211.25 226.90 197.87 240.26 184.50 253.63 C 182.45 256.15 178.22 256.43 176.15 253.80 C 163.11 240.51 149.66 227.64 136.56 214.42 C 134.66 212.86 133.91 210.20 134.82 207.90 C 136.00 205.82 137.91 204.29 139.55 202.57 C 151.13 191.50 162.29 179.99 173.67 168.70 C 175.24 167.27 176.52 165.34 178.58 164.59 M 175.63 191.96 C 176.44 200.31 177.85 208.61 178.87 216.94 C 179.49 216.97 180.74 217.03 181.36 217.06 C 182.15 209.36 183.53 201.74 184.49 194.07 C 184.86 192.02 184.45 189.62 182.62 188.37 C 179.92 186.54 175.54 188.53 175.63 191.96 M 178.28 220.18 C 175.12 222.35 175.14 228.15 178.97 229.61 C 181.40 230.11 183.52 228.23 184.05 225.95 C 185.19 222.69 181.72 218.46 178.28 220.18 Z" />
<path fill="#ffffff" opacity="1.00" d=" M 231.17 197.22 C 262.01 202.71 293.59 206.39 322.90 218.06 C 336.79 223.85 351.03 231.90 358.43 245.59 C 365.23 258.40 362.87 273.68 358.66 286.91 C 351.57 308.56 339.33 327.94 328.85 348.01 C 324.60 347.98 320.36 348.01 316.12 348.00 C 327.41 325.77 342.71 305.52 351.06 281.84 C 354.89 271.01 356.32 258.55 351.10 247.92 C 344.52 234.08 330.56 225.82 316.99 220.02 C 299.04 212.27 279.60 209.31 260.89 204.08 C 259.23 204.24 257.61 204.66 255.99 204.99 C 270.08 208.55 284.41 211.22 298.23 215.78 C 311.70 220.18 325.15 225.71 336.17 234.82 C 344.26 241.45 350.36 251.29 350.27 262.02 C 350.29 275.86 344.23 288.77 337.74 300.68 C 328.95 316.77 317.79 331.49 309.76 348.00 C 259.88 348.00 210.01 348.00 160.14 348.00 C 164.33 343.53 169.25 339.84 174.03 336.04 C 192.10 322.19 210.59 308.78 227.30 293.27 C 235.25 285.55 243.20 277.60 248.87 268.00 C 251.90 262.81 254.44 256.93 253.95 250.80 C 252.96 243.87 247.33 238.84 241.80 235.18 C 237.27 232.08 232.20 229.94 227.23 227.69 C 231.71 223.68 235.77 219.22 240.11 215.07 C 242.37 213.11 242.89 209.50 241.01 207.11 C 238.12 203.44 234.26 200.70 231.17 197.22 M 252.22 221.72 C 256.10 223.03 259.94 224.98 264.11 225.03 C 265.56 225.19 266.55 224.00 267.51 223.12 C 263.64 221.59 260.01 219.40 255.88 218.63 C 253.81 218.19 253.17 220.40 252.22 221.72 M 280.65 234.19 C 284.69 236.77 287.95 240.43 292.16 242.73 C 294.88 243.94 297.27 241.54 299.11 239.87 C 295.05 236.91 291.50 233.07 286.79 231.14 C 284.26 230.34 282.56 233.03 280.65 234.19 M 300.74 261.76 C 296.98 267.96 296.84 275.96 291.81 281.49 C 294.67 281.55 297.47 282.15 300.29 282.62 C 302.48 277.09 304.78 271.61 306.91 266.05 C 307.12 263.77 306.98 261.48 306.98 259.20 C 304.54 258.92 302.02 259.46 300.74 261.76 M 247.72 331.02 C 252.45 330.98 257.18 331.00 261.91 331.00 C 270.15 321.72 278.33 312.38 286.57 303.10 C 283.31 303.06 280.03 302.94 276.88 302.04 C 267.08 311.63 257.58 321.50 247.72 331.02 Z" />
<path fill="#ffffff" opacity="1.00" d=" M 221.28 233.62 C 222.50 232.37 223.72 231.14 224.96 229.91 C 233.48 233.35 242.82 236.85 248.31 244.68 C 252.19 250.20 251.29 257.65 247.96 263.21 C 241.83 273.90 232.98 282.69 224.05 291.05 C 201.18 312.05 175.73 329.93 150.54 347.98 C 145.83 348.01 141.12 348.01 136.42 347.98 C 161.15 331.39 185.99 314.85 209.00 295.90 C 217.18 289.17 225.02 282.02 232.21 274.24 C 236.58 269.12 241.13 263.79 243.22 257.27 C 244.44 253.67 243.78 249.49 241.31 246.57 C 236.17 240.25 228.44 237.03 221.28 233.62 Z" />
</g>
</svg>
