<?xml version="1.0" encoding="UTF-8" ?>
<!DOCTYPE svg PUBLIC "-//W3C//DTD SVG 1.1//EN" "http://www.w3.org/Graphics/SVG/1.1/DTD/svg11.dtd">
<svg width="500pt" height="500pt" viewBox="0 0 500 500" version="1.1" xmlns="http://www.w3.org/2000/svg">
<g id="#ffffffff">
<path fill="#ffffff" opacity="1.00" d=" M 162.43 123.01 C 162.98 120.78 164.68 118.62 167.11 118.42 C 189.39 118.59 211.70 118.46 233.99 118.49 C 236.36 118.37 239.03 119.45 239.92 121.81 C 241.63 125.80 241.07 130.28 241.55 134.50 C 249.53 134.50 257.51 134.50 265.50 134.50 C 266.77 142.43 261.88 149.33 256.88 154.92 C 252.60 159.53 247.75 164.09 241.51 165.79 C 241.50 168.69 241.50 171.59 241.50 174.50 C 249.50 174.50 257.50 174.50 265.50 174.50 C 265.48 177.55 265.89 180.77 264.48 183.61 C 261.78 189.75 257.28 194.92 252.37 199.41 C 249.25 202.27 245.62 204.65 241.51 205.80 C 241.50 208.69 241.50 211.59 241.50 214.50 C 249.50 214.50 257.51 214.49 265.51 214.50 C 266.41 220.86 262.71 226.43 259.78 231.73 C 255.87 238.76 248.23 242.13 241.45 245.74 C 241.28 249.83 242.39 254.06 241.05 258.04 C 240.46 260.22 238.25 261.66 236.03 261.50 C 213.40 261.50 190.76 261.51 168.13 261.50 C 165.89 261.60 164.05 259.80 163.01 257.99 C 161.28 254.12 162.51 249.76 161.55 245.72 C 155.96 242.49 149.90 239.54 145.91 234.27 C 143.06 230.42 140.28 226.40 138.67 221.86 C 138.32 219.42 138.53 216.95 138.51 214.50 C 146.50 214.50 154.50 214.50 162.50 214.50 C 162.50 211.58 162.49 208.66 162.50 205.75 C 156.41 202.87 150.09 199.76 145.91 194.27 C 143.07 190.44 140.31 186.43 138.69 181.91 C 138.31 179.46 138.53 176.97 138.51 174.50 C 146.50 174.50 154.50 174.50 162.50 174.50 C 162.50 171.58 162.50 168.66 162.50 165.75 C 156.43 162.87 150.13 159.78 145.95 154.32 C 143.10 150.47 140.32 146.45 138.69 141.92 C 138.30 139.47 138.53 136.97 138.51 134.50 C 146.44 134.50 154.37 134.50 162.30 134.50 C 162.22 130.68 161.51 126.77 162.43 123.01 M 196.34 135.57 C 191.07 137.36 186.99 142.35 186.75 147.97 C 185.92 155.59 191.16 163.89 198.98 165.13 C 208.59 166.82 218.55 157.87 217.23 148.03 C 216.30 138.43 205.21 132.10 196.34 135.57 M 196.35 175.57 C 192.49 176.95 189.11 179.91 187.68 183.80 C 184.44 192.00 189.15 202.75 197.95 204.92 C 207.82 207.44 218.63 198.24 217.22 188.01 C 216.29 178.43 205.20 172.10 196.35 175.57 M 196.36 215.57 C 192.78 216.86 189.57 219.47 188.02 223.00 C 184.16 231.26 188.83 242.64 197.90 244.90 C 207.80 247.48 218.67 238.22 217.22 227.96 C 216.25 218.41 205.20 212.11 196.36 215.57 Z" />
<path fill="#ffffff" opacity="1.00" d=" M 244.82 171.51 C 275.22 171.48 305.62 171.52 336.02 171.48 C 338.72 171.39 341.80 172.31 342.90 175.04 C 350.16 190.11 356.30 205.73 361.67 221.56 C 362.91 224.60 362.44 227.90 362.50 231.09 C 362.52 250.74 362.46 270.39 362.53 290.05 C 363.19 295.12 357.75 298.74 353.16 298.72 C 349.02 298.51 344.60 298.98 340.84 296.88 C 340.09 294.59 339.12 292.36 338.51 290.03 C 338.41 287.50 338.96 285.01 339.30 282.53 C 338.03 282.50 336.77 282.48 335.51 282.46 C 331.25 271.58 326.80 260.76 321.72 250.25 C 320.38 246.83 316.28 246.16 313.06 246.07 C 305.12 245.90 297.18 246.05 289.25 246.00 C 285.77 236.73 281.96 227.58 278.06 218.48 C 300.81 218.53 323.55 218.47 346.30 218.51 C 342.41 206.81 338.24 195.20 334.37 183.50 C 312.37 183.52 290.36 183.48 268.36 183.52 C 269.59 180.16 269.77 176.58 269.80 173.04 C 261.66 172.78 253.52 172.58 245.39 172.42 C 245.24 172.19 244.96 171.74 244.82 171.51 M 331.24 236.21 C 328.01 237.30 325.27 239.81 324.16 243.07 C 322.44 248.78 325.61 255.59 331.19 257.79 C 338.71 260.29 347.45 252.82 346.17 245.00 C 344.86 238.60 337.54 234.03 331.24 236.21 Z" />
<path fill="#ffffff" opacity="1.00" d=" M 262.43 235.35 C 265.54 230.91 267.63 225.90 269.69 220.92 C 273.46 229.15 276.86 237.54 280.07 246.00 C 275.40 246.00 270.73 246.00 266.06 246.00 C 264.85 242.45 263.54 238.93 262.43 235.35 Z" />
<path fill="#ffffff" opacity="1.00" d=" M 150.27 244.66 C 152.84 246.09 155.66 247.20 157.92 249.09 C 159.23 253.15 157.87 257.65 159.48 261.67 C 160.64 264.12 163.21 266.11 166.01 266.00 C 176.43 266.01 186.87 266.00 197.30 266.00 C 192.21 279.20 188.06 292.74 183.43 306.10 C 182.40 311.51 183.39 317.10 182.88 322.59 C 177.48 322.41 172.07 322.55 166.67 322.49 C 166.93 327.30 168.27 333.66 163.78 336.99 C 159.95 339.27 155.26 338.38 151.03 338.45 C 148.21 338.18 143.68 337.42 143.50 333.86 C 143.53 311.04 143.42 288.22 143.56 265.41 C 145.47 258.40 148.17 251.62 150.27 244.66 M 167.15 276.24 C 163.97 277.34 161.28 279.82 160.18 283.03 C 158.43 288.75 161.59 295.58 167.18 297.78 C 174.70 300.31 183.46 292.82 182.17 284.99 C 180.85 278.56 173.46 273.99 167.15 276.24 Z" />
<path fill="#ffffff" opacity="1.00" d=" M 243.76 254.52 C 265.50 254.46 287.24 254.53 308.98 254.48 C 311.72 254.38 314.83 255.31 315.93 258.09 C 322.41 271.44 327.84 285.29 332.87 299.24 C 333.91 302.76 335.74 306.18 335.53 309.94 C 335.43 331.83 335.60 353.72 335.44 375.61 C 333.89 379.79 329.24 382.08 324.94 381.71 C 320.93 381.32 315.95 382.25 313.01 378.82 C 310.42 374.86 311.71 369.85 312.30 365.51 C 280.09 365.49 247.88 365.52 215.67 365.49 C 215.94 370.30 217.28 376.68 212.76 380.01 C 208.94 382.26 204.28 381.38 200.06 381.45 C 197.33 381.16 193.51 380.61 192.56 377.58 C 192.40 355.39 192.57 333.19 192.47 311.00 C 192.43 309.36 192.53 307.72 193.12 306.18 C 197.68 292.74 201.95 279.19 207.33 266.05 C 216.54 265.70 225.75 266.60 234.96 266.21 C 237.39 265.91 240.29 265.97 242.08 264.02 C 244.14 261.32 243.69 257.70 243.76 254.52 M 220.70 266.66 C 216.57 278.23 212.66 289.88 208.70 301.51 C 245.57 301.49 282.43 301.49 319.30 301.51 C 315.41 289.81 311.24 278.20 307.37 266.49 C 284.56 266.52 261.76 266.49 238.95 266.51 C 232.87 266.90 226.78 266.83 220.70 266.66 M 216.16 319.23 C 212.98 320.33 210.28 322.81 209.18 326.02 C 207.42 331.73 210.59 338.57 216.17 340.78 C 223.70 343.31 232.46 335.82 231.17 327.99 C 229.85 321.57 222.47 316.99 216.16 319.23 M 304.17 319.23 C 300.97 320.34 298.25 322.84 297.16 326.08 C 295.45 331.78 298.60 338.57 304.16 340.78 C 311.68 343.31 320.43 335.86 319.17 328.02 C 317.88 321.59 310.49 316.99 304.17 319.23 Z" />
</g>
</svg>
