<?xml version="1.0" encoding="UTF-8" ?>
<!DOCTYPE svg PUBLIC "-//W3C//DTD SVG 1.1//EN" "http://www.w3.org/Graphics/SVG/1.1/DTD/svg11.dtd">
<svg width="500pt" height="500pt" viewBox="0 0 500 500" version="1.1" xmlns="http://www.w3.org/2000/svg">
<g id="#ffffffff">
<path fill="#ffffff" opacity="1.00" d=" M 186.04 151.10 C 188.38 146.91 193.97 146.63 198.23 146.80 C 240.97 151.12 283.71 155.48 326.46 159.79 C 330.98 160.32 335.95 160.21 339.82 163.00 C 342.48 164.85 342.90 168.28 344.05 171.08 C 351.02 191.72 356.93 212.72 361.91 233.93 C 362.81 238.20 364.13 242.50 363.66 246.90 C 361.40 268.19 359.01 289.46 356.82 310.75 C 356.02 310.40 354.44 309.69 353.65 309.34 C 354.55 311.13 355.59 312.87 356.24 314.79 C 356.15 317.76 355.64 320.70 355.37 323.66 C 352.34 322.65 349.32 321.64 346.30 320.65 C 349.10 324.38 351.80 328.18 354.54 331.96 C 354.29 333.75 354.08 335.55 353.89 337.36 C 350.58 336.07 347.25 334.86 343.94 333.60 C 344.46 335.06 344.97 336.53 345.49 338.00 C 337.40 338.00 329.31 338.00 321.23 338.00 C 321.47 337.45 321.94 336.36 322.17 335.81 C 320.65 336.54 319.13 337.29 317.61 338.02 C 318.01 334.03 319.01 330.15 320.16 326.32 C 272.20 321.45 224.23 316.62 176.27 311.71 C 176.01 318.05 176.42 325.13 172.40 330.48 C 169.32 333.95 164.24 334.24 159.92 333.94 C 153.96 333.45 147.53 333.15 142.42 329.70 C 140.48 328.44 139.63 326.09 140.03 323.87 C 143.36 290.96 146.84 258.07 150.20 225.17 C 150.33 222.54 151.88 220.32 152.88 217.97 C 163.38 195.42 172.85 172.27 186.04 151.10 M 198.96 165.22 C 191.17 181.90 183.43 198.62 175.73 215.35 C 230.76 220.87 285.78 226.49 340.81 232.06 C 336.70 214.15 332.66 196.23 328.53 178.33 C 296.89 175.21 265.27 172.01 233.65 168.71 C 235.12 171.18 236.48 173.70 237.89 176.20 C 241.46 176.47 245.03 176.54 248.60 176.51 C 249.47 177.64 250.32 178.83 251.61 179.51 C 253.27 184.21 254.72 188.98 256.44 193.66 C 254.66 193.34 252.89 193.02 251.12 192.70 C 252.27 197.52 253.21 202.39 254.53 207.17 C 250.07 200.65 246.10 193.80 241.84 187.15 C 244.21 187.62 246.59 188.08 248.97 188.54 C 247.94 186.38 247.06 184.14 245.88 182.05 C 241.96 180.82 237.73 180.72 233.71 179.87 C 234.14 181.41 234.56 182.96 234.98 184.52 C 234.28 184.37 232.89 184.07 232.20 183.92 C 233.60 186.69 235.00 189.47 236.37 192.26 C 235.64 192.14 234.18 191.90 233.45 191.78 C 234.69 195.63 235.91 199.48 237.10 203.34 C 233.20 199.25 229.77 194.73 226.07 190.47 C 226.95 190.57 228.71 190.79 229.60 190.89 C 227.03 188.09 224.67 185.11 222.32 182.13 C 223.33 182.29 225.34 182.62 226.35 182.79 C 223.97 179.60 221.38 176.56 218.96 173.40 C 222.85 174.22 226.74 175.06 230.66 175.77 C 228.46 173.60 228.62 170.36 226.75 168.02 C 217.48 167.17 208.22 166.19 198.96 165.22 M 183.19 243.14 C 178.96 244.33 175.21 247.26 173.10 251.13 C 167.73 260.91 174.50 275.54 186.00 276.46 C 195.11 276.65 204.57 269.48 205.26 260.05 C 205.69 249.11 193.70 239.79 183.19 243.14 M 315.24 256.19 C 310.45 257.30 306.08 260.48 303.96 264.97 C 299.05 274.63 305.68 288.66 316.81 289.71 C 326.23 290.16 335.77 282.59 336.48 272.97 C 336.43 262.55 325.47 253.60 315.24 256.19 Z" />
<path fill="#ffffff" opacity="1.00" d=" M 140.00 341.00 C 213.67 341.00 287.33 341.00 361.00 341.00 C 361.00 345.00 361.00 349.00 361.00 353.00 C 287.33 353.00 213.67 353.00 140.00 353.00 C 140.00 349.00 140.00 345.00 140.00 341.00 Z" />
</g>
</svg>
