<?xml version="1.0" encoding="UTF-8" ?>
<!DOCTYPE svg PUBLIC "-//W3C//DTD SVG 1.1//EN" "http://www.w3.org/Graphics/SVG/1.1/DTD/svg11.dtd">
<svg width="500pt" height="500pt" viewBox="0 0 500 500" version="1.1" xmlns="http://www.w3.org/2000/svg">
<g id="#ffffffff">
<path fill="#ffffff" opacity="1.00" d=" M 160.42 156.13 C 161.84 152.95 165.74 151.99 168.92 151.99 C 203.98 152.00 239.03 152.01 274.09 151.99 C 277.10 151.98 280.67 153.14 281.77 156.25 C 287.44 167.89 292.35 179.89 296.94 192.00 C 291.56 192.00 286.18 192.00 280.80 192.00 C 277.86 183.32 274.79 174.69 271.88 166.00 C 238.39 166.03 204.90 165.93 171.42 166.05 C 166.94 179.39 162.31 192.69 157.70 205.99 C 173.39 206.01 189.08 206.00 204.76 206.00 C 197.06 224.30 191.17 243.30 184.85 262.10 C 184.61 268.05 184.83 274.03 184.76 280.00 C 178.41 280.00 172.06 280.00 165.72 280.00 C 166.26 285.46 167.52 292.75 162.54 296.56 C 157.93 299.17 152.29 298.57 147.20 298.27 C 144.07 297.89 139.20 297.03 139.01 293.05 C 138.98 267.36 139.03 241.67 138.98 215.98 C 138.93 214.56 139.15 213.16 139.65 211.83 C 146.23 193.15 151.70 173.98 160.42 156.13 M 166.41 226.56 C 163.38 227.51 160.92 229.74 159.21 232.36 C 154.69 240.19 160.74 251.95 169.99 252.09 C 177.26 251.98 184.08 245.32 183.99 237.97 C 183.15 229.97 174.11 223.86 166.41 226.56 Z" />
<path fill="#ffffff" opacity="1.00" d=" M 217.02 205.92 C 218.28 202.69 222.03 201.68 225.17 201.50 C 260.40 201.49 295.63 201.49 330.85 201.51 C 333.74 201.59 337.12 202.63 338.30 205.54 C 346.08 221.66 352.66 238.34 358.65 255.19 C 359.58 258.42 361.20 261.56 361.02 265.01 C 360.94 290.42 361.09 315.83 360.94 341.24 C 359.16 344.98 355.34 348.08 351.03 347.99 C 346.07 347.83 340.52 348.84 336.12 345.98 C 331.72 341.76 333.44 335.08 334.18 329.75 C 296.94 329.76 259.70 329.75 222.46 329.76 C 222.69 334.93 223.91 340.97 220.27 345.29 C 216.04 348.93 210.02 347.90 204.89 347.93 C 201.39 347.58 196.19 346.93 195.55 342.64 C 195.41 317.09 195.56 291.53 195.48 265.97 C 195.38 264.31 195.81 262.71 196.38 261.17 C 202.92 242.64 208.29 223.60 217.02 205.92 M 228.15 215.47 C 223.61 228.83 218.97 242.15 214.42 255.49 C 257.01 255.50 299.61 255.50 342.20 255.49 C 337.68 242.14 333.09 228.80 328.45 215.49 C 295.02 215.50 261.59 215.53 228.15 215.47 M 223.21 276.09 C 219.66 277.18 216.65 279.87 215.22 283.30 C 211.80 291.27 218.31 301.78 227.12 301.77 C 234.27 301.04 241.14 294.62 240.52 287.11 C 239.64 279.30 230.67 273.54 223.21 276.09 M 323.39 276.69 C 320.59 277.98 318.28 280.29 317.06 283.13 C 313.43 291.14 320.10 301.96 329.05 301.74 C 336.14 300.95 342.90 294.54 342.27 287.09 C 341.31 278.67 331.06 272.83 323.39 276.69 Z" />
</g>
</svg>
