<?xml version="1.0" encoding="UTF-8" ?>
<!DOCTYPE svg PUBLIC "-//W3C//DTD SVG 1.1//EN" "http://www.w3.org/Graphics/SVG/1.1/DTD/svg11.dtd">
<svg width="500pt" height="500pt" viewBox="0 0 500 500" version="1.1" xmlns="http://www.w3.org/2000/svg">
<g id="#ffffffff">
<path fill="#ffffff" opacity="1.00" d=" M 240.38 150.34 C 242.57 146.53 246.18 142.60 250.99 143.00 C 255.78 142.41 259.86 145.87 262.02 149.83 C 298.07 213.89 334.17 277.92 370.20 341.99 C 371.92 344.50 372.00 347.54 371.73 350.48 C 369.88 354.09 366.41 357.55 362.01 357.00 C 288.31 356.98 214.61 357.00 140.91 356.85 C 138.44 356.94 136.04 356.41 133.79 355.41 C 132.75 354.27 131.66 353.17 130.52 352.14 C 128.67 349.01 128.73 344.94 130.61 341.84 C 167.08 277.94 203.81 214.18 240.38 150.34 M 251.31 168.36 C 218.86 224.95 186.52 281.59 153.94 338.11 C 218.36 338.09 282.78 338.45 347.20 338.79 C 315.27 281.96 283.14 225.25 251.31 168.36 Z" />
<path fill="#ffffff" opacity="1.00" d=" M 225.29 237.88 C 227.19 237.22 229.21 237.04 231.20 237.44 C 248.52 240.09 265.84 242.68 283.17 245.31 C 285.21 245.60 287.72 246.39 288.13 248.74 C 290.81 257.18 292.83 265.82 294.68 274.48 C 295.04 276.57 295.67 278.69 295.34 280.83 C 293.50 293.25 291.71 305.67 289.85 318.08 C 289.81 320.47 287.34 322.03 285.19 322.26 C 282.20 322.30 279.06 321.87 276.44 320.36 C 274.04 318.02 275.60 314.32 276.28 311.56 C 256.95 308.56 237.59 305.77 218.27 302.72 C 218.34 305.91 218.08 310.86 214.00 311.34 C 210.23 311.39 205.72 311.19 203.12 308.04 C 205.07 295.05 206.96 282.04 208.85 269.04 C 209.21 265.62 211.39 262.82 212.82 259.80 C 216.58 252.28 220.57 244.85 225.29 237.88 M 229.87 244.78 C 226.59 251.26 223.13 257.65 219.80 264.12 C 241.91 267.39 264.00 270.81 286.11 274.10 C 284.76 266.93 283.38 259.78 281.96 252.63 C 264.59 250.07 247.23 247.40 229.87 244.78 M 221.47 275.78 C 216.50 277.24 215.95 284.28 219.79 287.26 C 223.21 290.42 228.94 287.95 230.48 283.98 C 232.33 279.00 226.16 273.68 221.47 275.78 M 274.46 283.71 C 269.23 285.25 268.90 292.92 273.23 295.68 C 277.37 298.57 283.74 294.82 283.81 289.93 C 283.43 285.62 278.63 282.09 274.46 283.71 Z" />
<path fill="#ffffff" opacity="1.00" d=" M 295.34 301.38 C 296.24 297.03 297.03 292.67 297.83 288.30 C 298.77 288.22 300.65 288.07 301.59 287.99 C 300.70 291.23 299.86 294.48 299.07 297.75 C 299.92 297.75 301.62 297.74 302.46 297.74 C 300.37 303.39 298.84 309.26 296.37 314.77 C 296.83 310.38 297.35 305.99 297.85 301.60 C 297.23 301.55 295.97 301.44 295.34 301.38 Z" />
<path fill="#ffffff" opacity="1.00" d=" M 311.46 290.13 C 312.61 290.60 313.76 291.07 314.92 291.55 C 312.82 294.14 310.69 296.73 308.45 299.21 C 309.52 299.68 310.60 300.17 311.67 300.68 C 307.30 305.05 303.02 309.52 298.50 313.74 C 300.72 309.83 303.17 306.06 305.61 302.28 C 305.05 301.96 303.94 301.32 303.38 301.00 C 306.06 297.36 308.84 293.81 311.46 290.13 Z" />
<path fill="#ffffff" opacity="1.00" d=" M 308.14 306.86 C 312.13 304.59 316.14 302.35 320.16 300.13 C 321.01 301.06 321.87 301.98 322.74 302.90 C 319.71 304.43 316.64 305.87 313.58 307.32 C 314.36 308.19 315.16 309.06 315.96 309.93 C 310.29 311.85 304.86 314.62 299.02 315.96 C 302.57 313.58 306.15 311.27 309.67 308.86 C 309.29 308.36 308.52 307.36 308.14 306.86 Z" />
<path fill="#ffffff" opacity="1.00" d=" M 182.96 318.49 C 211.92 318.10 240.88 317.17 269.86 317.04 C 274.27 320.65 278.09 325.31 283.51 327.45 C 287.12 328.89 290.21 325.94 293.00 324.09 C 295.35 322.57 296.07 319.78 296.61 317.22 C 304.45 317.64 312.28 318.15 320.13 318.57 C 322.19 318.73 324.71 319.00 325.93 320.92 C 326.08 323.28 325.98 325.65 326.04 328.02 C 324.59 329.08 322.98 330.13 321.10 329.99 C 273.36 330.01 225.62 330.01 177.88 329.99 C 176.00 330.12 174.40 329.07 172.95 328.03 C 173.02 325.60 173.02 323.17 172.95 320.74 C 175.64 318.21 179.53 318.49 182.96 318.49 Z" />
</g>
</svg>
