<?xml version="1.0" encoding="UTF-8" ?>
<!DOCTYPE svg PUBLIC "-//W3C//DTD SVG 1.1//EN" "http://www.w3.org/Graphics/SVG/1.1/DTD/svg11.dtd">
<svg width="500pt" height="500pt" viewBox="0 0 500 500" version="1.1" xmlns="http://www.w3.org/2000/svg">
<g id="#ffffffff">
<path fill="#ffffff" opacity="1.00" d=" M 295.65 173.63 C 304.34 163.31 322.65 165.13 329.99 176.15 C 335.05 183.18 335.08 193.65 329.31 200.29 C 324.51 206.04 316.77 208.29 309.50 207.87 C 315.64 222.76 322.81 237.23 328.89 252.15 C 330.62 256.92 332.87 261.55 333.70 266.60 C 338.67 268.17 343.74 269.96 349.01 269.96 C 349.52 268.38 350.02 266.78 350.53 265.20 C 352.17 265.24 353.83 265.27 355.43 265.71 C 368.41 269.00 381.35 272.42 394.20 276.18 C 394.02 278.43 392.74 280.47 390.65 281.42 C 383.95 284.96 376.29 285.96 368.96 287.42 C 363.63 287.00 357.87 287.50 353.04 284.82 C 349.27 283.08 350.66 276.95 346.53 275.78 C 341.32 274.32 336.05 273.00 330.71 272.13 C 329.28 274.93 325.80 275.07 323.08 274.61 C 320.99 273.59 320.48 271.08 319.54 269.17 C 315.44 267.64 311.06 267.23 306.85 266.15 C 301.36 264.86 295.94 263.26 290.40 262.17 C 291.67 264.39 293.98 265.64 296.03 267.03 C 301.84 270.78 308.18 273.89 313.14 278.81 C 315.77 281.53 318.05 285.12 317.78 289.06 C 317.70 292.22 316.84 295.30 316.22 298.39 C 313.65 309.61 310.95 320.81 308.10 331.96 C 304.91 334.83 300.00 334.24 296.11 333.50 C 291.60 332.45 289.96 327.27 290.83 323.17 C 293.38 312.59 295.06 301.83 296.83 291.10 C 289.68 285.23 281.92 280.15 274.25 275.01 C 273.93 275.49 273.30 276.46 272.98 276.95 C 272.82 287.02 273.40 297.07 273.26 307.14 C 266.42 295.05 259.54 282.97 252.81 270.82 C 251.96 264.93 252.82 258.86 252.84 252.90 C 248.97 251.55 245.00 250.47 240.95 249.83 C 237.67 244.22 234.54 238.52 231.33 232.87 C 236.90 223.67 242.15 214.22 248.73 205.69 C 250.18 203.97 251.63 201.75 254.10 201.56 C 262.69 200.65 271.34 201.16 279.96 200.96 C 285.33 200.60 290.71 200.79 296.09 200.75 C 289.72 193.43 288.14 180.72 295.65 173.63 M 260.07 219.25 C 255.54 227.35 250.94 235.42 246.45 243.55 C 249.29 244.25 252.06 245.52 255.02 245.55 C 262.18 237.92 266.23 227.96 272.10 219.37 C 268.09 219.16 264.08 219.27 260.07 219.25 M 303.53 240.14 C 300.35 245.53 296.49 250.53 293.70 256.15 C 300.36 257.79 306.90 260.01 313.68 261.15 C 311.14 253.79 306.98 247.10 303.53 240.14 Z" />
<path fill="#ffffff" opacity="1.00" d=" M 186.72 185.71 C 189.59 184.24 193.13 185.37 195.36 187.48 C 197.15 189.86 198.49 192.53 199.98 195.10 C 223.93 237.83 248.04 280.46 272.01 323.17 C 274.62 326.94 272.17 331.80 268.16 333.25 C 249.12 333.55 230.08 333.08 211.04 333.15 C 178.35 332.80 145.66 333.04 112.97 332.93 C 110.16 333.02 106.75 331.89 105.80 328.96 C 104.42 326.33 105.83 323.48 107.16 321.17 C 131.36 278.83 155.70 236.56 179.93 194.24 C 181.88 191.22 183.11 187.18 186.72 185.71 M 121.54 320.58 C 166.62 321.02 211.71 321.04 256.81 321.08 C 234.38 281.38 212.05 241.63 189.69 201.89 C 166.87 241.39 144.50 281.16 121.54 320.58 Z" />
<path fill="#ffffff" opacity="1.00" d=" M 188.56 222.09 C 188.91 222.09 189.60 222.10 189.95 222.10 C 193.48 229.79 196.05 237.88 198.59 245.94 C 192.36 246.39 186.10 246.73 179.93 245.47 C 182.85 237.69 185.47 229.80 188.56 222.09 Z" />
<path fill="#ffffff" opacity="1.00" d=" M 176.36 255.94 C 184.93 256.83 193.55 257.08 202.11 255.82 C 203.54 259.44 204.83 263.12 206.21 266.76 C 195.45 270.41 183.44 270.10 172.54 267.20 C 173.49 263.34 175.35 259.78 176.36 255.94 Z" />
<path fill="#ffffff" opacity="1.00" d=" M 190.07 279.76 C 196.69 279.89 203.16 278.34 209.61 277.11 C 210.28 280.49 213.63 285.09 210.11 287.85 C 204.76 291.21 198.16 291.46 192.04 291.98 C 184.22 292.02 175.79 292.08 168.74 288.27 C 164.66 285.62 168.15 280.69 168.81 277.14 C 175.83 278.47 182.86 280.22 190.07 279.76 Z" />
<path fill="#ffffff" opacity="1.00" d=" M 149.58 288.54 C 153.90 285.55 158.69 283.36 163.38 281.05 C 162.26 284.83 163.18 289.20 166.95 291.08 C 175.46 295.74 185.68 296.22 195.17 295.57 C 201.36 294.90 207.97 293.95 213.04 290.06 C 215.82 287.94 216.24 284.20 215.19 281.06 C 220.89 284.17 227.62 286.03 232.02 291.05 C 227.75 295.10 222.08 297.12 216.98 299.88 C 208.53 304.04 200.43 309.00 191.60 312.35 C 188.71 313.69 185.74 311.87 183.07 310.86 C 171.04 305.36 159.35 299.12 147.88 292.53 C 146.28 290.85 148.27 289.49 149.58 288.54 M 167.28 298.30 C 169.58 300.83 173.27 301.04 176.09 302.78 C 180.58 304.82 185.08 307.76 190.09 307.95 C 196.77 305.90 202.97 302.53 209.09 299.21 C 202.48 301.85 196.01 305.67 188.82 306.26 C 181.36 304.55 174.31 301.15 167.28 298.30 Z" />
</g>
</svg>
