<?xml version="1.0" encoding="UTF-8" ?>
<!DOCTYPE svg PUBLIC "-//W3C//DTD SVG 1.1//EN" "http://www.w3.org/Graphics/SVG/1.1/DTD/svg11.dtd">
<svg width="500pt" height="500pt" viewBox="0 0 500 500" version="1.1" xmlns="http://www.w3.org/2000/svg">
<g id="#ffffffff">
<path fill="#ffffff" opacity="1.00" d=" M 138.00 153.00 C 144.67 153.00 151.33 153.00 158.00 153.00 C 158.00 159.35 158.00 165.70 158.00 172.06 C 181.59 172.08 205.19 172.02 228.78 172.09 C 234.35 166.51 239.92 160.94 245.49 155.37 C 248.32 152.31 253.78 152.39 256.62 155.41 C 262.09 161.01 267.67 166.52 273.20 172.07 C 296.80 172.02 320.40 172.06 344.00 172.05 C 344.00 165.70 344.00 159.35 344.00 153.00 C 350.67 153.00 357.33 153.00 364.00 153.00 C 364.00 159.35 364.00 165.70 364.00 172.05 C 368.33 172.11 372.66 171.93 376.99 172.11 C 378.29 172.18 379.15 173.67 378.94 174.89 C 378.98 187.70 378.92 200.52 378.96 213.33 C 378.61 213.72 377.89 214.52 377.53 214.92 C 372.68 214.99 367.84 214.94 363.00 214.95 C 363.00 220.66 363.00 226.37 363.00 232.07 C 367.36 232.14 371.72 231.94 376.07 232.14 C 376.74 232.62 377.38 233.14 377.98 233.71 C 377.86 246.87 377.93 260.03 377.95 273.20 C 377.37 273.78 376.79 274.36 376.22 274.95 C 371.81 274.91 367.40 274.93 363.00 274.93 C 363.00 299.28 363.00 323.64 363.00 348.00 C 356.33 348.00 349.67 348.00 343.00 348.00 C 343.00 323.64 343.00 299.28 343.00 274.93 C 321.98 274.94 300.97 274.90 279.95 274.95 C 278.50 275.09 277.12 274.74 275.86 274.04 C 269.19 280.66 262.84 287.60 256.00 294.04 C 253.24 296.37 248.83 296.39 246.05 294.08 C 238.98 287.57 232.68 280.26 225.64 273.73 L 224.46 274.84 C 201.99 275.10 179.49 274.88 157.00 274.95 C 157.00 299.30 157.00 323.65 157.00 348.00 C 150.33 348.00 143.67 348.00 137.00 348.00 C 137.00 323.65 137.00 299.30 137.00 274.95 C 132.49 274.94 127.98 274.99 123.48 274.92 C 123.12 274.52 122.39 273.72 122.03 273.32 C 122.05 260.02 122.07 246.71 122.02 233.40 C 122.48 233.08 123.39 232.43 123.85 232.11 C 128.23 231.94 132.62 232.11 137.00 232.05 C 137.00 226.35 137.00 220.65 137.00 214.95 C 132.88 214.97 128.75 214.87 124.63 215.05 C 124.01 214.13 122.68 213.46 123.05 212.14 C 123.03 199.74 123.07 187.35 123.03 174.96 C 122.81 173.67 123.52 171.96 125.06 172.07 C 129.37 171.99 133.68 172.10 138.00 172.06 C 138.00 165.70 138.00 159.35 138.00 153.00 M 249.48 166.54 C 247.43 167.27 246.11 169.10 244.58 170.54 C 229.42 185.74 214.22 200.91 199.04 216.09 C 197.39 217.78 195.58 219.34 194.19 221.26 C 192.55 223.59 192.95 227.02 194.95 229.02 C 212.09 246.53 229.31 263.96 246.52 281.41 C 248.96 284.52 253.99 284.56 256.44 281.44 C 273.67 263.98 290.92 246.53 308.07 229.00 C 310.69 226.42 310.22 221.89 307.45 219.60 C 290.47 202.56 273.42 185.59 256.44 168.55 C 254.75 166.62 251.95 165.58 249.48 166.54 M 125.00 174.00 C 125.00 186.89 124.99 199.78 125.00 212.68 C 135.64 199.82 146.17 186.88 156.78 174.01 C 146.19 173.98 135.59 174.00 125.00 174.00 M 177.23 174.00 C 166.89 186.99 156.59 200.01 146.23 212.98 C 152.41 213.02 158.59 212.99 164.77 213.01 C 175.44 200.01 186.09 186.99 196.78 174.01 C 190.26 173.98 183.75 174.00 177.23 174.00 M 217.23 174.00 C 206.89 187.07 196.41 200.04 186.17 213.19 C 187.45 213.08 188.56 212.48 189.39 211.51 C 201.85 198.98 214.38 186.51 226.86 174.00 C 223.65 173.99 220.44 173.99 217.23 174.00 M 275.30 174.05 C 275.25 177.35 278.39 172.69 275.30 174.05 M 297.23 174.00 C 294.00 178.16 290.54 182.15 287.51 186.46 C 291.08 189.85 294.49 193.40 298.00 196.86 C 304.29 189.26 310.50 181.61 316.78 174.01 C 310.26 173.98 303.75 174.00 297.23 174.00 M 337.23 174.00 C 328.05 185.50 318.96 197.07 309.73 208.54 C 311.18 210.05 312.65 211.53 314.14 213.01 C 317.68 213.00 321.22 213.00 324.77 213.00 C 335.44 200.01 346.09 186.99 356.78 174.01 C 350.26 173.98 343.75 174.00 337.23 174.00 M 346.23 212.98 C 356.48 213.02 366.74 213.00 377.00 213.00 C 377.00 200.11 377.01 187.22 377.00 174.33 C 366.70 187.17 356.52 200.12 346.23 212.98 M 157.00 214.95 C 157.00 220.65 157.00 226.35 157.00 232.05 C 166.21 232.07 175.43 232.02 184.64 232.08 C 182.40 229.93 179.86 227.35 180.20 223.96 C 179.87 219.96 183.47 217.50 185.91 214.95 C 176.27 214.95 166.64 214.95 157.00 214.95 M 316.09 214.95 C 318.53 217.50 322.14 219.97 321.80 223.98 C 322.14 227.38 319.58 229.95 317.34 232.10 C 325.89 232.03 334.45 232.09 343.00 232.07 C 343.00 226.37 343.00 220.66 343.00 214.95 C 334.03 214.95 325.06 214.95 316.09 214.95 M 124.00 234.00 C 124.00 246.89 123.98 259.79 124.00 272.68 C 134.64 259.82 145.17 246.88 155.78 234.01 C 145.19 233.98 134.59 234.00 124.00 234.00 M 176.23 234.00 C 165.89 246.99 155.59 260.01 145.23 272.98 C 151.41 273.02 157.59 272.99 163.77 273.00 C 173.06 261.83 182.06 250.40 191.54 239.39 C 189.70 237.62 187.89 235.80 186.08 233.99 C 182.80 233.99 179.51 233.99 176.23 234.00 M 336.23 234.00 C 325.89 246.99 315.59 260.01 305.23 272.98 C 311.41 273.03 317.59 272.99 323.77 273.00 C 334.44 260.01 345.09 246.99 355.78 234.01 C 349.26 233.98 342.75 234.00 336.23 234.00 M 345.23 272.98 C 355.48 273.03 365.74 272.99 376.00 273.00 C 376.00 260.11 376.01 247.22 376.00 234.33 C 365.69 247.17 355.52 260.12 345.23 272.98 M 277.49 273.00 C 279.58 273.00 281.67 273.00 283.77 273.01 C 294.01 260.43 304.40 247.98 314.58 235.37 C 302.20 247.89 289.87 260.47 277.49 273.00 M 202.64 250.54 C 197.39 258.41 190.96 265.45 185.23 272.98 C 191.41 273.03 197.59 272.99 203.77 273.00 C 206.95 269.14 210.07 265.23 213.35 261.45 C 209.72 257.88 205.92 254.44 202.64 250.54 Z" />
<path fill="#ffffff" opacity="1.00" d=" M 248.45 172.70 C 250.57 171.46 253.63 171.63 255.45 173.38 C 270.28 187.96 285.05 202.60 299.73 217.33 C 301.50 219.25 304.23 220.97 304.04 223.94 C 304.40 226.16 302.98 228.01 301.46 229.43 C 285.97 244.69 270.98 260.44 255.44 275.65 C 253.37 277.62 249.59 277.61 247.53 275.63 C 231.85 260.24 216.67 244.35 201.04 228.92 C 198.86 227.13 198.36 223.92 199.51 221.43 C 200.53 219.84 202.02 218.62 203.32 217.28 C 218.31 202.37 233.15 187.26 248.45 172.70 M 219.59 214.50 C 216.52 217.90 217.19 222.94 217.41 227.16 C 217.86 229.97 219.31 234.22 222.85 233.80 C 225.22 233.57 226.04 230.96 225.78 228.91 C 223.16 229.24 224.90 233.20 222.08 233.32 C 221.95 226.79 221.96 220.27 222.07 213.75 C 224.74 214.27 223.36 218.07 225.66 219.20 C 225.74 217.19 225.70 215.18 225.60 213.17 C 223.58 213.41 221.06 212.71 219.59 214.50 M 226.99 213.21 C 228.74 216.52 227.76 220.35 228.00 223.93 C 227.73 227.09 228.83 230.62 226.89 233.42 C 230.20 234.54 233.77 233.87 237.19 233.87 C 237.45 232.29 237.68 230.71 237.90 229.13 C 235.12 229.11 236.27 233.96 233.01 233.16 C 233.00 227.75 232.99 222.35 232.99 216.94 C 232.97 215.71 233.35 214.60 234.14 213.62 C 231.88 212.59 229.37 213.03 226.99 213.21 M 240.16 217.32 C 238.45 222.85 238.48 230.00 243.30 234.03 C 245.05 227.61 243.28 220.70 244.20 214.12 C 244.63 214.00 245.49 213.77 245.92 213.66 C 245.80 220.50 246.58 227.45 245.48 234.23 C 249.57 232.65 250.82 228.01 250.78 224.06 C 250.95 220.43 250.28 216.13 247.22 213.80 C 244.47 211.82 240.88 214.45 240.16 217.32 M 254.22 214.28 C 252.89 215.92 253.14 218.18 253.36 220.13 C 254.08 224.82 258.39 228.36 258.02 233.29 C 254.81 233.20 255.86 228.75 253.23 227.90 C 253.36 229.85 253.62 231.78 253.90 233.71 C 256.23 233.63 259.52 234.50 260.40 231.51 C 262.70 224.88 256.03 219.94 255.87 213.62 C 258.94 214.04 257.94 218.53 260.86 218.97 C 260.65 217.07 260.40 215.18 260.12 213.30 C 258.16 213.75 255.58 212.36 254.22 214.28 M 262.33 212.98 C 263.43 216.54 262.89 220.30 263.00 223.96 C 262.87 227.06 263.53 230.34 262.14 233.26 C 265.18 234.76 269.36 234.06 272.73 233.50 C 276.89 234.44 283.26 235.00 284.90 229.90 C 286.19 225.38 286.45 220.02 284.22 215.75 C 282.05 212.09 277.25 213.03 273.70 213.07 L 272.97 215.08 C 272.47 214.38 271.97 213.68 271.47 212.98 C 268.42 213.01 265.37 213.01 262.33 212.98 Z" />
<path fill="#ffffff" opacity="1.00" d=" M 268.01 213.80 C 271.33 212.91 270.24 219.00 273.25 217.38 L 272.15 215.93 C 272.81 215.47 273.47 215.01 274.13 214.54 C 273.85 220.61 274.07 226.69 274.00 232.77 C 273.18 231.66 272.05 230.50 272.58 228.94 C 270.43 229.86 271.00 233.71 268.01 233.16 C 268.00 230.03 267.98 226.90 268.02 223.78 C 269.71 223.68 270.11 225.69 271.60 225.91 C 272.15 224.24 272.60 221.90 270.83 220.83 C 270.46 222.38 269.52 223.16 268.01 223.15 C 267.99 220.04 267.99 216.92 268.01 213.80 Z" />
<path fill="#ffffff" opacity="1.00" d=" M 279.01 213.78 C 279.45 213.93 280.33 214.24 280.77 214.40 C 281.23 220.43 281.04 226.56 280.86 232.62 C 280.40 232.77 279.47 233.06 279.01 233.20 C 278.99 226.72 278.99 220.25 279.01 213.78 Z" />
</g>
<g id="#c8c8c84c">
<path fill="#c8c8c8" opacity="0.30" d=" M 275.30 174.05 C 278.39 172.69 275.25 177.35 275.30 174.05 Z" />
</g>
</svg>
