<?xml version="1.0" encoding="UTF-8" ?>
<!DOCTYPE svg PUBLIC "-//W3C//DTD SVG 1.1//EN" "http://www.w3.org/Graphics/SVG/1.1/DTD/svg11.dtd">
<svg width="500pt" height="500pt" viewBox="0 0 500 500" version="1.1" xmlns="http://www.w3.org/2000/svg">
<g id="#ffffffff">
<path fill="#ffffff" opacity="1.00" d=" M 235.06 148.10 C 236.17 145.40 239.37 144.57 242.02 144.50 C 272.62 144.51 303.23 144.48 333.83 144.51 C 336.31 144.53 338.93 145.63 339.91 148.06 C 346.42 161.45 351.86 175.35 356.91 189.35 C 357.94 192.83 359.76 196.22 359.52 199.95 C 359.43 221.87 359.60 243.81 359.44 265.73 C 357.77 269.77 353.32 272.03 349.07 271.73 C 345.29 271.46 341.25 271.87 337.84 269.86 C 337.10 267.64 336.17 265.47 335.54 263.22 C 335.37 260.63 335.96 258.07 336.30 255.53 C 335.03 255.50 333.77 255.48 332.51 255.46 C 328.25 244.58 323.80 233.76 318.71 223.24 C 317.37 219.83 313.28 219.16 310.05 219.07 C 302.12 218.90 294.18 219.05 286.24 219.00 C 282.77 209.72 278.96 200.58 275.06 191.48 C 297.81 191.53 320.55 191.48 343.29 191.50 C 339.40 179.80 335.24 168.20 331.37 156.49 C 302.46 156.51 273.54 156.51 244.63 156.49 C 242.23 163.69 239.80 170.88 237.23 178.02 C 232.58 177.98 227.93 178.00 223.28 178.00 C 226.69 167.85 230.24 157.68 235.06 148.10 M 328.21 209.21 C 324.97 210.32 322.22 212.86 321.14 216.15 C 319.48 221.85 322.63 228.60 328.19 230.79 C 335.68 233.29 344.37 225.89 343.19 218.10 C 341.94 211.64 334.55 207.01 328.21 209.21 Z" />
<path fill="#ffffff" opacity="1.00" d=" M 159.10 188.03 C 160.22 185.37 163.41 184.57 166.04 184.50 C 195.02 184.50 224.00 184.50 252.98 184.49 C 255.88 184.56 258.97 184.09 261.67 185.45 C 263.37 186.47 264.07 188.41 264.94 190.09 C 269.37 199.56 273.38 209.22 277.07 219.00 C 272.40 219.00 267.73 219.00 263.06 219.00 C 260.50 211.50 257.85 204.02 255.37 196.49 C 226.46 196.51 197.54 196.51 168.63 196.49 C 164.76 208.20 160.59 219.80 156.71 231.50 C 170.25 231.49 183.80 231.50 197.34 231.50 C 190.74 247.06 185.90 263.28 180.39 279.24 C 179.48 284.58 180.25 290.09 180.00 295.50 C 174.55 295.50 169.11 295.51 163.66 295.49 C 163.94 300.29 165.26 306.61 160.83 309.97 C 157.28 312.18 152.92 311.39 148.96 311.50 C 145.95 311.30 141.85 310.90 140.56 307.69 C 140.41 285.12 140.56 262.55 140.48 239.98 C 140.36 237.91 141.20 235.98 141.84 234.05 C 147.25 218.60 151.76 202.73 159.10 188.03 M 164.27 249.20 C 161.01 250.29 158.24 252.83 157.15 256.12 C 155.46 261.83 158.64 268.63 164.22 270.80 C 171.72 273.26 180.39 265.86 179.18 258.07 C 177.92 251.65 170.59 247.03 164.27 249.20 Z" />
<path fill="#ffffff" opacity="1.00" d=" M 208.14 230.96 C 209.27 228.36 212.41 227.58 215.00 227.50 C 245.34 227.49 275.69 227.52 306.03 227.48 C 308.72 227.39 311.81 228.31 312.90 231.04 C 319.41 244.42 324.84 258.31 329.89 272.30 C 330.93 275.81 332.77 279.23 332.52 282.99 C 332.43 304.88 332.59 326.78 332.45 348.66 C 330.85 352.74 326.34 355.04 322.08 354.72 C 318.20 354.33 313.70 355.17 310.51 352.40 C 307.24 348.53 308.66 343.01 309.35 338.49 C 277.13 338.52 244.92 338.49 212.71 338.51 C 212.86 343.11 214.18 348.89 210.43 352.46 C 206.97 355.34 202.12 354.35 197.98 354.50 C 194.96 354.30 190.87 353.90 189.55 350.70 C 189.40 328.46 189.57 306.21 189.48 283.97 C 189.26 281.56 190.03 279.26 190.84 277.04 C 196.26 261.56 200.78 245.67 208.14 230.96 M 217.63 239.49 C 213.76 251.20 209.59 262.80 205.71 274.50 C 242.57 274.49 279.43 274.49 316.29 274.50 C 312.41 262.80 308.24 251.20 304.37 239.49 C 275.46 239.51 246.54 239.51 217.63 239.49 M 213.24 292.21 C 209.99 293.31 207.24 295.84 206.15 299.12 C 204.46 304.82 207.62 311.60 213.19 313.79 C 220.69 316.29 229.39 308.88 228.18 301.08 C 226.92 294.64 219.56 290.02 213.24 292.21 M 301.27 292.19 C 297.99 293.29 295.21 295.85 294.13 299.17 C 292.48 304.87 295.65 311.62 301.21 313.80 C 308.70 316.27 317.37 308.89 316.19 301.10 C 314.94 294.66 307.60 290.03 301.27 292.19 Z" />
</g>
</svg>
