<?xml version="1.0" encoding="UTF-8"?>
<!DOCTYPE svg PUBLIC "-//W3C//DTD SVG 1.1//EN" "http://www.w3.org/Graphics/SVG/1.1/DTD/svg11.dtd">
<!-- Creator: CorelDRAW 2018 (64 Bit Versión de evaluación) -->
<svg xmlns="http://www.w3.org/2000/svg" xml:space="preserve" width="215.9mm" height="279.4mm" version="1.1" style="shape-rendering:geometricPrecision; text-rendering:geometricPrecision; image-rendering:optimizeQuality; fill-rule:evenodd; clip-rule:evenodd"
viewBox="0 0 21590 27940"
 xmlns:xlink="http://www.w3.org/1999/xlink">
 <defs>
  <style type="text/css">
   <![CDATA[
    .str2 {stroke:#FEFEFE;stroke-width:800;stroke-miterlimit:22.9256}
    .str0 {stroke:#373435;stroke-width:800;stroke-miterlimit:22.9256}
    .str3 {stroke:#FEFEFE;stroke-width:20;stroke-miterlimit:22.9256}
    .str1 {stroke:#373435;stroke-width:20;stroke-miterlimit:22.9256}
    .fil0 {fill:none}
    .fil2 {fill:#FEFEFE}
    .fil1 {fill:#373435}
    .fil3 {fill:#FEFEFE;fill-rule:nonzero}
   ]]>
  </style>
 </defs>
 <g id="Capa_x0020_1">
  <metadata id="CorelCorpID_0Corel-Layer"/>
  <path class="fil0 str0" d="M10811.27 14178.06c-705.23,98.74 -1126.18,445.81 -1374.52,869.13l-779.75 2517.96c-402.47,153.55 -629.47,467.53 -698.53,925.95l-16.24 3151.5c118.8,694.01 1072.78,737.98 1232.91,-17.12l6.89 -331.83c2439.85,345.58 4902.79,356.27 7389.84,17.34l28.85 461.57c266.17,572.68 1070.49,573.25 1221.61,-159.47l-19.49 -3138.23c-82.74,-443.44 -321.53,-765.51 -747.26,-942.2l-666.04 -2371.75c-306.15,-500.6 -734.08,-903.63 -1283.34,-990.93l-4294.93 8.08z"/>
  <path class="fil1" d="M11042.46 15671.51l3741.26 -19.87c385.57,-13.26 640.16,138.9 755.93,466.44l205.35 708.95c132.44,380.87 0.71,589.28 -370.92,595.67 -1575.17,-165.81 -3142.98,-176.88 -4701.16,13.83 -333.71,21.27 -537.49,-211.75 -439.59,-532.27l275.4 -906.55c71.85,-178.76 290.92,-317.66 533.73,-326.2z"/>
  <circle class="fil1 str1" cx="10491.76" cy="19512.58" r="857.68"/>
  <circle class="fil1 str1" cx="15354.96" cy="19561.97" r="857.68"/>
  <path class="fil0 str2" d="M10811.27 14178.06c-705.23,98.74 -1126.18,445.81 -1374.52,869.13l-779.75 2517.96c-402.47,153.55 -629.47,467.53 -698.53,925.95l-16.24 3151.5c118.8,694.01 1072.78,737.98 1232.91,-17.12l6.89 -331.83c2439.85,345.58 4902.79,356.27 7389.84,17.34l28.85 461.57c266.17,572.68 1070.49,573.25 1221.61,-159.47l-19.49 -3138.23c-82.74,-443.44 -321.53,-765.51 -747.26,-942.2l-666.04 -2371.75c-306.15,-500.6 -734.08,-903.63 -1283.34,-990.93l-4294.93 8.08z"/>
  <path class="fil2 str3" d="M11042.46 15671.51l3741.26 -19.87c385.57,-13.26 640.16,138.9 755.93,466.44l205.35 708.95c132.44,380.87 0.71,589.28 -370.92,595.67 -1575.17,-165.81 -3142.98,-176.88 -4701.16,13.83 -333.71,21.27 -537.49,-211.75 -439.59,-532.27l275.4 -906.55c71.85,-178.76 290.92,-317.66 533.73,-326.2z"/>
  <circle class="fil2 str3" cx="10491.76" cy="19512.58" r="857.68"/>
  <circle class="fil2 str3" cx="15354.96" cy="19561.97" r="857.68"/>
  <g id="_1129263397584">
   <path class="fil3 str3" d="M4940.47 11380.66c-461.1,68.25 -839.66,265.47 -1089.26,667.75l-817.21 2638.95 -154.85 59.07c-138.68,52.9 -245.5,131.26 -322,233.75 -78.64,105.35 -130.73,241.77 -157.61,407.67l-15.87 3080.57c20.9,93.28 69.48,157.76 129.31,192.99 82.14,48.37 184.29,49.74 267.81,3.87 67.92,-37.32 125.73,-110.66 155.08,-223.73l14.06 -677.66 379.43 53.76c1252.92,177.46 2516.41,266.32 3781.87,262.68 -66.53,118.26 -107.07,253.12 -114.36,397.2l-1.18 46.64c2.09,82.45 13.06,161.94 33.03,237.55 -1141.72,-0.37 -2283.02,-73.01 -3416.04,-217.41l-2.97 13.96c-72.57,342.23 -264.46,575.97 -500.28,705.51 -147.45,80.99 -311.58,119.2 -474.56,116.28 -162.92,-2.93 -324.38,-47.09 -466.56,-130.83 -228.69,-134.69 -407.26,-366.48 -462.16,-687.19l-4.18 -24.47c5.34,-1072.87 10.99,-2145.73 16.58,-3218.6l2.51 -16.65c73.56,-488.41 309.66,-894.68 756.6,-1124.08l745.16 -2406.28 20.6 -35.12c357.04,-608.65 931.14,-938.11 1621.67,-1034.79l18.74 -2.61c1450.28,-3.1 2900.55,-5.52 4350.83,-8.19l25.56 4.06c673.16,106.98 1177.04,587.26 1521.14,1149.91l24.77 40.5 344.02 1225.07c-188.64,-31.63 -390.53,-4.08 -578.17,97.51l-89.19 50.97 -308.32 -1097.91c-228.44,-360.81 -560.16,-708.8 -997.38,-788.67l-4236.62 7.97z"/>
   <path class="fil2 str3" d="M5143.04 12533.49l3741.25 -19.86c385.57,-13.26 640.17,138.9 755.94,466.44l189.04 652.64 -329.58 188.33c-185.56,106.37 -318.65,251.05 -395.84,427.5 -1450.44,-130.14 -2894.49,-125.76 -4330.36,49.98 -333.7,21.27 -537.48,-211.76 -439.59,-532.26l275.4 -906.56c71.85,-178.76 290.92,-317.66 533.74,-326.21z"/>
   <circle class="fil2 str3" cx="4592.34" cy="16374.57" r="857.68"/>
   <path class="fil3 str3" d="M4592.34 15508.33c239.19,0 455.77,96.97 612.52,253.72 156.75,156.74 253.71,373.32 253.71,612.51 0,239.2 -96.96,455.78 -253.71,612.52 -156.75,156.75 -373.33,253.72 -612.52,253.72 -239.2,0 -455.77,-96.97 -612.52,-253.72 -156.74,-156.74 -253.71,-373.32 -253.71,-612.52 0,-239.19 96.97,-455.77 253.71,-612.51 156.75,-156.75 373.32,-253.72 612.52,-253.72zm600.43 265.81c-153.65,-153.65 -365.95,-248.71 -600.43,-248.71 -234.48,0 -446.78,95.06 -600.43,248.71 -153.65,153.65 -248.7,365.95 -248.7,600.42 0,234.48 95.05,446.78 248.7,600.43 153.65,153.66 365.95,248.71 600.43,248.71 234.48,0 446.78,-95.05 600.43,-248.71 153.65,-153.65 248.7,-365.95 248.7,-600.43 0,-234.47 -95.05,-446.77 -248.7,-600.42z"/>
   <path class="fil3 str3" d="M4940.47 11380.66c-461.1,68.25 -839.66,265.47 -1089.26,667.75l-817.21 2638.95 -154.85 59.07c-138.68,52.9 -245.5,131.26 -322,233.75 -78.64,105.35 -130.73,241.77 -157.61,407.67l-15.87 3080.57c20.9,93.28 69.48,157.76 129.31,192.99 82.14,48.37 184.29,49.74 267.81,3.87 67.92,-37.32 125.73,-110.66 155.08,-223.73l14.06 -677.66 379.43 53.76c1252.92,177.46 2516.41,266.32 3781.87,262.68 -66.53,118.26 -107.07,253.12 -114.36,397.2l-1.18 46.64c2.09,82.45 13.06,161.94 33.03,237.55 -1141.72,-0.37 -2283.02,-73.01 -3416.04,-217.41l-2.97 13.96c-72.57,342.23 -264.46,575.97 -500.28,705.51 -147.45,80.99 -311.58,119.2 -474.56,116.28 -162.92,-2.93 -324.38,-47.09 -466.56,-130.83 -228.69,-134.69 -407.26,-366.48 -462.16,-687.19l-4.18 -24.47c5.34,-1072.87 10.99,-2145.73 16.58,-3218.6l2.51 -16.65c73.56,-488.41 309.66,-894.68 756.6,-1124.08l745.16 -2406.28 20.6 -35.12c357.04,-608.65 931.14,-938.11 1621.67,-1034.79l18.74 -2.61c1450.28,-3.1 2900.55,-5.52 4350.83,-8.19l25.56 4.06c673.16,106.98 1177.04,587.26 1521.14,1149.91l24.77 40.5 344.02 1225.07c-188.64,-31.63 -390.53,-4.08 -578.17,97.51l-89.19 50.97 -308.32 -1097.91c-228.44,-360.81 -560.16,-708.8 -997.38,-788.67l-4236.62 7.97z"/>
   <path class="fil2 str3" d="M5143.04 12533.49l3741.25 -19.86c385.57,-13.26 640.17,138.9 755.94,466.44l189.04 652.64 -329.58 188.33c-185.56,106.37 -318.65,251.05 -395.84,427.5 -1450.44,-130.14 -2894.49,-125.76 -4330.36,49.98 -333.7,21.27 -537.48,-211.76 -439.59,-532.26l275.4 -906.56c71.85,-178.76 290.92,-317.66 533.74,-326.21z"/>
   <circle class="fil2 str3" cx="4592.34" cy="16374.57" r="857.68"/>
   <path class="fil3 str3" d="M4592.34 15508.33c239.19,0 455.77,96.97 612.52,253.72 156.75,156.74 253.71,373.32 253.71,612.51 0,239.2 -96.96,455.78 -253.71,612.52 -156.75,156.75 -373.33,253.72 -612.52,253.72 -239.2,0 -455.77,-96.97 -612.52,-253.72 -156.74,-156.74 -253.71,-373.32 -253.71,-612.52 0,-239.19 96.97,-455.77 253.71,-612.51 156.75,-156.75 373.32,-253.72 612.52,-253.72zm600.43 265.81c-153.65,-153.65 -365.95,-248.71 -600.43,-248.71 -234.48,0 -446.78,95.06 -600.43,248.71 -153.65,153.65 -248.7,365.95 -248.7,600.42 0,234.48 95.05,446.78 248.7,600.43 153.65,153.66 365.95,248.71 600.43,248.71 234.48,0 446.78,-95.05 600.43,-248.71 153.65,-153.65 248.7,-365.95 248.7,-600.43 0,-234.47 -95.05,-446.77 -248.7,-600.42z"/>
  </g>
  <g id="_1129263390736">
   <path class="fil3 str3" d="M13300.73 7977.65c-461.1,68.25 -839.67,265.47 -1089.27,667.75l-788.46 2546.13 -33.68 -62.04 -110.67 -134.13 -134.12 -110.67 -153.95 -83.56 -146.59 -45.5 739.09 -2386.68 20.6 -35.12c357.04,-608.65 931.14,-938.11 1621.67,-1034.79l18.74 -2.61c1450.28,-3.1 2900.55,-5.53 4350.83,-8.19l25.56 4.06c673.15,106.98 1177.04,587.26 1521.14,1149.9l24.76 40.51 636.65 2267.08c444.78,237.13 704.17,630.62 795.98,1122.59l5.14 27.56c6.46,1068.93 13.06,2137.86 19.92,3206.79l-6.91 33.47c-56.18,272.38 -181.9,477.92 -344.22,618.77 -291.14,252.69 -700.11,292.86 -1041.6,119.82 -198.02,-100.35 -370.99,-270.36 -479.72,-504.31l-26.62 -57.29 -10.14 -162.18c-425.06,52.21 -849.64,94.31 -1273.7,126.4 8.67,-54.09 9.22,-112.27 -0.19,-173.86 -15.92,-104.2 -54.72,-146.69 -59.65,-178.94 -12.33,-80.69 -29.52,-105.26 -60.69,-169.96 -28.55,-59.25 -52.89,-102.58 -93.54,-145.27 584.98,-40.82 1171.71,-101.21 1760.2,-181.4l363.13 -49.5 47.14 754.34c38.08,61.06 87.34,105.57 141.05,132.78 95.26,48.27 205.46,45.45 288.13,-26.3 49.75,-43.18 90.89,-111.99 115.51,-209.19l-19.02 -3064.89c-66.57,-321.7 -231.99,-535.4 -537.73,-662.3l-152.89 -63.45 -697.88 -2485.12c-228.44,-360.81 -560.16,-708.8 -997.39,-788.67l-4236.61 7.97z"/>
   <path class="fil2 str3" d="M13503.3 9130.48l3741.25 -19.86c385.57,-13.27 640.16,138.9 755.94,466.44l205.34 708.94c132.45,380.87 0.72,589.29 -370.92,595.68 -1575.16,-165.81 -3142.97,-176.88 -4701.16,13.83 -333.7,21.27 -537.49,-211.76 -439.59,-532.27l275.4 -906.55c71.85,-178.76 290.92,-317.66 533.74,-326.21z"/>
   <path class="fil2 str3" d="M12952.59 12113.87c473.7,0 857.69,383.99 857.69,857.68 0,105.22 -18.96,205.99 -53.63,299.13 -49.24,2 -98.2,11.48 -144.72,28.51 -23.11,8.46 -67.97,11.03 -119.29,29.83 -18.36,6.72 -108.21,-2.56 -208.9,-0.66 -49.58,-17.59 -104.2,-27.64 -163.3,-28.4l-805.24 0c-52.13,0 -101.61,5.1 -148.16,16.24 -46.34,-105.48 -72.12,-222.04 -72.12,-344.65 0,-473.69 383.99,-857.68 857.67,-857.68z"/>
   <path class="fil3 str3" d="M12952.59 12105.32c478.4,0 866.24,387.83 866.24,866.23 0,103.84 -18.19,204.54 -52.88,298.83 -6.2,0.14 -12.4,0.39 -18.59,0.76 35.13,-93.16 54.37,-194.13 54.37,-299.59 0,-468.97 -380.18,-849.13 -849.14,-849.13 -468.95,0 -849.12,380.17 -849.12,849.13 0,121.95 25.72,237.89 72.01,342.71 -5.69,1.26 -11.32,2.6 -16.92,4.04 -46.44,-106.18 -72.19,-223.46 -72.19,-346.75 0,-478.4 387.83,-866.23 866.22,-866.23z"/>
   <circle class="fil2 str3" cx="17815.8" cy="13020.95" r="857.68"/>
   <path class="fil3 str3" d="M17815.79 12154.72c239.2,0 455.78,96.96 612.52,253.71 156.75,156.75 253.72,373.32 253.72,612.51 0,239.2 -96.97,455.78 -253.72,612.53 -156.74,156.74 -373.32,253.71 -612.52,253.71 -239.19,0 -455.76,-96.97 -612.51,-253.71 -156.75,-156.75 -253.71,-373.33 -253.71,-612.53 0,-239.19 96.96,-455.76 253.71,-612.51 156.75,-156.75 373.32,-253.71 612.51,-253.71zm600.43 265.8c-153.65,-153.65 -365.94,-248.7 -600.43,-248.7 -234.47,0 -446.77,95.05 -600.42,248.7 -153.65,153.65 -248.7,365.95 -248.7,600.42 0,234.49 95.05,446.78 248.7,600.44 153.65,153.65 365.95,248.7 600.42,248.7 234.49,0 446.78,-95.05 600.43,-248.7 153.66,-153.66 248.71,-365.95 248.71,-600.44 0,-234.47 -95.05,-446.77 -248.71,-600.42z"/>
   <path class="fil3 str3" d="M13300.73 7977.65c-461.1,68.25 -839.67,265.47 -1089.27,667.75l-788.46 2546.13 -33.68 -62.04 -110.67 -134.13 -134.12 -110.67 -153.95 -83.56 -146.59 -45.5 739.09 -2386.68 20.6 -35.12c357.04,-608.65 931.14,-938.11 1621.67,-1034.79l18.74 -2.61c1450.28,-3.1 2900.55,-5.53 4350.83,-8.19l25.56 4.06c673.15,106.98 1177.04,587.26 1521.14,1149.9l24.76 40.51 636.65 2267.08c444.78,237.13 704.17,630.62 795.98,1122.59l5.14 27.56c6.46,1068.93 13.06,2137.86 19.92,3206.79l-6.91 33.47c-56.18,272.38 -181.9,477.92 -344.22,618.77 -291.14,252.69 -700.11,292.86 -1041.6,119.82 -198.02,-100.35 -370.99,-270.36 -479.72,-504.31l-26.62 -57.29 -10.14 -162.18c-425.06,52.21 -849.64,94.31 -1273.7,126.4 8.67,-54.09 9.22,-112.27 -0.19,-173.86 -15.92,-104.2 -54.72,-146.69 -59.65,-178.94 -12.33,-80.69 -29.52,-105.26 -60.69,-169.96 -28.55,-59.25 -52.89,-102.58 -93.54,-145.27 584.98,-40.82 1171.71,-101.21 1760.2,-181.4l363.13 -49.5 47.14 754.34c38.08,61.06 87.34,105.57 141.05,132.78 95.26,48.27 205.46,45.45 288.13,-26.3 49.75,-43.18 90.89,-111.99 115.51,-209.19l-19.02 -3064.89c-66.57,-321.7 -231.99,-535.4 -537.73,-662.3l-152.89 -63.45 -697.88 -2485.12c-228.44,-360.81 -560.16,-708.8 -997.39,-788.67l-4236.61 7.97z"/>
   <path class="fil2 str3" d="M13503.3 9130.48l3741.25 -19.86c385.57,-13.27 640.16,138.9 755.94,466.44l205.34 708.94c132.45,380.87 0.72,589.29 -370.92,595.68 -1575.16,-165.81 -3142.97,-176.88 -4701.16,13.83 -333.7,21.27 -537.49,-211.76 -439.59,-532.27l275.4 -906.55c71.85,-178.76 290.92,-317.66 533.74,-326.21z"/>
   <path class="fil2 str3" d="M12952.59 12113.87c473.7,0 857.69,383.99 857.69,857.68 0,105.22 -18.96,205.99 -53.63,299.13 -49.24,2 -98.2,11.48 -144.72,28.51 -23.11,8.46 -67.97,11.03 -119.29,29.83 -18.36,6.72 -108.21,-2.56 -208.9,-0.66 -49.58,-17.59 -104.2,-27.64 -163.3,-28.4l-805.24 0c-52.13,0 -101.61,5.1 -148.16,16.24 -46.34,-105.48 -72.12,-222.04 -72.12,-344.65 0,-473.69 383.99,-857.68 857.67,-857.68z"/>
   <path class="fil3 str3" d="M12952.59 12105.32c478.4,0 866.24,387.83 866.24,866.23 0,103.84 -18.19,204.54 -52.88,298.83 -6.2,0.14 -12.4,0.39 -18.59,0.76 35.13,-93.16 54.37,-194.13 54.37,-299.59 0,-468.97 -380.18,-849.13 -849.14,-849.13 -468.95,0 -849.12,380.17 -849.12,849.13 0,121.95 25.72,237.89 72.01,342.71 -5.69,1.26 -11.32,2.6 -16.92,4.04 -46.44,-106.18 -72.19,-223.46 -72.19,-346.75 0,-478.4 387.83,-866.23 866.22,-866.23z"/>
   <circle class="fil2 str3" cx="17815.8" cy="13020.95" r="857.68"/>
   <path class="fil3 str3" d="M17815.79 12154.72c239.2,0 455.78,96.96 612.52,253.71 156.75,156.75 253.72,373.32 253.72,612.51 0,239.2 -96.97,455.78 -253.72,612.53 -156.74,156.74 -373.32,253.71 -612.52,253.71 -239.19,0 -455.76,-96.97 -612.51,-253.71 -156.75,-156.75 -253.71,-373.33 -253.71,-612.53 0,-239.19 96.96,-455.76 253.71,-612.51 156.75,-156.75 373.32,-253.71 612.51,-253.71zm600.43 265.8c-153.65,-153.65 -365.94,-248.7 -600.43,-248.7 -234.47,0 -446.77,95.05 -600.42,248.7 -153.65,153.65 -248.7,365.95 -248.7,600.42 0,234.49 95.05,446.78 248.7,600.44 153.65,153.65 365.95,248.7 600.42,248.7 234.49,0 446.78,-95.05 600.43,-248.7 153.66,-153.66 248.71,-365.95 248.71,-600.44 0,-234.47 -95.05,-446.77 -248.71,-600.42z"/>
  </g>
 </g>
</svg>
