<?xml version="1.0" encoding="UTF-8" ?>
<!DOCTYPE svg PUBLIC "-//W3C//DTD SVG 1.1//EN" "http://www.w3.org/Graphics/SVG/1.1/DTD/svg11.dtd">
<svg width="500pt" height="500pt" viewBox="0 0 500 500" version="1.1" xmlns="http://www.w3.org/2000/svg">
<g id="#ffffffff">
<path fill="#ffffff" opacity="1.00" d=" M 301.02 152.01 C 302.41 148.45 303.74 144.88 304.91 141.25 C 305.90 142.00 306.99 142.56 308.19 142.92 C 311.06 144.01 313.94 145.10 316.80 146.24 C 318.37 146.78 319.92 147.39 321.51 147.90 C 323.28 148.67 325.09 149.35 326.85 150.19 C 327.48 150.32 328.75 150.58 329.39 150.71 C 325.43 160.99 321.97 171.46 318.13 181.79 C 317.90 182.20 317.45 183.03 317.22 183.44 C 326.59 183.61 335.95 183.40 345.31 183.57 C 345.18 190.31 345.48 197.05 345.16 203.78 L 344.96 204.28 C 343.84 207.12 342.95 210.03 341.93 212.91 C 341.30 214.93 340.61 216.94 339.98 218.96 C 338.90 221.94 337.92 224.94 336.89 227.94 C 335.40 232.70 333.66 237.38 332.16 242.14 C 330.37 247.39 328.60 252.64 326.82 257.89 C 325.87 260.93 324.82 263.94 323.72 266.92 C 324.43 268.60 325.06 270.32 325.70 272.04 L 326.04 272.94 C 326.64 275.01 327.38 277.04 327.98 279.11 C 329.07 282.03 329.97 285.03 331.11 287.94 C 331.27 288.51 331.58 289.64 331.74 290.21 C 332.21 291.47 332.60 292.75 333.02 294.04 C 333.71 295.95 334.33 297.89 335.06 299.79 C 335.38 300.84 335.72 301.88 336.09 302.92 C 336.72 304.94 337.41 306.95 338.05 308.98 C 338.73 310.87 339.36 312.78 340.11 314.65 C 340.33 315.82 340.71 316.94 341.24 318.01 C 341.45 319.06 341.69 320.10 341.95 321.14 C 342.98 324.71 344.71 328.17 344.74 331.96 C 344.81 337.91 344.67 343.87 344.76 349.83 C 282.28 350.31 219.80 349.95 157.31 350.05 C 157.27 344.04 157.21 338.03 157.26 332.01 C 157.27 328.20 159.02 324.72 160.06 321.12 C 160.31 320.08 160.54 319.04 160.76 318.00 C 161.28 316.94 161.66 315.82 161.90 314.65 C 162.63 312.79 163.25 310.89 163.94 309.01 C 164.58 306.97 165.27 304.95 165.90 302.91 C 166.27 301.88 166.62 300.84 166.95 299.79 C 167.66 297.89 168.28 295.96 168.99 294.05 C 169.62 291.99 170.30 289.95 170.93 287.89 C 172.02 284.99 172.92 282.01 174.02 279.11 C 174.62 277.04 175.36 275.01 175.95 272.94 L 176.30 272.04 C 176.93 270.32 177.56 268.61 178.28 266.92 C 177.18 263.94 176.13 260.93 175.18 257.89 C 173.40 252.63 171.63 247.37 169.84 242.12 C 168.33 237.37 166.60 232.69 165.11 227.93 C 164.07 224.94 163.09 221.93 162.02 218.96 C 161.39 216.93 160.70 214.93 160.08 212.91 C 158.87 209.37 157.40 205.88 156.79 202.17 C 156.54 195.97 156.90 189.77 156.64 183.57 C 200.47 183.42 244.31 183.57 288.14 183.49 C 290.45 184.00 290.49 181.35 290.91 179.86 C 292.57 176.02 293.72 171.99 295.36 168.15 C 295.50 167.59 295.77 166.47 295.91 165.91 C 297.18 163.06 298.14 160.07 299.25 157.15 C 299.84 155.44 300.45 153.73 301.02 152.01 M 240.69 225.27 C 240.70 227.36 240.70 229.46 240.71 231.56 C 240.64 239.85 240.85 248.15 240.61 256.43 C 231.28 256.32 221.94 256.45 212.61 256.36 C 212.14 256.58 211.20 257.03 210.73 257.26 L 210.36 257.10 C 210.16 257.44 209.77 258.12 209.57 258.46 C 209.45 264.88 209.60 271.30 209.50 277.72 C 219.89 277.97 230.28 277.77 240.67 277.83 C 240.70 279.44 240.70 281.06 240.71 282.67 C 240.78 290.95 240.54 299.23 240.84 307.50 L 240.18 308.39 C 247.21 308.79 254.27 308.49 261.32 308.55 C 261.28 298.31 261.25 288.07 261.33 277.83 C 271.66 277.85 282.00 277.82 292.33 277.83 C 292.69 270.70 292.38 263.56 292.50 256.43 C 282.13 256.39 271.77 256.32 261.41 256.46 C 261.12 248.18 261.38 239.87 261.29 231.58 C 261.30 229.47 261.30 227.36 261.30 225.26 C 254.43 225.29 247.56 225.27 240.69 225.27 Z" />
</g>
<g id="#00000019">
<path fill="#000000" opacity="0.10" d=" M 329.39 150.71 C 329.46 150.53 329.60 150.19 329.67 150.02 C 330.27 154.24 331.55 158.71 329.79 162.83 C 327.50 169.11 325.18 175.38 323.53 181.86 C 321.73 181.89 319.92 181.86 318.13 181.79 C 321.97 171.46 325.43 160.99 329.39 150.71 Z" />
<path fill="#000000" opacity="0.10" d=" M 155.31 205.29 C 156.84 198.13 155.08 190.73 156.64 183.57 C 156.90 189.77 156.54 195.97 156.79 202.17 C 157.40 205.88 158.87 209.37 160.08 212.91 C 160.70 214.93 161.39 216.93 162.02 218.96 C 163.09 221.93 164.07 224.94 165.11 227.93 C 166.60 232.69 168.33 237.37 169.84 242.12 C 171.63 247.37 173.40 252.63 175.18 257.89 C 176.13 260.93 177.18 263.94 178.28 266.92 C 177.56 268.61 176.93 270.32 176.30 272.04 C 169.05 253.92 164.02 235.01 157.23 216.72 C 156.10 213.04 154.27 209.21 155.31 205.29 Z" />
<path fill="#000000" opacity="0.10" d=" M 341.93 212.91 C 342.95 210.03 343.84 207.12 344.96 204.28 C 345.57 204.71 346.79 205.57 347.40 205.99 C 346.68 214.19 342.45 221.48 340.50 229.37 C 335.33 243.52 331.42 258.10 325.70 272.04 C 325.06 270.32 324.43 268.60 323.72 266.92 C 324.82 263.94 325.87 260.93 326.82 257.89 C 328.60 252.64 330.37 247.39 332.16 242.14 C 333.66 237.38 335.40 232.70 336.89 227.94 C 337.92 224.94 338.90 221.94 339.98 218.96 C 340.61 216.94 341.30 214.93 341.93 212.91 Z" />
</g>
<g id="#0000002c">
<path fill="#000000" opacity="0.17" d=" M 240.69 225.27 C 247.56 225.27 254.43 225.29 261.30 225.26 C 261.30 227.36 261.30 229.47 261.29 231.58 C 254.53 229.99 247.48 229.97 240.71 231.56 C 240.70 229.46 240.70 227.36 240.69 225.27 Z" />
</g>
<g id="#0000002a">
<path fill="#000000" opacity="0.16" d=" M 210.73 257.26 C 211.20 257.03 212.14 256.58 212.61 256.36 C 221.94 256.45 231.28 256.32 240.61 256.43 C 240.00 257.98 239.84 260.35 237.90 260.83 C 232.79 262.50 227.31 262.36 222.02 261.86 C 217.85 261.37 213.69 262.99 209.54 261.97 C 209.95 260.40 210.35 258.83 210.73 257.26 Z" />
</g>
<g id="#0000002b">
<path fill="#000000" opacity="0.17" d=" M 261.41 256.46 C 271.77 256.32 282.13 256.39 292.50 256.43 C 292.38 263.56 292.69 270.70 292.33 277.83 C 289.90 272.80 291.17 267.09 290.77 261.73 C 283.50 261.20 276.19 261.94 268.94 261.30 C 265.74 261.13 263.10 259.06 261.41 256.46 Z" />
<path fill="#000000" opacity="0.17" d=" M 155.13 350.92 L 156.48 350.91 C 218.23 351.06 279.98 350.89 341.72 351.01 C 343.28 351.33 344.70 352.09 346.15 352.73 C 344.47 353.92 342.79 355.41 340.63 355.51 C 332.42 356.18 324.16 355.57 315.94 356.26 C 310.61 356.51 305.30 355.32 299.97 356.07 C 287.33 355.76 274.68 356.27 262.03 355.72 C 254.04 356.82 246.03 355.67 238.02 356.19 C 218.02 355.25 198.05 356.98 178.05 355.95 C 171.81 356.49 165.56 356.04 159.35 355.39 C 156.99 355.17 155.92 352.83 155.13 350.92 Z" />
</g>
<g id="#00000012">
<path fill="#000000" opacity="0.07" d=" M 240.71 282.67 C 241.76 282.55 242.81 282.43 243.87 282.31 C 245.79 290.30 244.39 298.56 245.37 306.66 C 243.86 306.91 242.34 307.17 240.84 307.50 C 240.54 299.23 240.78 290.95 240.71 282.67 Z" />
</g>
<g id="#5b5b5b90">
<path fill="#5b5b5b" opacity="0.56" d=" M 159.17 321.16 L 160.06 321.12 C 159.02 324.72 157.27 328.20 157.26 332.01 C 157.21 338.03 157.27 344.04 157.31 350.05 C 219.80 349.95 282.28 350.31 344.76 349.83 C 344.67 343.87 344.81 337.91 344.74 331.96 C 344.71 328.17 342.98 324.71 341.95 321.14 L 342.83 321.15 C 343.56 325.16 345.95 328.80 345.74 332.98 C 345.71 338.91 345.77 344.83 345.64 350.76 C 344.33 350.87 343.03 350.95 341.72 351.01 C 279.98 350.89 218.23 351.06 156.48 350.91 C 156.10 344.94 156.34 338.97 156.27 333.00 C 156.05 328.82 158.42 325.17 159.17 321.16 Z" />
</g>
</svg>
