<?xml version="1.0" encoding="UTF-8"?>
<!DOCTYPE svg PUBLIC "-//W3C//DTD SVG 1.1//EN" "http://www.w3.org/Graphics/SVG/1.1/DTD/svg11.dtd">
<!-- Creator: CorelDRAW 2018 (64 Bit Versión de evaluación) -->
<svg xmlns="http://www.w3.org/2000/svg" xml:space="preserve" width="215.9mm" height="279.4mm" version="1.1" style="shape-rendering:geometricPrecision; text-rendering:geometricPrecision; image-rendering:optimizeQuality; fill-rule:evenodd; clip-rule:evenodd"
viewBox="0 0 21590 27940"
 xmlns:xlink="http://www.w3.org/1999/xlink">
 <defs>
  <style type="text/css">
   <![CDATA[
    .str3 {stroke:#FEFEFE;stroke-width:100;stroke-miterlimit:22.9256}
    .str0 {stroke:#FEFEFE;stroke-width:700;stroke-miterlimit:22.9256}
    .str1 {stroke:#FEFEFE;stroke-width:150;stroke-miterlimit:22.9256}
    .str2 {stroke:#FEFEFE;stroke-width:20;stroke-miterlimit:22.9256}
    .fil0 {fill:none}
    .fil1 {fill:#FEFEFE}
   ]]>
  </style>
 </defs>
 <g id="Capa_x0020_1">
  <metadata id="CorelCorpID_0Corel-Layer"/>
  <path class="fil0 str0" d="M10904.69 3549.05c-2621.6,1638.85 -5754.6,2766.29 -9405.12,3376.19 -947.69,11133.29 2603.56,16808.83 9501.57,18424.39 6880.71,-1279.78 10418.31,-6839.07 9453.36,-18279.69 -3715.68,-641.23 -6863.08,-1850.72 -9549.81,-3520.89z"/>
  <path class="fil1 str1" d="M10929.19 13522.32c-1327.5,-252.46 -2226.55,2137.67 -578.27,2654.87l105.24 2630.79 -4998.52 0 0 -5103.75c15.73,-705.21 508.64,-1153.48 1631.1,-1262.79l0 -2788.64c143.54,-1243.09 894.6,-2081.19 2315.1,-2472.96l2999.11 0 -315.7 1736.33 -2472.95 -52.61c-492.1,19.25 -756.26,412.55 -789.24,947.09l36.26 2760.09 3807.28 36.25 -1739.41 915.33z"/>
  <path class="fil1 str1" d="M10929.19 13522.32c1438.51,117.49 1785.11,2149.1 335.7,2731.09l21.17 296.33 -458.3 517.46 389.91 615.64 -319.03 489.75 288.96 606.75 -280.36 354.96 -451.08 -326.32 -4998.52 0c-61.88,1188.41 415.87,1837.25 1658.59,1721.1l7408.33 42.34c1093.9,62.57 1613.2,-326.85 1566.34,-1820.34l42.33 -4825.99c-17.25,-887.55 -561.36,-1361.14 -1608.67,-1439.34l-84.66 -3090.34c-184.72,-1094.4 -932.5,-1783.39 -2036.95,-2215.57l-315.7 1736.33c497.35,233.86 573.64,621.1 574.65,1241.24l-62.55 2448.94 -1670.16 915.97z"/>
  <circle class="fil1 str2" cx="10836.49" cy="14501.31" r="353.17"/>
  <line class="fil0 str3" x1="10341.48" y1="15193.89" x2="11382.31" y2= "15191.61" />
  <line class="fil0 str3" x1="10383.82" y1="15453.14" x2="11302.31" y2= "15450.86" />
  <line class="fil0 str3" x1="10588.79" y1="15715.01" x2="11109.2" y2= "15712.73" />
 </g>
</svg>
