<?xml version="1.0" encoding="UTF-8" ?>
<!DOCTYPE svg PUBLIC "-//W3C//DTD SVG 1.1//EN" "http://www.w3.org/Graphics/SVG/1.1/DTD/svg11.dtd">
<svg width="500pt" height="500pt" viewBox="0 0 500 500" version="1.1" xmlns="http://www.w3.org/2000/svg">
<g id="#ffffffff">
<path fill="#ffffff" opacity="1.00" d=" M 299.44 135.86 C 314.68 133.54 330.72 135.47 344.62 142.30 C 360.27 149.67 373.23 162.59 380.62 178.22 C 387.70 192.61 389.61 209.28 386.91 225.01 C 383.50 244.27 372.32 261.98 356.41 273.34 C 341.07 284.52 321.40 289.53 302.58 287.18 C 285.97 285.27 270.07 277.61 258.20 265.84 C 246.24 254.22 238.32 238.52 236.10 221.99 C 233.70 204.85 237.17 186.88 246.16 172.05 C 257.43 152.91 277.48 139.26 299.44 135.86 M 302.15 143.14 C 286.49 145.40 271.69 153.26 261.09 165.01 C 249.47 177.57 242.76 194.60 242.92 211.74 C 242.77 227.56 248.47 243.31 258.50 255.53 C 268.21 267.48 281.98 276.10 297.03 279.40 C 314.01 283.24 332.45 280.43 347.39 271.44 C 361.64 263.06 372.72 249.42 377.90 233.73 C 382.69 219.65 382.73 204.00 377.94 189.91 C 372.52 173.35 360.53 159.11 345.23 150.81 C 332.20 143.67 316.84 141.02 302.15 143.14 Z" />
<path fill="#ffffff" opacity="1.00" d=" M 305.47 169.47 C 310.11 168.00 315.29 168.11 319.86 169.83 C 327.72 173.05 331.99 181.84 332.08 190.01 C 332.27 196.72 332.85 203.59 331.05 210.14 C 329.81 213.67 332.35 217.14 331.56 220.70 C 330.57 226.58 326.17 231.08 321.88 234.87 C 315.57 238.98 306.13 238.88 300.70 233.32 C 295.86 228.86 291.03 222.30 293.14 215.37 C 294.59 211.59 292.22 207.81 292.08 204.00 C 291.90 197.03 291.77 189.96 293.14 183.10 C 295.13 177.19 299.40 171.56 305.47 169.47 M 299.00 196.12 C 302.00 199.41 306.77 197.02 309.90 195.24 C 306.66 193.77 303.44 192.15 299.98 191.28 C 297.31 190.71 297.47 194.97 299.00 196.12 M 314.47 195.25 C 317.60 196.99 322.12 199.35 325.19 196.25 C 326.93 194.93 326.55 192.73 325.63 191.06 C 321.66 191.68 318.09 193.62 314.47 195.25 M 303.64 212.07 C 308.60 215.17 315.89 215.24 320.76 211.97 C 315.34 209.75 309.01 209.57 303.64 212.07 Z" />
<path fill="#ffffff" opacity="1.00" d=" M 138.22 179.03 C 139.85 175.37 144.28 174.32 147.91 174.02 C 178.33 173.97 208.76 174.01 239.18 174.00 C 236.46 179.43 234.24 185.11 232.72 191.00 C 205.69 191.00 178.66 191.00 151.63 191.00 C 145.97 207.41 140.38 223.84 134.70 240.24 C 168.28 240.26 201.86 240.23 235.44 240.26 C 240.49 253.33 248.86 265.13 259.68 274.06 C 256.20 283.41 262.82 295.52 273.05 296.43 C 278.68 296.76 283.87 293.39 287.41 289.25 C 295.94 291.90 304.86 292.95 313.77 293.05 C 313.75 310.21 313.73 327.37 313.78 344.54 C 311.19 349.11 306.66 353.26 301.08 353.01 C 294.81 352.71 287.29 354.27 282.27 349.56 C 278.15 344.06 280.07 336.70 280.92 330.46 C 235.48 330.54 190.05 330.51 144.61 330.47 C 145.08 336.13 146.03 342.28 143.45 347.59 C 141.44 351.67 136.54 352.71 132.41 352.93 C 126.82 353.07 120.96 353.41 115.69 351.19 C 113.74 350.24 111.70 348.48 112.01 346.08 C 111.97 314.68 112.03 283.29 111.99 251.89 C 111.80 249.65 112.65 247.56 113.40 245.51 C 121.13 223.17 127.78 200.33 138.22 179.03 M 145.23 265.21 C 141.13 266.66 137.52 269.74 135.87 273.82 C 131.77 283.46 139.27 296.32 150.02 296.51 C 158.87 295.95 167.38 287.94 166.75 278.75 C 165.71 269.02 154.51 261.74 145.23 265.21 Z" />
<path fill="#ffffff" opacity="1.00" d=" M 265.55 227.63 C 272.46 222.45 281.03 220.17 289.35 218.40 C 289.31 225.27 293.81 230.98 298.45 235.58 C 303.63 240.80 311.92 242.19 318.79 239.95 C 324.66 237.99 328.63 232.90 332.00 228.00 C 333.93 225.18 334.73 221.79 335.04 218.43 C 343.45 220.35 352.17 222.55 359.15 227.87 C 362.18 230.14 364.36 233.94 363.36 237.81 C 362.01 242.46 357.56 245.26 353.50 247.36 C 338.05 254.47 320.66 255.52 303.90 254.89 C 293.03 254.21 282.13 252.20 272.08 247.89 C 267.83 245.92 263.28 243.32 261.31 238.85 C 259.50 234.65 262.12 230.08 265.55 227.63 Z" />
</g>
</svg>
