<?xml version="1.0" encoding="UTF-8" ?>
<!DOCTYPE svg PUBLIC "-//W3C//DTD SVG 1.1//EN" "http://www.w3.org/Graphics/SVG/1.1/DTD/svg11.dtd">
<svg width="500pt" height="500pt" viewBox="0 0 500 500" version="1.1" xmlns="http://www.w3.org/2000/svg">
<g id="#ffffffff">
<path fill="#ffffff" opacity="1.00" d=" M 200.43 140.81 C 201.74 141.18 203.37 141.51 203.74 143.07 C 209.81 157.14 214.55 171.73 219.20 186.31 C 214.76 186.56 210.31 186.66 205.87 187.05 C 198.50 187.78 191.16 186.31 183.87 185.41 C 189.72 170.66 194.64 155.57 200.43 140.81 Z" />
<path fill="#ffffff" opacity="1.00" d=" M 297.39 140.79 C 298.41 141.20 299.86 141.22 300.36 142.41 C 306.56 156.66 311.41 171.45 316.10 186.25 C 311.71 186.62 307.29 186.61 302.90 187.05 C 295.51 187.79 288.17 186.32 280.87 185.42 C 286.55 170.61 291.60 155.56 297.39 140.79 Z" />
<path fill="#ffffff" opacity="1.00" d=" M 231.82 231.13 C 237.77 216.34 242.43 201.06 248.63 186.37 C 249.27 186.75 250.55 187.49 251.19 187.87 C 257.55 202.25 262.37 217.26 267.16 232.23 C 262.83 232.17 258.52 232.45 254.21 232.81 C 246.71 233.51 239.22 232.21 231.82 231.13 Z" />
<path fill="#ffffff" opacity="1.00" d=" M 177.17 205.32 C 185.42 206.17 193.69 207.03 201.99 207.24 C 209.98 206.83 217.97 206.22 225.92 205.28 C 228.20 210.78 230.15 216.40 232.22 221.98 C 231.61 223.62 231.01 225.26 230.42 226.90 C 221.29 230.04 211.59 230.87 201.99 230.50 C 191.36 230.86 180.61 230.06 170.44 226.78 C 170.57 225.27 170.26 223.64 171.03 222.26 C 173.51 216.78 175.28 211.02 177.17 205.32 Z" />
<path fill="#ffffff" opacity="1.00" d=" M 267.31 223.71 C 270.15 217.79 272.01 211.47 274.12 205.27 C 282.03 206.22 289.99 206.87 297.95 207.25 C 306.25 206.97 314.54 206.18 322.81 205.31 C 325.70 212.00 327.84 218.97 330.67 225.69 C 321.25 229.37 311.09 230.94 301.00 230.50 C 290.14 230.77 279.13 230.44 268.67 227.18 C 268.21 226.02 267.76 224.87 267.31 223.71 Z" />
<path fill="#ffffff" opacity="1.00" d=" M 162.66 245.69 C 173.40 247.60 184.04 250.89 195.05 250.51 C 204.37 250.43 213.76 250.99 222.95 249.05 C 221.05 255.64 219.32 262.30 216.74 268.67 C 216.16 270.02 215.80 271.44 215.65 272.90 C 202.94 274.57 189.99 273.92 177.38 271.76 C 172.04 270.64 166.45 269.44 161.97 266.14 C 159.76 264.58 158.18 261.77 158.86 259.02 C 159.83 254.50 161.61 250.20 162.66 245.69 Z" />
<path fill="#ffffff" opacity="1.00" d=" M 303.06 250.50 C 314.69 250.87 325.98 247.65 337.34 245.71 C 338.48 250.52 340.54 255.11 341.28 260.02 C 341.53 263.55 338.40 266.05 335.55 267.47 C 328.86 270.71 321.41 271.85 314.11 272.80 C 304.50 273.98 294.77 274.20 285.13 273.22 C 282.16 265.31 280.05 257.12 277.07 249.22 C 285.62 251.11 294.39 250.35 303.06 250.50 Z" />
<path fill="#ffffff" opacity="1.00" d=" M 249.02 253.01 C 257.32 252.76 265.59 251.93 273.85 251.11 C 276.67 257.83 278.83 264.81 281.71 271.51 C 270.07 276.16 257.36 276.84 244.97 276.26 C 235.89 276.59 226.85 275.13 218.17 272.53 C 218.28 271.17 218.12 269.74 218.77 268.49 C 221.32 262.85 223.16 256.93 225.10 251.07 C 233.04 252.00 241.03 252.68 249.02 253.01 Z" />
<path fill="#ffffff" opacity="1.00" d=" M 347.83 253.31 C 356.34 257.27 364.97 261.07 373.00 265.98 C 375.19 267.40 377.53 268.82 378.98 271.07 C 379.50 273.59 376.57 274.72 375.00 276.07 C 364.52 282.56 353.14 287.39 342.28 293.19 C 334.44 297.23 326.66 301.38 318.74 305.26 C 315.65 303.64 312.47 302.20 309.35 300.65 C 320.39 296.06 330.88 290.29 341.79 285.41 C 339.70 285.17 337.84 286.20 336.30 287.49 C 326.67 291.71 317.08 296.15 306.97 299.12 C 305.05 298.05 302.70 297.44 301.37 295.58 C 297.64 290.70 293.88 285.85 290.16 280.97 C 302.87 281.87 315.74 280.78 328.09 277.62 C 335.05 275.67 342.53 272.99 346.93 266.89 C 349.81 262.94 349.33 257.69 347.83 253.31 Z" />
<path fill="#ffffff" opacity="1.00" d=" M 126.27 267.25 C 134.51 261.81 143.33 257.29 152.33 253.29 C 151.72 257.04 150.40 261.06 152.13 264.72 C 154.99 271.24 162.08 274.29 168.40 276.49 C 182.04 280.68 196.51 281.89 210.72 280.97 C 207.27 285.45 203.67 289.80 200.21 294.27 C 198.63 296.40 196.34 297.80 194.17 299.26 C 181.06 294.99 168.57 289.08 155.75 284.06 C 166.71 290.20 177.93 295.86 189.33 301.14 C 186.68 302.62 183.97 304.00 181.33 305.50 C 162.33 296.55 143.81 286.59 125.49 276.32 C 124.14 275.50 122.02 274.92 122.02 272.98 C 121.37 270.16 124.46 268.72 126.27 267.25 Z" />
<path fill="#ffffff" opacity="1.00" d=" M 210.58 291.49 C 219.40 293.05 228.09 295.49 237.04 296.19 C 244.36 296.32 251.69 296.23 259.01 296.24 C 268.94 295.72 278.61 293.17 288.38 291.49 C 289.39 296.39 291.67 300.98 292.28 305.97 C 292.24 310.72 287.33 313.11 283.51 314.60 C 272.43 318.44 260.59 319.26 248.96 319.73 C 237.31 319.25 225.35 318.71 214.37 314.46 C 210.51 312.90 205.90 309.78 206.77 304.98 C 207.65 300.38 209.53 296.05 210.58 291.49 Z" />
<path fill="#ffffff" opacity="1.00" d=" M 176.44 311.54 C 184.02 306.86 191.94 302.68 200.12 299.12 C 199.55 303.20 198.30 307.65 200.49 311.49 C 203.97 317.73 211.07 320.62 217.57 322.65 C 236.82 328.16 257.51 328.40 277.00 323.93 C 284.61 321.97 292.92 319.40 297.81 312.81 C 300.83 308.83 300.39 303.45 298.72 299.01 C 307.54 303.14 316.51 307.05 324.77 312.25 C 326.71 313.58 328.87 314.90 330.03 317.03 C 330.24 319.51 327.47 320.58 325.88 321.93 C 314.72 328.74 302.63 333.82 291.19 340.12 C 278.76 346.48 266.56 353.45 253.43 358.28 C 248.27 360.37 243.14 357.29 238.39 355.52 C 215.35 345.30 193.27 333.09 171.21 320.94 C 170.04 320.14 169.53 318.46 169.79 317.12 C 171.39 314.65 174.05 313.15 176.44 311.54 M 203.87 330.06 C 216.29 336.05 228.35 342.85 241.20 347.91 C 245.01 349.23 249.15 351.21 253.16 349.47 C 266.78 344.80 279.34 337.62 292.17 331.18 C 279.48 336.08 267.36 342.65 254.09 345.96 C 248.16 347.77 242.36 344.92 236.82 343.10 C 225.68 339.15 215.01 333.99 203.87 330.06 Z" />
</g>
</svg>
