<?xml version="1.0" encoding="UTF-8" ?>
<!DOCTYPE svg PUBLIC "-//W3C//DTD SVG 1.1//EN" "http://www.w3.org/Graphics/SVG/1.1/DTD/svg11.dtd">
<svg width="500pt" height="500pt" viewBox="0 0 500 500" version="1.1" xmlns="http://www.w3.org/2000/svg">
<g id="#ffffffff">
<path fill="#ffffff" opacity="1.00" d=" M 194.84 150.75 C 196.78 147.74 200.43 145.93 203.99 146.02 C 234.34 145.97 264.68 146.03 295.02 145.99 C 299.28 145.63 304.09 146.50 306.75 150.16 C 310.98 155.57 308.83 162.73 309.33 169.02 C 320.89 169.40 332.47 169.09 344.04 169.18 C 344.55 188.32 331.28 206.57 313.25 212.63 C 311.98 213.20 310.37 213.29 309.41 214.38 C 309.16 218.67 309.45 222.97 309.29 227.26 C 320.87 227.38 332.45 227.29 344.03 227.31 C 344.42 242.74 335.95 257.73 323.05 266.03 C 318.85 268.98 313.91 270.48 309.24 272.48 C 309.41 276.79 309.33 281.11 309.31 285.43 C 320.88 285.44 332.45 285.46 344.02 285.42 C 344.38 300.04 336.90 314.50 324.97 322.89 C 320.30 326.42 314.81 328.58 309.32 330.44 C 308.72 337.22 311.18 344.95 306.74 350.83 C 304.72 353.42 301.40 355.06 298.09 354.98 C 267.04 355.03 235.98 354.98 204.92 355.00 C 201.28 355.25 197.49 353.74 195.26 350.81 C 190.78 344.96 193.31 337.22 192.67 330.44 C 182.88 327.44 173.57 321.94 167.44 313.58 C 161.16 305.65 157.74 295.54 157.98 285.42 C 169.55 285.46 181.12 285.44 192.69 285.43 C 192.67 281.11 192.59 276.79 192.76 272.48 C 188.78 270.69 184.49 269.54 180.78 267.16 C 166.90 259.10 157.50 243.49 157.97 227.30 C 169.55 227.30 181.13 227.37 192.71 227.26 C 192.55 222.97 192.84 218.67 192.59 214.39 C 191.86 213.40 190.49 213.36 189.45 212.87 C 171.10 207.01 157.42 188.58 157.96 169.18 C 169.53 169.09 181.11 169.40 192.67 169.02 C 193.19 162.94 191.10 156.12 194.84 150.75 M 244.70 169.87 C 233.05 172.97 224.99 186.07 228.31 197.80 C 230.14 205.14 235.67 211.47 242.80 214.07 C 250.92 217.43 260.85 215.22 267.06 209.08 C 272.22 204.26 275.01 196.96 274.32 189.93 C 273.32 182.18 268.48 174.93 261.38 171.51 C 256.30 168.79 250.21 168.65 244.70 169.87 M 245.29 227.88 C 233.44 230.75 225.00 243.89 228.25 255.80 C 229.76 262.02 233.91 267.48 239.43 270.69 C 246.18 274.65 255.00 274.80 261.88 271.06 C 268.87 267.34 273.73 259.95 274.37 252.07 C 275.08 242.31 268.85 232.58 259.79 228.95 C 255.26 226.95 250.06 226.90 245.29 227.88 M 246.24 285.77 C 234.02 288.31 224.97 301.53 228.21 313.80 C 230.18 322.56 237.56 329.77 246.37 331.50 C 251.25 332.12 256.44 332.03 260.90 329.72 C 268.22 326.37 273.29 319.00 274.32 311.08 C 275.03 303.80 272.04 296.25 266.55 291.43 C 261.20 286.39 253.41 284.41 246.24 285.77 Z" />
</g>
</svg>
