<?xml version="1.0" encoding="UTF-8" ?>
<!DOCTYPE svg PUBLIC "-//W3C//DTD SVG 1.1//EN" "http://www.w3.org/Graphics/SVG/1.1/DTD/svg11.dtd">
<svg width="500pt" height="500pt" viewBox="0 0 500 500" version="1.1" xmlns="http://www.w3.org/2000/svg">
<g id="#ffffffff">
<path fill="#ffffff" opacity="1.00" d=" M 242.35 180.84 C 242.43 172.33 242.29 163.82 242.43 155.32 C 248.14 155.43 253.86 155.43 259.57 155.32 C 259.70 163.82 259.57 172.33 259.65 180.84 C 253.88 180.86 248.12 180.86 242.35 180.84 Z" />
<path fill="#ffffff" opacity="1.00" d=" M 178.28 188.74 C 182.30 184.98 186.22 181.11 189.94 177.06 C 195.56 181.70 200.06 187.59 205.74 192.17 C 201.76 196.52 197.54 200.64 193.29 204.72 C 188.56 199.66 183.66 194.72 178.59 189.99 C 178.51 189.68 178.36 189.05 178.28 188.74 Z" />
<path fill="#ffffff" opacity="1.00" d=" M 296.22 192.17 C 301.89 187.56 306.41 181.68 312.07 177.08 C 315.85 181.20 319.84 185.14 323.93 188.96 C 319.19 194.51 313.53 199.23 308.70 204.72 C 304.42 200.66 300.19 196.54 296.22 192.17 Z" />
<path fill="#ffffff" opacity="1.00" d=" M 205.31 225.58 C 215.30 206.25 238.44 194.77 259.87 199.04 C 262.35 199.39 264.77 200.06 267.20 200.67 C 268.43 201.17 269.68 201.66 270.91 202.18 C 283.41 207.30 293.68 217.64 298.84 230.11 C 304.10 242.68 304.09 257.36 298.81 269.93 C 293.64 282.39 283.39 292.69 270.90 297.82 C 269.66 298.32 268.41 298.81 267.17 299.32 C 256.66 302.56 245.31 302.56 234.80 299.32 C 233.57 298.80 232.33 298.30 231.10 297.80 C 218.28 292.62 207.89 281.88 202.79 269.06 C 197.30 255.12 198.12 238.76 205.31 225.58 Z" />
<path fill="#ffffff" opacity="1.00" d=" M 156.01 241.37 C 164.65 241.41 173.30 241.30 181.94 241.43 C 181.79 247.14 181.80 252.86 181.94 258.58 C 173.30 258.69 164.65 258.59 156.01 258.63 C 156.00 252.88 156.00 247.12 156.01 241.37 Z" />
<path fill="#ffffff" opacity="1.00" d=" M 320.06 241.42 C 328.70 241.31 337.35 241.41 346.00 241.37 C 346.00 247.12 346.00 252.88 345.99 258.63 C 337.35 258.59 328.70 258.70 320.06 258.57 C 320.20 252.86 320.20 247.14 320.06 241.42 Z" />
<path fill="#ffffff" opacity="1.00" d=" M 178.08 311.07 C 182.74 305.44 188.48 300.78 193.29 295.26 C 197.56 299.34 201.81 303.45 205.77 307.83 C 200.09 312.41 195.57 318.28 189.94 322.93 C 186.15 318.82 182.19 314.86 178.08 311.07 Z" />
<path fill="#ffffff" opacity="1.00" d=" M 296.25 307.83 C 300.22 303.45 304.46 299.34 308.72 295.25 C 313.53 300.77 319.28 305.44 323.93 311.08 C 319.80 314.86 315.87 318.86 312.04 322.95 C 306.49 318.22 301.91 312.42 296.25 307.83 Z" />
<path fill="#ffffff" opacity="1.00" d=" M 242.35 319.16 C 248.12 319.14 253.88 319.14 259.65 319.16 C 259.58 327.66 259.70 336.16 259.57 344.66 C 253.86 344.56 248.14 344.56 242.43 344.66 C 242.30 336.16 242.42 327.66 242.35 319.16 Z" />
</g>
</svg>
