<?xml version="1.0" encoding="UTF-8" ?>
<!DOCTYPE svg PUBLIC "-//W3C//DTD SVG 1.1//EN" "http://www.w3.org/Graphics/SVG/1.1/DTD/svg11.dtd">
<svg width="500pt" height="500pt" viewBox="0 0 500 500" version="1.1" xmlns="http://www.w3.org/2000/svg">
<g id="#ffffffff">
<path fill="#ffffff" opacity="1.00" d=" M 236.41 156.49 C 266.97 134.73 312.36 137.56 340.06 162.86 C 355.37 176.56 364.94 196.29 366.72 216.72 C 367.64 229.44 366.86 242.51 362.32 254.53 C 355.51 272.54 342.57 287.22 330.00 301.44 C 330.01 313.18 329.99 324.91 330.01 336.65 C 321.22 344.07 310.05 347.55 299.41 351.36 C 299.81 338.90 299.06 326.45 299.25 313.98 C 299.42 307.32 298.54 300.66 298.98 294.02 C 299.50 294.73 296.72 296.73 297.28 294.96 C 297.82 293.46 298.56 292.04 299.08 290.54 C 298.27 289.82 297.44 289.13 296.59 288.47 C 295.94 288.46 294.65 288.44 294.00 288.42 C 295.47 287.88 296.93 287.32 298.40 286.78 C 294.73 281.48 290.45 276.02 284.20 273.70 C 279.88 272.04 275.15 272.02 270.60 272.44 C 249.88 274.96 229.16 277.46 208.43 279.97 C 209.56 272.52 209.43 264.96 208.49 257.50 C 203.39 258.38 198.27 259.28 193.09 259.42 C 190.31 259.25 187.11 259.27 184.97 257.22 C 183.28 255.33 184.34 252.76 184.88 250.65 C 188.72 237.52 192.93 224.49 197.40 211.56 C 205.27 190.30 217.55 169.73 236.41 156.49 Z" />
<path fill="#ffffff" opacity="1.00" d=" M 143.35 249.18 C 147.98 246.29 154.53 251.59 152.71 256.71 C 151.48 261.24 144.72 263.09 141.68 259.33 C 138.80 256.38 140.02 251.25 143.35 249.18 Z" />
<path fill="#ffffff" opacity="1.00" d=" M 159.61 256.37 C 163.23 255.39 168.17 259.48 166.25 263.24 C 164.77 266.81 158.79 267.58 157.03 263.87 C 156.30 261.23 156.57 257.40 159.61 256.37 Z" />
<path fill="#ffffff" opacity="1.00" d=" M 173.40 264.43 C 175.92 263.21 179.08 264.83 180.22 267.21 C 180.93 269.28 179.28 270.81 177.93 272.09 C 176.33 271.86 174.29 272.38 173.19 270.87 C 171.73 269.03 171.99 266.23 173.40 264.43 Z" />
<path fill="#ffffff" opacity="1.00" d=" M 188.01 272.75 C 189.00 272.12 190.00 271.49 191.00 270.86 C 192.01 271.48 193.01 272.11 194.01 272.75 C 194.00 274.21 194.00 275.67 194.01 277.13 C 192.02 277.85 189.97 277.85 187.99 277.13 C 187.99 275.67 188.00 274.21 188.01 272.75 Z" />
<path fill="#ffffff" opacity="1.00" d=" M 136.41 282.40 C 140.49 279.61 147.51 282.69 147.03 287.97 C 147.12 292.57 141.37 296.06 137.37 293.60 C 133.13 291.72 132.69 284.99 136.41 282.40 Z" />
<path fill="#ffffff" opacity="1.00" d=" M 153.40 284.20 C 156.43 282.19 162.44 283.72 162.29 287.94 C 162.49 291.57 158.29 294.24 155.02 292.94 C 152.30 291.18 150.83 286.67 153.40 284.20 Z" />
<path fill="#ffffff" opacity="1.00" d=" M 170.49 285.72 C 173.03 284.45 177.94 285.41 177.54 289.01 C 177.82 292.54 172.55 294.49 170.55 291.52 C 169.46 289.88 168.26 286.97 170.49 285.72 Z" />
<path fill="#ffffff" opacity="1.00" d=" M 188.14 285.97 C 189.33 286.20 190.53 286.43 191.72 286.66 C 192.30 288.05 192.87 289.44 193.42 290.85 C 191.71 291.91 189.85 292.66 187.86 292.96 C 187.26 291.59 186.67 290.22 186.09 288.85 C 186.77 287.88 187.45 286.92 188.14 285.97 Z" />
<path fill="#ffffff" opacity="1.00" d=" M 208.46 295.37 C 229.06 292.55 249.71 290.07 270.38 287.80 C 274.09 287.48 278.46 286.82 281.54 289.42 C 284.32 294.43 284.81 300.32 285.00 305.94 C 284.97 322.69 285.27 339.46 283.98 356.16 C 280.43 356.37 276.95 357.15 273.46 357.76 C 266.62 358.58 259.60 357.28 252.85 358.45 C 253.00 358.08 253.32 357.34 253.48 356.96 C 253.52 342.36 253.49 327.75 253.49 313.15 C 245.88 311.76 237.87 310.78 230.34 313.10 C 225.05 314.61 219.49 314.31 214.09 313.76 C 211.88 313.57 209.69 312.11 209.15 309.88 C 208.04 305.12 208.67 300.20 208.46 295.37 Z" />
<path fill="#ffffff" opacity="1.00" d=" M 296.43 297.18 C 297.08 298.56 296.67 300.14 296.76 301.61 C 294.68 301.49 292.62 301.13 290.67 300.39 C 292.29 300.63 293.89 300.94 295.51 301.24 C 295.82 299.88 296.06 298.51 296.43 297.18 Z" />
<path fill="#ffffff" opacity="1.00" d=" M 189.99 298.87 C 191.97 298.14 194.03 298.14 196.02 298.87 C 196.00 300.33 196.00 301.79 195.99 303.25 C 194.99 303.86 193.99 304.48 193.00 305.12 C 192.00 304.49 191.00 303.87 190.00 303.26 C 190.00 301.79 189.99 300.33 189.99 298.87 Z" />
<path fill="#ffffff" opacity="1.00" d=" M 176.37 304.12 C 178.45 303.49 180.86 304.16 181.96 306.13 C 183.76 309.85 178.55 313.14 175.39 311.55 C 173.56 309.48 173.73 305.47 176.37 304.12 Z" />
<path fill="#ffffff" opacity="1.00" d=" M 160.36 310.43 C 163.26 308.71 167.62 310.07 168.46 313.48 C 169.80 318.19 161.75 322.46 159.28 317.60 C 158.45 315.38 158.09 311.94 160.36 310.43 Z" />
<path fill="#ffffff" opacity="1.00" d=" M 144.74 315.68 C 148.07 313.34 153.47 315.18 154.61 319.12 C 156.32 323.52 151.63 328.53 147.10 327.48 C 141.82 326.54 140.08 318.59 144.74 315.68 Z" />
</g>
</svg>
