<?xml version="1.0" encoding="UTF-8" ?>
<!DOCTYPE svg PUBLIC "-//W3C//DTD SVG 1.1//EN" "http://www.w3.org/Graphics/SVG/1.1/DTD/svg11.dtd">
<svg width="500pt" height="500pt" viewBox="0 0 500 500" version="1.1" xmlns="http://www.w3.org/2000/svg">
<g id="#ffffffff">
<path fill="#ffffff" opacity="1.00" d=" M 249.42 142.01 C 277.14 140.66 305.23 150.34 326.00 168.80 C 325.99 222.77 326.01 276.75 325.99 330.72 C 318.60 337.36 310.33 343.07 301.26 347.17 C 298.93 348.19 296.90 349.74 294.82 351.19 C 291.26 350.66 287.99 352.62 284.61 353.40 C 269.48 358.30 253.13 359.08 237.45 356.86 C 237.84 354.59 240.30 354.77 241.96 353.97 C 247.08 352.05 250.09 345.93 248.22 340.73 C 245.36 331.84 240.54 323.74 235.98 315.65 C 235.26 316.78 234.54 317.92 233.83 319.06 C 225.73 314.45 215.84 312.70 209.17 305.82 C 205.27 301.95 204.69 296.18 204.97 290.98 C 204.47 285.90 208.46 282.13 210.24 277.73 C 208.97 271.84 207.10 266.05 205.53 260.22 C 204.71 260.55 203.07 261.20 202.25 261.53 C 201.13 255.33 199.94 249.15 198.76 242.96 C 200.30 242.24 201.84 241.54 203.39 240.85 C 203.94 245.49 204.58 250.12 205.11 254.76 C 206.56 254.11 208.02 253.49 209.48 252.89 C 209.99 260.93 210.23 268.99 210.62 277.03 C 219.49 262.20 229.24 247.92 238.23 233.16 C 246.56 219.18 254.56 204.39 256.88 188.05 C 258.96 175.49 255.18 162.99 251.52 151.09 C 250.10 148.26 249.58 145.15 249.42 142.01 M 255.83 291.07 C 263.37 290.81 267.93 299.16 266.59 305.89 C 265.59 307.96 264.37 309.91 263.44 312.02 C 263.96 312.31 265.00 312.90 265.52 313.19 C 267.25 310.06 268.93 306.67 268.92 303.01 C 268.44 297.66 265.88 291.68 260.48 289.73 C 258.82 289.27 255.56 288.29 255.83 291.07 M 228.68 305.02 C 228.97 306.34 228.99 307.89 230.30 308.68 C 234.22 311.67 239.18 312.78 243.91 313.86 C 246.96 314.42 250.26 315.53 253.22 314.03 C 248.40 312.67 244.01 310.13 240.44 306.61 C 237.39 303.56 232.42 302.79 228.68 305.02 Z" />
<path fill="#ffffff" opacity="1.00" d=" M 181.83 249.56 C 182.94 248.32 184.05 247.09 185.19 245.88 C 187.55 249.79 189.90 253.71 192.24 257.63 C 193.36 256.51 194.48 255.39 195.60 254.28 C 199.47 262.09 203.66 269.76 207.10 277.77 C 203.09 272.70 199.02 267.70 194.94 262.69 C 194.10 263.52 193.27 264.35 192.44 265.18 C 188.87 259.99 185.31 254.80 181.83 249.56 Z" />
<path fill="#ffffff" opacity="1.00" d=" M 174.30 261.86 C 178.26 264.39 182.17 266.99 186.10 269.56 C 186.60 268.03 187.10 266.51 187.60 265.00 C 194.27 270.34 201.20 275.37 207.71 280.90 C 201.93 278.33 196.34 275.35 190.49 272.93 C 190.22 273.74 189.68 275.35 189.41 276.16 C 183.88 273.09 178.44 269.88 172.91 266.80 C 173.38 265.15 173.85 263.51 174.30 261.86 Z" />
<path fill="#ffffff" opacity="1.00" d=" M 225.34 340.94 C 227.18 332.63 231.62 325.17 235.91 317.91 C 239.96 325.11 244.21 332.33 246.78 340.22 C 248.82 346.84 242.81 354.03 235.97 353.54 C 229.44 353.92 223.92 347.31 225.34 340.94 Z" />
</g>
</svg>
