<?xml version="1.0" encoding="UTF-8" ?>
<!DOCTYPE svg PUBLIC "-//W3C//DTD SVG 1.1//EN" "http://www.w3.org/Graphics/SVG/1.1/DTD/svg11.dtd">
<svg width="500pt" height="500pt" viewBox="0 0 500 500" version="1.1" xmlns="http://www.w3.org/2000/svg">
<g id="#ffffffff">
<path fill="#ffffff" opacity="1.00" d=" M 245.32 145.13 C 257.83 142.13 271.13 151.71 273.52 164.05 C 273.63 166.31 273.61 168.58 273.67 170.85 C 279.55 167.73 286.20 165.12 292.93 166.93 C 302.06 169.25 309.83 176.85 311.62 186.19 C 312.27 191.65 312.09 197.48 309.35 202.40 C 307.17 207.07 302.58 209.74 298.74 212.87 C 304.94 216.29 310.18 221.89 311.66 228.98 C 312.56 236.13 311.64 244.01 306.51 249.48 C 301.77 255.27 294.42 258.58 286.98 258.65 C 282.28 258.25 277.74 256.63 273.66 254.30 C 274.54 261.46 271.88 268.72 266.57 273.60 C 262.30 278.10 256.02 280.03 250.00 280.55 C 243.97 280.03 237.69 278.10 233.41 273.59 C 228.11 268.70 225.46 261.46 226.34 254.30 C 220.82 257.31 214.26 259.78 207.95 258.03 C 199.34 256.56 192.11 249.98 189.03 241.94 C 187.17 235.85 187.54 229.09 190.40 223.37 C 192.77 218.78 196.90 215.44 201.28 212.87 C 197.41 209.76 192.83 207.06 190.65 202.39 C 187.89 197.48 187.73 191.65 188.38 186.19 C 190.17 176.85 197.94 169.25 207.06 166.93 C 213.80 165.12 220.45 167.72 226.33 170.86 C 226.59 167.37 225.84 163.64 227.51 160.40 C 230.57 152.87 237.26 146.75 245.32 145.13 M 241.79 189.53 C 234.49 192.42 228.72 198.91 226.59 206.44 C 226.22 211.08 226.13 215.80 226.84 220.41 L 226.98 219.48 C 228.14 223.63 230.44 227.49 233.54 230.47 C 237.95 234.85 244.09 236.34 250.00 237.38 C 254.42 236.34 259.24 235.84 263.00 233.07 C 267.97 230.10 271.44 224.99 273.02 219.48 L 273.16 220.41 C 273.87 215.80 273.77 211.08 273.41 206.45 C 271.28 198.90 265.50 192.43 258.21 189.53 C 256.06 187.31 252.84 187.49 250.00 187.46 C 247.15 187.49 243.94 187.32 241.79 189.53 Z" />
<path fill="#ffffff" opacity="1.00" d=" M 163.27 261.33 C 185.87 259.97 208.26 270.04 224.00 286.00 C 234.25 295.81 242.03 308.23 246.23 321.79 C 247.08 327.53 248.65 333.20 248.67 339.04 C 248.63 341.60 249.17 344.11 250.00 346.53 C 250.83 344.11 251.37 341.60 251.33 339.04 C 251.34 333.20 252.92 327.53 253.77 321.79 C 262.89 292.75 288.27 269.11 318.12 262.69 C 324.22 261.21 330.47 261.20 336.72 261.33 C 336.65 264.44 336.64 267.55 336.48 270.66 C 332.97 308.73 300.96 342.02 263.04 346.94 C 250.82 348.41 238.24 348.03 226.32 344.78 C 206.72 339.44 189.61 326.49 178.06 309.91 C 170.42 299.19 165.83 286.52 163.78 273.57 C 163.33 269.51 163.39 265.41 163.27 261.33 Z" />
</g>
<g id="#7f7f7fb0">
<path fill="#7f7f7f" opacity="0.69" d=" M 241.79 189.53 C 243.94 187.32 247.15 187.49 250.00 187.46 C 252.84 187.49 256.06 187.31 258.21 189.53 C 252.75 189.06 247.25 189.06 241.79 189.53 Z" />
</g>
<g id="#00000027">
<path fill="#000000" opacity="0.15" d=" M 241.79 189.53 C 247.25 189.06 252.75 189.06 258.21 189.53 C 265.50 192.43 271.28 198.90 273.41 206.45 C 273.77 211.08 273.87 215.80 273.16 220.41 L 273.02 219.48 C 272.80 216.08 273.14 212.65 272.66 209.28 C 271.32 206.46 268.83 204.40 266.98 201.94 C 259.15 191.25 240.84 191.25 233.02 201.94 C 231.18 204.41 228.66 206.46 227.35 209.28 C 226.87 212.66 227.20 216.08 226.98 219.48 L 226.84 220.41 C 226.13 215.80 226.22 211.08 226.59 206.44 C 228.72 198.91 234.49 192.42 241.79 189.53 Z" />
<path fill="#000000" opacity="0.15" d=" M 263.04 346.94 C 300.96 342.02 332.97 308.73 336.48 270.66 C 337.28 273.64 337.38 276.75 336.75 279.77 C 335.65 285.25 335.48 290.98 333.24 296.17 C 330.18 303.43 326.75 310.63 321.91 316.89 C 317.42 322.38 313.16 328.18 307.40 332.42 C 300.14 338.95 291.52 343.74 282.60 347.58 C 268.61 353.35 253.13 353.99 238.23 352.76 C 207.06 349.34 179.44 327.10 167.67 298.31 C 164.75 292.55 164.41 286.03 163.23 279.80 C 162.75 277.70 163.19 275.59 163.78 273.57 C 165.83 286.52 170.42 299.19 178.06 309.91 C 189.61 326.49 206.72 339.44 226.32 344.78 C 238.24 348.03 250.82 348.41 263.04 346.94 Z" />
</g>
<g id="#00000026">
<path fill="#000000" opacity="0.15" d=" M 311.66 228.98 C 313.22 230.93 313.05 233.55 313.38 235.89 C 315.04 246.50 308.24 257.26 298.69 261.68 C 292.89 264.74 286.20 264.24 279.93 263.36 C 276.87 262.83 274.80 265.50 274.28 268.20 C 270.82 281.00 255.70 288.89 243.17 284.93 C 236.96 283.34 231.56 279.21 228.11 273.86 C 226.33 271.05 225.91 267.62 224.22 264.78 C 221.71 262.31 218.02 263.73 214.97 263.90 C 205.85 265.18 196.43 260.65 191.16 253.21 C 193.86 249.27 188.72 246.00 189.03 241.94 C 192.11 249.98 199.34 256.56 207.95 258.03 C 214.26 259.78 220.82 257.31 226.34 254.30 C 225.46 261.46 228.11 268.70 233.41 273.59 C 237.69 278.10 243.97 280.03 250.00 280.55 C 256.02 280.03 262.30 278.10 266.57 273.60 C 271.88 268.72 274.54 261.46 273.66 254.30 C 277.74 256.63 282.28 258.25 286.98 258.65 C 294.42 258.58 301.77 255.27 306.51 249.48 C 311.64 244.01 312.56 236.13 311.66 228.98 Z" />
</g>
<g id="#68686897">
<path fill="#686868" opacity="0.59" d=" M 246.23 321.79 C 248.64 325.41 248.15 330.00 250.00 333.84 C 251.84 330.00 251.36 325.41 253.77 321.79 C 252.92 327.53 251.34 333.20 251.33 339.04 C 251.37 341.60 250.83 344.11 250.00 346.53 C 249.17 344.11 248.63 341.60 248.67 339.04 C 248.65 333.20 247.08 327.53 246.23 321.79 Z" />
</g>
</svg>
