<?xml version="1.0" encoding="UTF-8"?>
<!DOCTYPE svg PUBLIC "-//W3C//DTD SVG 1.1//EN" "http://www.w3.org/Graphics/SVG/1.1/DTD/svg11.dtd">
<!-- Creator: CorelDRAW 2018 (64 Bit Versión de evaluación) -->
<svg xmlns="http://www.w3.org/2000/svg" xml:space="preserve" width="215.9mm" height="279.4mm" version="1.1" style="shape-rendering:geometricPrecision; text-rendering:geometricPrecision; image-rendering:optimizeQuality; fill-rule:evenodd; clip-rule:evenodd"
viewBox="0 0 21590 27940"
 xmlns:xlink="http://www.w3.org/1999/xlink">
 <defs>
  <style type="text/css">
   <![CDATA[
    .str0 {stroke:#FEFEFE;stroke-width:150;stroke-miterlimit:22.9256}
    .str3 {stroke:#FEFEFE;stroke-width:20;stroke-miterlimit:22.9256}
    .str1 {stroke:#D2D3D5;stroke-width:20;stroke-miterlimit:22.9256}
    .str2 {stroke:#A9ABAE;stroke-width:20;stroke-miterlimit:22.9256}
    .fil0 {fill:#FEFEFE}
    .fil2 {fill:#E6E7E8}
    .fil1 {fill:#D2D3D5}
    .fil3 {fill:#A9ABAE}
   ]]>
  </style>
 </defs>
 <g id="Capa_x0020_1">
  <metadata id="CorelCorpID_0Corel-Layer"/>
  <path class="fil0 str0" d="M14412.87 13039.24c-1818.66,-4954.88 -4891.06,-2800.51 -2980.14,104.57 -2608.12,-831.68 -2776.93,1716.36 366.14,2409.6 -3837.03,-20.98 -3543.62,2757.14 -339.84,2483.46 -1642.88,2084.96 614.54,3117.39 2326.61,182.99 -1987.96,4844.78 1290.85,4827.62 2091.33,1803.77 1266.18,2008.21 2951.34,422.97 1124.08,-1856.05 2680.72,2416.5 4255.52,920.89 2640.32,-1359.36 2683.43,-1202.87 1369.37,-3546.21 -2483.46,-2065.19 3399.12,-1870.14 1593.91,-3741.59 -627.4,-2352.75 983.62,-3330.31 -2866.01,-3654.08 -2117.64,648.96z"/>
  <path class="fil1 str1" d="M14517.6 14403.18l-444.41 -1359.36 52.29 1490.08 -758.11 -1542.37 458.47 1590.45 -1373.43 -1433.59 1481.1 1869.39 -1820.94 -1241.99 1202.52 1202.51c0,0 -1751.5,-601.26 -1542.36,-548.97 209.14,52.28 1570.31,863.27 1570.31,863.27l1174.56 -889.42z"/>
  <polygon class="fil1 str1" points="14642.04,17331.9 14203.9,19239.38 15014.29,17618.6 14622.17,19709.94 15301.86,17801.6 15589.41,19605.37 15537.13,17932.3 16295.24,19553.08 15772.4,17723.17 16635.08,18899.54 15738.88,17049.22 "/>
  <polygon class="fil1 str1" points="16120.46,16656.95 17654.59,17697.03 16317.95,16248.4 18255.86,17331.05 16368.41,16035.99 18647.98,16468.38 16389.15,15780.8 19118.53,15631.84 16356.83,15463.13 18412.7,15004.44 16279.27,15204.17 "/>
  <polygon class="fil1 str1" points="14154.87,17191.06 12766.11,18481.28 13628.79,17331.05 11929.58,18219.86 13471.94,17095.77 11720.45,17566.32 13236.67,16886.64 11380.6,16938.92 13132.1,16494.52 11720.45,16233.09 13323.41,16204.61 "/>
  <circle class="fil2 str1" cx="14827.19" cy="15780.8" r="1561.96"/>
  <polygon class="fil1 str1" points="16108.26,14886.93 17027.2,13984.92 15693.97,14716.88 16844.21,13409.8 15275.71,14560.03 16399.8,12939.25 15014.29,14507.75 15458.7,12939.25 14827.19,14218.83 "/>
  <circle class="fil3 str2" cx="14831.3" cy="16938.93" r="182.99"/>
  <circle class="fil3 str2" cx="15537.12" cy="16651.36" r="182.99"/>
  <circle class="fil3 str2" cx="14818.23" cy="16298.45" r="169.92"/>
  <circle class="fil3 str2" cx="14073.19" cy="16442.22" r="156.85"/>
  <circle class="fil3 str2" cx="13733.35" cy="15736.41" r="209.13"/>
  <circle class="fil3 str2" cx="14633.18" cy="15616.71" r="194"/>
  <circle class="fil3 str2" cx="14047.05" cy="15161.29" r="182.99"/>
  <circle class="fil0 str3" cx="4408.51" cy="11551.58" r="846.67"/>
  <circle class="fil0 str3" cx="7953.93" cy="9170.33" r="793.75"/>
  <circle class="fil0 str3" cx="3614.76" cy="7900.33" r="687.92"/>
  <circle class="fil0 str3" cx="5519.76" cy="15308.66" r="793.75"/>
  <circle class="fil0 str3" cx="7795.17" cy="13033.24" r="740.83"/>
  <circle class="fil0 str3" cx="8086.22" cy="10096.37" r="926.04"/>
  <circle class="fil0 str3" cx="1974.34" cy="13562.4" r="846.66"/>
  <circle class="fil0 str3" cx="1614.53" cy="9790.27" r="278.52"/>
  <circle class="fil0 str3" cx="4631.89" cy="13550.37" r="263.05"/>
  <circle class="fil0 str3" cx="10449.98" cy="12281.53" r="263.05"/>
  <circle class="fil0 str3" cx="8453.88" cy="11832.79" r="247.57"/>
  <circle class="fil0 str3" cx="7958.73" cy="14896.58" r="247.58"/>
  <circle class="fil0 str3" cx="7509.99" cy="17047.4" r="541.57"/>
  <circle class="fil0 str3" cx="9181.15" cy="15561.94" r="294"/>
  <circle class="fil0 str3" cx="5978.1" cy="9666.48" r="866.52"/>
  <circle class="fil0 str3" cx="6364.94" cy="12281.53" r="727.26"/>
  <circle class="fil0 str3" cx="9846.51" cy="8954.69" r="402.31"/>
  <circle class="fil0 str3" cx="9846.51" cy="11151.95" r="526.1"/>
  <circle class="fil0 str3" cx="6906.52" cy="11090.06" r="309.47"/>
  <circle class="fil0 str3" cx="4384.32" cy="9929.54" r="263.05"/>
  <circle class="fil0 str3" cx="2620.32" cy="11941.11" r="294"/>
  <circle class="fil0 str3" cx="3424.95" cy="14262.15" r="263.05"/>
  <circle class="fil0 str3" cx="6194.73" cy="14246.68" r="773.68"/>
  <circle class="fil0 str3" cx="5250.84" cy="12745.74" r="294"/>
  <circle class="fil0 str3" cx="5954.89" cy="11531.06" r="410.05"/>
  <circle class="fil0 str3" cx="1645.48" cy="12173.21" r="433.26"/>
  <circle class="fil0 str3" cx="2744.11" cy="10300.9" r="386.84"/>
  <circle class="fil0 str3" cx="1336.01" cy="9790.27" r="846.67"/>
  <circle class="fil0 str3" cx="542.26" cy="6139.02" r="687.92"/>
  <circle class="fil0 str3" cx="2447.26" cy="13547.35" r="793.75"/>
  <circle class="fil0 str3" cx="-1098.16" cy="11801.09" r="846.66"/>
  <circle class="fil0 str3" cx="-1457.97" cy="8028.96" r="278.52"/>
  <circle class="fil0 str3" cx="1559.39" cy="11789.06" r="263.05"/>
  <circle class="fil0 str3" cx="2905.6" cy="7905.17" r="866.52"/>
  <circle class="fil0 str3" cx="1311.82" cy="8168.23" r="263.05"/>
  <circle class="fil0 str3" cx="-452.18" cy="10179.8" r="294"/>
  <circle class="fil0 str3" cx="352.45" cy="12500.84" r="263.05"/>
  <circle class="fil0 str3" cx="2178.34" cy="10984.43" r="294"/>
  <circle class="fil0 str3" cx="2882.39" cy="9769.75" r="410.05"/>
  <circle class="fil0 str3" cx="-1427.02" cy="10411.9" r="433.26"/>
  <circle class="fil0 str3" cx="-328.39" cy="8539.59" r="386.84"/>
  <circle class="fil0 str3" cx="3244.35" cy="2555.75" r="846.67"/>
  <circle class="fil0 str3" cx="2450.6" cy="-1095.5" r="687.92"/>
  <circle class="fil0 str3" cx="4355.6" cy="6312.83" r="793.75"/>
  <circle class="fil0 str3" cx="810.18" cy="4566.57" r="846.66"/>
  <circle class="fil0 str3" cx="450.37" cy="794.44" r="278.52"/>
  <circle class="fil0 str3" cx="3467.73" cy="4554.54" r="263.05"/>
  <circle class="fil0 str3" cx="4813.94" cy="670.65" r="866.52"/>
  <circle class="fil0 str3" cx="3220.16" cy="933.71" r="263.05"/>
  <circle class="fil0 str3" cx="1456.16" cy="2945.28" r="294"/>
  <circle class="fil0 str3" cx="2260.79" cy="5266.32" r="263.05"/>
  <circle class="fil0 str3" cx="4086.68" cy="3749.91" r="294"/>
  <circle class="fil0 str3" cx="4790.73" cy="2535.23" r="410.05"/>
  <circle class="fil0 str3" cx="481.32" cy="3177.38" r="433.26"/>
  <circle class="fil0 str3" cx="1579.95" cy="1305.07" r="386.84"/>
  <circle class="fil0 str3" cx="7908.58" cy="3383.09" r="846.67"/>
  <circle class="fil0 str3" cx="7114.83" cy="-268.16" r="687.92"/>
  <circle class="fil0 str3" cx="9019.83" cy="7140.17" r="793.75"/>
  <circle class="fil0 str3" cx="5474.41" cy="5393.91" r="846.66"/>
  <circle class="fil0 str3" cx="5114.6" cy="1621.78" r="278.52"/>
  <circle class="fil0 str3" cx="8131.96" cy="5381.88" r="263.05"/>
  <circle class="fil0 str3" cx="9478.17" cy="1497.99" r="866.52"/>
  <circle class="fil0 str3" cx="7884.39" cy="1761.05" r="263.05"/>
  <circle class="fil0 str3" cx="6120.39" cy="3772.62" r="294"/>
  <circle class="fil0 str3" cx="6925.02" cy="6093.66" r="263.05"/>
  <circle class="fil0 str3" cx="8750.91" cy="4577.25" r="294"/>
  <circle class="fil0 str3" cx="9454.96" cy="3362.57" r="410.05"/>
  <circle class="fil0 str3" cx="5145.55" cy="4004.72" r="433.26"/>
  <circle class="fil0 str3" cx="6244.18" cy="2132.41" r="386.84"/>
  <circle class="fil0 str3" cx="9019.83" cy="7193.09" r="846.67"/>
  <circle class="fil0 str3" cx="8226.08" cy="3541.84" r="687.92"/>
  <circle class="fil0 str3" cx="10131.08" cy="10950.17" r="793.75"/>
  <circle class="fil0 str3" cx="6585.66" cy="9203.91" r="846.66"/>
  <circle class="fil0 str3" cx="6225.85" cy="5431.78" r="278.52"/>
  <circle class="fil0 str3" cx="9243.21" cy="9191.88" r="263.05"/>
  <circle class="fil0 str3" cx="10589.42" cy="5307.99" r="866.52"/>
  <circle class="fil0 str3" cx="8995.64" cy="5571.05" r="263.05"/>
  <circle class="fil0 str3" cx="7231.64" cy="7582.62" r="294"/>
  <circle class="fil0 str3" cx="8036.27" cy="9903.66" r="263.05"/>
  <circle class="fil0 str3" cx="9862.16" cy="8387.25" r="294"/>
  <circle class="fil0 str3" cx="10566.21" cy="7172.57" r="410.05"/>
  <circle class="fil0 str3" cx="6256.8" cy="7814.72" r="433.26"/>
  <circle class="fil0 str3" cx="7355.43" cy="5942.41" r="386.84"/>
 </g>
</svg>
