<?xml version="1.0" encoding="UTF-8"?>
<!DOCTYPE svg PUBLIC "-//W3C//DTD SVG 1.1//EN" "http://www.w3.org/Graphics/SVG/1.1/DTD/svg11.dtd">
<!-- Creator: CorelDRAW 2018 (64 Bit Versión de evaluación) -->
<svg xmlns="http://www.w3.org/2000/svg" xml:space="preserve" width="2550px" height="3300px" version="1.1" style="shape-rendering:geometricPrecision; text-rendering:geometricPrecision; image-rendering:optimizeQuality; fill-rule:evenodd; clip-rule:evenodd"
viewBox="0 0 2550 3300"
 xmlns:xlink="http://www.w3.org/1999/xlink">
 <defs>
  <style type="text/css">
   <![CDATA[
    .str0 {stroke:#FEFEFE;stroke-width:2.36;stroke-miterlimit:22.9256}
    .fil0 {fill:#FEFEFE}
   ]]>
  </style>
 </defs>
 <g id="Capa_x0020_1">
  <metadata id="CorelCorpID_0Corel-Layer"/>
  <g id="_112327231280">
   <g>
    <path class="fil0 str0" d="M714.6 1569.18c-43.06,70.49 -89.24,112.85 -157.29,139.59 -1.74,-83.69 13.19,-170.49 41.66,-215.63 65.63,-81.6 161.98,20.66 115.63,76.04z"/>
    <path class="fil0 str0" d="M785.89 1758.52c-81.71,12.05 -143.81,3.7 -207.92,-31.47 63.17,-54.91 139.42,-99.01 192.32,-106.03 104.7,-1.83 87.83,137.66 15.6,137.5z"/>
    <path class="fil0 str0" d="M716.37 1932.58c-70.19,-43.53 -112.24,-89.99 -138.52,-158.23 83.69,-1.17 170.39,14.34 215.34,43.11 81.16,66.17 -21.75,161.84 -76.82,115.12z"/>
    <path class="fil0 str0" d="M525.53 1993.18c-14.16,-81.37 -7.41,-143.68 26.08,-208.67 56.53,61.73 102.59,136.81 110.98,189.51 4.53,104.62 -135.35,91.36 -137.06,19.16z"/>
   </g>
   <g>
    <path class="fil0 str0" d="M353.83 1919.74c42.17,-71.02 87.82,-113.95 155.54,-141.53 2.78,83.65 -11.07,170.63 -38.98,216.12 -64.6,82.41 -162.22,-18.64 -116.56,-74.59z"/>
    <path class="fil0 str0" d="M280.18 1731.3c81.56,-13.07 143.76,-5.49 208.3,28.88 -62.48,55.69 -138.17,100.74 -190.98,108.42 -104.67,3.13 -89.54,-136.56 -17.32,-137.3z"/>
    <path class="fil0 str0" d="M347.53 1556.39c70.73,42.65 113.36,88.59 140.49,156.49 -83.67,2.22 -170.56,-12.21 -215.87,-40.43 -81.97,-65.15 19.73,-162.09 75.38,-116.06z"/>
    <path class="fil0 str0" d="M537.6 1493.42c15.18,81.19 9.21,143.57 -23.48,208.98 -57.28,-61.02 -104.28,-135.52 -113.32,-188.12 -5.84,-104.55 134.19,-93.04 136.8,-20.86z"/>
   </g>
  </g>
  <g id="_112327227088">
   <g>
    <path class="fil0 str0" d="M1202.73 1730.42c-43.06,70.48 -89.24,112.84 -157.29,139.58 -1.74,-83.68 13.19,-170.49 41.66,-215.63 65.63,-81.6 161.98,20.66 115.63,76.05z"/>
    <path class="fil0 str0" d="M1274.02 1919.76c-81.71,12.05 -143.81,3.69 -207.92,-31.47 63.17,-54.91 139.41,-99.01 192.32,-106.04 104.69,-1.83 87.82,137.66 15.6,137.51z"/>
    <path class="fil0 str0" d="M1204.5 2093.81c-70.19,-43.53 -112.24,-89.99 -138.52,-158.22 83.69,-1.18 170.39,14.33 215.34,43.11 81.15,66.17 -21.75,161.83 -76.82,115.11z"/>
    <path class="fil0 str0" d="M1013.66 2154.41c-14.16,-81.37 -7.41,-143.67 26.08,-208.67 56.52,61.73 102.58,136.81 110.97,189.51 4.54,104.62 -135.34,91.36 -137.05,19.16z"/>
   </g>
   <g>
    <path class="fil0 str0" d="M841.96 2080.97c42.17,-71.02 87.82,-113.95 155.54,-141.53 2.78,83.65 -11.07,170.64 -38.98,216.13 -64.6,82.41 -162.22,-18.65 -116.56,-74.6z"/>
    <path class="fil0 str0" d="M768.31 1892.53c81.56,-13.07 143.76,-5.48 208.3,28.88 -62.48,55.69 -138.17,100.74 -190.98,108.42 -104.67,3.13 -89.54,-136.55 -17.32,-137.3z"/>
    <path class="fil0 str0" d="M835.66 1717.63c70.73,42.65 113.36,88.58 140.48,156.48 -83.66,2.22 -170.56,-12.21 -215.86,-40.42 -81.97,-65.16 19.73,-162.1 75.38,-116.06z"/>
    <path class="fil0 str0" d="M1025.73 1654.65c15.17,81.19 9.2,143.57 -23.48,208.98 -57.29,-61.02 -104.28,-135.52 -113.32,-188.12 -5.84,-104.55 134.19,-93.03 136.8,-20.86z"/>
   </g>
  </g>
  <g id="_112327224176">
   <g>
    <path class="fil0 str0" d="M1761.06 1755.42c-43.05,70.48 -89.23,112.84 -157.29,139.58 -1.74,-83.68 13.19,-170.49 41.67,-215.63 65.62,-81.59 161.98,20.67 115.62,76.05z"/>
    <path class="fil0 str0" d="M1832.36 1944.76c-81.71,12.05 -143.82,3.69 -207.93,-31.47 63.17,-54.91 139.42,-99.01 192.32,-106.04 104.7,-1.83 87.83,137.66 15.61,137.51z"/>
    <path class="fil0 str0" d="M1762.84 2118.81c-70.2,-43.53 -112.25,-89.99 -138.53,-158.22 83.69,-1.18 170.4,14.33 215.34,43.11 81.16,66.17 -21.74,161.83 -76.81,115.11z"/>
    <path class="fil0 str0" d="M1571.99 2179.41c-14.16,-81.37 -7.41,-143.67 26.09,-208.67 56.52,61.73 102.58,136.81 110.97,189.52 4.53,104.61 -135.34,91.35 -137.06,19.15z"/>
   </g>
   <g>
    <path class="fil0 str0" d="M1400.29 2105.97c42.18,-71.02 87.83,-113.95 155.54,-141.53 2.78,83.65 -11.07,170.64 -38.97,216.13 -64.61,82.41 -162.23,-18.65 -116.57,-74.6z"/>
    <path class="fil0 str0" d="M1326.64 1917.53c81.56,-13.07 143.77,-5.48 208.31,28.88 -62.49,55.69 -138.18,100.74 -190.99,108.42 -104.66,3.13 -89.53,-136.55 -17.32,-137.3z"/>
    <path class="fil0 str0" d="M1393.99 1742.63c70.74,42.65 113.36,88.58 140.49,156.48 -83.67,2.22 -170.56,-12.21 -215.86,-40.42 -81.98,-65.16 19.73,-162.1 75.37,-116.06z"/>
    <path class="fil0 str0" d="M1584.07 1679.65c15.17,81.19 9.2,143.57 -23.48,208.98 -57.29,-61.02 -104.28,-135.52 -113.33,-188.12 -5.84,-104.55 134.19,-93.03 136.81,-20.86z"/>
   </g>
  </g>
  <g id="_112327220464">
   <g>
    <path class="fil0 str0" d="M2169.35 1510.61c-43.05,70.49 -89.23,112.85 -157.29,139.58 -1.74,-83.68 13.2,-170.48 41.67,-215.62 65.62,-81.6 161.98,20.66 115.62,76.04z"/>
    <path class="fil0 str0" d="M2240.65 1699.95c-81.71,12.05 -143.82,3.69 -207.93,-31.47 63.17,-54.91 139.42,-99.01 192.32,-106.04 104.7,-1.82 87.83,137.67 15.61,137.51z"/>
    <path class="fil0 str0" d="M2171.13 1874c-70.2,-43.52 -112.25,-89.99 -138.53,-158.22 83.69,-1.18 170.4,14.34 215.34,43.11 81.16,66.17 -21.74,161.84 -76.81,115.11z"/>
    <path class="fil0 str0" d="M1980.28 1934.61c-14.16,-81.38 -7.41,-143.68 26.09,-208.67 56.52,61.73 102.58,136.8 110.97,189.51 4.53,104.61 -135.34,91.36 -137.06,19.16z"/>
   </g>
   <g>
    <path class="fil0 str0" d="M1808.58 1861.16c42.18,-71.01 87.83,-113.95 155.54,-141.53 2.78,83.66 -11.07,170.64 -38.97,216.13 -64.61,82.41 -162.23,-18.64 -116.57,-74.6z"/>
    <path class="fil0 str0" d="M1734.93 1672.72c81.56,-13.06 143.77,-5.48 208.31,28.89 -62.49,55.68 -138.18,100.73 -190.99,108.42 -104.66,3.13 -89.53,-136.56 -17.32,-137.31z"/>
    <path class="fil0 str0" d="M1802.28 1497.82c70.74,42.65 113.36,88.59 140.49,156.49 -83.67,2.22 -170.56,-12.22 -215.86,-40.43 -81.98,-65.15 19.73,-162.09 75.37,-116.06z"/>
    <path class="fil0 str0" d="M1992.36 1434.85c15.17,81.19 9.2,143.57 -23.48,208.98 -57.29,-61.03 -104.28,-135.53 -113.33,-188.12 -5.84,-104.55 134.2,-93.04 136.81,-20.86z"/>
   </g>
  </g>
  <circle class="fil0 str0" cx="486.21" cy="1227.03" r="41.67"/>
  <circle class="fil0 str0" cx="311.21" cy="1168.7" r="41.67"/>
  <circle class="fil0 str0" cx="215.37" cy="1239.53" r="41.67"/>
  <circle class="fil0 str0" cx="357.04" cy="1281.2" r="41.67"/>
  <circle class="fil0 str0" cx="269.54" cy="1372.86" r="41.67"/>
  <circle class="fil0 str0" cx="415.37" cy="1381.2" r="41.67"/>
  <circle class="fil0 str0" cx="586.21" cy="1281.2" r="41.67"/>
  <circle class="fil0 str0" cx="665.37" cy="1368.7" r="41.67"/>
  <circle class="fil0 str0" cx="569.54" cy="1439.53" r="41.67"/>
  <circle class="fil0 str0" cx="711.21" cy="1481.2" r="41.67"/>
  <circle class="fil0 str0" cx="869.54" cy="1360.36" r="41.67"/>
  <circle class="fil0 str0" cx="948.71" cy="1447.86" r="41.67"/>
  <circle class="fil0 str0" cx="852.87" cy="1518.7" r="41.67"/>
  <circle class="fil0 str0" cx="994.54" cy="1560.36" r="41.67"/>
  <circle class="fil0 str0" cx="1144.54" cy="1406.2" r="41.67"/>
  <circle class="fil0 str0" cx="1223.71" cy="1493.7" r="41.67"/>
  <circle class="fil0 str0" cx="1127.87" cy="1564.53" r="41.67"/>
  <circle class="fil0 str0" cx="1269.54" cy="1606.2" r="41.67"/>
  <circle class="fil0 str0" cx="1398.71" cy="1389.53" r="41.67"/>
  <circle class="fil0 str0" cx="1477.87" cy="1477.03" r="41.67"/>
  <circle class="fil0 str0" cx="1382.04" cy="1547.86" r="41.67"/>
  <circle class="fil0 str0" cx="1523.71" cy="1589.53" r="41.67"/>
  <circle class="fil0 str0" cx="1612.89" cy="1238.2" r="41.67"/>
  <circle class="fil0 str0" cx="1692.05" cy="1325.7" r="41.67"/>
  <circle class="fil0 str0" cx="1596.22" cy="1396.54" r="41.67"/>
  <circle class="fil0 str0" cx="1737.89" cy="1438.2" r="41.67"/>
  <circle class="fil0 str0" cx="1827.87" cy="1127.03" r="41.67"/>
  <circle class="fil0 str0" cx="1907.04" cy="1214.53" r="41.67"/>
  <circle class="fil0 str0" cx="1811.21" cy="1285.36" r="41.67"/>
  <circle class="fil0 str0" cx="1952.87" cy="1327.03" r="41.67"/>
  <circle class="fil0 str0" transform="matrix(0.954818 0.297191 -0.297191 0.954818 2089.21 1090.45)" r="41.67"/>
  <circle class="fil0 str0" transform="matrix(0.954818 0.297191 -0.297191 0.954818 2138.79 1197.52)" r="41.67"/>
  <circle class="fil0 str0" transform="matrix(0.954818 0.297191 -0.297191 0.954818 2026.24 1236.68)" r="41.67"/>
  <circle class="fil0 str0" transform="matrix(0.954818 0.297191 -0.297191 0.954818 2149.12 1318.56)" r="41.67"/>
  <g id="_112092408928">
   <circle class="fil0 str0" cx="541.94" cy="1661.02" r="41.67"/>
   <circle class="fil0 str0" cx="474.42" cy="1724.45" r="41.67"/>
   <circle class="fil0 str0" cx="539.83" cy="1780.88" r="41.67"/>
   <circle class="fil0 str0" cx="598.71" cy="1729.11" r="41.67"/>
   <circle class="fil0 str0" cx="542.46" cy="1717.66" r="41.67"/>
  </g>
  <g id="_112198586400">
   <circle class="fil0 str0" cx="1020.07" cy="1834.98" r="41.67"/>
   <circle class="fil0 str0" cx="952.55" cy="1898.4" r="41.67"/>
   <circle class="fil0 str0" cx="1017.95" cy="1954.84" r="41.67"/>
   <circle class="fil0 str0" cx="1076.83" cy="1903.07" r="41.67"/>
   <circle class="fil0 str0" cx="1020.58" cy="1891.61" r="41.67"/>
  </g>
  <g id="_112210563600">
   <circle class="fil0 str0" cx="1599.39" cy="1858.75" r="41.67"/>
   <circle class="fil0 str0" cx="1531.87" cy="1922.17" r="41.67"/>
   <circle class="fil0 str0" cx="1597.28" cy="1978.61" r="41.67"/>
   <circle class="fil0 str0" cx="1656.15" cy="1926.84" r="41.67"/>
   <circle class="fil0 str0" cx="1599.9" cy="1915.38" r="41.67"/>
  </g>
  <g id="_112201181872">
   <circle class="fil0 str0" cx="1989.99" cy="1625.61" r="41.67"/>
   <circle class="fil0 str0" cx="1922.47" cy="1689.03" r="41.67"/>
   <circle class="fil0 str0" cx="1987.88" cy="1745.46" r="41.67"/>
   <circle class="fil0 str0" cx="2046.76" cy="1693.7" r="41.67"/>
   <circle class="fil0 str0" cx="1990.51" cy="1682.24" r="41.67"/>
  </g>
  <circle class="fil0 str0" cx="1221.82" cy="437.45" r="206.25"/>
  <path class="fil0 str0" d="M1038.3 720.78c90.97,-54.17 273.61,-54.17 366.66,0l0 445.83 -366.66 0 0 -445.83z"/>
  <path class="fil0 str0" d="M1041.86 716.53l102.81 34.15 -131.35 395.42c-39.14,56.15 -123.16,32.63 -102.81,-34.15l131.35 -395.42z"/>
  <path class="fil0 str0" d="M1310.82 751.18l104.21 -29.6 113.86 400.81c-0.77,68.44 -83.47,96.26 -104.21,29.6l-113.86 -400.81z"/>
 </g>
</svg>
