<?xml version="1.0" encoding="UTF-8" ?>
<!DOCTYPE svg PUBLIC "-//W3C//DTD SVG 1.1//EN" "http://www.w3.org/Graphics/SVG/1.1/DTD/svg11.dtd">
<svg width="500pt" height="500pt" viewBox="0 0 500 500" version="1.1" xmlns="http://www.w3.org/2000/svg">
<g id="#ffffffff">
<path fill="#ffffff" opacity="1.00" d=" M 234.44 142.00 C 262.16 140.68 290.24 150.34 311.00 168.80 C 311.00 222.77 311.01 276.74 311.00 330.72 C 305.79 335.36 300.20 339.59 294.16 343.09 C 289.47 345.97 284.11 347.68 279.82 351.21 C 278.53 350.96 277.27 351.03 276.04 351.43 C 269.46 353.36 262.98 355.77 256.16 356.68 C 245.00 358.22 233.61 358.68 222.46 356.86 C 222.66 356.45 223.08 355.64 223.29 355.23 C 227.25 354.24 231.40 352.18 232.94 348.11 C 234.64 344.47 233.31 340.42 231.92 336.92 C 228.83 329.56 224.98 322.55 220.98 315.65 C 220.26 316.78 219.54 317.92 218.83 319.06 C 210.92 314.57 201.38 312.79 194.67 306.34 C 189.41 301.47 189.43 293.60 190.36 287.06 C 199.84 268.25 212.41 251.22 223.22 233.18 C 232.57 217.53 241.51 200.67 242.47 182.09 C 242.73 171.47 239.62 161.16 236.54 151.11 C 235.12 148.27 234.54 145.16 234.44 142.00 M 240.86 291.10 C 247.24 290.83 251.70 297.01 251.77 302.93 C 252.44 306.41 249.43 308.86 248.57 311.98 C 249.06 312.29 250.06 312.92 250.55 313.23 C 252.49 309.48 254.70 305.28 253.63 300.93 C 252.75 296.09 249.91 290.93 244.87 289.55 C 243.29 289.16 240.44 288.55 240.86 291.10 M 213.71 305.01 C 213.92 306.36 214.01 307.92 215.34 308.71 C 219.26 311.68 224.21 312.79 228.92 313.86 C 231.98 314.40 235.29 315.56 238.25 314.02 C 233.65 312.69 229.33 310.42 225.93 307.02 C 222.84 303.75 217.65 302.62 213.71 305.01 Z" />
<path fill="#ffffff" opacity="1.00" d=" M 210.35 340.91 C 212.19 332.61 216.63 325.17 220.90 317.92 C 224.97 325.11 229.21 332.33 231.78 340.22 C 233.82 346.87 227.79 354.03 220.95 353.55 C 214.42 353.89 208.90 347.28 210.35 340.91 Z" />
</g>
</svg>
