<?xml version="1.0" encoding="UTF-8" ?>
<!DOCTYPE svg PUBLIC "-//W3C//DTD SVG 1.1//EN" "http://www.w3.org/Graphics/SVG/1.1/DTD/svg11.dtd">
<svg width="500pt" height="500pt" viewBox="0 0 500 500" version="1.1" xmlns="http://www.w3.org/2000/svg">
<g id="#ffffffff">
<path fill="#ffffff" opacity="1.00" d=" M 261.01 143.00 C 288.55 141.89 316.47 151.60 337.03 170.03 C 336.97 223.87 337.01 277.70 337.00 331.53 C 329.56 338.20 321.24 343.97 312.13 348.12 C 309.86 349.31 307.22 350.35 305.87 352.68 C 303.26 351.09 300.45 353.05 297.83 353.60 C 282.63 358.89 266.17 360.09 250.25 358.20 C 249.63 349.68 252.83 341.54 253.46 333.12 C 253.39 328.80 251.06 324.73 247.59 322.22 C 239.24 316.03 228.10 314.77 220.30 307.70 C 216.50 304.29 215.01 299.05 215.22 294.08 C 215.22 291.48 215.00 288.70 216.43 286.40 C 227.55 265.33 242.10 246.33 253.70 225.55 C 261.09 212.12 267.62 197.57 268.02 181.99 C 268.02 170.67 264.46 159.78 261.08 149.11 C 260.89 147.08 261.00 145.04 261.01 143.00 M 266.68 290.33 C 266.61 290.77 266.47 291.64 266.40 292.07 C 274.14 291.83 279.07 300.87 276.77 307.63 C 276.01 309.76 272.37 312.98 275.94 314.26 C 277.99 310.91 279.85 307.04 279.42 303.01 C 278.81 296.62 273.88 289.31 266.68 290.33 M 239.29 307.91 C 242.15 311.99 247.47 313.06 251.99 314.32 C 255.83 314.97 259.92 316.77 263.71 315.05 C 259.76 313.75 255.85 312.08 252.77 309.22 C 250.30 306.97 247.51 304.52 243.92 304.72 C 242.02 304.56 238.50 305.32 239.29 307.91 Z" />
<path fill="#ffffff" opacity="1.00" d=" M 203.76 248.97 C 205.29 248.23 206.84 247.54 208.40 246.85 C 208.93 251.49 209.58 256.12 210.11 260.76 C 211.56 260.12 213.01 259.50 214.48 258.90 C 214.86 267.38 215.56 275.87 215.44 284.37 C 213.93 278.29 212.25 272.25 210.54 266.23 C 209.72 266.55 208.07 267.20 207.24 267.53 C 206.13 261.33 204.94 255.15 203.76 248.97 Z" />
<path fill="#ffffff" opacity="1.00" d=" M 186.83 255.54 C 187.94 254.31 189.06 253.09 190.19 251.88 C 192.56 255.79 194.90 259.71 197.24 263.62 C 198.36 262.50 199.49 261.39 200.62 260.28 C 204.46 268.11 208.67 275.77 212.11 283.80 C 208.12 278.71 204.02 273.71 199.94 268.69 C 199.10 269.52 198.27 270.35 197.44 271.18 C 193.87 265.99 190.30 260.80 186.83 255.54 Z" />
<path fill="#ffffff" opacity="1.00" d=" M 179.30 267.86 C 183.26 270.39 187.17 272.99 191.11 275.56 C 191.59 274.03 192.10 272.52 192.59 271.00 C 199.26 276.34 206.21 281.35 212.70 286.91 C 206.94 284.31 201.34 281.36 195.51 278.93 C 195.23 279.73 194.68 281.35 194.40 282.15 C 188.87 279.09 183.43 275.87 177.91 272.80 C 178.38 271.15 178.84 269.51 179.30 267.86 Z" />
</g>
</svg>
