<?xml version="1.0" encoding="UTF-8" ?>
<!DOCTYPE svg PUBLIC "-//W3C//DTD SVG 1.1//EN" "http://www.w3.org/Graphics/SVG/1.1/DTD/svg11.dtd">
<svg width="500pt" height="500pt" viewBox="0 0 500 500" version="1.1" xmlns="http://www.w3.org/2000/svg">
<g id="#ffffffff">
<path fill="#ffffff" opacity="1.00" d=" M 257.85 147.87 C 259.04 147.06 260.38 146.34 261.86 146.91 C 264.07 149.04 262.24 152.29 262.22 154.88 C 261.48 157.55 262.20 160.94 259.90 162.94 C 259.05 157.94 258.31 152.92 257.85 147.87 Z" />
<path fill="#ffffff" opacity="1.00" d=" M 266.22 153.59 C 262.80 151.83 265.80 146.42 269.07 146.72 C 273.33 145.70 277.21 150.85 274.83 154.59 C 273.04 156.99 270.31 158.97 270.82 162.37 C 270.30 162.28 269.25 162.10 268.73 162.01 C 268.57 157.87 271.03 154.08 270.24 149.89 C 270.85 148.65 268.32 147.72 268.48 149.17 C 268.20 151.03 269.08 153.82 266.22 153.59 Z" />
<path fill="#ffffff" opacity="1.00" d=" M 227.53 149.60 C 229.29 150.15 231.05 150.71 232.83 151.23 C 232.70 154.17 230.71 156.70 231.32 159.70 C 231.04 159.94 230.47 160.43 230.18 160.68 C 229.99 163.04 229.81 165.40 229.57 167.76 C 228.52 165.00 227.86 162.12 227.10 159.28 L 228.53 159.57 C 228.09 157.83 227.64 156.10 227.20 154.37 L 228.83 154.79 C 228.39 153.06 227.95 151.33 227.53 149.60 Z" />
<path fill="#ffffff" opacity="1.00" d=" M 237.27 150.36 C 238.63 151.49 239.98 152.65 241.34 153.80 C 240.47 155.26 240.31 157.42 238.46 158.05 C 238.09 159.14 237.74 160.23 237.37 161.31 C 234.86 162.80 234.54 166.02 233.21 168.40 C 233.23 165.81 233.41 163.24 233.55 160.66 C 235.86 159.80 234.88 156.85 235.39 154.94 L 236.66 155.94 C 236.88 154.08 237.06 152.22 237.27 150.36 Z" />
<path fill="#ffffff" opacity="1.00" d=" M 216.83 154.23 C 218.58 153.68 220.33 153.14 222.09 152.62 C 222.66 154.24 224.08 155.89 223.27 157.68 C 223.94 158.83 224.62 159.98 225.31 161.13 C 224.23 163.99 227.09 166.57 227.78 169.29 C 225.56 167.28 223.61 165.01 221.53 162.86 C 221.62 162.52 221.81 161.84 221.91 161.50 C 220.93 160.46 219.95 159.42 218.98 158.39 C 219.32 158.20 220.01 157.83 220.35 157.65 C 219.17 156.52 218.00 155.38 216.83 154.23 Z" />
<path fill="#ffffff" opacity="1.00" d=" M 259.09 164.20 C 262.41 161.90 264.24 168.68 260.73 169.39 C 258.03 169.94 257.13 165.69 259.09 164.20 Z" />
<path fill="#ffffff" opacity="1.00" d=" M 268.34 164.38 C 270.03 162.55 272.79 164.91 272.21 166.97 C 272.10 168.39 270.60 170.05 269.10 169.37 C 267.22 168.48 267.45 165.88 268.34 164.38 Z" />
<path fill="#ffffff" opacity="1.00" d=" M 239.55 170.72 C 245.05 169.43 251.32 170.46 255.58 174.33 C 262.85 180.78 262.96 193.45 255.99 200.16 C 250.24 205.69 240.48 206.74 233.99 201.89 C 228.68 198.20 225.55 191.52 226.64 185.07 C 227.57 178.26 232.87 172.34 239.55 170.72 M 238.39 193.49 C 235.68 195.40 237.36 199.41 240.16 200.21 C 243.24 201.45 248.96 199.07 247.17 195.10 C 245.31 192.33 241.11 191.94 238.39 193.49 Z" />
<path fill="#ffffff" opacity="1.00" d=" M 222.29 174.53 C 223.74 170.68 228.76 170.77 231.98 172.11 C 229.48 175.55 226.39 178.85 225.57 183.16 C 225.14 185.80 225.05 188.49 225.03 191.16 C 225.15 193.28 227.00 194.87 227.21 196.93 C 225.94 201.62 223.52 205.89 222.06 210.52 C 227.53 209.39 232.58 206.76 238.08 205.77 C 243.22 207.12 249.20 207.35 253.47 203.64 C 257.52 199.80 263.45 198.27 268.89 199.35 C 278.22 202.46 284.53 210.86 288.86 219.30 C 295.17 232.22 298.59 246.69 297.98 261.09 C 298.02 263.91 296.31 267.24 293.13 267.27 C 290.31 267.75 287.92 265.97 286.06 264.09 C 285.87 249.57 283.67 234.53 275.80 222.03 C 275.33 225.66 275.62 229.32 275.43 232.97 C 273.34 247.70 268.97 262.14 268.87 277.12 C 268.91 291.67 270.15 306.52 275.56 320.16 C 277.10 324.57 279.34 328.72 280.66 333.20 C 280.85 339.43 274.05 344.67 268.10 342.67 C 263.40 340.56 260.82 335.68 258.83 331.19 C 253.65 318.61 251.52 305.05 249.70 291.65 C 249.21 285.06 249.52 278.44 248.91 271.87 C 243.23 278.59 238.61 286.41 236.66 295.07 C 234.66 302.91 234.95 311.05 235.03 319.07 C 235.31 324.43 237.59 329.58 237.41 334.96 C 236.92 341.03 229.83 344.59 224.41 342.53 C 220.56 340.79 218.65 336.69 217.43 332.89 C 214.58 323.18 216.13 312.94 215.76 302.99 C 217.26 288.40 223.05 274.45 231.34 262.43 C 233.38 259.44 235.97 256.68 236.88 253.07 C 239.84 242.29 238.23 230.19 231.72 220.98 C 225.20 222.96 218.73 225.18 212.12 226.87 C 209.60 227.57 206.28 226.66 205.43 223.94 C 204.30 221.48 205.43 218.88 206.30 216.55 C 211.62 202.54 217.02 188.56 222.29 174.53 Z" />
<path fill="#ffffff" opacity="1.00" d=" M 140.00 344.00 C 213.67 344.00 287.33 344.00 361.00 344.00 C 361.00 348.00 361.00 352.00 361.00 356.00 C 287.33 356.00 213.67 356.00 140.00 356.00 C 140.00 352.00 140.00 348.00 140.00 344.00 Z" />
</g>
</svg>
