<?xml version="1.0" encoding="UTF-8" ?>
<!DOCTYPE svg PUBLIC "-//W3C//DTD SVG 1.1//EN" "http://www.w3.org/Graphics/SVG/1.1/DTD/svg11.dtd">
<svg width="500pt" height="500pt" viewBox="0 0 500 500" version="1.1" xmlns="http://www.w3.org/2000/svg">
<g id="#ffffffff">
<path fill="#ffffff" opacity="1.00" d=" M 177.07 174.11 C 199.07 162.91 223.23 155.71 247.90 154.02 C 258.63 154.04 269.44 153.48 280.04 155.53 C 314.09 160.75 344.68 179.21 369.59 202.39 C 377.38 210.30 385.42 217.99 392.63 226.44 C 393.31 227.37 394.72 228.57 393.66 229.78 C 374.28 252.21 351.15 271.72 324.56 285.06 C 320.71 277.51 316.49 270.15 312.33 262.77 C 305.73 273.90 299.38 285.22 294.06 297.03 C 283.94 300.05 273.46 301.53 263.02 302.91 C 255.95 303.08 248.87 303.01 241.79 302.95 C 213.34 300.71 185.98 290.28 161.88 275.24 C 141.25 262.42 122.67 246.51 105.80 229.10 C 126.47 207.22 150.20 187.87 177.07 174.11 M 238.52 168.66 C 216.97 172.83 197.64 188.59 190.84 209.69 C 185.28 226.26 187.49 245.24 196.82 260.04 C 205.59 274.45 220.48 284.78 236.85 288.58 C 264.32 295.36 295.37 281.48 308.24 256.20 C 315.51 242.09 316.86 225.07 311.98 209.98 C 307.01 194.20 294.97 181.00 280.10 173.91 C 267.29 167.72 252.45 165.81 238.52 168.66 Z" />
<path fill="#ffffff" opacity="1.00" d=" M 244.59 194.87 C 261.03 191.26 279.32 200.62 285.43 216.42 C 289.91 227.58 288.01 241.09 280.32 250.39 C 271.50 261.63 255.68 266.80 241.96 262.67 C 231.92 259.82 223.14 252.47 218.96 242.86 C 214.60 233.00 215.19 221.02 220.72 211.73 C 225.76 203.02 234.75 196.82 244.59 194.87 Z" />
<path fill="#ffffff" opacity="1.00" d=" M 294.36 311.88 C 298.59 298.44 305.66 286.12 312.84 274.09 C 320.01 286.85 327.41 299.61 332.42 313.41 C 335.52 321.50 332.12 331.25 324.97 335.98 C 316.63 341.79 303.93 340.49 297.45 332.48 C 292.62 326.85 292.06 318.71 294.36 311.88 Z" />
</g>
</svg>
