<svg xmlns="http://www.w3.org/2000/svg" viewBox="0 0 222.63 172.65"><defs><style>.cls-1,.cls-2,.cls-3,.cls-4,.cls-5,.cls-6,.cls-7{fill:#fff;stroke:#fff;stroke-miterlimit:10;}.cls-1{stroke-width:5px;}.cls-2{stroke-width:13px;}.cls-3{stroke-width:3px;}.cls-4{stroke-width:6px;}.cls-6{stroke-width:2px;}.cls-7{stroke-width:0.5px;}</style></defs><title>Recurso 12</title><g id="Capa_2" data-name="Capa 2"><g id="Capa_1-2" data-name="Capa 1"><rect class="cls-1" x="4.74" y="46.49" width="87.75" height="27.5" rx="12" ry="12"/><line class="cls-2" x1="3.47" y1="70.23" x2="101.43" y2="69.8"/><circle class="cls-3" cx="71.93" cy="80.41" r="10.61"/><circle class="cls-3" cx="23.99" cy="80.41" r="10.61"/><path class="cls-4" d="M5.43,53C8.62,32.85,5,7.74,35.55,3.41"/><path class="cls-4" d="M74.18,16.24c-2.5-16-34-14.17-45.32-11.41"/><path class="cls-4" d="M73.5,13.74c7.47,11.44,2,22.32,8.27,32.82"/><line class="cls-4" x1="46.68" y1="4.74" x2="37.33" y2="44.69"/><path class="cls-5" d="M98,35.93,86.23,31.7a1.57,1.57,0,0,1-1-2.06h0a1.74,1.74,0,0,1,2.17-.95l11.73,4.23a1.56,1.56,0,0,1,.94,2.06h0A1.73,1.73,0,0,1,98,35.93Z"/><path class="cls-5" d="M104.16,32l4.63-11.35a1.46,1.46,0,0,0-.88-1.92h0a1.6,1.6,0,0,0-2,.87l-4.63,11.36a1.46,1.46,0,0,0,.88,1.92h0A1.6,1.6,0,0,0,104.16,32Z"/><path class="cls-5" d="M105.35,46,96.68,35.58a4,4,0,0,1,.71-5.67h0a4.32,4.32,0,0,1,5.9.57L112,40.91a4,4,0,0,1-.7,5.68h0A4.33,4.33,0,0,1,105.35,46Z"/><path class="cls-5" d="M118.79,51.43h0a1.67,1.67,0,0,1-2.18.67l-7.56-3.72a1.5,1.5,0,0,1-.66-2.08h0a1.67,1.67,0,0,1,2.18-.67l7.55,3.72A1.51,1.51,0,0,1,118.79,51.43Z"/><path class="cls-5" d="M125.28,61.08h0a1.65,1.65,0,0,1-2.24-.32L116.4,52a1.51,1.51,0,0,1,.37-2.16h0a1.65,1.65,0,0,1,2.25.32l6.64,8.81A1.52,1.52,0,0,1,125.28,61.08Z"/><path class="cls-5" d="M122,43.55h0a1.58,1.58,0,0,1-1.45,1.71l-8.51.93a1.56,1.56,0,0,1-1.76-1.36h0a1.6,1.6,0,0,1,1.45-1.71l8.52-.93A1.57,1.57,0,0,1,122,43.55Z"/><path class="cls-5" d="M128.64,53.89h0a1.65,1.65,0,0,1-2.25-.32l-6.64-8.81a1.52,1.52,0,0,1,.38-2.16h0a1.65,1.65,0,0,1,2.24.32L129,51.73A1.52,1.52,0,0,1,128.64,53.89Z"/><ellipse class="cls-5" cx="94.42" cy="23.85" rx="4.48" ry="4.28" transform="translate(-2.88 19.65) rotate(-11.71)"/><rect class="cls-1" x="132.38" y="126.62" width="87.75" height="27.5" rx="12" ry="12" transform="translate(352.51 280.74) rotate(180)"/><line class="cls-2" x1="221.4" y1="150.36" x2="123.44" y2="149.93"/><circle class="cls-3" cx="152.94" cy="160.54" r="10.61"/><circle class="cls-3" cx="200.87" cy="160.54" r="10.61"/><path class="cls-4" d="M219.44,133.12c-3.2-20.14.45-45.25-30.13-49.58"/><path class="cls-4" d="M150.69,96.37c2.5-16,34-14.16,45.31-11.41"/><path class="cls-4" d="M151.37,93.87c-7.47,11.45-2,22.32-8.27,32.82"/><line class="cls-4" x1="178.19" y1="84.87" x2="187.54" y2="124.82"/><line class="cls-6" x1="91.77" y1="109.75" x2="98.62" y2="102.49"/><line class="cls-6" x1="103.37" y1="111.84" x2="98.62" y2="102.49"/><line class="cls-6" x1="124.61" y1="120.94" x2="123.62" y2="111.01"/><line class="cls-6" x1="114.14" y1="115.51" x2="123.62" y2="111.01"/><path class="cls-6" d="M103.37,111.84c2.37-3.06,10.34.59,10.77,3.67"/><path class="cls-7" d="M99.26,122.48h0a.47.47,0,0,1-.72-.17l-2.23-4.38a.68.68,0,0,1,.22-.83h0a.47.47,0,0,1,.72.16l2.22,4.38A.69.69,0,0,1,99.26,122.48Z"/><path class="cls-7" d="M95,121.18h0a.45.45,0,0,0,.66.28l4.71-2.29a.69.69,0,0,0,.35-.78h0a.46.46,0,0,0-.66-.28l-4.71,2.3A.69.69,0,0,0,95,121.18Z"/><path class="cls-7" d="M114.36,127.63h0a.47.47,0,0,1-.72-.17l-2.22-4.38a.69.69,0,0,1,.21-.84h0a.48.48,0,0,1,.73.17l2.22,4.38A.69.69,0,0,1,114.36,127.63Z"/><path class="cls-7" d="M110.14,126.33h0a.45.45,0,0,0,.66.28l4.71-2.29a.71.71,0,0,0,.35-.78h0a.46.46,0,0,0-.66-.28l-4.71,2.29A.69.69,0,0,0,110.14,126.33Z"/><ellipse class="cls-7" cx="102.5" cy="131.38" rx="3.16" ry="5.49" transform="matrix(0.32, -0.95, 0.95, 0.32, -54.92, 186.02)"/><path class="cls-6" d="M89.2,138c5.18-5.18,20.23,1.43,19.07,8.17"/><ellipse class="cls-6" cx="94.8" cy="140.27" rx="4.62" ry="2.43" transform="translate(-74.4 134.45) rotate(-53.98)"/><line class="cls-1" x1="1.39" y1="159.08" x2="219.44" y2="13.74"/></g></g></svg>