<?xml version="1.0" encoding="UTF-8"?>
<!DOCTYPE svg PUBLIC "-//W3C//DTD SVG 1.1//EN" "http://www.w3.org/Graphics/SVG/1.1/DTD/svg11.dtd">
<!-- Creator: CorelDRAW 2018 (64 Bit Versión de evaluación) -->
<svg xmlns="http://www.w3.org/2000/svg" xml:space="preserve" width="215.9mm" height="279.4mm" version="1.1" style="shape-rendering:geometricPrecision; text-rendering:geometricPrecision; image-rendering:optimizeQuality; fill-rule:evenodd; clip-rule:evenodd"
viewBox="0 0 21590 27940"
 xmlns:xlink="http://www.w3.org/1999/xlink">
 <defs>
  <style type="text/css">
   <![CDATA[
    .str1 {stroke:#FEFEFE;stroke-width:100;stroke-miterlimit:22.9256}
    .str2 {stroke:#FEFEFE;stroke-width:75;stroke-miterlimit:22.9256}
    .str0 {stroke:#FEFEFE;stroke-width:20;stroke-miterlimit:22.9256}
    .fil0 {fill:#FEFEFE}
   ]]>
  </style>
 </defs>
 <g id="Capa_x0020_1">
  <metadata id="CorelCorpID_0Corel-Layer"/>
  <circle class="fil0 str0" cx="6120.32" cy="7070.02" r="1765.87"/>
  <circle class="fil0 str0" cx="15405.88" cy="6808.41" r="1765.87"/>
  <path class="fil0 str1" d="M3976.77 18858.84l-1242.65 3989.56c-480.15,842.74 -1187.58,781.42 -1438.85,-65.4l2452.59 -12034.08c939.62,-2128.48 4227.19,-1217.94 2223.69,2419.89l2256.4 0 425.11 -1177.24 2223.69 -32.7 0 719.42 -1177.25 98.11 -228.9 457.82c500.44,405.3 513.3,891.85 -32.71,1471.56l-4381.97 0c-594.09,-349.91 -942.3,-847.31 -1079.15,-1471.56l-359.71 98.1c100.67,923.66 642.97,1641.9 1615.71,1955.1 -65.4,337.91 -242.26,650.11 -307.66,988.02l2648.81 5886.23c358.91,1123.86 -696.83,1623.04 -1373.46,621.33l-2223.69 -3924.16z"/>
  <path class="fil0 str0" d="M11537.41 13437.98c2706.21,34.52 5405.66,3.02 8111.87,37.54 601.48,-36.21 733.09,670.52 41.42,683.45l-8077.22 20.71c-592.2,81.21 -590.04,-728.01 -76.07,-741.7z"/>
  <path class="fil0 str2" d="M13257.06 11405.31l-1746.25 -2222.5c-229.26,-216.1 -356.32,-483.31 -396.88,-793.75l-529.16 -3175c-57.86,-717.1 930.97,-932.14 1349.37,-396.88l661.46 3148.55 1375.83 1693.33 3095.63 23.89 1408.04 -1692.45 153 -2749.98c165.92,-872.99 1125.56,-830.86 1322.92,-52.92l-26.46 2698.75c61.79,370.43 4.57,681.39 -185.2,926.04l-1587.51 2566.46 -26.45 1746.25 -4788.97 52.92 -79.37 -1772.71z"/>
 </g>
</svg>
