<?xml version="1.0" encoding="UTF-8"?>
<!DOCTYPE svg PUBLIC "-//W3C//DTD SVG 1.1//EN" "http://www.w3.org/Graphics/SVG/1.1/DTD/svg11.dtd">
<!-- Creator: CorelDRAW 2018 (64 Bit Versión de evaluación) -->
<svg xmlns="http://www.w3.org/2000/svg" xml:space="preserve" width="215.9mm" height="279.4mm" version="1.1" style="shape-rendering:geometricPrecision; text-rendering:geometricPrecision; image-rendering:optimizeQuality; fill-rule:evenodd; clip-rule:evenodd"
viewBox="0 0 21590 27940"
 xmlns:xlink="http://www.w3.org/1999/xlink">
 <defs>
  <style type="text/css">
   <![CDATA[
    .str1 {stroke:#FEFEFE;stroke-width:100;stroke-miterlimit:22.9256}
    .str0 {stroke:#FEFEFE;stroke-width:200;stroke-miterlimit:22.9256}
    .str2 {stroke:#FEFEFE;stroke-width:20;stroke-miterlimit:22.9256}
    .fil0 {fill:#FEFEFE}
   ]]>
  </style>
 </defs>
 <g id="Capa_x0020_1">
  <metadata id="CorelCorpID_0Corel-Layer"/>
  <path class="fil0 str0" d="M11416.32 5369.56l-4643.58 1438.85 915.64 1373.46 -296.52 7906.74c-1752.8,3517.82 -2401.52,6545.53 -1730.97,9294.15 1032.81,1029.29 1873.48,705.55 2616.11,-261.61l65.4 -3073.93 65.4 -1504.26 1700.47 -2943.11 1765.87 7259.69c904.03,1738.31 3070.96,1263.28 2943.12,-261.61l-1896.68 -7652.11 0 -850.23 1438.86 -65.41 -392.41 -2550.7c-3252.65,2213.52 -5900.97,-1750.65 -2155.56,-3228.93l11.23 436.94c-2921.87,1137.38 -774.27,4739.22 2013.52,1941.76l2092.89 -1896.68c252.56,-621.12 18.59,-1296.29 -719.43,-2027.48l-3727.95 -1831.27 -65.41 -1504.26z"/>
  <path class="fil0 str1" d="M10113.09 3100.13l-2751.67 -132.29c97.01,-432.15 194.03,-864.31 291.04,-1296.46 351.19,-433.52 742.41,-386.67 1164.17,26.46 755.96,-325.21 1175.51,-239.22 1296.46,211.66l0 1190.63z"/>
  <polygon class="fil0 str2" points="5668.09,3602.84 11727.05,4132.01 10271.84,3470.55 7440.8,3285.34 "/>
  <path class="fil0 str1" d="M9769.13 4555.34l-3333.75 -370.42 132.29 396.88c123.47,1195.56 1437.56,1168.31 1878.54,238.12l1296.46 26.46 26.46 -291.04z"/>
 </g>
</svg>
