<?xml version="1.0" encoding="UTF-8" ?>
<!DOCTYPE svg PUBLIC "-//W3C//DTD SVG 1.1//EN" "http://www.w3.org/Graphics/SVG/1.1/DTD/svg11.dtd">
<svg width="500pt" height="500pt" viewBox="0 0 500 500" version="1.1" xmlns="http://www.w3.org/2000/svg">
<g id="#ffffffff">
<path fill="#ffffff" opacity="1.00" d=" M 191.55 143.75 C 196.93 142.11 203.09 142.89 207.81 146.02 C 213.38 149.57 217.11 156.32 216.12 163.00 C 215.79 167.70 212.28 171.17 210.42 175.28 C 204.98 177.68 199.05 180.19 193.01 178.49 C 184.92 176.85 180.90 168.37 179.37 161.04 C 179.99 153.69 184.10 146.01 191.55 143.75 Z" />
<path fill="#ffffff" opacity="1.00" d=" M 173.83 186.76 C 174.61 183.98 176.90 181.34 180.03 181.54 C 189.01 181.42 197.99 181.55 206.97 181.48 C 208.74 181.59 210.97 181.23 212.22 182.82 C 216.55 187.64 218.76 193.83 221.24 199.70 C 222.49 202.92 224.74 205.68 225.68 209.03 C 228.37 218.79 229.57 228.87 230.81 238.88 C 231.00 241.22 231.49 243.87 229.91 245.86 C 227.14 250.57 218.58 249.80 217.80 243.88 C 217.37 244.76 216.95 245.64 216.54 246.53 C 217.37 248.10 218.48 249.49 219.96 250.50 C 219.70 250.93 219.18 251.81 218.92 252.24 C 242.88 252.25 266.84 252.25 290.80 252.24 C 289.08 247.07 287.06 242.00 284.84 237.03 C 280.57 236.98 276.30 237.01 272.03 236.99 C 270.72 235.42 268.33 233.67 269.51 231.35 C 271.28 229.13 274.44 229.30 276.99 229.24 C 280.72 229.37 284.44 228.85 288.17 229.02 C 290.15 229.05 292.15 230.07 292.90 231.99 C 298.06 246.74 304.17 261.18 309.64 275.83 C 317.99 273.91 326.89 274.14 334.89 277.36 C 347.19 282.11 356.83 293.12 359.93 305.93 C 363.26 319.70 359.48 335.28 349.18 345.24 C 336.23 358.41 314.28 360.77 298.47 351.53 C 287.96 345.66 280.71 334.74 278.74 322.92 C 275.32 305.43 284.69 286.21 301.10 278.91 C 298.90 273.48 297.04 267.92 294.65 262.57 C 281.66 278.21 268.38 293.62 255.28 309.17 C 257.92 313.83 258.16 320.21 254.20 324.22 C 249.22 330.36 238.54 330.94 233.63 324.43 C 230.44 321.24 230.90 316.49 230.03 312.40 C 231.41 310.13 232.58 307.75 234.05 305.53 C 231.74 299.19 228.62 293.18 226.21 286.89 C 225.17 278.09 223.40 269.39 220.80 260.92 C 220.05 257.80 218.57 254.81 218.57 251.55 C 217.00 248.73 215.30 245.80 215.08 242.50 L 216.22 245.12 C 216.67 243.85 217.68 242.58 217.09 241.15 C 215.94 233.70 216.54 226.01 214.55 218.69 C 214.19 226.11 214.37 233.54 213.99 240.97 C 214.00 243.61 213.77 246.33 214.57 248.90 C 217.34 259.20 220.84 269.34 222.42 279.93 C 223.76 287.26 223.48 294.82 225.31 302.08 C 226.42 308.06 227.50 314.06 228.18 320.11 C 229.41 327.82 216.83 331.04 213.11 324.81 C 209.52 319.18 210.75 312.20 209.56 305.95 C 207.70 297.75 207.96 289.25 206.09 281.06 C 204.22 272.55 201.85 264.16 199.93 255.66 C 198.12 255.74 195.25 255.53 194.91 257.94 C 192.79 269.40 188.07 280.36 187.66 292.14 C 186.21 299.42 186.16 306.90 184.48 314.15 C 183.52 318.08 183.64 322.27 182.13 326.05 C 180.47 328.92 176.58 327.96 173.85 327.89 C 169.22 327.23 167.07 322.05 168.14 317.86 C 169.94 307.35 170.59 296.67 172.65 286.21 C 174.09 276.16 176.64 266.33 179.25 256.53 C 179.95 253.72 181.08 250.94 181.01 248.00 C 181.00 239.87 180.99 231.74 181.00 223.61 C 188.22 222.73 195.67 224.91 202.73 222.79 C 209.53 220.44 208.40 209.59 201.89 207.60 C 195.08 207.37 188.26 207.54 181.46 207.54 C 178.95 202.87 172.00 203.76 169.20 199.16 C 171.19 195.20 172.58 191.00 173.83 186.76 M 225.92 261.49 C 231.05 273.28 235.85 285.22 241.00 297.01 C 241.70 298.56 242.27 300.21 243.37 301.54 C 244.86 302.15 246.44 302.50 247.99 302.96 C 259.78 289.19 271.49 275.36 283.18 261.50 C 264.09 261.50 245.01 261.52 225.92 261.49 M 312.86 283.36 C 315.56 291.41 318.28 299.49 321.78 307.25 C 322.95 310.19 326.27 311.49 327.59 314.35 C 328.60 317.92 326.24 321.59 323.11 323.20 C 318.82 325.45 313.14 322.44 311.85 317.95 C 310.87 315.62 312.31 313.29 313.18 311.18 C 309.95 303.12 306.62 295.10 303.44 287.02 C 292.48 292.04 286.57 304.40 286.27 316.02 C 286.36 329.87 295.80 343.18 309.05 347.40 C 323.76 352.53 341.48 345.72 348.86 331.98 C 356.33 319.10 353.57 301.41 342.45 291.49 C 334.68 284.12 323.30 281.08 312.86 283.36 Z" />
<path fill="#ffffff" opacity="1.00" d=" M 168.47 202.01 C 172.27 203.73 176.01 205.82 180.24 206.20 C 180.21 206.63 180.14 207.48 180.10 207.91 C 175.32 211.62 169.39 213.37 163.81 215.53 C 164.94 210.88 166.78 206.46 168.47 202.01 Z" />
<path fill="#ffffff" opacity="1.00" d=" M 181.01 209.09 C 182.85 208.90 184.71 209.00 186.56 209.00 C 184.61 213.22 182.53 217.41 179.88 221.25 C 176.18 220.45 174.58 216.56 172.96 213.57 C 175.77 212.31 178.35 210.62 181.01 209.09 Z" />
<path fill="#ffffff" opacity="1.00" d=" M 187.35 209.02 C 192.05 208.99 196.74 209.20 201.43 209.56 C 200.24 212.08 199.02 214.59 197.62 217.00 C 198.09 217.52 198.56 218.05 199.04 218.58 L 199.14 216.43 C 200.49 217.99 201.87 219.54 203.16 221.15 C 200.89 221.46 198.60 221.59 196.32 221.81 L 197.94 219.19 C 197.24 219.52 195.85 220.16 195.15 220.48 C 191.97 218.61 188.92 216.51 186.08 214.15 C 186.51 212.43 186.95 210.73 187.35 209.02 Z" />
<path fill="#ffffff" opacity="1.00" d=" M 202.35 209.80 C 206.33 211.73 205.27 216.44 204.86 220.00 C 203.10 218.80 201.18 217.71 199.98 215.91 C 199.98 213.65 201.53 211.81 202.35 209.80 Z" />
<path fill="#ffffff" opacity="1.00" d=" M 163.70 216.97 C 166.06 215.90 168.30 214.43 170.89 214.00 C 174.68 215.07 174.45 220.21 178.25 221.41 C 173.39 221.15 165.43 223.42 163.70 216.97 Z" />
<path fill="#ffffff" opacity="1.00" d=" M 184.40 215.81 C 188.69 215.70 191.23 220.05 194.81 221.84 C 190.35 221.59 185.88 222.02 181.43 221.52 C 182.72 219.78 183.91 217.95 184.40 215.81 Z" />
<path fill="#ffffff" opacity="1.00" d=" M 197.95 277.93 C 199.52 277.04 200.33 275.25 201.53 273.95 C 202.47 279.85 203.91 285.69 204.08 291.70 C 203.52 291.30 202.40 290.50 201.84 290.10 C 197.90 297.14 193.38 303.87 189.74 311.07 C 189.18 309.84 187.91 308.68 188.58 307.18 C 189.01 303.52 189.20 299.84 189.62 296.18 C 190.07 292.06 193.12 288.95 194.39 285.11 C 193.77 284.84 192.53 284.31 191.91 284.04 C 192.45 281.41 192.93 278.76 193.43 276.13 C 194.93 276.76 196.41 277.42 197.95 277.93 Z" />
<path fill="#ffffff" opacity="1.00" d=" M 140.04 310.89 C 142.34 294.41 154.56 278.96 171.33 275.64 C 170.74 278.60 170.19 281.57 169.66 284.55 C 160.02 288.00 152.24 296.19 149.36 306.04 C 144.27 321.85 152.85 340.73 168.50 346.67 C 184.55 353.60 204.77 345.28 211.61 329.28 C 213.77 331.20 216.58 331.99 219.43 331.88 C 215.42 341.56 207.57 349.51 197.92 353.60 C 184.38 359.53 167.76 357.80 155.79 349.12 C 148.49 343.81 143.28 335.85 141.18 327.09 C 139.44 321.86 140.06 316.30 140.04 310.89 Z" />
<path fill="#ffffff" opacity="1.00" d=" M 188.04 310.05 C 188.53 310.66 189.03 311.27 189.53 311.87 C 195.12 311.60 200.72 311.81 206.31 311.75 C 206.64 314.51 207.00 317.26 207.49 320.00 C 201.11 320.00 194.72 320.00 188.34 320.00 C 187.55 320.78 186.75 321.54 185.94 322.29 C 186.44 318.17 187.88 314.22 188.04 310.05 Z" />
</g>
</svg>
