<?xml version="1.0" encoding="UTF-8" ?>
<!DOCTYPE svg PUBLIC "-//W3C//DTD SVG 1.1//EN" "http://www.w3.org/Graphics/SVG/1.1/DTD/svg11.dtd">
<svg width="500pt" height="500pt" viewBox="0 0 500 500" version="1.1" xmlns="http://www.w3.org/2000/svg">
<g id="#ffffffff">
<path fill="#ffffff" opacity="1.00" d=" M 142.33 193.28 C 144.14 190.57 147.85 190.87 150.70 191.12 C 177.85 194.41 205.02 197.67 232.17 201.00 C 235.06 201.38 238.70 202.34 239.49 205.60 C 242.38 214.05 244.58 222.72 246.85 231.35 C 243.14 232.96 239.33 234.32 235.66 236.02 C 239.97 238.85 244.50 241.35 248.76 244.25 C 250.13 244.87 250.76 246.47 250.05 247.84 C 243.97 248.05 237.84 247.19 231.73 247.56 C 237.50 252.77 243.75 257.51 248.81 263.45 C 243.20 263.41 237.58 263.14 231.97 263.26 C 230.22 263.43 228.83 262.26 227.34 261.61 C 222.69 259.29 216.46 261.51 214.15 266.12 C 211.39 271.29 213.78 278.37 218.84 281.17 C 221.61 282.70 224.85 281.88 227.73 281.15 C 230.94 284.17 234.43 286.87 237.65 289.88 C 232.27 290.21 226.88 290.40 221.50 290.65 C 226.61 295.38 232.92 298.77 237.40 304.20 C 230.93 304.57 224.68 302.50 218.31 301.76 C 219.81 303.26 221.46 304.60 223.08 305.97 C 193.14 302.32 163.18 298.72 133.24 295.02 C 133.23 299.01 133.55 303.55 130.98 306.91 C 128.86 309.63 125.02 309.38 121.96 309.03 C 118.14 308.54 113.83 307.78 111.26 304.63 C 110.77 303.20 111.04 301.67 111.15 300.21 C 113.42 282.16 115.66 264.10 117.96 246.06 C 118.50 242.42 118.42 238.56 120.31 235.28 C 127.31 221.11 133.61 206.52 142.33 193.28 M 149.31 203.23 C 144.35 213.39 139.37 223.56 134.54 233.80 C 168.75 237.89 202.94 242.12 237.15 246.22 C 234.85 234.90 232.41 223.61 229.98 212.32 C 203.31 209.27 176.68 205.78 150.02 202.75 L 149.31 203.23 M 138.31 251.24 C 135.77 252.07 133.45 253.80 132.24 256.23 C 128.96 262.30 132.98 271.36 140.08 272.16 C 145.50 272.24 151.06 268.40 152.16 262.93 C 153.41 255.69 145.31 248.66 138.31 251.24 Z" />
<path fill="#ffffff" opacity="1.00" d=" M 268.93 201.92 C 296.28 198.58 323.65 195.31 351.01 191.95 C 353.66 191.57 357.08 191.81 358.68 194.28 C 367.18 207.07 373.26 221.23 380.09 234.92 C 381.01 236.86 382.04 238.81 382.28 240.98 C 384.84 260.82 387.21 280.69 389.80 300.53 C 389.96 302.62 390.61 305.23 388.67 306.73 C 384.84 309.74 379.63 310.05 374.95 310.02 C 372.38 310.19 369.94 308.53 368.96 306.19 C 367.70 302.94 367.72 299.39 367.72 295.96 C 337.83 299.67 307.93 303.25 278.03 306.90 C 279.60 305.51 281.20 304.16 282.68 302.69 C 276.32 303.51 270.05 305.39 263.58 305.22 C 268.17 299.71 274.43 295.95 280.01 291.54 C 274.43 291.46 268.85 291.04 263.27 290.91 C 266.54 287.86 270.07 285.10 273.32 282.02 C 275.96 282.76 278.87 283.66 281.51 282.37 C 288.76 279.38 290.50 267.78 283.58 263.46 C 279.71 260.51 274.68 261.52 270.81 263.88 C 264.66 264.67 258.41 264.01 252.23 264.43 C 257.13 258.38 263.56 253.83 269.17 248.49 C 263.04 248.26 256.82 248.88 250.76 248.80 C 250.40 247.42 250.72 245.78 252.20 245.23 C 256.53 242.35 261.03 239.71 265.43 236.93 C 261.68 235.34 257.88 233.88 254.14 232.28 C 256.52 223.43 258.65 214.49 261.80 205.87 C 262.86 202.99 266.25 202.33 268.93 201.92 M 271.04 213.28 C 268.58 224.55 266.16 235.83 263.86 247.13 C 298.04 243.09 332.21 238.86 366.39 234.72 C 361.59 224.24 356.44 213.92 351.37 203.56 C 324.60 206.84 297.82 210.09 271.04 213.28 M 356.31 252.20 C 351.04 253.96 347.10 260.21 349.35 265.63 C 351.69 271.21 359.18 275.17 364.75 271.76 C 369.52 268.65 371.55 261.53 368.40 256.60 C 366.02 252.55 360.72 250.71 356.31 252.20 Z" />
<path fill="#ffffff" opacity="1.00" d=" M 234.40 269.42 C 237.30 272.59 240.52 275.44 243.34 278.68 C 239.14 278.83 234.93 278.60 230.74 279.02 C 233.06 276.34 234.53 273.03 234.40 269.42 Z" />
<path fill="#ffffff" opacity="1.00" d=" M 257.57 279.72 C 260.52 276.37 264.00 273.51 266.70 269.93 C 266.40 273.60 267.74 277.04 270.04 279.85 C 265.88 279.67 261.72 279.80 257.57 279.72 Z" />
<path fill="#ffffff" opacity="1.00" d=" M 225.13 305.14 C 225.82 305.82 225.82 305.82 225.13 305.14 Z" />
</g>
</svg>
