<?xml version="1.0" encoding="UTF-8" ?>
<!DOCTYPE svg PUBLIC "-//W3C//DTD SVG 1.1//EN" "http://www.w3.org/Graphics/SVG/1.1/DTD/svg11.dtd">
<svg width="500pt" height="500pt" viewBox="0 0 500 500" version="1.1" xmlns="http://www.w3.org/2000/svg">
<g id="#ffffffff">
<path fill="#ffffff" opacity="1.00" d=" M 160.51 144.68 C 172.35 140.80 186.45 150.39 186.28 163.04 C 186.60 168.83 182.55 173.23 180.18 178.10 C 173.95 181.19 166.70 183.58 159.82 181.09 C 153.08 178.85 149.75 171.87 147.78 165.57 C 146.60 162.77 147.88 159.86 148.58 157.13 C 150.11 151.32 154.72 146.37 160.51 144.68 Z" />
<path fill="#ffffff" opacity="1.00" d=" M 192.75 177.77 C 195.74 175.04 200.04 174.62 203.92 174.50 C 245.62 174.51 287.32 174.48 329.03 174.52 C 333.48 174.58 339.18 175.19 341.11 179.92 C 350.66 200.07 358.91 220.81 366.32 241.84 C 367.45 245.48 369.10 249.10 369.01 252.99 C 368.99 284.60 368.99 316.22 369.02 347.83 C 366.22 352.34 361.65 356.45 355.98 356.01 C 349.64 355.70 341.72 357.33 336.95 352.05 C 333.30 346.45 335.07 339.36 335.97 333.20 C 291.43 333.33 246.89 333.20 202.35 333.27 C 200.97 321.15 197.40 309.39 196.73 297.19 C 207.61 302.70 221.69 291.83 220.22 280.06 C 218.81 272.10 210.98 265.81 202.88 266.23 C 198.63 266.24 194.85 268.55 191.80 271.32 C 189.84 265.27 188.59 258.97 185.94 253.16 C 184.42 248.97 184.88 244.31 186.48 240.22 C 186.28 239.65 185.86 238.50 185.66 237.93 C 185.39 233.55 185.45 229.13 184.74 224.79 C 184.54 234.51 183.67 244.22 183.95 253.94 C 186.69 265.26 190.73 276.27 192.56 287.81 C 193.82 294.29 193.93 300.91 194.82 307.45 C 196.44 315.93 198.18 324.43 198.98 333.04 C 198.94 338.01 193.26 340.36 189.00 340.22 C 184.88 340.07 182.04 336.42 181.12 332.71 C 179.55 327.24 180.24 321.45 179.05 315.92 C 177.23 307.41 177.45 298.61 175.49 290.12 C 173.50 281.17 171.08 272.31 168.96 263.39 C 167.20 263.65 164.21 263.06 163.80 265.46 C 162.19 273.83 159.48 281.92 157.59 290.21 C 155.22 302.75 154.86 315.59 152.15 328.08 C 151.42 331.60 151.61 335.46 149.76 338.64 C 147.57 340.97 143.91 340.32 141.09 339.89 C 136.66 339.05 134.40 334.05 135.31 329.90 C 137.26 318.45 138.00 306.82 140.22 295.40 C 142.05 282.59 145.67 270.15 148.87 257.65 C 149.20 248.26 148.88 238.86 149.02 229.46 C 155.69 228.72 162.37 230.01 169.03 229.31 C 172.53 228.99 176.19 226.78 176.68 223.03 C 177.19 218.62 175.04 212.77 169.96 212.32 C 163.16 212.14 156.35 212.31 149.55 212.25 C 146.62 208.07 140.69 207.82 136.83 204.65 C 137.10 200.83 139.51 197.64 140.32 193.95 C 141.35 190.59 142.19 186.07 146.17 185.09 C 156.44 184.86 166.72 185.09 177.00 184.98 C 178.61 185.11 180.64 184.62 181.84 186.01 C 187.47 192.18 189.57 200.46 193.30 207.73 C 196.65 212.84 197.49 219.00 198.68 224.87 C 200.08 232.87 201.25 240.92 201.94 249.01 C 202.11 252.78 198.83 256.09 195.08 256.24 C 191.57 256.93 188.56 253.98 187.65 250.83 C 186.87 247.96 186.73 244.94 186.91 241.99 C 184.56 245.58 185.82 250.08 186.98 253.88 C 187.79 257.13 191.09 259.07 194.11 259.92 C 197.28 259.76 200.47 258.85 203.18 257.19 C 205.43 252.42 205.64 246.91 205.05 241.74 C 252.02 241.75 299.00 241.76 345.97 241.74 C 340.27 225.16 334.60 208.58 328.90 192.00 C 287.60 192.00 246.29 192.00 204.99 192.00 C 203.17 196.97 201.53 201.99 199.81 206.99 C 198.72 204.01 197.13 201.26 195.52 198.54 C 193.21 193.93 191.49 189.05 189.14 184.46 C 190.34 182.24 191.15 179.76 192.75 177.77 M 325.50 266.66 C 321.04 267.78 317.02 270.81 315.00 274.98 C 310.08 284.80 317.86 298.71 329.08 298.77 C 338.04 298.16 346.50 290.08 346.00 280.82 C 344.88 271.45 334.71 264.26 325.50 266.66 Z" />
<path fill="#ffffff" opacity="1.00" d=" M 135.73 206.52 C 139.73 208.43 143.73 210.53 148.21 211.04 C 148.15 212.47 147.49 213.69 146.11 214.23 C 141.30 217.07 136.02 218.96 130.79 220.85 C 131.98 215.92 133.99 211.26 135.73 206.52 Z" />
<path fill="#ffffff" opacity="1.00" d=" M 149.27 213.74 C 151.17 213.74 153.07 213.75 154.97 213.78 C 152.77 218.33 150.64 222.98 147.59 227.05 C 143.88 225.79 142.19 221.97 140.45 218.79 C 143.55 217.39 146.49 215.70 149.27 213.74 Z" />
<path fill="#ffffff" opacity="1.00" d=" M 155.85 213.88 C 160.77 214.06 165.69 214.19 170.61 214.52 C 168.62 218.41 166.74 222.36 164.99 226.36 C 161.06 224.71 157.67 222.09 154.35 219.46 C 154.81 217.59 155.34 215.74 155.85 213.88 Z" />
<path fill="#ffffff" opacity="1.00" d=" M 168.92 220.92 C 169.38 218.68 170.73 216.77 171.72 214.76 C 173.29 215.98 174.61 217.47 174.94 219.51 L 175.74 219.43 C 174.79 221.40 174.32 223.54 174.03 225.70 C 172.24 224.22 170.08 223.00 168.92 220.92 Z" />
<path fill="#ffffff" opacity="1.00" d=" M 130.70 222.38 C 133.32 221.19 135.86 219.49 138.80 219.26 C 141.64 221.45 143.33 224.71 145.78 227.28 C 141.91 226.90 137.88 227.86 134.13 226.66 C 132.17 226.06 131.47 224.05 130.70 222.38 Z" />
<path fill="#ffffff" opacity="1.00" d=" M 152.68 221.04 C 157.13 221.33 159.81 225.58 163.58 227.53 C 158.86 227.45 154.15 227.57 149.44 227.43 C 150.75 225.42 152.03 223.37 152.68 221.04 Z" />
<path fill="#ffffff" opacity="1.00" d=" M 164.79 273.86 C 164.64 271.15 165.59 268.65 167.27 266.56 C 169.36 275.27 170.90 284.10 172.47 292.92 C 173.88 300.40 173.11 308.10 174.68 315.55 C 176.37 323.37 175.70 331.87 179.77 339.03 C 181.34 342.02 184.41 344.16 187.84 344.24 C 191.59 343.93 195.16 342.63 198.59 341.13 C 198.23 345.16 198.16 349.87 194.94 352.84 C 191.43 355.96 186.42 355.96 182.00 356.02 C 176.90 355.98 171.25 356.14 166.87 353.11 C 165.17 352.05 164.62 349.90 164.74 348.02 C 164.79 323.30 164.69 298.58 164.79 273.86 Z" />
</g>
<g id="#fdfdfdfd">
<path fill="#fdfdfd" opacity="1.00" d=" M 168.30 222.08 C 169.70 223.69 171.13 225.28 172.52 226.90 C 170.12 227.16 167.71 227.27 165.31 227.34 C 166.31 225.59 167.30 223.83 168.30 222.08 Z" />
</g>
</svg>
