<?xml version="1.0" encoding="UTF-8" ?>
<!DOCTYPE svg PUBLIC "-//W3C//DTD SVG 1.1//EN" "http://www.w3.org/Graphics/SVG/1.1/DTD/svg11.dtd">
<svg width="512pt" height="512pt" viewBox="0 0 512 512" version="1.1" xmlns="http://www.w3.org/2000/svg">
<g id="#dbdbeaff">
<path fill="#dbdbea" opacity="1.00" d=" M 144.07 104.15 C 164.94 93.79 189.28 91.70 211.99 96.01 C 233.91 100.22 254.43 112.21 268.03 130.02 C 281.61 147.48 288.19 169.84 287.68 191.84 C 287.15 200.68 285.80 209.46 285.71 218.32 C 329.89 264.28 373.82 310.49 417.93 356.52 C 418.09 377.01 417.96 397.51 418.00 418.00 C 396.92 418.00 375.83 418.00 354.75 418.00 C 354.75 401.75 354.76 385.50 354.75 369.25 C 338.42 369.24 322.09 369.25 305.75 369.25 C 305.75 352.91 305.76 336.58 305.75 320.25 C 288.79 320.25 271.84 320.25 254.89 320.25 C 246.82 312.29 239.45 303.66 231.62 295.46 C 228.07 291.67 224.53 287.80 220.36 284.67 C 218.87 283.25 216.75 283.77 214.94 283.90 C 206.95 284.94 199.10 286.91 191.08 287.65 C 169.34 288.11 147.12 281.74 129.94 268.15 C 110.59 253.18 98.43 230.06 95.05 206.00 C 92.37 186.30 94.29 165.66 102.43 147.38 C 110.64 128.65 125.71 113.11 144.07 104.15 M 167.41 143.69 C 159.95 145.12 153.01 149.36 148.54 155.52 C 143.36 162.78 141.73 172.45 144.12 181.03 C 147.59 194.00 159.02 205.71 173.01 205.96 C 191.73 205.43 209.59 186.67 205.22 167.55 C 201.74 151.08 183.72 139.97 167.41 143.69 Z" />
</g>
</svg>
