<?xml version="1.0" encoding="UTF-8" ?>
<!DOCTYPE svg PUBLIC "-//W3C//DTD SVG 1.1//EN" "http://www.w3.org/Graphics/SVG/1.1/DTD/svg11.dtd">
<svg width="512pt" height="512pt" viewBox="0 0 512 512" version="1.1" xmlns="http://www.w3.org/2000/svg">
<g id="#dbdbeaff">
<path fill="#dbdbea" opacity="1.00" d=" M 241.58 94.82 C 259.63 92.44 278.66 94.63 294.94 103.13 C 310.38 111.08 322.77 124.60 329.64 140.51 C 337.82 158.94 338.52 180.29 332.60 199.47 C 327.99 214.12 318.93 227.38 306.76 236.78 C 289.34 250.65 266.29 256.90 244.22 254.25 C 226.61 252.48 209.62 244.40 197.57 231.36 C 172.40 204.03 168.03 159.51 188.18 128.14 C 199.90 109.81 220.13 97.68 241.58 94.82 Z" />
<path fill="#dbdbea" opacity="1.00" d=" M 167.94 308.97 C 194.17 300.94 221.73 298.35 249.05 297.99 C 262.70 298.00 276.34 298.01 289.99 297.98 C 295.63 297.85 301.08 299.57 306.56 300.68 C 333.61 307.16 360.49 315.54 385.06 328.78 C 396.16 335.09 407.46 342.42 414.26 353.55 C 416.39 357.31 418.04 361.52 418.01 365.90 C 417.99 383.27 418.00 400.63 418.00 418.00 C 310.00 418.00 202.00 418.00 94.00 418.00 C 94.08 400.80 93.85 383.58 94.11 366.38 C 100.67 352.70 110.74 340.84 122.66 331.51 C 136.14 321.18 151.76 313.92 167.94 308.97 Z" />
</g>
</svg>
